<?xml version="1.0" encoding="UTF-8"?>
<svg id="Ebene_2" data-name="Ebene 2" xmlns="http://www.w3.org/2000/svg" xmlns:xlink="http://www.w3.org/1999/xlink" viewBox="0 0 119.34 204.99">
  <defs>
    <style>
      .cls-1, .cls-2 {
        fill: none;
      }

      .cls-2 {
        stroke: #1d1d1b;
      }

      .cls-3 {
        fill: #da91b3;
      }

      .cls-4 {
        fill: #fbf7d0;
      }

      .cls-5 {
        fill: #221f1d;
      }

      .cls-6 {
        fill: #1e1e1c;
      }

      .cls-7 {
        clip-path: url(#clippath);
      }
    </style>
    <clipPath id="clippath">
      <rect class="cls-1" x="4.28" y="7" width="73.89" height="49.6" transform="translate(-5.61 9.06) rotate(-11.75)"/>
    </clipPath>
  </defs>
  <g id="Ebene_1-2" data-name="Ebene 1">
    <g>
      <g>
        <path class="cls-4" d="M84.1,162.32s11,1.09,14-19.37c3-20.46.47-54.57.47-63.66,0-9.1,15.47-4.55-6.5-15.92-21.97-11.37-10.72-15.91-42.84-13.64-32.13,2.27-32.13-11.37-33.13-1.14s-.49,67.07-.49,73.89c0,6.82-.63,19.28-.63,29.56s-14.12,11.43-.5,11.43c8.99,0,29.03.5,41.62.83,6.49.17,10.99.31,10.99.31,0,0,3.88-2.36,7.88-2.36,4,0,9.12.08,9.12.08"/>
        <path class="cls-2" d="M84.1,162.32s11,1.09,14-19.37c3-20.46.47-54.57.47-63.66,0-9.1,15.47-4.55-6.5-15.92-21.97-11.37-10.72-15.91-42.84-13.64-32.13,2.27-32.13-11.37-33.13-1.14s-.49,67.07-.49,73.89c0,6.82-.63,19.28-.63,29.56s-14.12,11.43-.5,11.43c8.99,0,29.03.5,41.62.83,6.49.17,10.99.31,10.99.31,0,0,3.88-2.36,7.88-2.36,4,0,9.12.08,9.12.08Z"/>
        <path class="cls-4" d="M75.53,180.22v15s11.92,8.6,4.44,7.6c-7.48-1-14.99-5.6-14.99-5.6,0,0-.32,4.6-.32-6.2,0-10.8-.5-15.8-.5-15.8l-.19-10.32,11-1.87.56,17.19Z"/>
        <path class="cls-2" d="M75.53,180.22v15s11.92,8.6,4.44,7.6c-7.48-1-14.99-5.6-14.99-5.6,0,0-.32,4.6-.32-6.2,0-10.8-.5-15.8-.5-15.8l-.19-10.32,11-1.87.56,17.19Z"/>
        <path class="cls-4" d="M45.97,164.54c-1,16-5.53,22-5.53,26,0,4,5.18,2,1.86,7-3.33,5-8.33,9.72-17.33,5-9-4.72-14-9-14-9l7-4s6.63,15,10.82-3c4.18-18,5.18-22,5.18-22h12Z"/>
        <path class="cls-2" d="M45.97,164.54c-1,16-5.53,22-5.53,26,0,4,5.18,2,1.86,7-3.33,5-8.33,9.72-17.33,5-9-4.72-14-9-14-9l7-4s6.63,15,10.82-3c4.18-18,5.18-22,5.18-22h12Z"/>
        <path class="cls-4" d="M67.42,74.71c-2.7-.38-4.42-4.01-3.85-8.11.58-4.1,3.24-7.12,5.94-6.74,2.7.38,4.42,4.01,3.85,8.11-.58,4.1-3.23,7.12-5.94,6.74"/>
        <path class="cls-2" d="M67.42,74.71c-2.7-.38-4.42-4.01-3.85-8.11.58-4.1,3.24-7.12,5.94-6.74,2.7.38,4.42,4.01,3.85,8.11-.58,4.1-3.23,7.12-5.94,6.74Z"/>
        <path class="cls-4" d="M114.21,123.02l-38.57-3.42s-11.01-3.42-11.01-10.25c0-6.83-1.1-13.66-1.1-13.66,0,0,3.3-3.63,7.71-.11,4.4,3.52,7.95,6.94,7.95,6.94l16.27,6.01s-10.07,2.59,4.4,0c14.48-2.59,14.48-5.18,14.48-2.59s-3.14-3.36,1.1,2.59c4.24,5.95.96,5.95.96,5.95l2.31,6.83-4.5,1.71Z"/>
        <path class="cls-2" d="M114.21,123.02l-38.57-3.42s-11.01-3.42-11.01-10.25c0-6.83-1.1-13.66-1.1-13.66,0,0,3.3-3.63,7.71-.11,4.4,3.52,7.95,6.94,7.95,6.94l16.27,6.01s-10.07,2.59,4.4,0c14.48-2.59,14.48-5.18,14.48-2.59s-3.14-3.36,1.1,2.59c4.24,5.95.96,5.95.96,5.95l2.31,6.83-4.5,1.71Z"/>
      </g>
      <g class="cls-7">
        <path class="cls-3" d="M14.73,50.47c-.32.07-.7.44-1.06.7-.7.5-1.33.56-1.4-2.94-.11-5.31-4.21-3.25-2.79-9.72,1.42-6.48,2.64-14.97,5.09-17.54,2.46-2.57,5.17-3.51,9.55-6.79,3.78-2.83,10.57-7,15.63-6.68,5.05.32,9.87-3.42,15.06-2.44,5.19.98,6.3.06,7.94,3.15,1.64,3.09,1.91,3.66,3.45,4.86,8.06,6.27,9.62,20.43,9.92,21.85s.56,3.64.56,3.64"/>
        <path class="cls-6" d="M77.14,38.49l-.94.15s-.26-2.23-.55-3.62c-.03-.13-.06-.36-.12-.69-1.12-7.01-3.71-16.35-9.7-21.01-1.54-1.2-1.86-1.79-3.37-4.66l-.16-.3c-1.12-2.12-1.85-2.2-4.27-2.48-.89-.1-2-.23-3.41-.5-2.65-.5-5.18.29-7.85,1.13-2.3.72-4.68,1.47-7.13,1.31-5.52-.35-13.04,4.93-15.21,6.56-1.86,1.39-3.42,2.37-4.79,3.22-1.86,1.16-3.32,2.07-4.7,3.52-1.89,1.98-3.1,8.02-4.17,13.35-.28,1.41-.55,2.75-.83,4.03-.76,3.46.08,4.34,1.04,5.37.8.85,1.71,1.82,1.76,4.29.05,2.22.33,2.75.45,2.88.04-.02.09-.05.17-.11.09-.07.19-.14.28-.22.31-.25.63-.51,1.02-.59l.14.66c-.1.03-.35.23-.5.35-.11.09-.22.17-.32.25-.16.11-.64.46-1.16.34-.59-.13-.97-.76-1.02-3.46-.05-2.28-.84-3.13-1.61-3.95-1.02-1.09-1.98-2.12-1.17-5.83.28-1.28.55-2.61.83-4.02,1.14-5.68,2.31-11.55,4.36-13.68,1.46-1.53,2.98-2.48,4.9-3.68,1.35-.85,2.89-1.8,4.71-3.17,2.26-1.69,10.08-7.18,16.04-6.8,2.21.14,4.37-.54,6.66-1.26,2.71-.85,5.52-1.73,8.47-1.18,1.36.26,2.45.38,3.33.48,2.47.29,3.6.42,4.88,2.84l.16.3c1.51,2.84,1.78,3.35,3.21,4.47,4.93,3.83,8.26,11.01,9.91,21.35.05.31.09.54.11.67.29,1.41.56,3.64.56,3.67Z"/>
        <path class="cls-5" d="M45.85,52.31c-.31-.36-.04-.44.46-.78.7-.48,1.33-.88,2.22-.63.23.06.88.13.68-.02-1.09-.85-2.87-2.92-3.11-2.94-.19-.02-.13.2-.15.66-.02.57-.74,1.08-1.2,1.53-.82.8-2.79,2.15-3.21,2.71,0,0,1.34,1.13,1.62.93.28-.19,1.42-1.19,1.58-1,.19.23,1.08,1.22,1.47,1.75.03.04.1.05.16.03.29-.11.58-.22.88-.32.12-.04.17-.14.12-.22-.31-.44-1.15-1.26-1.52-1.7"/>
        <path class="cls-3" d="M9.44,48.37c-3.42,2.25-.63,1.66.13,5.32s.9,6.69.9,6.69c0,0-.38,3.23,13.83-1.35,8.11-2.61-10.18,2.5,16.86-3.12,27.04-5.62,17.68-3.89,25.29-4.71,7.61-.82,8.39-1.75,8.39-1.75,0,0,6.71-.71,6.26-2.62.42,1.81-1.01-7.2-1.74-10.72-.46-2.2-3.71-1.47-8.34-.33-4.63,1.13-8.41,1.68-11.2,2.26-2.8.58-22.41,4.51-25.04,5.9-2.63,1.39-9.45,1.35-10.39,1.47-.95.12-11.54.7-14.96,2.95"/>
        <path class="cls-6" d="M72.08,50.71c-1.29.27-3.09.55-5.63.83-1.74.19-2.59.24-3.21.28q-1.4.09-8.47,1.58c-3.02.64-7.32,1.54-13.55,2.84-11.78,2.45-14.87,2.88-15.72,2.76-.3.1-.66.21-1.07.35-7.17,2.31-11.76,3.02-13.64,2.1-.77-.37-.8-.89-.79-1.02-.01-.22-.18-3.16-.9-6.64-.28-1.36-.85-2.1-1.27-2.65-.81-1.06-.9-1.56,1.31-3.01h0c3.11-2.05,11.64-2.75,14.44-2.98.39-.03.66-.05.78-.07.22-.03.64-.05,1.27-.07,2.25-.09,6.94-.29,8.91-1.33,1.66-.87,9.52-2.74,24.03-5.72l1.18-.24c.94-.19,2-.39,3.12-.59,2.34-.43,4.99-.91,8.06-1.66,3.7-.91,6.24-1.46,7.72-.85.64.26,1.04.74,1.18,1.41.35,1.69.85,4.56,1.2,6.68.54,3.32.69,4.24.54,4.53-.06.23-.2.44-.41.65-1.3,1.25-5.15,1.77-6.12,1.89-.34.22-1.12.56-2.94.94ZM58.52,51.92c3.36-.7,3.63-.72,4.78-.79.61-.04,1.44-.09,3.15-.28,6.92-.75,8-1.56,8.04-1.59l.14-.16h.22c1.23-.12,4.63-.66,5.59-1.59.19-.19.26-.37.21-.58h.06c-.12-1.21-1.21-7.87-1.8-10.72-.1-.49-.36-.82-.79-.99-1.26-.52-4.04.17-6.99.89-3.11.76-5.78,1.25-8.14,1.68-1.11.2-2.17.4-3.09.59l-1.18.24c-14.19,2.91-22.16,4.79-23.69,5.6-2.23,1.17-6.93,1.37-9.46,1.48-.53.02-.99.04-1.16.06-.13.02-.42.04-.84.08-7.3.6-11.96,1.54-13.85,2.78h0c-1.78,1.18-1.67,1.32-1.05,2.13.42.55,1.06,1.38,1.36,2.85.76,3.64.91,6.7.91,6.73v.04s0,.29.48.51c.94.43,3.84.71,12.74-2.16.53-.17.93-.3,1.23-.41.24-.16.61-.29.96-.38.52-.14.66.09.69.17.02.05.03.1.03.14,1.63-.22,5.38-.86,14.02-2.66,6.23-1.3,10.53-2.2,13.55-2.84,1.63-.34,2.89-.61,3.87-.81Z"/>
        <path class="cls-3" d="M58.54,13.23c-1.06.53-2.27.81-3.27,1.37-1.32.74-2.31,1.52-3.76,2.21"/>
        <path class="cls-6" d="M51.73,17.09l-.44-.56c.83-.4,1.5-.83,2.21-1.28.47-.3.96-.61,1.51-.92.58-.32,1.21-.55,1.82-.78.52-.19,1.01-.37,1.47-.6l.46.55c-.52.26-1.07.46-1.6.66-.59.22-1.15.42-1.64.7-.51.29-.99.59-1.45.88-.71.45-1.44.92-2.34,1.35Z"/>
        <path class="cls-5" d="M38.2,50.56c-.31-.36-.04-.44.46-.78.7-.48,1.33-.88,2.22-.63.23.06.88.13.68-.02-1.09-.85-2.87-2.92-3.11-2.94-.19-.02-.13.2-.15.66-.02.57-.74,1.08-1.2,1.53-.82.8-2.79,2.15-3.21,2.71,0,0,1.34,1.13,1.62.93.28-.19,1.42-1.19,1.58-1,.19.23,1.08,1.22,1.47,1.75.03.04.1.05.16.03.29-.11.58-.22.88-.32.12-.04.17-.14.12-.22-.31-.44-1.15-1.26-1.52-1.7"/>
      </g>
    </g>
  </g>
</svg>