<?xml version="1.0" encoding="UTF-8"?>
<svg id="Ebene_2" xmlns="http://www.w3.org/2000/svg" xmlns:xlink="http://www.w3.org/1999/xlink" version="1.1" viewBox="0 0 125.3 214.6">
  <!-- Generator: Adobe Illustrator 30.0.0, SVG Export Plug-In . SVG Version: 2.1.1 Build 123)  -->
  <defs>
    <style>
      .st0, .st1, .st2 {
        fill: none;
      }

      .st1, .st3, .st2, .st4 {
        stroke: #1d1d1b;
      }

      .st5 {
        fill: #da91b3;
      }

      .st3, .st6, .st4, .st7 {
        fill: #fbf7d0;
      }

      .st3, .st2 {
        stroke-width: .8px;
      }

      .st3, .st4, .st7 {
        stroke-miterlimit: 10;
      }

      .st8 {
        fill: #221f1d;
      }

      .st9 {
        fill: #1e1e1c;
      }

      .st7 {
        stroke: #000;
      }

      .st10 {
        display: none;
      }

      .st11 {
        clip-path: url(#clippath);
      }
    </style>
    <clipPath id="clippath">
      <rect class="st0" x="56.2" y="-6.1" width="49.6" height="73.9" transform="translate(34.3 103.9) rotate(-78.3)"/>
    </clipPath>
  </defs>
  <g id="Ebene_1-2">
    <g>
      <path class="st6" d="M51.5,71.4c2.7-.4,4.4-4,3.8-8.1-.6-4.1-3.2-7.1-5.9-6.7-2.7.4-4.4,4-3.8,8.1.6,4.1,3.2,7.1,5.9,6.7"/>
      <path class="st6" d="M92.6,84.4l-23.7,2.7s-6.8,2.7-6.8,8.1-.7,10.8-.7,10.8c0,0,2,2.9,4.7,0,2.7-2.8,4.9-5.5,4.9-5.5l10-4.8s-6.2-2.1,2.7,0,8.9,4.1,8.9,2.1-1.9,2.7.7-2.1c2.6-4.7.6-4.7.6-4.7l1.4-5.4-2.8-1.4h0v.2Z"/>
      <path class="st7" d="M34.9,159s-11,1.1-14-19.4-.5-54.6-.5-63.7-15.5-4.5,6.5-15.9c22-11.4,10.7-15.9,42.8-13.6s32.1-11.4,33.1-1.1c1,10.2.5,67.1.5,73.9s.6,19.3.6,29.6,14.1,11.4.5,11.4-29,.5-41.6.8c-6.5.2-11,.3-11,.3,0,0-3.9-2.4-7.9-2.4h-9.1"/>
      <path class="st0" d="M34.9,159s-11,1.1-14-19.4-.5-54.6-.5-63.7-15.5-4.5,6.5-15.9c22-11.4,10.7-15.9,42.8-13.6s32.1-11.4,33.1-1.1c1,10.2.5,67.1.5,73.9s.6,19.3.6,29.6,14.1,11.4.5,11.4-29,.5-41.6.8c-6.5.2-11,.3-11,.3,0,0-3.9-2.4-7.9-2.4h-9.1,0Z"/>
      <path class="st6" d="M43.4,176.9v15s-11.9,8.6-4.4,7.6c7.5-1,15-5.6,15-5.6,0,0,.3,4.6.3-6.2s.5-15.8.5-15.8l.2-10.3-11-1.9-.6,17.2Z"/>
      <path class="st1" d="M43.4,176.9v15s-11.9,8.6-4.4,7.6c7.5-1,15-5.6,15-5.6,0,0,.3,4.6.3-6.2s.5-15.8.5-15.8l.2-10.3-11-1.9-.6,17.2Z"/>
      <path class="st6" d="M73,161.2c1,15.4,5.5,21.1,5.5,25s-5.2,1.9-1.9,6.7c3.3,4.8,8.3,9.3,17.3,4.8s14-8.6,14-8.6l-7-3.8s-6.6,14.4-10.8-2.9c-4.2-17.3-5.2-21.1-5.2-21.1h-11.9Z"/>
      <path class="st1" d="M73,161.2c1,15.4,5.5,21.1,5.5,25s-5.2,1.9-1.9,6.7c3.3,4.8,8.3,9.3,17.3,4.8s14-8.6,14-8.6l-7-3.8s-6.6,14.4-10.8-2.9c-4.2-17.3-5.2-21.1-5.2-21.1h-11.9Z"/>
      <path class="st1" d="M51.5,71.4c2.7-.4,4.4-4,3.8-8.1-.6-4.1-3.2-7.1-5.9-6.7-2.7.4-4.4,4-3.8,8.1.6,4.1,3.2,7.1,5.9,6.7Z"/>
      <path class="st1" d="M92.6,84.4l-23.7,2.7s-6.8,2.7-6.8,8.1-.7,10.8-.7,10.8c0,0,2,2.9,4.7,0,2.7-2.8,4.9-5.5,4.9-5.5l10-4.8s-6.2-2.1,2.7,0,8.9,4.1,8.9,2.1-1.9,2.7.7-2.1c2.6-4.7.6-4.7.6-4.7l1.4-5.4-2.8-1.4h0v.2Z"/>
    </g>
    <g>
      <path class="st4" d="M17.9,198.1c.5.1,2.9,2.3,7.2,2.2l79-.3c1.8,0,3.9-1.1,5.3-1.8l10.7-4.7c.5-.2,1.9-.7,3.5-.6,1.4,0,1.7,2,.5,2.6-.5.2-2,.9-2.6,1.1l-11.5,5.7c-.8.3-3.7,1.1-4.6,1.1l-10.3-.4-10.6-.2-41.2-.2h-1.1l-7.4.4-1.5.3h-4.3c-5.5,0-8.6-1.1-11.8-2.4l-7.8-3.1c-4.9-2.3-7.8-4-7.8-4-1.1-.8-1.2-1.4-.6-2.6.5-1,1.9-.8,3.8.3,2.7,1.6,5,2.7,7.8,4.1l5.3,2.3h0v.2Z"/>
      <path class="st6" d="M99.5,214.2c2.7-.2,4.4-2.7,3.8-5.4-.6-2.8-3.2-4.8-5.9-4.5-2.7.2-3.8,2.6-3.8,5.4s3.2,4.8,5.9,4.5"/>
      <path class="st2" d="M99.5,214.1c2.7-.2,4.4-2.7,3.8-5.4s-3.2-4.7-5.9-4.5c-2.7.2-4.7,2.7-3.8,5.4s3.4,4.5,5.9,4.5Z"/>
      <path class="st6" d="M34.1,214.4c2.7-.3,2.6-2.9,2.1-5.9-.6-3-1.5-5.1-4.1-4.9-2.7.3-6.2,2.9-5.6,5.9.6,3,5,5.1,7.6,4.9"/>
      <path class="st2" d="M34,213.7c2.7-.2,2.6-2.6,2-5.4-.6-2.7-1.4-4.7-4.1-4.4s-6.2,2.6-5.6,5.4c.6,2.7,5,4.7,7.7,4.4h0Z"/>
      <ellipse class="st3" cx="99.2" cy="209.3" rx=".9" ry="1.2"/>
      <circle class="st3" cx="31.8" cy="208.7" r="1.1"/>
    </g>
  </g>
  <g class="st10">
    <path d="M39.4,145.2c-1.1,0-1.9-.2-2.5-.6s-1.1-.9-1.3-1.7c-.2-.7-.3-1.5,0-2.5,0-.5.2-1.1.3-1.7s.3-1.1.4-1.7c.2-1,.6-1.8,1.2-2.5.5-.7,1.2-1.2,2-1.6s1.7-.6,2.8-.6,1.5,0,2.1.4c.6.2,1,.5,1.3.9s.5.7.6,1.1,0,.7,0,1,0,.2-.2.3c0,0-.2,0-.3,0h-1c0,0-.2,0-.2,0,0,0,0,0,0-.2,0-.3,0-.6-.3-.9s-.5-.5-.8-.7c-.4-.2-.9-.3-1.5-.3-.9,0-1.7.3-2.4.8s-1.2,1.3-1.5,2.5c0,.5-.2,1-.4,1.6,0,.5-.2,1.1-.3,1.6-.2,1.2,0,2,.4,2.5s1.2.8,2.1.8,1.2,0,1.7-.4,1-.6,1.4-1.1.7-1.1.8-1.8l.2-.7h-2.7c0,0-.2,0-.3,0s0-.2,0-.3v-.6c0,0,.2-.2.3-.3,0,0,.2,0,.3,0h4c0,0,.2,0,.3,0s0,.2,0,.3l-.4,1.7c-.2,1-.6,1.8-1.1,2.5-.6.7-1.3,1.3-2.1,1.7-.7.4-1.6.6-2.7.6Z"/>
    <path d="M47.2,145c0,0-.2,0-.3,0s0-.2,0-.3l2.5-11.6c0,0,0-.2.2-.3,0,0,.2,0,.3,0h7.3c0,0,.2,0,.3,0s0,.2,0,.3v.7c0,0-.2.2-.3.3,0,0-.2,0-.3,0h-6l-.8,3.9h5.6c0,0,.2,0,.3,0s0,.2,0,.3l-.2.6c0,0,0,.2-.2.3,0,0-.2,0-.3,0h-5.6l-.9,4h6.2c0,0,.2,0,.3,0s0,.2,0,.3l-.2.7c0,0,0,.2-.2.3,0,0-.2,0-.3,0h-7.5Z"/>
    <path d="M60.6,145c0,0-.2,0-.3,0s0-.2,0-.3l2.2-10.4h-3.4c0,0-.2,0-.3,0s0-.2,0-.3l.2-.7c0,0,0-.2.2-.3,0,0,.2,0,.3,0h8.7c0,0,.2,0,.3,0,0,0,0,.2,0,.3l-.2.7c0,0,0,.2-.2.3,0,0-.2,0-.3,0h-3.4l-2.2,10.4c0,0,0,.2-.2.3,0,0-.2,0-.3,0h-.9Z"/>
    <path d="M71.8,145.2c0,0-.2,0-.3,0,0,0,0-.2,0-.3l2.5-11.6c0,0,0-.2.2-.3,0,0,.2,0,.3,0h1c0,0,.2,0,.3,0,0,0,0,.2,0,.3l-2.5,11.6c0,0,0,.2-.2.3,0,0-.2,0-.3,0h-1Z"/>
    <path d="M76.7,145.2c0,0-.2,0-.3,0,0,0,0-.2,0-.3l2.5-11.6c0,0,0-.2.2-.3,0,0,.2,0,.3,0h.8c0,0,.2,0,.3,0q0,0,0,.2l4,9.2,1.9-9c0,0,0-.2.2-.3,0,0,.2,0,.3,0h.9c0,0,.2,0,.3,0,0,0,0,.2,0,.3l-2.5,11.6c0,0,0,.2-.2.3,0,0-.2,0-.3,0h-.8c0,0-.2,0-.3,0q0,0,0-.2l-4-9.1-1.9,8.9c0,0,0,.2-.2.3,0,0-.2,0-.3,0h-.8Z"/>
  </g>
  <g class="st11">
    <g>
      <path class="st5" d="M45.5,37.6s.3-2.2.6-3.6,1.9-15.6,9.9-21.9c1.5-1.2,1.8-1.8,3.4-4.9,1.6-3.1,2.8-2.2,7.9-3.1,5.2-1,10,2.8,15.1,2.4,5.1-.3,11.8,3.8,15.6,6.7,4.4,3.3,7.1,4.2,9.6,6.8,2.4,2.6,3.7,11.1,5.1,17.5,1.4,6.5-2.7,4.4-2.8,9.7,0,3.5-.7,3.4-1.4,2.9-.4-.3-.7-.6-1.1-.7"/>
      <path class="st9" d="M45.1,37.6s.3-2.3.6-3.7c0-.1,0-.4.1-.7,1.6-10.3,5-17.5,9.9-21.4,1.4-1.1,1.7-1.6,3.2-4.5l.2-.3c1.3-2.4,2.4-2.6,4.9-2.8.9,0,2-.2,3.3-.5,3-.6,5.8.3,8.5,1.2,2.3.7,4.5,1.4,6.7,1.3,6-.4,13.8,5.1,16,6.8,1.8,1.4,3.4,2.3,4.7,3.2,1.9,1.2,3.4,2.1,4.9,3.7,2,2.1,3.2,8,4.4,13.7.3,1.4.6,2.7.8,4,.8,3.7-.2,4.7-1.2,5.8-.8.8-1.6,1.7-1.6,4,0,2.7-.4,3.3-1,3.5-.5.1-1-.2-1.2-.3,0,0-.2-.2-.3-.3-.1-.1-.4-.3-.5-.3v-.7c.5,0,.9.3,1.2.6,0,0,.2.2.3.2,0,0,.1,0,.2.1.1-.1.4-.7.4-2.9,0-2.5,1-3.4,1.8-4.3,1-1,1.8-1.9,1-5.4-.3-1.3-.6-2.6-.8-4-1.1-5.3-2.3-11.4-4.2-13.4-1.4-1.5-2.8-2.4-4.7-3.5-1.4-.9-2.9-1.8-4.8-3.2-2.2-1.6-9.7-6.9-15.2-6.6-2.5.2-4.8-.6-7.1-1.3-2.7-.8-5.2-1.6-7.8-1.1-1.4.3-2.5.4-3.4.5-2.4.3-3.2.4-4.3,2.5l-.2.3c-1.5,2.9-1.8,3.5-3.4,4.7-6,4.7-8.6,14-9.7,21,0,.3,0,.6-.1.7-.3,1.4-.6,3.6-.6,3.6l-.9-.2h0Z"/>
      <path class="st8" d="M76.4,51.4c-.4.4-1.2,1.3-1.5,1.7,0,0,0,.2.1.2.3,0,.6.2.9.3,0,0,.1,0,.2,0,.4-.5,1.3-1.5,1.5-1.7.2-.2,1.3.8,1.6,1,.3.2,1.6-.9,1.6-.9-.4-.6-2.4-1.9-3.2-2.7-.5-.4-1.2-1-1.2-1.5,0-.5,0-.7-.2-.7-.2,0-2,2.1-3.1,2.9-.2.2.5,0,.7,0,.9-.2,1.5.2,2.2.6.5.3.8.4.5.8"/>
      <path class="st5" d="M112.8,47.4c-3.4-2.3-14-2.8-15-3-.9-.1-7.8,0-10.4-1.5-2.6-1.4-22.2-5.3-25-5.9-2.8-.6-6.6-1.1-11.2-2.3-4.6-1.1-7.9-1.9-8.3.3-.7,3.5-2.2,12.5-1.7,10.7-.4,1.9,6.3,2.6,6.3,2.6,0,0,.8.9,8.4,1.8,7.6.8-1.7-.9,25.3,4.7,27,5.6,8.7.5,16.9,3.1,14.2,4.6,13.8,1.3,13.8,1.3,0,0,.1-3,.9-6.7s3.6-3.1.1-5.3"/>
      <path class="st9" d="M50.1,49.8c-1.8-.4-2.6-.7-2.9-.9-1-.1-4.8-.6-6.1-1.9-.2-.2-.4-.4-.4-.7-.2-.3,0-1.2.5-4.5.3-2.1.8-5,1.2-6.7.1-.7.5-1.2,1.2-1.4,1.5-.6,4,0,7.7.8,3.1.8,5.7,1.2,8.1,1.7,1.1.2,2.2.4,3.1.6l1.2.2c14.5,3,22.4,4.9,24,5.7,2,1,6.7,1.2,8.9,1.3.6,0,1.1,0,1.3,0,.1,0,.4,0,.8,0,2.8.2,11.3.9,14.4,3h0c2.2,1.4,2.1,1.9,1.3,3-.4.6-1,1.3-1.3,2.7-.7,3.5-.9,6.4-.9,6.6,0,.1,0,.7-.8,1-1.9.9-6.5.2-13.6-2.1-.4-.1-.8-.3-1.1-.3-.9.1-3.9-.3-15.7-2.8-6.2-1.3-10.5-2.2-13.5-2.8-4.7-1-7.5-1.5-8.5-1.6-.6,0-1.5,0-3.2-.3-2.5-.3-4.3-.6-5.6-.8h0ZM63.7,51c1,.2,2.2.5,3.9.8,3,.6,7.3,1.5,13.5,2.8,8.6,1.8,12.4,2.4,14,2.7,0,0,0,0,0-.1,0,0,.2-.3.7-.2.3,0,.7.2,1,.4.3.1.7.2,1.2.4,8.9,2.9,11.8,2.6,12.7,2.2.5-.2.5-.5.5-.5h0c0,0,.1-3.1.9-6.8.3-1.5.9-2.3,1.4-2.8.6-.8.7-1-1.1-2.1h0c-1.9-1.2-6.6-2.2-13.9-2.8-.4,0-.7,0-.8,0-.2,0-.6,0-1.2,0-2.5-.1-7.2-.3-9.5-1.5-1.5-.8-9.5-2.7-23.7-5.6l-1.2-.2c-.9-.2-2-.4-3.1-.6-2.4-.4-5-.9-8.1-1.7-2.9-.7-5.7-1.4-7-.9-.4.2-.7.5-.8,1-.6,2.9-1.7,9.5-1.8,10.7h0c0,.2,0,.4.2.6,1,.9,4.4,1.5,5.6,1.6h.2v.2c.2,0,1.3.8,8.2,1.6,1.7.2,2.5.2,3.1.3,1.1,0,1.4,0,4.8.8h0Z"/>
      <path class="st5" d="M70.7,15.9c-1.4-.7-2.4-1.5-3.8-2.2-1-.6-2.2-.8-3.3-1.4"/>
      <path class="st9" d="M68.2,14.8c-.5-.3-.9-.6-1.5-.9-.5-.3-1-.5-1.6-.7-.5-.2-1.1-.4-1.6-.7l.5-.6c.5.2,1,.4,1.5.6.6.2,1.2.5,1.8.8.5.3,1,.6,1.5.9.7.4,1.4.9,2.2,1.3l-.4.6c-.9-.4-1.6-.9-2.3-1.3Z"/>
      <path class="st8" d="M84,49.6c-.4.4-1.2,1.3-1.5,1.7,0,0,0,.2.1.2.3,0,.6.2.9.3,0,0,.1,0,.2,0,.4-.5,1.3-1.5,1.5-1.7.2-.2,1.3.8,1.6,1,.3.2,1.6-.9,1.6-.9-.4-.6-2.4-1.9-3.2-2.7-.5-.4-1.2-1-1.2-1.5,0-.5,0-.7-.2-.7-.2,0-2,2.1-3.1,2.9-.2.2.5,0,.7,0,.9-.2,1.5.2,2.2.6.5.3.8.4.5.8"/>
    </g>
  </g>
</svg>