<?xml version="1.0" encoding="UTF-8"?>
<svg id="Ebene_2" data-name="Ebene 2" xmlns="http://www.w3.org/2000/svg" xmlns:xlink="http://www.w3.org/1999/xlink" viewBox="0 0 166.99 195.92">
  <defs>
    <style>
      .cls-1, .cls-2 {
        fill: none;
      }

      .cls-3 {
        fill: #da91b3;
      }

      .cls-2 {
        stroke-width: 1.13px;
      }

      .cls-2, .cls-4 {
        stroke: #1d1d1b;
      }

      .cls-5, .cls-4 {
        fill: #fbf7d0;
      }

      .cls-4 {
        stroke-miterlimit: 10;
        stroke-width: 1.42px;
      }

      .cls-6 {
        fill: #221f1d;
      }

      .cls-7 {
        fill: #1e1e1c;
      }

      .cls-8 {
        clip-path: url(#clippath);
      }
    </style>
    <clipPath id="clippath">
      <rect class="cls-1" x="4.82" y="7.89" width="83.26" height="55.89" transform="translate(-6.32 10.21) rotate(-11.75)"/>
    </clipPath>
  </defs>
  <g id="Ebene_2-2" data-name="Ebene 2">
    <g>
      <g>
        <path class="cls-4" d="M129.53,170.36l22.12,10.82s19.16-7.03,13.62.55c-5.54,7.58-16.4,12.6-16.4,12.6,0,0,6.61,3.67-9.32-4.12-15.92-7.79-23.57-10.84-23.57-10.84l-15.32-7.23,3.22-13.56,25.65,11.78Z"/>
        <path class="cls-5" d="M98.44,180.56s12.4,1.23,15.78-21.83c3.38-23.06.53-61.49.53-71.74,0-10.25,17.44-5.12-7.33-17.93-24.76-12.81-12.08-17.93-48.28-15.37-36.21,2.56-36.21-12.81-37.33-1.28-1.13,11.53-.55,75.58-.55,83.27,0,7.69-.71,21.72-.71,33.31,0,11.58-15.91,12.88-.56,12.88,10.13,0,32.72.56,46.91.94,7.31.19,12.39.34,12.39.34,0,0,4.37-2.66,8.88-2.66,4.51,0,10.28.09,10.28.09"/>
        <path class="cls-2" d="M98.44,180.56s12.4,1.23,15.78-21.83c3.38-23.06.53-61.49.53-71.74,0-10.25,17.44-5.12-7.33-17.93-24.76-12.81-12.08-17.93-48.28-15.37-36.21,2.56-36.21-12.81-37.33-1.28-1.13,11.53-.55,75.58-.55,83.27,0,7.69-.71,21.72-.71,33.31,0,11.58-15.91,12.88-.56,12.88,10.13,0,32.72.56,46.91.94,7.31.19,12.39.34,12.39.34,0,0,4.37-2.66,8.88-2.66,4.51,0,10.28.09,10.28.09Z"/>
        <path class="cls-5" d="M79.65,81.83c-3.04-.43-4.99-4.52-4.34-9.14.65-4.62,3.65-8.02,6.69-7.59,3.04.43,4.99,4.52,4.34,9.14-.65,4.62-3.64,8.02-6.69,7.59"/>
        <path class="cls-2" d="M79.65,81.83c-3.04-.43-4.99-4.52-4.34-9.14.65-4.62,3.65-8.02,6.69-7.59,3.04.43,4.99,4.52,4.34,9.14-.65,4.62-3.64,8.02-6.69,7.59Z"/>
        <path class="cls-5" d="M132.37,136.27l-43.47-3.85s-12.41-3.85-12.41-11.55c0-7.7-1.24-15.4-1.24-15.4,0,0,3.72-4.09,8.69-.12,4.96,3.97,8.96,7.82,8.96,7.82l18.34,6.77s-11.35,2.92,4.96,0c16.32-2.92,16.32-5.84,16.32-2.92,0,2.92-3.53-3.78,1.24,2.92,4.77,6.7,1.09,6.7,1.09,6.7l2.6,7.7-5.07,1.92Z"/>
        <path class="cls-2" d="M132.37,136.27l-43.47-3.85s-12.41-3.85-12.41-11.55c0-7.7-1.24-15.4-1.24-15.4,0,0,3.72-4.09,8.69-.12,4.96,3.97,8.96,7.82,8.96,7.82l18.34,6.77s-11.35,2.92,4.96,0c16.32-2.92,16.32-5.84,16.32-2.92,0,2.92-3.53-3.78,1.24,2.92,4.77,6.7,1.09,6.7,1.09,6.7l2.6,7.7-5.07,1.92Z"/>
      </g>
      <g class="cls-8">
        <path class="cls-3" d="M16.6,56.88c-.37.08-.79.5-1.19.79-.78.57-1.5.64-1.58-3.31-.12-5.98-4.74-3.66-3.15-10.96,1.6-7.3,2.97-16.87,5.74-19.77,2.77-2.9,5.83-3.96,10.76-7.66,4.26-3.19,11.92-7.89,17.61-7.53,5.69.36,11.12-3.86,16.97-2.75,5.85,1.11,7.1.06,8.95,3.55,1.85,3.49,2.15,4.13,3.89,5.48,9.09,7.06,10.85,23.03,11.18,24.63.33,1.6.63,4.11.63,4.11"/>
        <path class="cls-7" d="M86.93,43.37l-1.06.17s-.3-2.51-.62-4.08c-.03-.15-.07-.41-.13-.78-1.26-7.9-4.18-18.43-10.93-23.68-1.74-1.35-2.09-2.02-3.8-5.25l-.18-.34c-1.26-2.38-2.09-2.48-4.81-2.79-1.01-.12-2.26-.26-3.84-.56-2.98-.56-5.83.33-8.85,1.28-2.6.81-5.28,1.66-8.04,1.48-6.22-.4-14.69,5.56-17.14,7.39-2.1,1.57-3.85,2.67-5.4,3.63-2.09,1.31-3.74,2.34-5.3,3.97-2.13,2.24-3.5,9.04-4.7,15.04-.32,1.59-.62,3.09-.94,4.54-.85,3.89.09,4.9,1.17,6.06.9.96,1.92,2.05,1.98,4.83.05,2.5.37,3.1.5,3.24.04-.02.1-.06.2-.13.1-.08.21-.16.32-.25.35-.28.71-.57,1.14-.66l.16.75c-.11.03-.4.26-.57.4-.12.1-.24.2-.36.28-.18.13-.72.52-1.3.39-.67-.15-1.09-.86-1.15-3.9-.05-2.56-.95-3.52-1.82-4.45-1.15-1.23-2.24-2.39-1.32-6.57.32-1.44.62-2.94.93-4.53,1.28-6.4,2.61-13.01,4.91-15.42,1.65-1.73,3.36-2.79,5.52-4.14,1.52-.95,3.25-2.03,5.31-3.57,2.54-1.91,11.36-8.1,18.08-7.67,2.49.16,4.92-.61,7.5-1.41,3.06-.96,6.22-1.95,9.54-1.32,1.54.29,2.76.43,3.75.55,2.79.32,4.06.47,5.5,3.2l.18.34c1.7,3.2,2,3.78,3.62,5.04,5.55,4.32,9.31,12.41,11.17,24.06.06.35.1.61.13.75.33,1.59.63,4.11.63,4.13Z"/>
        <path class="cls-6" d="M51.66,58.95c-.35-.41-.04-.5.52-.88.79-.54,1.5-.99,2.5-.71.25.07.99.15.77-.03-1.23-.96-3.23-3.29-3.5-3.32-.21-.02-.14.22-.16.75-.03.64-.83,1.22-1.35,1.72-.93.9-3.15,2.42-3.62,3.06,0,0,1.51,1.27,1.83,1.05.32-.22,1.6-1.34,1.78-1.13.21.25,1.22,1.38,1.66,1.97.03.04.11.06.18.03.32-.12.65-.25.99-.37.13-.05.19-.16.13-.25-.35-.49-1.29-1.42-1.71-1.91"/>
        <path class="cls-3" d="M10.63,54.5c-3.85,2.54-.71,1.87.15,6,.86,4.13,1.02,7.54,1.02,7.54,0,0-.42,3.64,15.58-1.52,9.14-2.95-11.47,2.82,19-3.52,30.47-6.34,19.92-4.38,28.5-5.3,8.58-.92,9.46-1.97,9.46-1.97,0,0,7.56-.8,7.06-2.95.48,2.04-1.14-8.11-1.96-12.08-.51-2.48-4.18-1.65-9.4-.37-5.22,1.28-9.47,1.89-12.62,2.55-3.15.66-25.25,5.09-28.21,6.65-2.96,1.56-10.65,1.52-11.71,1.66-1.07.14-13,.79-16.85,3.33"/>
        <path class="cls-7" d="M81.23,57.15c-1.45.3-3.49.62-6.34.93-1.96.21-2.91.27-3.61.32q-1.58.1-9.54,1.78c-3.4.72-8.25,1.74-15.27,3.2-13.28,2.76-16.75,3.24-17.71,3.11-.34.11-.74.24-1.21.39-8.08,2.6-13.26,3.4-15.37,2.37-.86-.42-.9-1-.89-1.15-.01-.25-.2-3.56-1.01-7.48-.32-1.53-.96-2.37-1.43-2.98-.91-1.19-1.01-1.75,1.48-3.39h0c3.5-2.31,13.12-3.1,16.28-3.36.44-.04.75-.06.88-.08.25-.03.72-.05,1.43-.08,2.54-.11,7.82-.33,10.04-1.5,1.87-.99,10.73-3.09,27.08-6.44l1.33-.27c1.05-.22,2.25-.44,3.51-.67,2.63-.48,5.62-1.03,9.08-1.87,4.17-1.02,7.03-1.64,8.7-.96.72.3,1.17.83,1.33,1.59.4,1.9.96,5.14,1.35,7.53.61,3.74.78,4.77.61,5.11-.07.25-.23.5-.47.73-1.46,1.41-5.8,2-6.9,2.13-.38.24-1.26.63-3.32,1.06ZM65.94,58.51c3.79-.79,4.09-.81,5.39-.89.69-.04,1.62-.1,3.55-.31,7.8-.84,9.01-1.75,9.06-1.79l.16-.19h.24c1.39-.14,5.22-.75,6.3-1.79.22-.21.3-.42.24-.65h.07c-.14-1.36-1.36-8.87-2.03-12.09-.12-.55-.41-.92-.89-1.12-1.41-.58-4.55.19-7.88,1-3.51.86-6.52,1.41-9.17,1.89-1.26.23-2.44.45-3.48.66l-1.33.27c-15.99,3.28-24.97,5.4-26.69,6.31-2.51,1.32-7.81,1.54-10.66,1.66-.6.02-1.12.05-1.3.07-.14.02-.47.05-.95.08-8.23.68-13.48,1.73-15.6,3.13h0c-2.01,1.32-1.88,1.49-1.19,2.4.48.62,1.19,1.56,1.54,3.21.85,4.1,1.02,7.55,1.02,7.58v.05s0,.33.54.58c1.05.48,4.32.8,14.35-2.43.6-.19,1.05-.34,1.39-.46.27-.19.69-.33,1.08-.43.59-.15.74.11.77.19.02.06.04.11.04.16,1.83-.25,6.06-.97,15.8-3,7.02-1.46,11.87-2.48,15.27-3.2,1.83-.39,3.25-.68,4.37-.92Z"/>
        <path class="cls-3" d="M65.96,14.91c-1.2.6-2.56.91-3.69,1.54-1.49.83-2.6,1.71-4.23,2.49"/>
        <path class="cls-7" d="M58.29,19.26l-.49-.63c.94-.45,1.69-.93,2.49-1.44.53-.34,1.09-.69,1.7-1.03.65-.36,1.37-.63,2.06-.88.59-.21,1.14-.42,1.66-.68l.51.62c-.59.3-1.21.52-1.81.74-.67.24-1.3.47-1.85.79-.58.32-1.12.67-1.64,1-.8.51-1.62,1.03-2.63,1.52Z"/>
        <path class="cls-6" d="M43.05,56.97c-.35-.41-.04-.5.52-.88.79-.54,1.5-.99,2.5-.71.25.07.99.15.77-.03-1.23-.96-3.23-3.29-3.5-3.32-.21-.02-.14.22-.16.75-.03.64-.83,1.22-1.35,1.72-.93.9-3.15,2.42-3.62,3.06,0,0,1.51,1.27,1.83,1.05.32-.22,1.6-1.34,1.78-1.13.21.25,1.22,1.38,1.66,1.97.03.04.11.06.18.03.32-.12.65-.25.99-.37.13-.05.19-.16.13-.25-.35-.49-1.29-1.42-1.71-1.91"/>
      </g>
    </g>
  </g>
</svg>