<?xml version="1.0" encoding="UTF-8"?>
<svg id="Ebene_2" data-name="Ebene 2" xmlns="http://www.w3.org/2000/svg" viewBox="0 0 222.84 189.02">
  <defs>
    <style>
      .cls-1, .cls-2 {
        fill: #fbf7d0;
      }

      .cls-3, .cls-2 {
        stroke-width: 2px;
      }

      .cls-3, .cls-2, .cls-4 {
        stroke: #1d1d1b;
      }

      .cls-3, .cls-4 {
        fill: none;
      }

      .cls-2 {
        stroke-miterlimit: 10;
      }
    </style>
  </defs>
  <g id="Ebene_1-2" data-name="Ebene 1">
    <g>
      <polygon class="cls-1" points="198.77 86.82 132.21 77.71 120.01 82.26 126.67 101.85 198.77 86.82"/>
      <polygon class="cls-3" points="198.77 86.82 132.21 77.71 120.01 82.26 126.67 101.85 198.77 86.82"/>
      <g>
        <path class="cls-1" d="m106.34,144.05v18s-.07,6-36.28,6S.51,188.05.51,188.05c0,0,24.29-6,41.29-11,12.29-3.61,39-3,39-3l19-1s7.76-7.19,12.89-3c3.84,3.14,6.67,4.22,8.25,5.14,4.08,2.37.48,4.14,6.61,4.99,6.25.87,14.25-.13,14.25-.13,0,0,12.53-.37,16.53-.37s43.53-4.63,27.47-4.63-45.68-3-51.97-3-5.41-3.12,1.97-7c7.38-3.88,9-3,17-6,11.13-4.17-2-9-8-4-6.67,5.56-22.47,11-22.47,11,0,0-6-5.52-4-16l2-10.48s-14-3.52-14,4.48"/>
        <path class="cls-3" d="m106.34,144.05v18s-.07,6-36.28,6S.51,188.05.51,188.05c0,0,24.29-6,41.29-11,12.29-3.61,39-3,39-3l19-1s7.76-7.19,12.89-3c3.84,3.14,6.67,4.22,8.25,5.14,4.08,2.37.48,4.14,6.61,4.99,6.25.87,14.25-.13,14.25-.13,0,0,12.53-.37,16.53-.37s43.53-4.63,27.47-4.63-45.68-3-51.97-3-5.41-3.12,1.97-7c7.38-3.88,9-3,17-6,11.13-4.17-2-9-8-4-6.67,5.56-22.47,11-22.47,11,0,0-6-5.52-4-16l2-10.48s-14-3.52-14,4.48Z"/>
        <path class="cls-2" d="m143.5,143.94s-89.59-8.63-103.79-28.08C25.51,96.41-3.28,61.49,2.62,41.97,8.52,22.45,18.89,7.37,24.81,3.92c5.92-3.45,29.32-4.81,56.27,1.4,26.95,6.21,34.21-.72,42.07,16.11,7.86,16.83,7.94,21.86,12.09,41.35,4.15,19.49,6.41,37.79,12.38,38.36,5.97.57-9.83-4.96,16.85-9.43,26.68-4.46,39.18-9.03,45.15-8.45,5.97.57,13.41-14.04,12.07-.11-1.34,13.93,3.31,7.35-12.35,23.93-15.66,16.58-48.7,24.45-49.08,28.43-.38,3.98-16.76,8.43-16.76,8.43"/>
        <path class="cls-4" d="m143.5,143.94s-89.59-8.63-103.79-28.08C25.51,96.41-3.28,61.49,2.62,41.97,8.52,22.45,18.89,7.37,24.81,3.92c5.92-3.45,29.32-4.81,56.27,1.4,26.95,6.21,34.21-.72,42.07,16.11,7.86,16.83,7.94,21.86,12.09,41.35,4.15,19.49,6.41,37.79,12.38,38.36,5.97.57-9.83-4.96,16.85-9.43,26.68-4.46,39.18-9.03,45.15-8.45,5.97.57,13.41-14.04,12.07-.11-1.34,13.93,3.31,7.35-12.35,23.93-15.66,16.58-48.7,24.45-49.08,28.43-.38,3.98-16.76,8.43-16.76,8.43Z"/>
      </g>
    </g>
  </g>
</svg>