<?xml version="1.0" encoding="UTF-8"?>
<svg id="Ebene_2" data-name="Ebene 2" xmlns="http://www.w3.org/2000/svg" xmlns:xlink="http://www.w3.org/1999/xlink" viewBox="0 0 133.01 125.51">
  <defs>
    <style>
      .cls-1 {
        fill: none;
      }

      .cls-2 {
        clip-path: url(#clippath);
      }

      .cls-3 {
        fill: #da91b3;
      }

      .cls-4 {
        fill: #221f1d;
      }

      .cls-5 {
        fill: #1d1d1b;
      }

      .cls-6 {
        clip-path: url(#clippath-1);
      }

      .cls-7 {
        clip-path: url(#clippath-4);
      }

      .cls-8 {
        clip-path: url(#clippath-3);
      }

      .cls-9 {
        clip-path: url(#clippath-2);
      }
    </style>
    <clipPath id="clippath">
      <rect class="cls-1" width="133.01" height="125.51"/>
    </clipPath>
    <clipPath id="clippath-1">
      <rect class="cls-1" width="133.01" height="125.51"/>
    </clipPath>
    <clipPath id="clippath-2">
      <rect class="cls-1" width="133.01" height="125.51"/>
    </clipPath>
    <clipPath id="clippath-3">
      <rect class="cls-1" width="133.01" height="125.51"/>
    </clipPath>
    <clipPath id="clippath-4">
      <rect class="cls-1" width="133.01" height="125.51"/>
    </clipPath>
  </defs>
  <g id="Ebene_1-2" data-name="Ebene 1">
    <g class="cls-2">
      <g>
        <path class="cls-3" d="m12.97,95.37c-.6,0-1.4.74-2.12,1.2-1.41.89-2.55.72-1.39-8.01,1.76-13.21-6.23-10.21-1.36-25.53s10.14-35.74,15.41-40.84c5.27-5.11,10.41-6.04,19.32-11.91,7.7-5.07,21.2-11.91,29.99-8.5,8.78,3.4,18.65-3.39,27.43,1.71,8.78,5.11,11.09,3.38,12.84,11.89,1.76,8.51,2.03,10.06,4.3,13.82,11.91,19.69,9.47,55.59,9.47,59.26s-.35,9.32-.35,9.32"/>
        <path class="cls-5" d="m127.37,97.84l-1.71-.11c0-.06.35-5.66.35-9.26,0-.33.02-.94.05-1.76.6-17.95-.54-42.42-9.39-57.05-2.28-3.76-2.61-5.4-4.24-13.27l-.17-.82c-1.2-5.82-2.46-6.4-6.61-8.34-1.54-.71-3.45-1.61-5.82-2.98-4.48-2.6-9.23-1.94-14.26-1.24-4.32.6-8.79,1.23-13.05-.42-9.6-3.72-24.78,5.5-29.21,8.42-3.79,2.5-6.89,4.1-9.62,5.52-3.7,1.92-6.62,3.43-9.58,6.3-4.06,3.94-8.41,18.28-12.24,30.93-1.02,3.35-1.98,6.52-2.94,9.56-2.6,8.17-1.46,10.8-.13,13.85,1.1,2.53,2.34,5.39,1.52,11.53-.73,5.52-.43,6.98-.27,7.36.07-.03.18-.08.35-.19.19-.12.38-.26.58-.4.64-.46,1.3-.93,2.01-.93v1.71c-.18.02-.7.39-1.01.61-.22.16-.45.32-.66.46-.32.2-1.29.82-2.16.26-.99-.64-1.43-2.38-.53-9.1.75-5.66-.34-8.18-1.4-10.62-1.4-3.22-2.72-6.27.07-15.05.96-3.03,1.92-6.19,2.94-9.54,4.08-13.48,8.31-27.41,12.69-31.66,3.14-3.04,6.16-4.61,9.98-6.59,2.69-1.4,5.75-2.98,9.46-5.43,4.6-3.03,20.41-12.6,30.77-8.59,3.84,1.49,7.9.92,12.19.32,5.1-.71,10.37-1.45,15.36,1.45,2.31,1.34,4.18,2.21,5.68,2.91,4.25,1.98,6.19,2.88,7.57,9.55l.17.82c1.61,7.81,1.9,9.22,4.03,12.73,7.28,12.03,10.52,31.55,9.64,58-.03.8-.05,1.38-.05,1.71,0,3.65-.35,9.31-.35,9.37v-.02Z"/>
        <path class="cls-4" d="m67.15,115.95c-.41-1.05.1-1.12,1.09-1.69,1.42-.82,2.66-1.49,4.15-.42.37.27,1.51.78,1.21.29-1.61-2.67-3.99-8.71-4.4-8.89-.33-.15-.3.43-.5,1.57-.25,1.39-1.69,2.3-2.68,3.17-1.75,1.55-5.71,3.88-6.66,5.07,0,0,1.94,3.48,2.52,3.15.57-.33,2.94-2.22,3.15-1.67.25.65,1.46,3.59,1.95,5.09.04.11.15.18.27.15.55-.12,1.1-.25,1.66-.35.22-.04.35-.27.28-.48-.39-1.24-1.56-3.72-2.06-4.99"/>
        <path class="cls-3" d="m4.42,87.42c-6.85,3.82-1.72,3.79-1.72,13.25s-.86,17.04-.86,17.04c0,0-1.85,7.8,24.86,3.79,15.26-2.3-18.86.95,30.86.95s32.58-.52,46.29,1.37c13.72,1.89,15.43,0,15.43,0,0,0,12.09,1.7,12-3.26.08,4.7.86-18.35.86-27.45,0-5.68-6-5.54-14.57-5.12s-15.43-.17-20.57-.17-41.15-.37-46.29,1.71-17.14-1.53-18.86-1.71c-1.71-.19-20.59-4.21-27.44-.39"/>
        <path class="cls-5" d="m113.97,125.52c-2.37,0-5.66-.22-10.22-.85-3.13-.43-4.65-.74-5.75-.96-1.67-.33-6.83-.48-15.5-.45-5.55.02-13.46.05-24.92.05-21.66,0-27.25-.53-28.71-1.27-.57.09-1.23.19-2.02.31-13.49,2.03-21.84,1.42-24.82-1.82-1.21-1.32-1.08-2.61-1.02-2.95.06-.56.85-7.92.85-16.91,0-3.52-.73-5.65-1.27-7.21-1.04-3.03-1.01-4.32,3.42-6.79h0c6.23-3.48,21.52-.82,26.55.06.7.12,1.19.21,1.4.23.4.04,1.14.21,2.26.47,4,.93,12.33,2.85,16.18,1.3,3.25-1.31,17.78-1.89,44.45-1.78h2.16c1.72,0,3.66.07,5.71.14,4.28.15,9.12.31,14.82.03,6.86-.34,11.53-.39,13.91,1.87,1.03.98,1.56,2.37,1.56,4.1,0,4.37-.18,11.73-.34,17.17-.26,8.5-.33,10.85-.71,11.51-.19.53-.52,1-.97,1.4-2.75,2.43-9.72,1.75-11.48,1.53-.67.37-2.18.81-5.53.81h-.01Zm-24.36-4c6.19,0,6.65.09,8.72.51,1.09.22,2.57.52,5.65.94,12.48,1.72,14.66.27,14.75.21l.3-.34.38.13c2.22.31,8.41.72,10.44-1.07.41-.37.6-.79.59-1.32h.11c.22-3.02.75-20.1.75-27.47,0-1.27-.34-2.21-1.03-2.86-2.02-1.93-7.18-1.67-12.65-1.4-5.77.28-10.65.12-14.96-.03-2.04-.07-3.96-.14-5.65-.14h-2.17c-26.07-.12-40.8.44-43.8,1.65-4.35,1.76-12.72-.18-17.21-1.22-.95-.22-1.77-.41-2.06-.44-.23-.02-.75-.11-1.51-.25-13.08-2.27-21.64-2.36-25.42-.25h0c-3.57,1.99-3.43,2.41-2.64,4.73.54,1.58,1.36,3.97,1.36,7.77,0,9.4-.85,17.06-.86,17.13l-.02.1s-.12.72.66,1.52c1.49,1.54,6.5,3.74,23.24,1.22.99-.15,1.75-.27,2.32-.37.48-.28,1.19-.41,1.83-.45.97-.07,1.12.57,1.15.77.02.14.02.25,0,.36,2.95.3,9.79.63,25.68.63,11.46,0,19.37-.03,24.92-.05,2.99,0,5.31-.02,7.13-.02h0Z"/>
        <path class="cls-3" d="m103.84,25.67c-2.07.77-4.3.83-6.27,1.7-2.59,1.14-4.63,2.57-7.43,3.54"/>
        <path class="cls-5" d="m90.42,31.72l-.56-1.62c1.61-.56,2.95-1.27,4.37-2.02.95-.5,1.93-1.02,2.99-1.49,1.14-.5,2.34-.75,3.5-.99.99-.2,1.92-.4,2.81-.73l.6,1.61c-1.02.38-2.06.6-3.07.8-1.12.23-2.18.45-3.15.88-1.01.45-1.96.95-2.88,1.44-1.41.75-2.87,1.53-4.61,2.13h0Z"/>
        <path class="cls-4" d="m54.32,107.67c-.41-1.05.1-1.12,1.09-1.69,1.42-.82,2.66-1.49,4.15-.42.37.27,1.51.78,1.21.29-1.61-2.67-3.99-8.71-4.4-8.89-.33-.15-.3.43-.5,1.57-.25,1.39-1.69,2.3-2.68,3.17-1.74,1.55-5.71,3.88-6.66,5.07,0,0,1.94,3.48,2.52,3.15.57-.33,2.94-2.22,3.15-1.67.25.65,1.46,3.59,1.95,5.09.04.11.15.18.27.15.55-.12,1.1-.25,1.66-.35.22-.04.35-.27.28-.48-.39-1.24-1.56-3.72-2.06-4.99"/>
      </g>
    </g>
    <polygon class="cls-4" points="60.8 97.64 61.41 97.64 60.47 102.07 59.86 102.07 60.8 97.64"/>
    <g class="cls-6">
      <g>
        <path class="cls-4" d="m62.17,97.64h.86l.48,3.75,2.06-3.75h.85l-.94,4.43h-.57l.56-2.62c.02-.09.05-.24.1-.45.05-.21.1-.43.15-.67l-2.06,3.74h-.59l-.48-3.74-.03.14c-.02.11-.05.27-.1.5-.04.22-.07.39-.1.49l-.55,2.62h-.57l.94-4.43h0Z"/>
        <path class="cls-4" d="m69.4,98.25c-.12-.06-.3-.09-.53-.09h-1.19l-.33,1.53h1.19c.27,0,.5-.06.69-.17s.32-.32.38-.6c.07-.33,0-.55-.22-.66m-2.21-.61h1.99c.39,0,.69.11.88.33s.25.53.16.94c-.07.35-.24.65-.51.9-.27.26-.63.38-1.08.38h-1.39l-.39,1.87h-.6l.94-4.43h0Z"/>
        <path class="cls-4" d="m71.71,97.64l-.58,2.74c-.07.32-.07.59,0,.8.11.32.38.48.8.48.51,0,.89-.17,1.15-.52.14-.19.24-.44.31-.76l.58-2.74h.61l-.53,2.49c-.11.55-.28.96-.49,1.26-.38.53-.95.8-1.7.8s-1.2-.27-1.35-.8c-.08-.29-.07-.71.04-1.26l.53-2.49h.63Z"/>
      </g>
    </g>
    <polygon class="cls-4" points="75.32 97.64 75.92 97.64 75.09 101.54 77.34 101.54 77.23 102.07 74.38 102.07 75.32 97.64"/>
    <g class="cls-9">
      <path class="cls-4" d="m78.31,100.64c-.04.25-.02.46.05.61.14.29.46.44.96.44.22,0,.44-.03.64-.1.38-.12.61-.35.68-.67.05-.24.01-.41-.12-.52-.13-.1-.35-.19-.66-.26l-.57-.14c-.37-.09-.63-.19-.77-.29-.24-.19-.32-.46-.24-.83.08-.4.29-.72.62-.98s.75-.38,1.25-.38c.47,0,.83.11,1.11.34.28.22.36.58.26,1.07h-.56c.02-.24,0-.42-.08-.55-.13-.23-.42-.35-.86-.35-.35,0-.62.08-.81.22-.19.15-.3.32-.34.52-.05.22.01.38.17.48.11.07.36.15.75.24l.59.14c.29.07.5.16.63.28.24.21.32.51.23.9-.1.49-.36.84-.76,1.05-.4.21-.84.32-1.31.32-.55,0-.95-.14-1.2-.42s-.32-.66-.22-1.14h.56v.02Z"/>
    </g>
    <polygon class="cls-4" points="82.54 97.64 85.77 97.64 85.65 98.18 83.01 98.18 82.73 99.53 85.17 99.53 85.06 100.04 82.62 100.04 82.3 101.54 84.99 101.54 84.88 102.07 81.6 102.07 82.54 97.64"/>
    <polygon class="cls-4" points="67.27 103.01 67.27 103.8 65.94 103.8 65.94 107.46 65.01 107.46 65.01 103.8 63.67 103.8 63.67 103.01 67.27 103.01"/>
    <g class="cls-8">
      <g>
        <path class="cls-4" d="m70.72,105.53v1.93h-.88v-2c0-.18-.03-.32-.09-.43-.08-.15-.23-.23-.45-.23s-.4.08-.52.23-.18.37-.18.65v1.78h-.86v-4.44h.86v1.57c.12-.19.27-.33.43-.4.17-.08.34-.11.52-.11.2,0,.39.04.55.11.17.07.3.18.41.32.09.12.15.25.17.38.02.13.03.34.03.64"/>
        <path class="cls-4" d="m73.49,105.48c-.01-.23-.08-.4-.21-.52-.12-.12-.28-.18-.46-.18-.2,0-.35.06-.46.19-.11.12-.18.29-.21.51h1.34,0Zm.85,1.01c-.02.2-.12.39-.31.6-.28.32-.68.48-1.18.48-.42,0-.79-.14-1.11-.41-.32-.27-.48-.71-.48-1.32,0-.57.14-1.01.43-1.31.29-.3.66-.46,1.12-.46.27,0,.52.05.74.15.22.1.4.26.54.49.13.2.21.42.25.68.02.15.03.37.03.65h-2.25c.01.33.12.56.31.7.12.08.26.12.43.12.18,0,.32-.05.43-.15.06-.05.11-.13.16-.23h.89Z"/>
        <path class="cls-4" d="m75.73,106.84c.08.07.18.1.3.1.18,0,.36-.05.51-.16.16-.11.24-.31.24-.59v-.32s-.11.06-.16.08c-.06.02-.13.04-.23.06l-.19.04c-.18.03-.31.07-.39.12-.13.08-.2.2-.2.36,0,.15.04.25.12.32m-.64-2.31c.23-.29.62-.43,1.17-.43.36,0,.68.07.96.22s.42.41.42.81v1.89c0,.11.02.19.05.23s.07.07.13.1v.13h-.94c-.03-.07-.04-.13-.05-.19-.01-.06-.02-.12-.02-.2-.12.13-.26.24-.41.33-.19.11-.4.16-.63.16-.3,0-.54-.08-.74-.25-.19-.17-.29-.41-.29-.72,0-.41.16-.7.47-.88.17-.1.42-.17.76-.21l.29-.04c.16-.02.27-.05.34-.07.12-.05.18-.13.18-.25,0-.14-.05-.23-.14-.28-.09-.05-.23-.08-.41-.08-.2,0-.35.05-.43.15-.06.07-.1.17-.12.3h-.83c.02-.29.1-.52.24-.71"/>
        <path class="cls-4" d="m79.91,106.85v.64h-.41c-.41.03-.68-.04-.83-.2-.1-.1-.14-.25-.14-.46v-2.03h-.46v-.61h.46v-.92h.85v.92h.54v.61h-.54v1.74c0,.14.02.22.05.25s.14.05.31.05h.17"/>
        <path class="cls-4" d="m82.43,105.48c-.01-.23-.08-.4-.21-.52-.12-.12-.28-.18-.46-.18-.2,0-.35.06-.46.19-.11.12-.18.29-.21.51h1.34,0Zm.85,1.01c-.02.2-.12.39-.31.6-.28.32-.68.48-1.18.48-.42,0-.79-.14-1.11-.41-.32-.27-.48-.71-.48-1.32,0-.57.14-1.01.43-1.31.29-.3.66-.46,1.12-.46.27,0,.52.05.74.15.22.1.4.26.54.49.13.2.21.42.25.68.02.15.03.37.03.65h-2.25c.01.33.12.56.31.7.12.08.26.12.43.12.18,0,.32-.05.43-.15.06-.05.11-.13.16-.23h.89Z"/>
        <path class="cls-4" d="m85.56,104.96c-.35,0-.58.11-.7.34-.07.13-.1.32-.1.59v1.57h-.87v-3.29h.82v.57c.13-.22.25-.37.35-.45.16-.14.37-.2.63-.2h.11v.88c-.06,0-.1,0-.14,0h-.1"/>
      </g>
    </g>
    <polygon class="cls-4" points="61.65 109.69 59.49 109.69 59.49 110.69 61.38 110.69 61.38 111.43 59.49 111.43 59.49 113.24 58.59 113.24 58.59 108.94 61.65 108.94 61.65 109.69"/>
    <polygon class="cls-4" points="65.25 111.36 63.16 111.36 63.16 112.47 65.55 112.47 65.55 113.24 62.28 113.24 62.28 108.93 65.44 108.93 65.44 109.69 63.16 109.69 63.16 110.61 65.25 110.61 65.25 111.36"/>
    <g class="cls-7">
      <path class="cls-4" d="m67.81,112.62c.21,0,.38-.02.52-.07.25-.09.38-.26.38-.5,0-.14-.06-.25-.19-.33-.12-.08-.32-.14-.59-.2l-.46-.1c-.45-.1-.76-.21-.93-.33-.29-.2-.44-.51-.44-.93,0-.39.14-.71.42-.96.28-.26.69-.38,1.24-.38.45,0,.84.12,1.16.36s.49.59.5,1.05h-.87c-.01-.26-.13-.44-.34-.55-.14-.07-.32-.11-.52-.11-.23,0-.42.05-.56.14-.14.09-.21.22-.21.39,0,.15.07.27.2.35.09.05.27.11.56.18l.74.18c.32.08.57.18.74.31.26.2.39.5.39.88s-.15.72-.45.98c-.3.26-.73.39-1.28.39s-1-.13-1.32-.38c-.32-.26-.48-.61-.48-1.06h.86c.03.2.08.34.16.44.15.18.4.27.75.27"/>
    </g>
    <polygon class="cls-4" points="73.37 108.93 73.37 109.69 72.08 109.69 72.08 113.24 71.18 113.24 71.18 109.69 69.88 109.69 69.88 108.93 73.37 108.93"/>
    <rect class="cls-4" x="73.83" y="108.93" width=".89" height="4.31"/>
    <polygon class="cls-4" points="75.24 108.93 76.21 108.93 77.14 112.2 78.09 108.93 79.02 108.93 77.55 113.24 76.7 113.24 75.24 108.93"/>
    <path class="cls-4" d="m81.39,111.61l-.54-1.7-.56,1.7h1.1Zm.25.74h-1.59l-.3.89h-.94l1.54-4.31h1.02l1.53,4.31h-.98l-.28-.89Z"/>
    <polygon class="cls-4" points="83.44 108.93 84.34 108.93 84.34 112.47 86.48 112.47 86.48 113.24 83.44 113.24 83.44 108.93"/>
  </g>
</svg>