<?xml version="1.0" encoding="UTF-8"?>
<svg xmlns="http://www.w3.org/2000/svg" xmlns:xlink="http://www.w3.org/1999/xlink" version="1.1" viewBox="0 0 433.8 514.4">
  <!-- Generator: Adobe Illustrator 30.0.0, SVG Export Plug-In . SVG Version: 2.1.1 Build 123)  -->
  <defs>
    <style>
      .st0, .st1, .st2, .st3 {
        fill: none;
      }

      .st4 {
        stroke: #171717;
      }

      .st4, .st5, .st6, .st1, .st7, .st8, .st9, .st2, .st10, .st3, .st11 {
        stroke-miterlimit: 10;
      }

      .st4, .st12, .st7 {
        fill: #faf491;
      }

      .st13, .st6 {
        fill: #f1adce;
      }

      .st5 {
        fill: #98d6f7;
      }

      .st5, .st1, .st9, .st10 {
        stroke: #000;
      }

      .st14, .st1, .st12, .st15, .st16, .st17, .st18, .st2, .st19, .st20, .st11 {
        isolation: isolate;
      }

      .st14, .st1, .st12, .st16, .st17, .st18 {
        font-family: Helvetica-Bold, Helvetica;
        font-weight: 700;
      }

      .st14, .st16, .st17, .st18, .st21, .st19 {
        fill: #221f1d;
      }

      .st14, .st17, .st18 {
        font-size: 10.6px;
      }

      .st6, .st22 {
        stroke: #1d1d1b;
      }

      .st1 {
        stroke-width: 2px;
      }

      .st1, .st12 {
        font-size: 56px;
      }

      .st23 {
        fill: #da91b3;
      }

      .st24, .st20 {
        fill: #1d1d1b;
      }

      .st7, .st2 {
        stroke: #009fe3;
      }

      .st16 {
        font-size: 10.9px;
      }

      .st17 {
        letter-spacing: 0em;
      }

      .st25 {
        clip-path: url(#clippath-1);
      }

      .st26 {
        clip-path: url(#clippath-3);
      }

      .st27 {
        clip-path: url(#clippath-4);
      }

      .st28 {
        clip-path: url(#clippath-2);
      }

      .st29 {
        clip-path: url(#clippath-7);
      }

      .st30 {
        clip-path: url(#clippath-6);
      }

      .st31 {
        clip-path: url(#clippath-5);
      }

      .st18 {
        letter-spacing: 0em;
      }

      .st8 {
        fill: #fff3b6;
        stroke: #221f1d;
      }

      .st9 {
        fill: #f3e600;
      }

      .st9, .st2, .st10 {
        stroke-width: .2px;
      }

      .st2, .st20 {
        font-family: HelveticaNeue-Italic, 'Helvetica Neue';
        font-size: 49.1px;
        font-style: italic;
      }

      .st10 {
        fill: #ff9fed;
      }

      .st32 {
        opacity: .9;
      }

      .st33 {
        fill: #f7a4c5;
      }

      .st19 {
        font-family: Helvetica, Helvetica;
        font-size: 10.9px;
        letter-spacing: 0em;
      }

      .st3, .st11 {
        stroke: #951b81;
        stroke-width: 1.1px;
      }

      .st34 {
        fill: #009fe3;
      }

      .st35 {
        display: none;
      }

      .st22 {
        fill: #fff;
        stroke-width: 1.7px;
      }

      .st11 {
        fill: #e6007e;
        opacity: .2;
      }

      .st36 {
        clip-path: url(#clippath);
      }

      .st37 {
        fill: #fdd900;
      }
    </style>
    <clipPath id="clippath">
      <rect class="st0" x="4.9" y="1.5" width="428.9" height="510.4"/>
    </clipPath>
    <clipPath id="clippath-1">
      <rect class="st0" x="218.9" y="129.7" width="53.5" height="127.9" transform="translate(1.7 389.4) rotate(-77)"/>
    </clipPath>
    <clipPath id="clippath-2">
      <rect class="st0" x="218.9" y="129.7" width="53.5" height="127.9" transform="translate(1.7 389.4) rotate(-77)"/>
    </clipPath>
    <clipPath id="clippath-3">
      <rect class="st0" x="218.9" y="129.7" width="53.5" height="127.9" transform="translate(1.7 389.4) rotate(-77)"/>
    </clipPath>
    <clipPath id="clippath-4">
      <rect class="st0" x="218.9" y="129.7" width="53.5" height="127.9" transform="translate(1.7 389.4) rotate(-77)"/>
    </clipPath>
    <clipPath id="clippath-5">
      <rect class="st0" x="218.9" y="129.7" width="53.5" height="127.9" transform="translate(1.7 389.4) rotate(-77)"/>
    </clipPath>
    <clipPath id="clippath-6">
      <rect class="st0" x="36.1" y="362.5" width="93.8" height="87.2"/>
    </clipPath>
    <clipPath id="clippath-7">
      <polygon class="st0" points="83.5 429.1 113.4 428 112.6 389.2 82.8 390.1 83.5 429.1"/>
    </clipPath>
  </defs>
  <g id="Ebene_2">
    <g id="Ebene_2-2">
      <rect class="st6" x="1.9" y=".4" width="434.9" height="513.4"/>
      <g id="Ebene_2-21" data-name="Ebene_2-2">
        <g class="st36">
          <g>
            <rect class="st0" x="-29.9" y="29.4" width="441.8" height="522.6"/>
            <g>
              <polyline class="st21" points="386.3 89.9 377.3 91.4 382.6 80.6 375.7 80.4 371.2 81.9 379.9 78.8 376.2 91 379.7 92.4 374.5 87.9 369.9 93.8 364.5 80.7 360 92.7 354.9 95.5 349.7 95.4 344.4 94.7 342.7 80 337 84.4 330.6 84.7 334.5 80.2 333.8 76.5 337.6 74 341.9 71.8 337.4 63.7 340.9 60.9 344.3 58 354.7 58.9 352.6 52.9 343.6 49.1 350.5 51.5 362.2 46.7 364.6 50.4 370.2 51.1 370.4 56.8 374.5 58.9 379.8 59.8 379.3 66.5 377.9 74.3 389.8 68.1 385.5 72.7 384.9 65.8 377.6 68.7 372.4 70.7 367.9 70.3 363.5 56.5 358.2 57.3 353.3 57.3 347 67.7 340.5 66.9 346.7 63.6 354.1 59.8 357 64.3 360.3 68.7 367.3 63.9 371.1 67.1 374.2 73.9 380.7 66.3 384.1 77.4 389.3 70.2 384.4 77.4 388.1 68 380.5 68.8 375.9 67 373.1 63.2 370.9 58.3 362.4 62.7 359.2 59.4 358.4 48.3 350.1 60.8 344.8 58 347 62.7 358.2 58.8 355.2 67.9 359.2 70.7 369 67.6 369.4 74.2 375.1 75.2 383.9 72.9 381.7 82.3 392.7 77.9 382.4 81.9 381.6 76.5 376 75.8 380 65.3 364.9 74.4 372 60.9 359.3 67.5 364.6 59.5 374.9 59.4 375 56.2 371.4 59.4 370.9 63.8 363 64.9 357.1 67 361.9 73.6 364.3 79.1 357.2 80.7 360.4 86.1 355.6 88.6 349.7 91.1 344.4 96.5 351 91.5 361.2 99.1 365.3 96 358.4 82.4 369.4 86.8 365.9 77.8 368.5 74.5 381.6 82.1"/>
              <g>
                <path class="st21" d="M382.2,87.1c-1.5.2-3.5.5-5.7.8l4.8,4.9c1-1.9,2-4,3-6.1-.6,1.1-1.1,2.1-1.7,3.3-.5.9-.9,1.8-1.4,2.8l-4.6-4.7c1.7-.3,3.6-.6,5.6-1h0Z"/>
                <path class="st21" d="M384.4,86.6s0,0,0-.1c0,0,0,.2-.1.2,0,0,0,0,0-.1Z"/>
                <path class="st21" d="M381.4,77.1c-1-.6-2.1-1.2-3.2-1.9,1.1.6,2.2,1.3,3.2,1.9Z"/>
                <path class="st21" d="M360.1,52.2c0-.1,0-.2,0-.3,0,0,0,0,.1,0-.3-.4-.5-.8-.8-1.1,0,0-.1-.2-.2-.2,0,0,0,0,0,0h0c0,.2.1.3.2.4.2.3.4.6.6.9.7,1.1,1.1,1.8,1.4,2.3.6.1,1,.2,1.5.2.2,0,.4,0,.6.1h.2c.2,0,.4,0,.6.1.3,0,.6,0,.9.1h.1c.2,0,.3,0,.6.1s.2,0,.4,0h0-.2c0,0-.2,0-.2,0-.2,0-.4,0-.6,0-.1,0,0,0,0,0h0s.1,0,.1,0c0,0,0,0,0,.1,0,.2,0,.4,0,.6,0,.4,0,.8,0,1.2,0,.8,0,1.6.1,2.5,2.1,1.1,4.5,2.4,6.9,3.6,2.5.4,1.7.3,1.9.3h.1c0,.1,0,.2,0,.2h0s0,0,0,.2c0,.3,0,.6,0,.9,0,0,0,.2,0,.6,0,.3,0,.8-.1,1.2-.1.5-.2.9-.3,1.3,0,.4-.2.6-.2.5,0,1.1-.5,3.5-.9,5.8l-1.5,8.6,8.7-4.6c.4-.2.9-.5,1.3-.7.9-.5-.6.2-1.4.6l-9,4,2-7.8c0,0,0-.1,0-.2v.2s-1.3,8.3-1.3,8.3l8.3-4.4,6.1-3.2c2.5-1.2,3.2-1.4.5,0,1.2-.7,2.9-1.5,5.4-2.8l-6.3-6c-1.2,1.2-2.6,2.6-4.4,4.6l8.6,2.3c-.3-3.8-.6-7.9-1-12.9-3.6,1.4-7.3,3-11.3,4.5-.9.4-1.8.7-2.7,1.1-.5.2-1.1.4-1.6.6s-1.1.4-1.6.6h-.4c0,.1,0,.1,0,.1-.1,0,0,0,.2,0-1.5-4.7-3.1-9.6-4.7-14.7-3.1.4-6.2.9-9.4,1.3-2.5,0-5,0-7.5,0-1.5,2.5-3,5-4.6,7.5-.5.8-1,1.6-1.5,2.4h0s0,0,0,0c-1-.1-1.9-.2-2.8-.4l2,7.7c2.3-1.2,4.6-2.5,6.9-3.7.6-.3,1.1-.6,1.7-.9l.4-.2h0c0,.1.2.3.3.4v.2c.1,0,.2,0,.2,0h0s.3.4.3.4c2.1,2.9,4.2,5.6,6.1,8.2,2.8-2,5.5-3.9,8.1-5.6l.4-.3h.2c0-.1.1-.2.1-.2h-.1c0,0-.6.5-.6.5l-.3.2h0c0,0-.2-.2-.1-.2h0v.2c.2.3.4.6.5.9-.1-.3-.2-.6-.3-.9v-.2h-.1c0,0,0,0,0,0h-.1c0,0,1.5-1.1.6-.5h.2c0-.1,0-.2,0-.2h-.1c-.2.2-.3.3-.5.4-.5.3-.3.2-.3.2,0,0,0,0,.1-.1,0,0,0,0,.2.2,0,0,0,0,0,0,0,0,0,0,0,0v.3c.3.9,1.4,3.2,2.5,5.7l2.8,6.1,5.6-5.2c.2-.1.4-.4.4,0,0-.1,0-.3.1-.5h0s0,.7,0,.7c.4,1.1.6,1.7.8,2l3.4,8.8,5.5-7.7c2.5-3.6.6-.8,5.2-7.1l-8.4-4.2c-.7,1-1.6,2.3-2.8,4-.8,1.1-1.5,2.2-2.1,3.1l8.9,3.4c1.4-3.8,2.5-6.8,3.5-9.4l2.2-6-7.2.8c-1.4.1-2.6.3-3.9.4-.6,0-1.2.1-1.9.2h-.5s0,0,0,0h-.1c0,0,0,0,.1,0,0,0,.1,0,0,.1,0,0,0,0-.1,0,0,0,0,0,0,0-.1,0-.5-.2-.8-.3-.3-.1-.7-.3-1.2-.4,0,0-.1,0-.2,0h-.1c-.3-.4-.5-.8-.8-1.1s-.5-.6-.7-.9c0-.1-.2-.2-.3-.4,0,0,0,0,0,0h0c0-.1,0-.2,0-.3-.8-1.9-2.3-5.4-3.8-8.6-2.8,1.5-5.4,2.9-6.9,3.7-1.6.9-2,1.1,0,.2-.4.2-1.1.5-1.9.9-.9.4-1.1.6-.9.4h.1c0,0,0,0,0,0,0,0-.1,0-.2,0,.1,0,.2.1,0-.2,0,0,0,0,0,0h0c.2.2.5.5.3.3,0,0,0,0,0-.1,0-.4,0-.7-.1-1v1.1c0,0,0,.1,0,.1h0c0,0,0,0,0,0-.3-4.1-.5-7.2-.7-10l-.9-12.8-7.5,11.2c-1.4,2.1-2.7,4.1-4,6.2l2-2.8c-1.3,1.9-2.5,3.7-3.5,5.3-.2.3-.4.5-.5.5-.1,0-.2-.2-.3-.3h.3c0,.1.2-.3.2-.3,0,.1-.2.3-.2.4-.4-.2-.8-.4-1.2-.6l-11.6-5.8,4.9,10.5c1.3,2.8,2.6,5.5,3.9,8.3,2.2-.8,4.4-1.6,6.7-2.4.6-.2,1.1-.4,1.7-.6h.4c0-.1.2-.2.2-.2h-.2c-.2.1-.4.2-.6.2h.4c0-.1.2-.2.2-.2h.1s-.6.2-.6.2c.2,0,.3-.1.5-.2.1,0,0,0,0,0h0s-.1,0-.2,0c-.1,0-.3,0-.4.1-.3,0-.6.2-1,.3,0-.1.1-.2.2-.4h0c0,0,0-.1,0-.1h0s0,0,0,0v.2c-.5,1.5-1,3-1.5,4.6,2.5,1.8,5.2,3.6,7.9,5.5,1.4-.5,2.9-.9,4.3-1.4l1.2-.4h.3c.4-.2.7-.3,1.1-.5v-1.3c0,1.9.2,3.9.3,5.8,3.3.6,6.5,1.1,9.7,1.7.7-.2,1.3-.3,2-.5h.3c0,0,.1-.1.1-.1h.4c.3-.2.6-.3.9-.4,0,.4-.2.9-.2,1.3v.3c0,0,0,.2,0,.2,0,.4-.2.7-.2,1.1-.6,2.6-1.1,5-1.7,7.4,6.2-2.6,10.9-4.5,13.5-5.6l-6.3,2.3,10.1-4.2-2.6-4.6-1.1.4c.2,0,.6-.3,1-.5l2.7,4.7c-1.7.9-4.4,2.3-5.3,2.7,1.2-.5,2.7-1.1,5.5-2.2l-3.2-5.6c-2.6,1-6.1,2.4-10.3,4.1l5.2,2.4c-.4-2.3-.7-4.8-1.2-7.8-2.5-.3-5.1-.6-8.2-1l2.9,4c1.2-3.3,2.6-6.8,4-10.4l3.4-8.8-8.9,5.4c-4.8,2.9-9.9,6-15.1,9.1l5.4,3.7c2.3-4.5,4.7-9.1,7-13.6l4.6-8.9-9.8,5.1c-4.3,2.3-8.6,4.5-12.7,6.6l5,4c1.5-2.3,2.9-4.4,4.3-6.5,2.9,0,5.7,0,8.2,0h3.5s0-3,0-3c0-1.1,0-2.2,0-3.2v-7.7c.1,0-6.2,5.6-6.2,5.6-1.6,1.4-3.1,2.7-4.4,3.9-.1,1.2-.3,2.2-.4,3.1-.8,0-1.4.2-1.9.2-1.1.1-1.9.2-2.4.3-.4,0-.6,0-.8,0-.2,0-.4,0-.4,0-.2,0-.2,0,0,0,.5,0,2.4-.5,2.5-.5-1,.1-1.9.3-2.6.4-7.6,2.8-4.8,1.9-10.3,3.8.5.7,1.2,1.6,2,2.8,1.7,2.5-.6-.5-1.7-1.9,1.5,2,2.9,4,3.9,5.4.5.6.8,1.2,1.1,1.6.2.2.3.4.4.4-.3-.4-.5-.7-.6-1-.3-.4-.5-.8-.7-1-.3-.5-.5-.8-.6-1-.1-.4,0-.4-.6-1.4l4,5.6.4,1h-.3c.1.2.4.6.9,1.3-1.6.5-3.9,1.1-7.2,1.8.9,1.5,1.8,3.1,2.8,4.8.2.4.5.8.7,1.3l-1.2.6-.6.3h-.3c0,.1-.2.2-.2.2h-.3c-2,1-4,1.9-6,2.7-1.9,1.9-3.8,3.9-5.7,5.8l4.7,3.8c1.5-1.1,2.9-2.2,4.4-3.3,3.2,2.4,6.3,4.8,9.4,7.1-.2,0-1.2-.8-2.8-1.9-1.2-.8-2.7-1.9-4.2-3.1.9.7,2,1.5,3.1,2.3,1.6,1.2,3.2,2.4,4.4,3.3-1.7-1.4-1.1-.9.2,0,1.5-1.1,3.7-2.8,5.1-3.8,1-.8,1.5-1.1.4-.3.8-.7,1.7-1.3,2.6-2-1.4-2.7-2.9-5.6-4.5-8.5-1.2-2.3-2.4-4.6-3.5-6.9l-4.2,3.4c3.8,1.5,7.6,3.1,10.9,4.4l6.6,2.6-2.4-5.7c-.4-1-.8-2-1.2-2.9-.1,0-.6-.6-1.4-1.6-.7-.9-1.7-2.1-2.9-3.7,0-.8.4-2.4.8-3.9v-.5c.1,0,1.5.3,1.5.3,4.5.9,9.1,2,9.3,1.8,2.5,1.5,5,3,5.8,3.4-.6-.5-5.5-3.4-8.2-4.9h-.6c-4.3-2.5-3.2-2-4.3-2.7l-3.6-2.3-2.7,3.3c-.1.2-.4.4-.7.8-.5.6-1.1,1.4-2,2.5-.2.1.2-.3.8-1.2.4-.5,1-1.3,1.7-2.3l2.5-3.4,4.1,2.3c1.9,1.1,4.5,2.6,7,4-2.5-1.5-4.9-2.9-6.9-4.1l-4.1-2.4-2.7,3.6c-.5.7-1,1.3-1.4,1.8-.7,1-1.3,1.8-1.8,2.4-.3.3-.5.6-.6.8,1.1,3,.9,2.7.9,2.7,0,0,0,.1.2.8,0,.2.2.5.3.9.1.3.3.8.5,1.3.6,1.5,1.4,3.3,2.1,5.1l6.8-5c-2.5-1-5.1-2-7.4-3h0c-1.3-.5-2.4-1-3.6-1.5l-12-5,5.2,10.5c1.3,2.6,2.5,4.9,3.7,7.1.6,1.1,1.1,2.1,1.7,3.2l.2.4c0,0,0,0,0,0h0s0,.1,0,.1c0,0,0,0-.1,0h0s0,0,0,0l.3-.3c.5-.3.9-.7,1.4-1.1,0,0,0,0,0,0,0,0,0,0,0,0,.6.3-.8-.6-10.2-7.7-2.4,1.8-4.9,3.6-7.3,5.4.5-.4,1.1-.7,1.5-1,.6-.4,1-.7,1.1-.7s0,0-.6.5c-.4.3-1.1.8-2.2,1.7-.8.6-1.6,1.2-2.3,1.7l7,5.6c1.7-1.7,3.2-3.3,4.7-4.7.9-.4,1.8-.8,2.7-1.1l1.8-.7.4-.2c.1,0,.3-.1.6-.3l1.5-.7,6.9-3.7-1-1.5c-.7-1.2-1.5-2.6-2.4-4.1-.2-.4-.4-.7-.7-1.1h0c0-.1,0,0,0,0v.2c.1,0,.4.4.4.4.3.6.7,1.1,1,1.8,1.8-.4,4-.9,6.5-1.5-1.1-2.6-2.7-6.1-4.4-9.9-.6-.8-1.4-1.9-2.2-3,0,0,.2,0,.3-.1,3-.4,6.9-1,10.9-1.5.1-1.2.3-2.6.5-4.1,0-.7.2-1.4.2-2.2v.2s0,0,0,0c.7-.6,1.6-1.4,2.5-2.2l-8.1-2.8c0,1,0,2.1,0,3.2l4.7-3.9c-4.1,0-8.6,0-13,0-2.2,3.4-4.4,6.7-6.6,10l-8.7,13.2,15.2-7.9c4.7-2.4,8.8-4.6,12.7-6.6l-6.6-4.8c-2.9,5.6-5,9.8-7,13.6l-6.6,12.8,13.4-8.1c7.1-4.3,11.4-6.9,15.1-9.1l-6.9-4.2c-2.1,5.6-3.1,8.2-4,10.4l-1.6,4.2,5.2.6c1.3.1,1.7.2,2.2.3.3,1.6.3,2.1.4,2.6l.8,5.1,5.5-2.2c4.9-1.9,6.4-2.5,7.6-3l-1,.4c1.2-.5,2.4-.9,3.6-1.4l-3.8-6.8c-.9.4-1.9.8-3,1.2-.3,1.5-.7,3.1-1.1,4.6.3-1.2.6-2.5.9-3.7.7-2.9,1.4-6,2.1-9-4.8,1.2-9.7,2.5-14.8,3.8-.4,0-.8-.1-1.2-.2-.1-2.9-.3-5.9-.4-8.9-4.3,1.4-8.7,2.8-13.2,4.2h-.1c-.2-.2.3.1.6.3l-.5-.3-.3-.2s0,0,0,0h0c0,0,.2.2.2.2l.3.2h-.2c1.5-4.8,3-9.5,4.6-14.2-5.1,1.8-10.2,3.6-15.3,5.4-.2-.4-.4-.8-.5-1.1l-6.4,4.5c3.1,1.6,6.1,3.2,9.1,4.7,3.7-5.6,7.1-10.8,10.5-15.8l-8.1-1.5c.3,4.5.7,8.5.9,12.3,2.4,2.5,4.4,4.5,6.4,6.6,2.5-1.3,4.8-2.5,6.9-3.6-.2,0,.2-.1.4-.2,0,0,0,.2.1.2h0c.1.4.3.7.4,1,1.5,2,2.6,3.5,3.7,4.9,2.9,1.1,4.9,1.9,6.8,2.6,3.8-.4,6.3-.7,8.8-.9l-4.4-4.5c-.2.5-.3.7-.4,1-1.1,2.5-2.3,5.4-3.4,8.3l-13.5,33.5,21.2-30.5c1.7-2.4,3.4-4.9,5-7.1l-7.4-3.7c-.5.7-1,1.4-1.5,2,2.1-2.8,1.5-1.7,0,.4-1.6,2.2-2.7,3.7-3.5,4.8l7.5.9c-2-6.3-1.9-6.1-2.2-6.6-.2-.6-.7-2-3.6-11.2-.6.7-1.7,2-2.9,3.5-2.2,2.7-5,6-8.3,9.9l6.7.7c-1-2.2-2.2-4.7-3.4-7.4-2.1-1.8-4.4-3.8-6.8-5.8-2,1.4-4.1,2.9-6.3,4.4-.3-.4-.6-.8-.9-1.2-1.6-2.4-3.2-4.9-4.8-7.4-3.3,1.7-6.7,3.4-10.1,5.2-2.3,1.2-4.5,2.4-6.8,3.7l-8.8,4.7,10.3,1.2c3,.4,6.1.7,9.1,1.1,2.2-3.6,4.3-7.1,6.5-10.6,1,0,1.9,0,2.8,0,.8,0,1.5-.2,2.2-.3,1.4,4.6,2.8,8.9,4.1,13,3,.3,5.6.6,8.2.8,2.3-.9,4.6-1.7,6.7-2.5.6-.2,1.1-.4,1.6-.6,0,.8,0,1.4.1,1.9l.5,8.7,6.6-6.8c2-2,3.3-3.4,4.4-4.5l15.1-15.5-20.4,10.4c-.9.5-1.4.7-1.8.9-3.1,1.7-6.5,3.5-10,5.3l6,3.3c.4-2.6.9-5.3,1.3-7.9.2-3.3.5-6.6.7-9.7-2.7-.4-5.4-.9-8-1.3-.4-.2-.7-.4-1.1-.6-.2,0-.3-.1-.5-.2h.3c-.1,0-.3,0-.4-.1,0-1.7-.2-4-.3-6.7-1.6-.2-3.4-.4-5.2-.7-.7,0-1.4-.2-2.1-.3,0,0-.1,0,0,0h.5c0,0,.2,0,.2,0h-.3c-1-1.6-2.1-3.3-3.2-5-4.1,1.7-8.7,3.5-13.5,5.4-1.7-.6-3.5-1.2-5.3-1.8l-3.2,6c2.4,1,4.9,2.1,7.4,3.1.5,1.6,1.1,3.1,1.6,4.7l4.2-4.2c-4.2-.4-8.3-.7-12.3-1.1-1.7,1.4-3.3,2.8-4.9,4.1-1.9,1.5-3.7,2.9-5.4,4.2,1.6,2.9,3,5.5,4.2,7.7-.6.3-1,.5-1.4.7-2.8,1.8-4.6,3-5.9,3.9,0,.1,0,.2,0,.2v-.2c0,0,2.5-1.6,2.5-1.6-.9.6-1.7,1.1-2.5,1.6.4,1.7.7,3.1.9,4.2-.5.6-.9,1.1-1.3,1.5-.6.7-1.2,1.3-1.8,1.9l-5,5.5,8.5-.2c.8,0,1.7,0,2.7,0,.5,0,1.1,0,1.7,0,1.1,0,2.2,0,3.5-.1.6-.4,1.3-1,2.2-1.6-.5.2,1.7-1.7,4.3-3.8l-6.2-2c.3,2.3.7,4.8.9,6.3h0c.3,2.4.8,6.2,1.4,10.6,2.6.3,5.4.7,8.2,1,2.1,0,4.3,0,6.5,0,2.4-1.3,4.7-2.6,6.9-3.9.6-1.5,1.1-2.9,1.6-4.2v.4c.9-2.5,2.1-5.7,3.4-9.1h-6.3c2,4.8,4,9.7,5.4,13.2l2.3,5.4,3.7-4.8c.3-.4.6-.8.9-1.1.4-.6.9-1.1,1.4-1.8.7.6,1.5,1.3,2.3,2l4-4.6c-1.1-.5-2.3-1-3.5-1.5l1.8,3.3c1.2-3.9,2.5-8,3.8-12.2l1.8-5.8-6.6,2.3c-2.9,1-5.8,2-8.7,3.1l2.7,5.6,2.3-.7c.3-.2.7-.1,1-.1.6,0,1.9-.2,1.2.5-.3.5-.6,1-.9,1.4l-2.4,4.4-3,5.6,7.5-1h.7c0,0,1.7-.4,1.7-.4,0,0,16.5-8-3.9-5.9l4.2,4.2c.4-.6.8-1.4,1.3-2.2v.4s2.4-4.8,2.4-4.8c.5-1,1-2,1.4-2.9.2-.5.4-.9.5-1.2.1-.4.3-.7.4-1.1.3-.7.5-1.3.7-1.9.1-.3.2-.6.3-.8,0-.1,0-.2.1-.4v-.2c0,0,.2-.1,0-.1-2.4,0-3.4,0-2.9-.1h1.7s.9,0,.9,0h.4c0,0,0,.2,0,.3l-1,2.6c-.4.9-.6,1.7-1.1,2.7l-1.4,2.9c2.1-4.2,2.1-4.7,2-4,0,.2-.1.5-.3.8-.2.4-.3.8-.5,1.2-.4.9-.8,1.9-1.2,2.7,1.9-3.7,3.3-7,3.9-9.4-1.1,0-.7,0,0,0-.3.7-.7,1.6-.9,2.3.2-.5.4-1.1.6-1.6.6-.8-.7-.5-1.4-.6-1.6,0-3.3,0-5.1,0-1.7,0-3.5,0-5.2-.1h-1.2c-.4.2-.8.2-1.3.3-.8.3-1.6.5-2.4.8-.8.2-1.3.4-1.7.5l3.1,6.5c2.8-.9-.4.4,5.4-1.6,1.2-.4,2.3-.8,3.5-1.2l-6.1-4.4c-1.2,4.1-2.5,8.1-3.7,12.2l-.9,3,3.3,1.4c1.2.5,2.3,1,3.5,1.5l24.6,10.5-19.3-16.6c-3.1-2.7-6.2-5.4-9.3-8-2.6,3.3-5.1,6.7-7.7,10l8.3.8c-1.8-4.4-3.6-8.7-5.4-13.1l-4.6-11.3-4.3,11.4c-1.4,3.6-2.7,7.1-4.1,10.7h0s-1,.6-1,.6l-1.2.7h0c-1.1,0-2.3,0-3.4,0l-1.3-.2c-.4-3.8-.9-7.7-1.3-11.6l-.9-8.1-7.1,5.5c-1.5,1.1-3,2.3-4.5,3.4h0s0,0,0,0c0,0,0,0,0,0h0s0,0,0,0c-.5,0-1,0-1.5,0-1.1,0-2.1.1-3.1.2l4.3,6.5c1.8-2.1,3.5-4.1,5.1-6-.2-1.1-.5-2.3-.7-3.4v.5c.1.1.1,0,.1,0h0c0,0,0-.1,0-.1.4-.3.8-.5,1.2-.8,2.6-1.3,5.2-2.6,7.7-3.9l-2.9-5.2c-.3-.5-.5-1-.8-1.5-.1-.3-.2-.5-.3-.7-.2-.4-.3-.7-.5-1,0-.1-.1-.2-.2-.4,0,0,0,0,0,0,0,0,0,0,0,0,0,0,0,0,0,0,.2-.2.5-.4.8-.7.5-.4,1-.8,1.5-1.3.1-.1.2-.2.4-.3h0s0,0,0,0c.8,0,1.7.1,2.6.2,1.7.1,3.6.3,5.4.5l7.3.6-2.1-5.9c-.9-2.5-1.8-5.2-2.7-7.8-3.7-1.6-7.4-3.1-10.8-4.6l-4,7.5c3.2,1.1,6.1,2.1,8.9,3,3.6-1.5,6.7-2.7,8.9-3.6.2,0,.3-.1.5-.2h0,0c0,0,0,0,0,0Z"/>
              </g>
            </g>
            <polygon class="st34" points="274.4 3.1 274.4 .7 235.9 15.8 274.4 -1.6 235.9 13.3 274.3 -3.9 235.8 10.9 274.3 -6.1 235.9 8.2 274.4 -7.7 274.1 -13 237.1 10.5 274.9 -10.7 244.8 17.8 238.7 5.1 276.9 -6.9 238.9 4.2 277.3 -10.1 239.1 2.2 277.6 -12.8 239.3 0 277.8 -15.5 239.5 -2.3 239.9 0 278.2 -17.6 239.9 2.3 278.5 -13.6 240.3 6.4 278.9 -9.6 240.8 10.5 279.4 -5.6 241.2 14.6 279.8 -1.7 241.7 18.7 280.3 2.3 242.2 22.8 280.8 6.3 242.7 26.8 281.3 10.3 243.3 30.8 281.9 14.3 243.8 34.7 282.4 18.4 244.2 38.7 282.9 22.5 244.7 42.5 282.4 23.6 283.4 28 245.2 39.6 283.8 24.7 245.4 37.3 284 21.7 245.6 35 284.1 18.8 245.7 32.7 284.2 15.9 245.7 30.4 284.2 13.1 245.7 28.1 284.1 10.2 245.6 25.9 284 7.3 245.4 23.7 283.7 4.4 245.2 21.9 283.2 1.3 244.9 20.6 282 -2.7 246.1 22.1 246.2 5.5 279.3 6.4 244.6 9 253.7 27.7 273 -4 240.7 25 273.6 -3.7 238.5 22.7 272.8 -4.6 237 20.8 271.8 -6 235.8 19.1 270.7 -7.5 234.6 17.6 269.5 -9.2 233.6 16.2 268.2 -10.9 232.6 14.9 266.7 -12.8 231.6 13.9 264.7 -14.7 231 13.2 261.9 -16.9 235.4 14.2 229.4 -4.6 260 0 224.4 3.7 259.6 .9 222.7 8 258.8 3.1 221.4 11.5 257.9 5.7 220.4 14.8 257 8.5 219.4 17.9 256.1 11.5 218.5 20.9 255.2 14.6 217.6 23.7 254.1 17.8 216.7 26.4 253 21.2 215.8 28.8 251.4 25.1 215.1 30.5 248.7 30.7 244.4 16.1 211.6 40.7 249.1 18.5 210.8 37.7 248.2 15 210 34.9 247 11.6 209.1 32.4 245.6 8 208.1 30.4 243.4 4 208 30 232.7 -1.5 234.6 20.8 202.3 19.1 236.8 17.7 199.5 25.9 236 20 198 30.9 235.2 23.2 196.9 35.3 234.4 26.5 196.1 39.5 199.1 50.7 233.4 23.7 194.8 41.1 232.4 18.8 193.8 36.9 231.1 13.7 192.8 33.4 228.5 7.6 205.4 34.5 188.7 23.9 224.3 20.2 186 32.1 223.2 24.5 184.7 38.3 222.3 29.5 183.7 44.1 221.5 34.6 182.8 49.6 220.7 39.7 182.1 55.1 220 44.9 181.4 60.5 219.4 50.1 181.4 62.9 180.6 67.8 218.6 47.3 180.2 65.7 218.1 44.7 179.8 63.8 217.4 42.1 179.3 62.2 216.5 39.3 179 61.2 214.6 35.5 181.3 63.1 186.7 38.1 208.7 51.7 176 50.2 208.5 52.2 174.2 53.1 205.8 56.6 176.5 50.4 179.9 73.5 202.7 42.5 167.7 68.7 203.4 43.2 171.2 69.9 168.2 53.1 200.1 55.9 165.3 58 200 56.1 164 60.8 199.4 57.5 163 63 198.7 59.2 162.3 64.8 197.7 61.5 161.8 66 196.2 64.7 162.2 65.2 189.5 73.8 187.6 51.4 158.9 81.1 193.6 54.5 156.7 77.7 193.6 54.4 155.8 75.5 193.3 53.5 155.3 73.6 193.2 53 154.7 70.6 192.9 51.1 154.5 68.5 192.6 48.7 154.2 66.5 192.2 46.3 153.8 64.7 191.8 43.8 153.5 63 191 41 153.3 62.3 188.3 36 185.5 52.5 151.4 54.1 187.5 49 149.9 58.5 187.1 50.7 149.1 61.5 186.5 52.9 148.4 64.2 185.9 55.4 147.8 66.7 185.5 57 147.1 71 185.3 58.8 146.8 73.4 185 61.5 146.5 75.8 184.7 64.3 146.2 78.1 184.2 67.2 145.8 80.3 183.7 70.3 145.5 82.2 182.8 74.1 145.3 83 179.7 81.6 169.4 66 144.2 96.1 177.3 67.8 141.4 93.2 176.4 66.6 140.2 91.4 174.9 64.5 139.6 90.6 157.4 61.2 174.4 72 136.5 82.8 174 73.9 136.1 84 173.4 76 135.8 85.2 172.7 78.3 135.5 86.1 171.7 81 135.3 86.6 170.3 84.2 135.5 86.2 167.5 88.9 137.5 83.5 160.2 97 145.3 77.1 147.4 104.6 151.3 74.5 142.2 106.1 148.2 75.4 145.8 104.8 136.6 81.1 147.1 104.4 155.9 76.7 125.1 106.4 157.2 77.3 123 104.7 156.4 76.6 122.1 103.8 154.7 75 122.7 104.1 146.8 72.4 145.9 97.3 118.6 89.7 152.6 88.9 115.9 95.3 152.7 88.7 115 98.3 152.4 89.7 114.4 100.8 152.1 90.9 113.9 102.9 151.9 92.4 113.6 105 151.6 93.9 151.1 89.8 112.9 108.1 151 87.5 112.4 104.2 150.4 83.4 111.8 100.3 149.8 79.4 111.2 96.4 149.1 75.3 110.5 92.6 148.4 71.3 109.8 88.8 147.6 67.2 109.1 85.1 146.7 63.2 108.2 81.6 145.7 59.1 107.3 78.2 144.4 54.9 106.4 75.3 142.5 50.3 105.9 74.3 117.3 47.9 136.9 61.4 102 63.8 133.8 66.8 99.1 68.5 132.6 68.9 96.3 74.2 131.7 70.9 94.3 79.3 130.8 73.5 92.9 83.9 130 76.4 91.8 88.1 129.3 79.5 91 92.1 128.6 82.7 90.2 96 128 86 89.6 99.7 127.5 89.3 89 103.4 127 92.6 88.5 107.1 126.6 96 125.1 91.6 87.7 110.7 125.9 90.6 87.3 106.1 125.4 85.7 86.8 101.7 124.8 80.8 86.2 97.5 123.9 75.7 85.5 94.4 86.3 82 120.8 80.1 82.3 93.9 120.1 84.2 81.5 99.6 119.5 88.9 80.9 104.9 119 93.8 80.4 110.1 118.6 98.8 79.9 115.3 118.2 103.7 79.5 120.4 116.7 113.1 114.7 101.4 80.2 128.3 114 100.6 78.9 127 112.7 99.3 78.2 126.2 110.6 97.4 79 126.6 100.7 94.9 103.3 118.1 73.9 112.9 108.2 111.5 71.4 118.4 108.2 111.7 70.4 121.6 107.9 112.9 69.8 124.2 107.5 114.4 69.3 126.6 107.2 116.1 68.9 128.9 106.9 117.9 91 109.5 69.7 137.8 103 109.7 67.8 135.7 101.2 107.8 66.5 134.4 98.3 105.2 66.7 134.5 88.1 102.5 85.6 129.3 61.1 118.6 92.5 122.1 56.7 126.2 92.1 122.9 54.9 130.9 91.4 124.9 53.6 134.8 90.7 127.4 52.7 138.3 90 130.1 51.8 141.7 89.4 132.8 51.1 145 53.8 155.6 88.5 129.3 49.9 147 87.6 125.1 49 143.2 86.6 121 48.1 139.5 85.5 116.9 47.1 135.9 84.2 112.7 46 132.6 82.6 108.4 44.8 129.7 80.2 103.7 44.3 128.8 64.8 98.2 72.5 117.5 37.4 120.7 72.7 117.6 34.8 127.7 71.6 121.2 33.3 133.3 70.6 125.4 36.2 130.2 31.8 141.9 69.4 120.1 31.1 139.5 68.6 117.3 30.4 137.2 67.7 114.5 29.7 135 66.7 111.6 28.9 132.9 65.4 108.8 28 131.1 63.9 105.9 27.1 129.6 61.9 102.9 26.2 128.5 59 100 25.7 128 54.7 97.3 25.4 127.9 49.7 95.8 23.5 127.5 47.1 95.3 30.3 125.8 18.7 106.4 43.2 117.9 10.4 116.8 42.9 118.5 6.6 124 41.7 121.3 4.3 129.9 40.5 124.8 2.5 135.2 39.3 128.6 1.1 140.2 38.3 132.6 0 145 37.3 136.7 -1.1 149.6 36.4 140.8 -2 154.2 35.6 144.9 -2.9 158.7 34.9 149 -3.7 163.1 34.2 153.2 1.9 156.2 -4.6 170.4 32.9 148.2 -5.4 167.8 32 145.3 -6.2 165.3 31 142.4 -7 162.8 30 139.5 -7.9 160.5 28.8 136.6 -8.9 158.3 27.4 133.7 -9.9 156.3 25.7 130.7 -10.9 154.7 23.4 127.6 -11.6 153.9 19 124.1 -9 154.7 .5 124.7 9.7 147 -18.2 139.6 -6.2 158.5 9.9 127.9 -10.2 157.9 -19.8 136.8 3.5 149.6 -25.9 143.5 -1.1 154.7 -16.7 136.9 -31.3 165.7 -.6 136.3 -37 160.6 -.8 135.9 -38.6 157.1 -1.4 134.1 -39.6 153.9 -2.1 131.9 -40.4 150.8 -2.6 129.5 -41.1 147.9 -3.1 127 -41.6 144.9 -3.6 124.3 -42.1 141.9 -40.5 132.1 -4.3 126.6 -42.9 142.4 -4.8 131.3 -43.4 146.9 -5.4 136.2 -44 151.4 -6.1 141 -44.7 155.9 -6.9 146.1 -45.4 160.1 -8 151.5 -46.3 163.7 -10.8 160.2 -12.7 149.6 -50 171.6 -12.8 148.6 -51.3 166.7 -13.5 145.2 -52.1 162.2 -14.1 141.4 -52.7 157.9 -14.7 137.3 -53.2 154.1 -15.6 132.6 -53.5 153.4 -16.9 129.5 -52.9 154 -52.2 138.2 -19.4 138.4 -57 148.2 -19.6 139.3 -57.8 151.9 -20 141.3 -58.4 154.9 -20.3 143.6 -58.8 157.8 -20.7 146 -59.2 160.6 -20.9 148.5 -59.5 163.3 -21.2 151 -59.8 166 -21.5 153.5 -60 168.6 -21.7 156 -54.2 159.5 -59.5 176 -24.2 150.1 -59.8 175.6 -26.1 148 -60.1 175.3 -27.9 146.6 -61.3 174.3 -28.8 145.8 -63.2 172.7 -29.2 145.4 -64.9 170.8 -29.6 144.9 -66.2 168.9 -30.1 144.1 -67.2 167 -30.6 143.1 -68.1 165.2 -31.1 141.9 -68.8 163.4 -31.6 140.7 -69.4 161.6 -32 139.4 -67.2 163.7 -36.4 134.3 -70.3 161.6 -36.5 134 -72.6 159 -37.6 132.7 -74.1 156.9 -38.9 130.8 -75.3 155.1 -40.6 128.4 -76.1 154.2 -44.7 124.9 -59.1 152.7 -79.7 141.8 -45.1 139.4 -82.6 148.7 -45.4 140.6 -83.6 152.6 -45.9 142.8 -84.3 156 -46.4 145.3 -84.8 159.2 -46.8 147.9 -56.1 139.6 -85.1 166.4 -49.7 140.5 -86.6 164.1 -51.7 137.6 -88.4 161.5 -53.3 135.2 -90.4 158.4 -54.7 132.9 -92.2 155.1 -55.9 130.5 -93.8 151.6 -56.9 127.9 -95 148.1 -57.8 125.1 -96.1 144.6 -58.7 122.2 -97 141.1 -59.4 119.1 -97.8 137.6 -60.1 116 -98.6 134.1 -60.8 112.8 -91.8 136.9 -99.5 129.7 -61.2 117 -99.8 132.9 -61.5 120.4 -100.1 136.1 -61.9 123.9 -100.4 139.2 -62.3 127.4 -100.8 142.3 -62.8 131 -101.3 145.3 -63.4 134.9 -101.8 148.1 -64.4 139.1 -102.3 150.3 -66.3 145 -100.6 147.5 -95.1 166.8 -73.9 135.4 -105.9 164.3 -75.7 134.2 -106.6 163.7 -88.7 132.4 -97.2 163 -102.3 138.1 -86.5 156.7 -110.5 145.1 -84.4 154.6 -113.8 148.8 -84.4 154.6 -115.6 151.3 -85.1 155.5 -116.9 153.1 -86.1 157 -117.7 154.3 -87.7 159.2 -118.1 154.7 -90.3 162.4 -116.9 153.4 -96.7 168.6 -108.1 147.2 -115.2 176.7 -94.4 145 -124.5 174.7 -91.9 146.4 -94.8 162.5 -120.5 153.5 -128.7 175.9 -95.6 148 -132.8 170.8 -96.2 146.7 -134.2 167.2 -96.9 144.4 -135.2 163.9 -97.6 141.9 -136 160.6 -98.3 139.1 -136.7 157.4 -98.8 136.2 -137.3 154.2 -99.3 133.3 -137.9 151 -99.8 130.3 -138.3 147.7 -100.3 127.3 -138.8 144.5 -100.7 124.3 -139.2 141.2 -139.4 139.3 -100.9 123 -139.2 142.3 -100.7 124.7 -138.5 146 -100.4 125.8 -137 149.8 -100 126.5 -135.1 152.8 -98.9 128.1 -133.7 154.6 -97.2 130.4 -132.6 156.2 -95.6 132.9 -131.7 157.8 -94.3 135.5 -130.8 159.7 -93.1 138.1 -130 161.6 -92.1 140.7 -129.3 163.7 -91.2 143.3 -128.5 165.9 -126.4 157.1 -89.9 147.3 -127.9 158.4 -89.3 142.7 -127.3 153.5 -88.7 138.2 -126.5 148.5 -87.9 133.7 -125.6 143.5 -87.1 129.2 -124.6 138.2 -86.2 124.9 -123.3 132.8 -85.1 120.6 -121.6 127 -83.7 116.5 -119.5 121.1 -82.1 112.2 -117.3 115.7 -80 106.9 -115.6 111.2 -77.9 101.1 -114.2 107 -91.3 112.3 -75.4 92.7 -113.5 113.5 -74.9 96.6 -112.9 117.6 -74.3 100.4 -112.2 121.7 -73.6 104.1 -111.4 125.9 -72.9 107.6 -110.3 130.2 -72 110.7 -108.6 134.9 -71.8 111.5 -76.2 132 -103.3 124.8 -66.1 116.4 -102.5 122.4 -64.3 110.5 -101.4 118.5 -63.1 105.4 -100.5 114.2 -62.1 100.5 -99.4 109.2 -62 99.7 -97.8 104.7 -61.8 99.2 -95.9 100.8 -62.2 100 -91.9 94.8 -65.5 103.8 -82.1 85.9 -72.9 108.9 -72 80.6 -74.7 109.7 -69.1 79.7 -69.7 107.9 -72.3 81.1 -60.1 102.3 -77.5 84.9 -52.3 95.3 -79.8 87.4 -48.2 90 -80.2 88 -45.9 86.1 -80 87.6 -78.7 99.1 -42.7 76.2 -80 99.1 -41.8 79.1 -78.6 103 -40.8 81.4 -76.4 107.2 -40 82.7 -72.3 111.6 -40 82.7 -67.1 114.1 -35.3 84.8 -66.8 114.2 -30.8 89.2 -66.1 115.4 -28.5 93.3 -65.1 117.6 -27 97.3 -64.2 120.3 -25.8 101.1 -63.4 123.4 -24.9 104.8 -62.6 126.6 -55.2 112.5 -23.7 109.7 -61.5 119.5 -22.9 104.7 -60.5 114.2 -22 99.9 -59.5 108.8 -21 95.2 -58.2 103.1 -19.9 90.7 -56.2 96.5 -19.1 88.4 -32.6 72.7 -50.3 101.4 -13 78.6 -49.5 103.2 -11.2 83.7 -48.5 106.7 -10 88.4 -47.6 110.6 -9 92.9 -46.8 114.7 -8.2 97.5 -31.6 125 -45.6 113.2 -7.1 98.3 -44.8 108.2 -6.3 93.6 -43.9 103.2 -5.4 88.8 -42.9 98.1 -4.5 84.2 -41.8 92.9 -3.5 79.6 -40.5 87.3 -2.3 75.3 -38.6 81 -1.5 72.8 -28.2 64.9 -31.8 86 4.4 61.5 -31.6 86.8 6.5 66.5 -30.6 89.9 7.8 71 -29.6 93.6 -2.8 69.4 9.2 78.3 -27.8 85.8 10.3 74.3 -26.3 81 11.6 70.2 -24.8 76.3 13 65.7 -23.5 71.9 14.5 60.9 -22.3 67.9 15.8 56 -21.3 64 17 51.1 -20.4 60.1 18 46.4 -19.6 56.1 18.9 41.7 -18.9 52.1 19.6 37.2 -18.3 48 20.2 32.8 -17.7 44 -13.8 50 21.1 28.4 -16.9 49.2 21.6 33.1 -16.4 54.2 22.2 37.8 -15.7 59.2 22.9 42.4 -14.9 64.2 23.7 46.4 -13.3 70.2 -10.8 61.5 26.7 50.8 -10.9 60.2 27.7 44.4 -10.3 55.4 28.4 38.7 -9.8 50.4 28.8 33.2 -9.3 45.2 29.2 27.9 -9 40.1 29.6 22.5 -8.5 33.5 -7.9 39.2 29.6 17 -7.2 40.9 29.7 17.3 -6.1 42.9 29.5 17 -3.5 45.5 26.4 15.3 8.5 47.1 10.4 19.1 25 38.7 5.8 22.4 27.8 36.2 9.5 19.2 22.3 40.1 25.4 11.4 8.3 43.3 36.6 12.4 5 41.9 39.6 14.9 4.7 41.5 40.9 16.8 38.7 31.4 4.6 33.7 42.6 21.8 5.4 30.3 43.2 19.7 6.6 26.5 43.7 18.2 8.6 21.6 43.2 19 16.8 10.3 25 31.6 44.3 0 17 31.5 49.6 2.6 17.5 31.9 52 4.6 18.9 33.1 53.7 6.3 20.6 34.8 55 7.5 22.9 36.8 55.7 8 27.6 39.3 58.4 8.8 24.6 36.5 62 13.9 26.4 39.8 62.4 14.5 30.6 43.9 57.9 13 49.1 43.2 47.1 15.8 53.6 40.9 65 10.1 41 41.8 74.7 14.1 40.2 41.3 77.2 17.8 40.8 42.4 78.6 20.9 41.5 44.2 79.5 23.9 42.1 46.3 80.3 26.8 42.7 48.6 81 29.6 44.5 54 59.3 29.7 83.1 38.9 49.7 38.8 86.9 30.7 50.9 35.5 88.8 25 52.2 31.4 90.3 19.8 53.5 27 91.6 14.9 54.6 22.5 92.8 10.1 55.8 17.8 94 5.3 57 13.2 95.2 .7 58.2 8.4 96.4 -3.9 59.5 3.5 97.6 -8.4 60.9 -1.5 98.9 -12.8 87.3 -27 62.7 1.8 101.1 -17.4 63.8 5.9 102.2 -13.4 65.1 10.1 103.3 -9.6 66.4 14.3 104.6 -5.9 68 18.6 105.9 -2.6 70.1 23.1 107.2 -.3 74.9 28.8 85 4.7 112.7 10 77.9 12.5 115.8 1.7 78.9 8.9 117.2 -4.4 79.8 4.5 118.3 -9.8 80.7 0 95.4 7.1 119.6 -16.6 82 6 120.5 -12.5 83.3 10.9 121.6 -8.9 85.3 16.2 122.3 -7.2 102.7 22.8 92.7 4.6 128.8 -.9 93.4 2.7 131.3 -8 94.8 -1.8 133 -14.2 96.1 -6.8 134.4 -19.9 97.3 -11.9 135.7 -25.5 98.4 -17 136.8 -31.1 99.5 -22.3 137.9 -36.5 104 -35.2 104.3 -18.1 137.9 -46.4 105.4 -17.2 139.9 -44.5 106.8 -15.9 141.6 -42.9 108.5 -14.2 143 -41.6 110.6 -12.4 144 -40.8 113.8 -10.2 143.3 -41 124 -8.5 126.7 -36.2 149 -23.5 118.7 -28.1 153.9 -31.6 118.7 -28.2 155.7 -36.2 119.3 -29.8 156.9 -39.9 119.9 -31.9 123.6 -23.1 158.4 -46.4 120.6 -24.6 159 -43.2 121.5 -20.8 159.8 -40.2 122.5 -16.9 160.6 -37.6 124.2 -12.7 161.1 -36.4 129.5 -6.9 149.8 -37.4 152 -10.2 162.8 -40.4 136.5 -9.1 172.5 -34.3 136.6 -8.7 174.5 -29.9 137.5 -6.4 175.7 -25.9 138.2 -3.4 176.6 -22.1 138.9 -.3 176.5 -20.8 149.5 8 168.2 -24.9 153.5 7.8 167.2 -24.8 158 6.9 166 -24.5 162.6 5.5 164.9 -24.1 167.1 3.6 164.1 -23.7 171.1 1.6 163.8 -23.6 174.6 -.5 163.9 -23.6 177.6 -2.5 164.4 -24 180.2 -4.4 165.2 -24.6 182.4 -6.1 166.4 -25.5 184.3 -7.6 167.7 -26.6 193 -16.5 159.8 -17 195.8 -22 162 -21.4 195.6 -21.8 166.3 -27.9 192.8 -18.5 176.1 -37.1 187.4 -14.5 183.8 -41.6 191.4 -16.6 179.9 -39 202.6 -25.7 175.5 -34.4 208.2 -33.3 174.8 -33.4 210.7 -38.2 175.2 -34.2 212.1 -41.9 175.7 -35.7 213.2 -45.1 176.2 -37.4 214 -48.1 207.4 -60.8 177 -32.4 215.1 -52.8 178 -29.5 215.8 -50.7 179.1 -26.4 216.6 -49 180.9 -23.1 216.9 -48.4 185.3 -18.8 208.2 -49.9 215.5 -27.9 189.7 -38.1 223.3 -38.2 189.8 -38.5 225.8 -43.3 190.9 -40.8 227.5 -47.4 192.1 -43.7 229 -51.1 193.3 -46.8 230.3 -54.5 194.6 -50.3 201.3 -38.5 232.8 -63.2 195.2 -41.1 233.6 -59.9 196.1 -37.3 234.4 -56.6 197.1 -33.5 235.3 -53.7 198.5 -29.6 236.3 -51.1 200.3 -25.5 237.3 -49.2 203.4 -21.2 237.9 -48.5 208.1 -17.7 240.8 -46.8 209.2 -17 245.3 -42.3 209.8 -16 247.5 -37.8 210.7 -13.8 248.9 -33.7 211.6 -10.9 249.8 -30.2 212.9 -6.9 250.1 -29.8 214.4 -4 250.3 -29.4 217.7 -.5 247.2 -31 232.5 .9 234.2 -28.3 241.5 -2.9 248.2 -33.3 227.2 -1.2 259.9 -29.8 225.5 -2.5 262.3 -26.3 225.8 -1.8 263.5 -23.5 226.3 -.5 264.4 -21 226.8 1.1 265 -18.5 227.3 3 265.5 -16.1 235 11.3 251.1 -21 249.1 8.8 251.2 -20.9 268.6 -4.2 236.5 -4.8 274.9 -19.4 236.4 -4.9 274.8 -23.5 236.2 -7.6 274.6 -26.6 236 -10.5 274.4 -29.5 235.8 -13.6 274.2 -32.3 235.7 -16.7 274.1 -35.2 235.5 -19.9 274 -38.1 235.5 -23.1 273.9 -41 235.4 -26.3 273.9 -43.9 238.9 -22.6 234.5 -30.4 272.1 -39.8 233.5 -23.5 271.9 -36.6 233.4 -18.6 271.9 -32.8 233.5 -14.1 272.1 -29 233.7 -9.8 272.3 -25 234 -5.6 272.5 -21.1 234.3 -1.4 272.8 -17.1 234.6 2.7 273.2 -13.1 235 6.8 273.5 -9.1 235.3 10.8 273.9 -5 235.7 14.8 274.3 -.8 274.4 3.1"/>
            <g>
              <ellipse class="st11" cx="225.1" cy="183.6" rx="43.4" ry="35.9"/>
              <ellipse class="st3" cx="225.1" cy="183.6" rx="60.7" ry="50.2"/>
              <ellipse class="st3" cx="225.1" cy="183.6" rx="79" ry="65.3"/>
              <ellipse class="st3" cx="225.1" cy="183.6" rx="94.8" ry="78.3"/>
              <ellipse class="st3" cx="225.1" cy="183.6" rx="113.7" ry="94"/>
              <ellipse class="st3" cx="225.1" cy="183.6" rx="130.7" ry="110.5"/>
              <ellipse class="st3" cx="225.1" cy="183.6" rx="143.7" ry="121.5"/>
              <ellipse class="st3" cx="225.1" cy="183.6" rx="160.2" ry="136.4"/>
              <ellipse class="st3" cx="225.1" cy="183.6" rx="176.2" ry="150"/>
            </g>
            <g class="st15">
              <g class="st15">
                <text class="st20" transform="translate(133.1 193.5) scale(1 1)"><tspan x="0" y="0">5.8.-14.8.24</tspan></text>
                <text class="st2" transform="translate(133.1 193.5) scale(1 1)"><tspan x="0" y="0">5.8.-14.8.24</tspan></text>
              </g>
            </g>
            <g class="st15">
              <g class="st15">
                <text class="st12" transform="translate(-22.5 223) scale(1.4 1)"><tspan x="0" y="0">impulse</tspan></text>
                <text class="st1" transform="translate(-22.5 223) scale(1.4 1)"><tspan x="0" y="0">impulse</tspan></text>
              </g>
              <g class="st15">
                <text class="st12" transform="translate(46.1 269.2) scale(1.4 1)"><tspan x="0" y="0">impulse</tspan></text>
                <text class="st1" transform="translate(46.1 269.2) scale(1.4 1)"><tspan x="0" y="0">impulse</tspan></text>
              </g>
              <g class="st15">
                <text class="st12" transform="translate(66.4 322.9) scale(1.4 1)"><tspan x="0" y="0">impulse</tspan></text>
                <text class="st1" transform="translate(66.4 322.9) scale(1.4 1)"><tspan x="0" y="0">impulse</tspan></text>
              </g>
              <g class="st15">
                <text class="st12" transform="translate(4.7 347) scale(1.4 1)"><tspan x="0" y="0">impulse</tspan></text>
                <text class="st1" transform="translate(4.7 347) scale(1.4 1)"><tspan x="0" y="0">impulse</tspan></text>
              </g>
              <g class="st15">
                <text class="st12" transform="translate(13.9 291.3) scale(1.4 1)"><tspan x="0" y="0">impulse</tspan></text>
                <text class="st1" transform="translate(13.9 291.3) scale(1.4 1)"><tspan x="0" y="0">impulse</tspan></text>
              </g>
              <g class="st15">
                <text class="st12" transform="translate(5.5 236.8) scale(1.4 1)"><tspan x="0" y="0">impulse</tspan></text>
                <text class="st1" transform="translate(5.5 236.8) scale(1.4 1)"><tspan x="0" y="0">impulse</tspan></text>
              </g>
            </g>
            <g class="st32">
              <path class="st7" d="M370,456c-2,1.7,12.5-72.4,9.6-72.4s-2.9,102.2-5.8,102.2-2.9,23.1-5.8,23.1-2.9-140.6-5.8-140.6-2.9,88.9-5.8,88.9-2.9,64.6-5.8,64.6-2.9-28.5-5.8-28.5-2.9-99.3-5.8-99.3-2.9,128-5.8,128-2.9-76.4-5.8-76.4-2.9,80.9-5.8,80.9-2.9-105.2-5.8-105.2-2.9,73.6-5.8,73.6-2.9-23.7-5.8-23.7-2.9-27.2-5.8-27.2-2.9-8.9-5.8-8.9-2.9-59.3-5.8-59.3-2.9,113.3-5.8,113.3-2.9-30.4-5.8-30.4-2.9-12.4-5.8-12.4-2.9,129.7-5.8,129.7-2.9-168.8-5.8-168.8-2.9,80.3-5.8,80.3-2.9-88.9-5.8-88.9-2.9,38.5-5.8,38.5-2.9,112.6-5.8,112.6-2.9-125.9-5.8-125.9-2.9,150-5.8,150-2.9-96.2-5.8-96.2-2.9,24.7-5.8,24.7-2.9-126.5-5.8-126.5-2.9,126.9-5.8,126.9-2.9-70-5.8-70-2.9-48-5.8-48-2.9,55-5.8,55-2.9-24-5.8-24-2.9-36.3-5.8-36.3-2.9,149.7-5.8,149.7-2.9,33.3-5.8,33.3-2.9-171.5-5.8-171.5-2.9,125.1-5.8,125.1-2.9-39.7-5.8-39.7-2.9,24-5.8,24-2.9,75.9-5.8,75.9-2.9-40.7-5.8-40.7-2.9-34.4-5.8-34.4-2.9-71.6-5.8-71.6-2.9,63-5.8,63-2.9,22.5-5.8,22.5-2.9-74.2-5.8-74.2-2.9,19.4-5.8,19.4-2.9,114.6-5.8,114.6-2.9-38.4-5.8-38.4-2.9,38.3-5.8,38.3-2.9-87.3-5.8-87.3-2.9-35.2-5.8-35.2-2.9,70.1-5.8,70.1-2.9-99.6-5.8-99.6-2.9-38.3-5.8-38.3-2.9,26.9-5.8,26.9-2.9,158.1-5.8,158.1-2.9-139.4-5.8-139.4-2.9,6.7-5.8,6.7-2.9,107.3-5.8,107.3-2.9-128-5.8-128-2.9,18.8-5.8,18.8S2.8,487.8,0,487.8s-2.9,27.9-5.8,27.9-2.9-.4-5.8-.4-2.9,26.6-5.8,26.6-2.9,4.2-5.8,4.2-2.9-170.8-5.8-170.8-34.3,120.1-36.3,118.4,2.3-27.7,2.3-30.1,56.9-2.5,56.9-5-89.3-2.5-89.3-5,156.2-2.5,156.2-5-157.3-2.5-157.3-5,110.6-2.5,110.6-5-176.2-2.5-176.2-5,154.1-2.5,154.1-5-1.2-2.5-1.2-5-35.8-2.5-35.8-5-117-2.5-117-5,252.4-2.5,252.4-5-88.2-2.5-88.2-5-36.4-2.5-36.4-5,11-2.5,11-5,87.5-2.5,87.5-5-10.6-2.5-10.6-5-128.2-2.5-128.2-5,118.4-2.5,118.4-5-17.2,48.9-15.2,47.1-60.7-117.9-57.9-117.9,2.9,94.2,5.8,94.2,2.9,16.9,5.8,16.9,2.9,58.1,5.8,58.1,2.9-195.4,5.8-195.4S-3.1,441.5-.2,441.5s2.9-43.1,5.8-43.1,2.9-74.9,5.8-74.9,2.9,100.6,5.8,100.6,2.9-137.3,5.8-137.3,2.9,3.9,5.8,3.9,2.9,121.8,5.8,121.8,2.9-29,5.8-29,2.9-60.2,5.8-60.2,2.9,4.1,5.8,4.1,2.9-1.7,5.8-1.7,2.9-44.1,5.8-44.1,2.9,9.7,5.8,9.7,2.9,132.9,5.8,132.9,2.9-91.7,5.8-91.7,2.9-53.7,5.8-53.7,2.9,84,5.8,84,2.9,101.3,5.8,101.3,2.9-129.7,5.8-129.7,2.9,34.8,5.8,34.8,2.9,93.3,5.8,93.3,2.9-13.5,5.8-13.5,2.9,11.3,5.8,11.3,2.9-63.8,5.8-63.8,2.9,54.1,5.8,54.1,2.9-24.4,5.8-24.4,2.9-29.1,5.8-29.1,2.9-34.7,5.8-34.7,2.9,32.1,5.8,32.1,2.9,36.1,5.8,36.1,2.9-76.3,5.8-76.3,2.9-18.6,5.8-18.6,2.9-70.5,5.8-70.5,2.9,87.3,5.8,87.3,2.9-40.4,5.8-40.4,2.9,164.3,5.8,164.3,2.9-1.1,5.8-1.1,2.9-65.9,5.8-65.9,2.9,41,5.8,41,2.9-188.9,5.8-188.9,2.9,141.5,5.8,141.5,2.9-23.7,5.8-23.7,2.9-92.9,5.8-92.9,2.9-7.9,5.8-7.9,2.9-13.9,5.8-13.9,2.9,201,5.8,201,2.9-171.1,5.8-171.1,2.9,119.3,5.8,119.3,2.9-2.1,5.8-2.1,2.9,4.7,5.8,4.7,2.9,51.6,5.8,51.6,2.9-39,5.8-39,2.9-81.6,5.8-81.6,2.9,79.1,5.8,79.1,2.9,46,5.8,46,2.9-211.2,5.8-211.2,2.9,41.5,5.8,41.5,2.9,141.4,5.8,141.4,2.9,8.7,5.8,8.7,2.9-110.6,5.8-110.6,2.9,95,5.8,95,2.9-122.1,5.8-122.1,2.9,35.1,5.8,35.1,2.9,16.4,5.8,16.4,2.9-82.5,5.8-82.5,2.9,170.9,5.8,170.9,2.9-157.7,5.8-157.7,52.1,30.3,54.1,32,34.6,42.3,34.6,44.7-168.7,2.5-168.7,5,65,2.5,65,5-3,2.5-3,5-88.8,2.5-88.8,5-14.2,2.5-14.2,5,81.5,2.5,81.5,5-30,2.5-30,5,5.9,2.5,5.9,5,198.9,2.5,198.9,5-255.9,2.5-255.9,5,22.1,2.5,22.1,5,175.7,2.5,175.7,5-172.5,2.5-172.5,5,177.2,2.5,177.2,5-203.5,2.5-203.5,5,228.4,2.5,228.4,5-116.8,2.5-116.8,5,55.2-71.9,52.5-72.8c-8.5-2.8-49.9,68.4-51.9,70.2h0s0,0,0,0Z"/>
            </g>
            <g>
              <path class="st21" d="M359.4,485.2c-.8-1.9.2-2,2.3-3,3-1.5,5.6-2.6,8.7-.7.8.5,3.2,1.4,2.6.5-3.4-4.7-8.4-15.4-9.3-15.7-.7-.3-.6.8-1.1,2.8-.5,2.5-3.6,4.1-5.6,5.6-3.7,2.7-12,6.9-14,9,0,0,4.1,6.2,5.3,5.6s6.2-3.9,6.6-2.9c.5,1.2,3.1,6.4,4.1,9h0c0,.2.3.3.6.3,1.2-.2,2.3-.4,3.5-.6.5,0,.7-.5.6-.9-.8-2.2-3.3-6.6-4.3-8.8h0,0Z"/>
              <g class="st15">
                <g class="st15">
                  <text class="st19" transform="translate(369.8 475.3) scale(1.2 1)"><tspan x="0" y="0">IMPULSE</tspan></text>
                </g>
              </g>
              <g class="st15">
                <g class="st15">
                  <text class="st16" transform="translate(378.9 484.8) scale(1.2 1)"><tspan x="0" y="0">Theater</tspan></text>
                </g>
              </g>
              <g class="st15">
                <g class="st15">
                  <text class="st14" transform="translate(367.5 495) scale(1.2 1)"><tspan x="0" y="0">FESTI</tspan></text>
                </g>
                <g class="st15">
                  <text class="st17" transform="translate(403.2 495) scale(1.2 1)"><tspan x="0" y="0">V</tspan></text>
                </g>
                <g class="st15">
                  <text class="st18" transform="translate(410.6 495) scale(1.2 1)"><tspan x="0" y="0">A</tspan></text>
                </g>
                <g class="st15">
                  <text class="st18" transform="translate(419.7 495) scale(1.2 1)"><tspan x="0" y="0">L</tspan></text>
                </g>
              </g>
            </g>
            <g class="st32">
              <path class="st4" d="M215.7,88.8c-2,1.7,12.5-72.4,9.6-72.4s-2.9,102.2-5.8,102.2-2.9,23.1-5.8,23.1S210.9,1,208.1,1s-2.9,88.9-5.8,88.9-2.9,64.6-5.8,64.6-2.9-28.5-5.8-28.5-2.9-99.3-5.8-99.3-2.9,128-5.8,128-2.9-76.4-5.8-76.4-2.9,80.9-5.8,80.9-2.9-105.2-5.8-105.2-2.9,73.6-5.8,73.6-2.9-23.7-5.8-23.7-2.9-27.2-5.8-27.2-2.9-8.9-5.8-8.9-2.9-59.3-5.8-59.3-2.9,113.3-5.8,113.3-2.9-30.4-5.8-30.4-2.9-12.4-5.8-12.4-2.9,129.7-5.8,129.7-2.9-168.8-5.8-168.8-2.9,80.3-5.8,80.3-2.9-88.9-5.8-88.9-2.9,38.5-5.8,38.5-2.9,112.6-5.8,112.6-2.9-125.9-5.8-125.9-2.9,150-5.8,150-2.9-96.2-5.8-96.2-2.9,24.7-5.8,24.7-2.9-126.5-5.8-126.5-2.9,126.9-5.8,126.9-2.9-70-5.8-70-2.9-48-5.8-48-2.9,55-5.8,55-2.9-24-5.8-24-2.9-36.3-5.8-36.3-2.9,149.7-5.8,149.7-2.9,33.3-5.8,33.3S3.9,23.6,1,23.6s-2.9,125.1-5.8,125.1-2.9-39.7-5.8-39.7-2.9,24-5.8,24-2.9,75.9-5.8,75.9-2.9-40.7-5.8-40.7-2.9-34.4-5.8-34.4-2.9-71.6-5.8-71.6-2.9,63-5.8,63-2.9,22.5-5.8,22.5-2.9-74.2-5.8-74.2-2.9,19.4-5.8,19.4-2.9,114.6-5.8,114.6-2.9-38.4-5.8-38.4-2.9,38.3-5.8,38.3-2.9-87.3-5.8-87.3-2.9-35.2-5.8-35.2-2.9,70.1-5.8,70.1-2.9-99.6-5.8-99.6-2.9-38.3-5.8-38.3-2.9,26.9-5.8,26.9-2.9,158.1-5.8,158.1-2.9-139.4-5.8-139.4-2.9,6.7-5.8,6.7-2.9,107.3-5.8,107.3-2.9-128-5.8-128-2.9,18.8-5.8,18.8-2.9,53.1-5.8,53.1-2.9,27.9-5.8,27.9-2.9-.4-5.8-.4-2.9,26.6-5.8,26.6-2.9,4.2-5.8,4.2-2.9-170.8-5.8-170.8-34.3,120.1-36.3,118.4,2.3-27.7,2.3-30.1,56.9-2.5,56.9-5-89.3-2.5-89.3-5,156.2-2.5,156.2-5-157.3-2.5-157.3-5,110.6-2.5,110.6-5-176.2-2.5-176.2-5,154.1-2.5,154.1-5-1.2-2.5-1.2-5-35.8-2.5-35.8-5-117-2.5-117-5,252.4-2.5,252.4-5-88.2-2.5-88.2-5-36.4-2.5-36.4-5,11-2.5,11-5,87.5-2.5,87.5-5-10.6-2.5-10.6-5-128.2-2.5-128.2-5,118.4-2.6,118.4-5-17.2,48.9-15.2,47.1-60.7-117.9-57.9-117.9,2.9,94.2,5.8,94.2,2.9,16.9,5.8,16.9,2.9,58.1,5.8,58.1,2.9-195.4,5.8-195.4,2.9,164.2,5.8,164.2,2.9-43.1,5.8-43.1,2.9-74.9,5.8-74.9,2.9,100.6,5.8,100.6,2.9-137.3,5.8-137.3,2.9,3.9,5.8,3.9,2.9,121.8,5.8,121.8,2.9-29,5.8-29,2.9-60.2,5.8-60.2,2.9,4.1,5.8,4.1,2.9-1.7,5.8-1.7,2.9-44.1,5.8-44.1,2.9,9.7,5.8,9.7,2.9,132.9,5.8,132.9,2.9-91.7,5.8-91.7,2.9-53.7,5.8-53.7,2.9,84,5.8,84,2.9,101.3,5.8,101.3,2.9-129.7,5.8-129.7S-48.1,2.1-45.2,2.1s2.9,93.3,5.8,93.3,2.9-13.5,5.8-13.5,2.9,11.3,5.8,11.3,2.9-63.8,5.8-63.8,2.9,54.1,5.8,54.1,2.9-24.4,5.8-24.4,2.9-29.1,5.8-29.1S-2.1-4.7.8-4.7,3.7,27.4,6.5,27.4s2.9,36.1,5.8,36.1S15.2-12.7,18-12.7s2.9-18.6,5.8-18.6,2.9-70.5,5.8-70.5,2.9,87.3,5.8,87.3,2.9-40.4,5.8-40.4,2.9,164.3,5.8,164.3,2.9-1.1,5.8-1.1,2.9-65.9,5.8-65.9,2.9,41,5.8,41,2.9-188.9,5.8-188.9,2.9,141.5,5.8,141.5,2.9-23.7,5.8-23.7,2.9-92.9,5.8-92.9,2.9-7.9,5.8-7.9,2.9-13.9,5.8-13.9,2.9,201,5.8,201,2.9-171.1,5.8-171.1,2.9,119.3,5.8,119.3,2.9-2.1,5.8-2.1,2.9,4.7,5.8,4.7,2.9,51.6,5.8,51.6,2.9-39,5.8-39,2.9-81.6,5.8-81.6,2.9,79.1,5.8,79.1,2.9,46,5.8,46,2.9-211.2,5.8-211.2,2.9,41.5,5.8,41.5,2.9,141.4,5.8,141.4,2.9,8.7,5.8,8.7,2.9-110.6,5.8-110.6,2.9,95,5.8,95,2.9-122.1,5.8-122.1,2.9,35.1,5.8,35.1S205.1-.3,207.9-.3s2.9-82.5,5.8-82.5,2.9,170.9,5.8,170.9,2.9-157.7,5.8-157.7,52.1,30.3,54.1,32,34.6,42.3,34.6,44.7-168.7,2.5-168.7,5,65,2.5,65,5-3,2.5-3,5-88.8,2.5-88.8,5-14.2,2.5-14.2,5,81.5,2.5,81.5,5-30,2.5-30,5,5.9,2.5,5.9,5,198.9,2.5,198.9,5-255.9,2.5-255.9,5,22.1,2.5,22.1,5,175.7,2.5,175.7,5-172.5,2.5-172.5,5,177.2,2.5,177.2,5-203.5,2.5-203.5,5,228.4,2.5,228.4,5-116.8,2.5-116.8,5,55.2-71.9,52.5-72.8c-8.5-2.8-49.9,68.4-51.9,70.2h0s0,0,0,0Z"/>
            </g>
          </g>
        </g>
      </g>
      <g id="Ebene_2-2-2" class="st35">
        <g>
          <rect class="st5" x="-51.5" y="395.6" width="220.1" height="135.4"/>
          <g>
            <path class="st24" d="M-.7,424.2c0,0,0-.2,0-.3-.1-.4-.2-.7-.4-1-.4-.7-.9-1.4-1.5-2-.7-.7-1.6-1.2-2.4-1.6-.6-.3-1.2-.5-1.8-.7-.6-.2-1.1-.3-1.7-.4-.5,0-.9-.1-1.4-.2-.5,0-1.1,0-1.6,0-1.8,0-3.5.2-5.1.6-.5.1-.9.3-1.4.4-1.8.7-3.3,1.8-4.6,3.3-.7-1.2-1.7-2.3-3.1-3.1-.5-.3-1.1-.5-1.7-.7-1.4-.4-3.1-.6-5-.6s-2.1,0-3,.2c-1.6.2-3,.7-4.1,1.3-1,.6-2.1,1.5-3.3,2.8v-3.7h-9.1v25.5h9.5v-15.4c0-1.4.2-2.4.7-3.1.9-1.2,2.7-1.9,5.4-1.9s3.9.6,4.7,1.9c.4.7.7,1.8.7,3.3v15.2h9.5v-15.2c0-1.1.2-2.1.8-2.9,1-1.5,2.8-2.3,5.4-2.3s3.8.6,4.6,1.8c.5.6.7,1.4.7,2.4v16.3H-.4v-16.1c0-1.7,0-2.9-.3-3.8h0Z"/>
            <path class="st24" d="M38.5,421.3c-1.1-.8-2.3-1.5-3.5-2-2-.8-4.2-1.2-6.6-1.3-.2,0-.4,0-.6,0-.8,0-1.6,0-2.3.1-1.9.2-3.7.8-5.2,1.6-1.1.6-2.1,1.4-3,2.4,0,0-.2.2-.2.3v-3.8h-9v35.6h9.3v-13.3c1,1.1,2,1.9,3,2.4,1.9,1,4.3,1.5,7.1,1.5,4.5,0,8.2-1.2,11-3.5,2.9-2.3,4.3-5.8,4.3-10.3s-1.5-7.5-4.3-9.7h0s0,0,0,0ZM31,437c-1.4,1.4-3.4,2.2-6,2.2s-3.4-.4-4.7-1.1c-2.2-1.2-3.3-3.3-3.3-6.2s.2-2.8.7-3.9c0-.3.2-.5.3-.7,1.3-2.3,3.6-3.4,7-3.4s.3,0,.4,0c2.6,0,4.5.8,5.7,2.3,1.3,1.5,1.9,3.2,1.9,5.2s-.7,4.3-2.1,5.7h0Z"/>
            <path class="st24" d="M72.3,418.5v13.9c0,1.6-.3,3-.9,4-1.2,1.8-3.4,2.8-6.6,2.8s-4.2-.7-5-2c-.5-.7-.7-1.8-.7-3.3v-15.4h-9.6v15.4c0,2.9.5,5.1,1.6,6.6,1.9,2.7,5.4,4.1,10.8,4.1s3.5-.2,4.9-.5c1.4-.3,2.8-1,4.3-1.9.5-.3.9-.6,1.2-1,.4-.4.6-.6.7-.7v3.6h9.1v-25.5h-9.5s0,0,0,0Z"/>
            <path class="st24" d="M91.1,409.5v34.5h9.4v-34.5h-9.4Z"/>
            <path class="st24" d="M137.5,431.5c-1.9-1.3-4.7-2.2-8.4-2.9-5.6-.9-8.9-1.5-9.8-1.8-.9-.3-1.4-.9-1.4-1.7s.4-1.1,1.3-1.6c.9-.5,2.3-.7,4.4-.7s4.2.4,5.3,1.4c.6.5.9,1.2,1,2h9.4c-.4-3.1-2-5.3-4.9-6.6-1.8-.8-3.9-1.3-6.3-1.6h0c-1.5-.2-3-.3-4.7-.3-3.5,0-6.4.4-8.7,1.4-.8.3-1.6.7-2.3,1.2-2.6,1.7-3.9,3.7-3.9,6.1s.8,3.5,2.5,4.6c1.7,1.1,4.5,2,8.6,2.7,5.7,1,8.9,1.6,9.8,2,.9.4,1.3,1,1.3,1.7s-.5,1.4-1.6,1.8-2.6.6-4.4.6c-3.2,0-5.3-.4-6.5-1.3-.6-.5-1.1-1.3-1.3-2.5h-9.5c0,2.6,1.4,4.8,4,6.5,2.7,1.7,6.9,2.5,12.5,2.5s9.6-.8,12.3-2.4c2.7-1.6,4-3.7,4-6.2s-.9-3.5-2.8-4.8h0Z"/>
            <path class="st24" d="M168.9,418.8c-.4-.1-.8-.2-1.1-.3-1.9-.5-4-.7-6.3-.7s-.6,0-.9,0c-2.9,0-5.5.6-7.8,1.5-1.3.5-2.5,1.2-3.6,2-3.2,2.4-4.7,5.8-4.7,10.2s1.7,8.1,5.2,10.2c3.5,2.1,7.5,3.1,12.1,3.1s4.2-.2,6-.6c.4,0,.8-.2,1.1-.3v-7.5h-.4c-.2.3-.5.6-.7.9-.3.4-.7.6-1,.9-1.2.8-2.8,1.2-4.7,1.2s-3.4-.3-4.7-1c-2.1-1-3.3-2.8-3.4-5.4h15v-14.3h0ZM154.1,428.7c.3-1.7,1.1-3,2.3-3.9,1.2-1,2.9-1.5,5.1-1.5s3.7.5,5,1.4c.5.3.9.7,1.2,1.2.6.8.9,1.7,1,2.8h-14.6Z"/>
          </g>
          <g>
            <path class="st24" d="M-51.5,510.5v-14h2.6v2.1c1.1-.7,2.2-1.3,3.2-1.6,1.8-.6,4.1-.8,6.9-.8s4.9.2,6.5.7c1.3.4,2.3,1,3,1.7,1.2-.8,2.7-1.5,4.5-1.8,1.9-.4,4-.6,6.3-.6s3.1.1,4.6.4c1.5.3,2.9.7,4.1,1.3,1,.5,1.6,1.1,2,1.8.2.5.3,1.2.3,2.1v9h-9.5v-9c0-.5-.2-1-.6-1.3-.8-.7-2.3-1-4.5-1s-4.3.4-5.2,1.3c-.5.5-.7,1-.7,1.6v8.5h-9.2v-8.5c0-.9-.2-1.5-.7-1.8-.8-.7-2.3-1-4.5-1s-4.4.4-5.3,1c-.5.4-.7,1-.7,1.8v8.6h-3v-.2h0Z"/>
            <path class="st24" d="M30.3,498c-1.7-.7-3.6-1.2-5.7-1.5-.4,0-.8,0-1.2-.1-1.1-.1-2.3-.2-3.5-.2s-2.8,0-4.1.3c-.6,0-1.1.2-1.6.3-.6.1-1.1.2-1.6.4-1.1.4-2.2.9-3.2,1.5v-2.1H.7v19.8h9.1v-7.4c1,.6,1.9,1.1,2.9,1.4,1.5.5,3.3.7,5.4.8.5,0,1,0,1.6,0,2.4,0,4.6-.2,6.5-.6,1.6-.3,3-.8,4.3-1.4,2.8-1.3,4.2-3.2,4.2-5.7s-1.4-4.2-4.3-5.4ZM17.2,508c-1.8,0-3.3-.2-4.6-.6-2.2-.7-3.3-1.8-3.3-3.5s.3-1.9,1-2.6c.8-.9,2.1-1.4,3.8-1.7.5,0,1-.1,1.6-.2.5,0,.9,0,1.5,0,2.2,0,4,.3,5.2.8.3.1.5.2.7.4,0,0,0,0,0,0,1.2.8,1.8,1.8,1.8,2.9s-.7,2.4-2,3.2-3.3,1.2-5.8,1.2Z"/>
            <path class="st24" d="M63.3,496.5v7.7c0,.9-.3,1.7-.9,2.2-1.2,1-3.3,1.5-6.4,1.5s-4.1-.4-4.9-1.1c-.5-.4-.7-1-.7-1.8v-8.6h-9.4v8.6c0,1.6.5,2.9,1.5,3.7,1.8,1.5,5.3,2.3,10.5,2.3s2.3,0,3.3-.1c.5,0,1,0,1.5-.1.4,0,.8-.1,1.2-.2,1-.2,1.9-.5,2.9-.9.5-.2.9-.3,1.2-.6.4-.2.6-.4.7-.4v2h8.9v-14.2h-9.3,0Z"/>
            <path class="st24" d="M81.7,493.6v17c0,0,9.1,0,9.1,0v-17h-9.1Z"/>
            <path class="st24" d="M126.9,503.7c-1.8-.7-4.6-1.2-8.2-1.6-5.5-.5-8.7-.8-9.5-1-.9-.2-1.4-.5-1.4-.9s.4-.6,1.3-.9c.8-.3,2.3-.4,4.3-.4s4.1.3,5.1.8c.5.3.9.7,1,1.1h9.2c-.4-1.7-2-3-4.7-3.7-2.8-.7-6.4-1-10.7-1s-8.2.5-10.7,1.4c-2.5.9-3.8,2.1-3.8,3.4s.7,1.8,2.1,2.4c.1,0,.2,0,.4.1.6.2,1.4.4,2.3.6,1.6.3,3.6.6,6.1.9,5.5.5,8.7.9,9.6,1.1.9.2,1.3.5,1.3,1s-.5.8-1.6,1-2.5.3-4.3.3c-3.1,0-5.2-.2-6.3-.7-.6-.3-1.1-.7-1.3-1.4h-9.3c0,.5.1.9.4,1.4.6.9,1.7,1.6,3.5,2.3.6.2,1.2.4,1.8.5,2.5.6,6,.9,10.4.9s1.7,0,2.5,0c4-.1,7.1-.5,9.3-1.2,0,0,.2,0,.2,0,2.6-.9,3.9-2,3.9-3.4s-.9-2-2.7-2.7h0Z"/>
            <path class="st24" d="M166.6,501.8c-.4-1.1-1.3-2.1-2.7-2.9-1.5-1-3.5-1.7-5.8-2.1-2.3-.4-5-.7-7.9-.7-4.9,0-8.9.7-12,2-3.1,1.3-4.6,3.2-4.6,5.7s1.7,4.5,5.1,5.7c3.4,1.2,7.3,1.7,11.8,1.7s.7,0,1.1,0c3.6,0,6.7-.5,9.1-1.2.9-.3,1.7-.5,2.4-.9,1.9-.9,3-1.7,3.3-2.6h-9.4c-.5.4-1.1.7-1.7,1-1.2.4-2.7.6-4.6.6s-3.3-.2-4.6-.5c-2.1-.6-3.2-1.6-3.3-3h24c0-1.2,0-2.2-.3-2.8h0ZM143.1,502.2c.3-.9,1-1.7,2.2-2.2,1.2-.5,2.8-.8,4.9-.8s3.6.2,4.9.8c1.3.5,2.1,1.3,2.2,2.2h-14.3Z"/>
          </g>
          <g>
            <path class="st24" d="M-41.5,445.8v19.7h5.5v-19.7h-5.5ZM-41.5,438.7v4.8h5.5v-4.8h-5.5Z"/>
            <path class="st24" d="M17,449.9c-.3-1.1-1-1.9-1.9-2.7-1.2-.9-2.5-1.5-4-1.9-1.5-.4-2.9-.5-4.4-.5-2.3,0-4.3.3-6.1.9-1.7.6-3.2,1.5-4.3,2.7-.7-1-1.6-1.9-2.9-2.5-1.6-.7-3.7-1.1-6.3-1.1s-5,.4-6.7,1.2c-1,.5-2,1.2-3.1,2.3v-3h-8.6v20.8h9v-12.5c0-1.1.2-2,.7-2.6.9-1,2.6-1.5,5.1-1.5s3.7.5,4.4,1.5c.4.6.6,1.5.6,2.7v12.4H-2.7v-12.4c0-.9.2-1.7.7-2.4,1-1.2,2.6-1.9,5.1-1.9s3.6.5,4.4,1.5c.4.5.6,1.2.6,2v13.3h9.1v-13.1c0-1.4,0-2.4-.2-3.1h0Z"/>
            <path class="st24" d="M52.9,454c-2.6-1.7-5.8-2.5-9.6-2.5s-4.8.4-6.7,1.3c-1,.5-2,1.2-2.9,2v-2.9h-8.1l-.2,20.3h8.4c0,0,0-3.1,0-3.1.9.8,1.8,1.5,2.7,1.9,1.7.8,3.8,1.2,6.4,1.2,4,0,7.3-.9,9.9-2.7,2.5-1.8,3.8-4.5,3.8-8s-1.3-5.8-3.9-7.5h0s0,0,0,0ZM46.3,466.2c-1.2,1.1-3,1.7-5.4,1.7s-3-.3-4.2-.8c-2-.9-3-2.5-3-4.8s.3-2.6.9-3.6c1.1-1.8,3.2-2.7,6.3-2.7s4.4.6,5.5,1.8c1.1,1.2,1.7,2.5,1.7,4s-.6,3.3-1.8,4.4h0Z"/>
            <path class="st24" d="M83.3,445.8v10.7c0,1.3-.3,2.3-.8,3.1-1.1,1.4-3,2.1-5.9,2.1s-3.8-.5-4.5-1.5c-.4-.6-.7-1.4-.7-2.5v-11.9h-8.6v11.9c0,2.3.5,4,1.4,5.1,1.7,2.1,4.9,3.1,9.6,3.1s3.1-.1,4.3-.4,2.5-.8,3.8-1.5c.4-.2.8-.5,1.1-.8.3-.3.5-.5.6-.5v2.8h8.2v-19.7h-8.5,0Z"/>
            <path class="st24" d="M100.2,438.9v26.7h8.4v-26.7h-8.4Z"/>
            <path class="st24" d="M141.8,455.9c-1.7-1-4.2-1.7-7.5-2.2-5-.7-8-1.2-8.8-1.4-.8-.3-1.2-.7-1.2-1.3s.4-.9,1.2-1.2c.8-.3,2.1-.5,3.9-.5s3.8.4,4.7,1c.5.4.8.9.9,1.6h8.4c-.4-2.4-1.8-4.1-4.4-5.1-2.5-1-5.8-1.5-9.8-1.5s-7.5.7-9.9,2c-2.3,1.3-3.5,2.9-3.5,4.7s.7,2.7,2.2,3.6c1.5.8,4.1,1.5,7.7,2.1,5.1.7,8,1.3,8.8,1.6.8.3,1.2.7,1.2,1.3s-.5,1.1-1.5,1.4c-1,.3-2.3.4-3.9.4-2.8,0-4.8-.3-5.8-1-.6-.4-1-1-1.2-2h-8.6c0,2,1.2,3.7,3.6,5,2.4,1.3,6.1,2,11.2,2s8.6-.6,11-1.9,3.6-2.8,3.6-4.8-.8-2.7-2.5-3.7h0Z"/>
            <path class="st24" d="M158.7,450.7c1.1-.7,2.6-1.1,4.5-1.1s3.3.4,4.5,1.1c.4.2.8.5,1.1.9v-5.7c-1.7-.3-3.6-.5-5.6-.5-4.5,0-8.2.9-11,2.7-2.8,1.8-4.2,4.4-4.2,7.9s1.6,6.3,4.7,7.9c3.1,1.6,6.8,2.4,10.9,2.4s3.7-.1,5.3-.4v-5.3c-.3.3-.6.5-.9.7-1.1.6-2.5.9-4.2.9s-3-.2-4.2-.7c-1.9-.8-2.9-2.2-3-4.2h12.4v-3.4h-12.2c.3-1.3,1-2.3,2-3h0s0,0,0,0Z"/>
          </g>
          <g>
            <path class="st24" d="M-51.5,503.1v4.9h6v-4.9h-6ZM-51.5,510.5v20.5h6v-20.5h-6Z"/>
            <path class="st24" d="M10,515c0-.2-.1-.4-.2-.6,0,0,0,0,0,0-.3-.7-.9-1.4-1.6-2-1.2-.9-2.4-1.5-3.9-1.8-.4-.1-.8-.2-1.2-.3-.8-.1-1.6-.2-2.4-.2-.2,0-.5,0-.7,0-2.2,0-4.2.3-6,.8-1.7.6-3.1,1.5-4.2,2.7-.6-1-1.6-1.8-2.9-2.5-.3-.1-.7-.3-1.1-.4-.8-.3-1.7-.4-2.8-.5-.7,0-1.5-.1-2.3-.1-2.7,0-4.9.4-6.5,1.2-1,.4-2,1.2-3,2.3v-3h-8.5v20.5h8.8v-12.3c0-1.1.2-2,.7-2.5.8-1,2.5-1.5,5-1.5s3.6.5,4.3,1.5c.4.6.6,1.4.6,2.7v12.2h8.7v-12.2c0-.9.2-1.7.7-2.4.9-1.2,2.6-1.8,5-1.8s3.4.4,4.1,1.3c0,0,0,0,.1.1,0,0,.1.2.2.3.3.5.4,1,.4,1.7v13h8.9v-12.9c0-1.3,0-2.3-.3-3h0Z"/>
            <path class="st24" d="M46.1,512.7c-2.7-1.8-6-2.6-9.9-2.6s-5,.4-6.9,1.4c-1.1.5-2,1.2-3,2.1v-3h-8.3v20.5h8.6v-2.6c.9.9,1.8,1.5,2.8,2,.6.3,1.2.5,1.9.7h9.7c2-.5,3.7-1.2,5.2-2.3,2.6-1.9,3.9-4.6,3.9-8.3s-1.3-6-4-7.8ZM39.3,525.3c-1.2,1.1-3.1,1.7-5.5,1.7s-3.1-.3-4.3-.9c-2-1-3.1-2.6-3.1-5s.3-2.7.9-3.7c1.2-1.8,3.3-2.8,6.5-2.8s4.5.6,5.7,1.8c1.2,1.2,1.7,2.6,1.7,4.2s-.6,3.4-1.9,4.6Z"/>
            <path class="st24" d="M77.4,510.5v11.1c0,1.3-.3,2.4-.9,3.2-1.1,1.5-3.1,2.2-6.1,2.2s-3.9-.5-4.6-1.6c-.5-.6-.7-1.5-.7-2.6v-12.4h-8.9v12.4c0,2.3.5,4.1,1.4,5.3,1.1,1.4,2.9,2.4,5.3,2.9,1.3.3,2.9.4,4.6.4s3.2-.1,4.5-.4h0c1.3-.3,2.6-.8,3.9-1.5.5-.2.8-.5,1.2-.8.3-.3.5-.5.6-.6v2.9h8.4v-20.5h-8.8Z"/>
            <path class="st24" d="M94.7,503.3v27.7h8.7v-27.7h-8.7Z"/>
            <path class="st24" d="M137.6,520.9c-1.7-1-4.3-1.8-7.8-2.3-5.2-.7-8.2-1.2-9-1.5-.8-.3-1.3-.7-1.3-1.3s.4-.9,1.2-1.3c.8-.4,2.1-.6,4-.6s3.9.4,4.9,1.1c.5.4.8,1,.9,1.6h8.7c-.4-2.5-1.9-4.3-4.5-5.3-2.4-.9-5.5-1.5-9.2-1.5-.3,0-.6,0-.9,0-3.4,0-6.2.4-8.4,1.2-.7.2-1.2.5-1.8.8-2.4,1.4-3.6,3-3.6,4.9s.8,2.8,2.3,3.7c1.5.9,4.2,1.6,8,2.2,5.2.8,8.2,1.3,9.1,1.6.8.3,1.2.8,1.2,1.4s-.5,1.1-1.5,1.4-2.4.5-4.1.5c-2.9,0-4.9-.4-6-1.1-.6-.4-1-1.1-1.2-2h-8.8c0,2.1,1.3,3.8,3.7,5.2,1.1.6,2.4,1,3.9,1.4h15.2c1.5-.3,2.7-.7,3.7-1.3,2.4-1.3,3.7-2.9,3.7-5s-.8-2.8-2.5-3.9h0Z"/>
            <path class="st24" d="M168.6,511.4c-.5-.2-1-.4-1.5-.5-1.9-.5-4-.9-6.3-.9-.4,0-.8,0-1.2,0-3,0-5.7.4-8,1.2-1.2.4-2.4,1-3.4,1.6-2.9,1.9-4.4,4.6-4.4,8.2s1.6,6.5,4.8,8.2c1.6.8,3.3,1.5,5.2,1.9h12.4c.8-.2,1.6-.4,2.3-.7v-5.4h-2.5c-.5.6-1,1.1-1.6,1.4-1.1.6-2.6.9-4.4.9s-3.1-.3-4.3-.8c-2-.8-3-2.3-3.1-4.3h15.9v-10.8h0ZM152.9,518.7c.3-1.3,1-2.4,2.1-3.2,1.1-.8,2.7-1.2,4.7-1.2s3.4.4,4.7,1.1c1.2.7,1.9,1.8,2.1,3.2h-13.5Z"/>
          </g>
          <g>
            <path class="st9" d="M-52.4,466.1v4.9h5.7v27.6h3.2v-27.6h5.7v-4.9h-14.6Z"/>
            <path class="st9" d="M-24.4,466.1v12.9h-8.2v-12.9h-3.2v32.5h3.2v-14.6h8.2v14.6h3.2v-32.5h-3.2Z"/>
            <path class="st9" d="M-14.3,493.6v-9.5H-5.2v-4.6h-9.1v-8.5H-4.4v-4.9h-13v32.5H-4.2v-4.9h-10Z"/>
            <path class="st9" d="M6.7,466.1h-3.4l-6.9,32.5H-.3l1.7-8.6h7.2l1.7,8.6h3.4s-6.9-32.5-6.9-32.5ZM2.2,485.6l2.7-14h0l2.7,14H2.2Z"/>
            <path class="st9" d="M11.3,466.1v4.9h5.7v27.6h3.2v-27.6h5.7v-4.9h-14.6Z"/>
            <path class="st9" d="M31.2,493.6v-9.5h9.1v-4.6h-9.1v-8.5h9.8v-4.9h-13v32.5h13.2v-4.9h-10Z"/>
            <path class="st9" d="M58.5,495.2c-.2-1.6-.2-3.3-.2-5.2s0-2.3-.3-3.2c-.2-.8-.4-1.5-.7-2.1-.3-.5-.6-.9-.9-1.2-.3-.2-.6-.4-.9-.5h0c.2-.2.4-.4.7-.6.3-.3.7-.7,1-1.3.3-.6.6-1.4.9-2.4.2-1,.4-2.3.4-3.9,0-2.8-.5-4.9-1.5-6.5-1-1.5-2.5-2.3-4.5-2.3h-8.6v32.5h3.2v-13.4h4.7c.7,0,1.3.2,1.8.5s.8.9,1.1,1.6c.3.7.5,1.6.6,2.7s.2,2.4.2,3.8,0,1.6,0,2.5c0,.9.2,1.6.4,2.3h3.4c-.3-.7-.6-1.8-.7-3.3h0ZM54.6,479.6c-.5.9-1.3,1.3-2.3,1.3h-5.2v-10.1h5.1c.4,0,.8,0,1.2.2.4.1.7.4,1,.7s.5.9.7,1.5c.2.6.3,1.5.3,2.5,0,1.7-.3,3-.8,3.9h0Z"/>
            <path class="st9" d="M74.2,471v-4.9h-12.5v32.5h3.2v-14.4h8.2v-4.6h-8.2v-8.5h9.3Z"/>
            <path class="st9" d="M79.9,493.6v-9.5h9.1v-4.6h-9.1v-8.5h9.8v-4.9h-13v32.5h13.2v-4.9h-10,0Z"/>
            <path class="st9" d="M106.1,486.6c-.2-.8-.4-1.6-.7-2.4-.3-.7-.7-1.4-1.1-2-.4-.6-1-1-1.5-1.4-.2-.1-.6-.3-1.2-.6-.6-.3-1.1-.5-1.7-.8-.6-.3-1.1-.5-1.6-.7s-.7-.4-.8-.4c-.6-.3-1.2-.8-1.5-1.5-.4-.6-.6-1.5-.6-2.7s.1-1.5.3-2,.5-1,.8-1.3c.3-.3.7-.5,1.1-.7.4-.1.8-.2,1.1-.2,1.1,0,2,.4,2.7,1.3.7.9,1.1,2.3,1.2,4.4h3.2c0-1.7-.2-3.2-.6-4.5-.4-1.3-.9-2.4-1.5-3.3-.6-.9-1.4-1.5-2.2-2-.8-.4-1.7-.7-2.7-.7s-1.6.2-2.4.6c-.8.4-1.5,1-2.1,1.8s-1.1,1.8-1.5,3c-.4,1.2-.6,2.6-.6,4.2s0,1.7.2,2.5c.1.8.3,1.6.6,2.3.3.7.7,1.4,1.2,2,.5.6,1.2,1.1,1.9,1.4,1.2.6,2.3,1.1,3.2,1.5s1.6.8,2.2,1.2c.4.2.7.7,1,1.3.3.6.5,1.5.5,2.7s0,1.2-.2,1.8c-.1.6-.4,1.1-.7,1.6-.3.5-.7.8-1.2,1.1-.5.3-1.1.4-1.8.4s-1.2-.1-1.8-.4c-.5-.3-1-.7-1.4-1.2-.4-.6-.8-1.3-1-2.2-.2-.9-.4-1.9-.4-3.2h-3.2c0,2,.2,3.7.6,5.2.4,1.5.9,2.7,1.6,3.6.7.9,1.5,1.6,2.4,2.1.9.5,1.9.7,2.9.7s1.8-.2,2.6-.6c.8-.4,1.6-1,2.3-1.8.7-.8,1.2-1.9,1.6-3.2.4-1.3.6-2.8.6-4.7s0-1.7-.2-2.6h0Z"/>
            <path class="st9" d="M107.3,466.1v4.9h5.7v27.6h3.2v-27.6h5.7v-4.9h-14.6Z"/>
            <path class="st9" d="M124,466.1v32.5h3.2v-32.5h-3.2Z"/>
            <path class="st9" d="M141.5,466.1l-4.6,25.7h0l-4.5-25.7h-3.3l6,32.5h3.5l6.2-32.5h-3.2,0Z"/>
            <path class="st9" d="M153.3,466.1h-3.4l-6.9,32.5h3.3l1.7-8.6h7.2l1.7,8.6h3.4l-7-32.5ZM148.8,485.6l2.7-14h0l2.7,14h-5.5Z"/>
            <path class="st9" d="M165.1,493.6v-27.5h-3.2v32.5h6.7v-4.9h-3.5Z"/>
          </g>
          <g>
            <path class="st24" d="M-51.6,395.8v22.5h8.4v-22.5h-8.4Z"/>
            <path class="st24" d="M9.6,400.8c-.3-1.1-.9-2.1-1.8-2.9-1.1-1-2.3-1.6-3.7-2-1.4-.4-2.7-.6-4.1-.6-2.1,0-4,.3-5.7.9-1.6.6-2.9,1.6-4,2.9-.6-1.1-1.5-2-2.7-2.7-1.5-.8-3.4-1.1-5.9-1.1s-4.6.4-6.2,1.3c-.9.5-1.9,1.3-2.9,2.5v-3.3h-8v22.4h8.4v-13.5c0-1.2.2-2.1.7-2.8.8-1.1,2.4-1.6,4.8-1.6s3.4.5,4.1,1.6c.4.6.6,1.6.6,2.9v13.4h8.3v-13.4c0-1,.2-1.9.7-2.6.9-1.4,2.4-2,4.7-2s3.3.5,4.1,1.6c.4.5.6,1.2.6,2.1v14.3h8.5c0,0,0-14.2,0-14.2,0-1.5-.1-2.6-.3-3.3h0Z"/>
            <path class="st24" d="M44,398.2c-2.6-1.9-5.7-2.9-9.4-2.9s-4.7.5-6.5,1.5c-1,.6-2,1.3-2.8,2.3v-3.3h-7.9v31.3h.4c0-.2.2-.5.3-.7,1.3-2.2,3.6-3.2,7-3.2s.3,0,.4,0v-7.8c.9,1,1.8,1.7,2.7,2.2,0,0,.1,0,.2.1,1.6.8,3.6,1.2,6,1.2s.4,0,.5,0c3.7,0,6.8-1.1,9.1-3.1,2.5-2.1,3.8-5.1,3.8-9.1s-1.3-6.6-3.8-8.5h0ZM37.5,412.1c-1.2,1.3-3,1.9-5.3,1.9s-2.9-.3-4.1-.9c-1.9-1.1-2.9-2.9-2.9-5.5s.3-3,.9-4.1c1.1-2,3.2-3,6.2-3s4.3.7,5.4,2c1.1,1.3,1.7,2.9,1.7,4.6s-.6,3.8-1.8,5.1h0Z"/>
            <path class="st24" d="M73.7,395.8v12.2c0,1.5-.3,2.6-.8,3.5-1,1.6-3,2.4-5.8,2.4s-3.7-.6-4.4-1.7c-.4-.6-.6-1.6-.6-2.9v-13.6h-8.5v13.6c0,2.6.5,4.5,1.4,5.8,1.6,2.4,4.8,3.6,9.5,3.6s3-.1,4.2-.4c1.2-.3,2.5-.9,3.8-1.7.4-.3.8-.6,1.1-.9.3-.3.5-.5.6-.6v3.2h8v-22.5h-8.4Z"/>
            <path class="st24" d="M90.2,395v23.3h8.3v-23.3h-8.3Z"/>
            <path class="st24" d="M131,407.3c-1.6-1.1-4.1-2-7.4-2.5-4.9-.8-7.8-1.3-8.6-1.6-.8-.3-1.2-.8-1.2-1.5s.4-1,1.2-1.4c.8-.4,2-.6,3.8-.6s3.7.4,4.6,1.2c.5.4.8,1,.9,1.8h8.3c-.4-2.7-1.8-4.7-4.3-5.8-2.5-1.1-5.7-1.7-9.6-1.7s-7.4.7-9.7,2.2-3.4,3.3-3.4,5.3.7,3.1,2.2,4c1.5,1,4,1.7,7.6,2.4,5,.8,7.8,1.4,8.6,1.8.8.3,1.2.8,1.2,1.5s-.5,1.2-1.4,1.5c-1,.3-2.3.5-3.9.5-2.8,0-4.7-.4-5.7-1.2-.6-.4-1-1.2-1.1-2.2h-8.4c0,2.3,1.2,4.2,3.6,5.7,1.6,1,3.8,1.7,6.6,2,1.3.1,2.8.2,4.4.2,3.8,0,6.8-.4,9-1.3h0c.7-.2,1.2-.5,1.8-.8,2.3-1.4,3.5-3.2,3.5-5.5s-.8-3.1-2.4-4.2h0s0,0,0,0Z"/>
            <path class="st24" d="M166.8,404.2c-.4-1.8-1.2-3.3-2.4-4.6-1.4-1.5-3.1-2.6-5.2-3.3-2.1-.7-4.5-1.1-7.1-1.1-4.4,0-8,1-10.8,3.1-2.8,2.1-4.2,5.1-4.2,8.9s1.5,7.2,4.6,9c3.1,1.8,6.6,2.8,10.6,2.8h.4c3,0,5.6-.5,7.8-1.4,1.2-.5,2.2-1.1,3.1-1.8,1.7-1.4,2.7-2.7,2.9-4.1h-8.4c-.5.7-1,1.2-1.5,1.5-1.1.7-2.4,1-4.1,1s-3-.3-4.1-.8c-1.9-.9-2.9-2.5-3-4.8h21.6c0-1.9,0-3.4-.3-4.5h0ZM145.6,404.8c.3-1.5.9-2.6,2-3.5,1.1-.8,2.5-1.3,4.5-1.3s3.2.4,4.4,1.2c1.2.8,1.9,2,2,3.5h-12.8Z"/>
          </g>
        </g>
      </g>
      <g id="Ebene_2-2-3" class="st35">
        <g>
          <rect class="st8" x="-122.4" y="458.6" width="146.3" height="90"/>
          <g>
            <path d="M-88.6,477.6c0,0,0-.1,0-.2,0-.2-.2-.5-.3-.7-.2-.5-.6-.9-1-1.3-.5-.4-1-.8-1.6-1.1-.4-.2-.8-.3-1.2-.5-.4-.1-.8-.2-1.1-.3-.3,0-.6,0-.9-.1-.3,0-.7,0-1.1,0-1.2,0-2.3.1-3.4.4-.3,0-.6.2-.9.3-1.2.5-2.2,1.2-3,2.2-.5-.8-1.2-1.5-2.1-2-.3-.2-.7-.3-1.1-.4-.9-.3-2-.4-3.3-.4s-1.4,0-2,.1c-1.1.1-2,.4-2.7.9-.7.4-1.4,1-2.2,1.9v-2.5h-6.1v16.9h6.3v-10.2c0-.9.2-1.6.5-2.1.6-.8,1.8-1.2,3.6-1.2s2.6.4,3.1,1.2c.3.5.4,1.2.4,2.2v10.1h6.3v-10.1c0-.8.2-1.4.5-2,.6-1,1.8-1.5,3.6-1.5s2.5.4,3.1,1.2c.3.4.5,1,.5,1.6v10.8h6.4v-10.7c0-1.1,0-1.9-.2-2.5h0Z"/>
            <path d="M-62.6,475.7c-.7-.5-1.5-1-2.4-1.3-1.3-.5-2.8-.8-4.4-.9h-.4c-.5,0-1,0-1.5,0-1.3.1-2.4.5-3.4,1-.7.4-1.4.9-2,1.6,0,0-.1.1-.2.2v-2.5h-6v23.6h6.2v-8.8c.7.7,1.3,1.3,2,1.6,1.3.7,2.8,1,4.7,1,3,0,5.4-.8,7.3-2.4,1.9-1.6,2.8-3.8,2.8-6.8s-1-5-2.9-6.4h0ZM-67.5,486.1c-.9,1-2.2,1.4-4,1.4s-2.3-.2-3.1-.7c-1.5-.8-2.2-2.2-2.2-4.2s.1-1.9.5-2.6c0-.2.1-.3.2-.5.8-1.5,2.4-2.3,4.7-2.3h.3c1.7,0,3,.5,3.8,1.5.8,1,1.3,2.2,1.3,3.5s-.5,2.9-1.4,3.8h0Z"/>
            <path d="M-40.1,473.8v9.2c0,1.1-.2,2-.6,2.6-.8,1.2-2.2,1.8-4.4,1.8s-2.8-.4-3.3-1.3c-.3-.5-.5-1.2-.5-2.2v-10.2h-6.4v10.2c0,1.9.3,3.4,1,4.4,1.2,1.8,3.6,2.7,7.1,2.7s2.3-.1,3.2-.4c.9-.2,1.9-.6,2.8-1.3.3-.2.6-.4.8-.7.2-.3.4-.4.5-.5v2.4h6.1v-17h-6.3Z"/>
            <path d="M-27.6,467.9v22.9h6.3v-22.9h-6.3Z"/>
            <path d="M3.3,482.5c-1.2-.9-3.1-1.5-5.6-1.9-3.7-.6-5.9-1-6.5-1.2-.6-.2-.9-.6-.9-1.1s.3-.8.9-1c.6-.3,1.5-.5,2.9-.5s2.8.3,3.5.9c.4.3.6.8.7,1.4h6.3c-.3-2.1-1.4-3.5-3.2-4.4-1.2-.5-2.6-.9-4.2-1.1h0c-1-.1-2-.2-3.1-.2-2.3,0-4.2.3-5.8.9-.6.2-1.1.5-1.5.8-1.7,1.1-2.6,2.5-2.6,4s.6,2.3,1.7,3.1c1.1.7,3,1.3,5.7,1.8,3.8.6,5.9,1.1,6.5,1.3.6.3.9.6.9,1.1s-.4.9-1.1,1.2-1.7.4-2.9.4c-2.1,0-3.5-.3-4.3-.9-.4-.3-.7-.9-.8-1.7h-6.3c0,1.7.9,3.2,2.7,4.3,1.8,1.1,4.6,1.7,8.3,1.7s6.4-.5,8.2-1.6c1.8-1.1,2.6-2.4,2.6-4.1s-.6-2.3-1.8-3.2h0Z"/>
            <path d="M24.1,474.1c-.2,0-.5-.1-.8-.2-1.3-.3-2.7-.5-4.2-.5h-.6c-1.9,0-3.7.4-5.2,1-.9.3-1.6.8-2.4,1.3-2.1,1.6-3.1,3.8-3.1,6.8s1.2,5.4,3.5,6.8c2.3,1.4,5,2.1,8.1,2.1s2.8-.1,4-.4c.3,0,.5-.1.8-.2v-5h-.3c-.2.2-.3.4-.5.6-.2.2-.5.4-.7.6-.8.5-1.9.8-3.1.8s-2.2-.2-3.1-.6c-1.4-.7-2.2-1.9-2.3-3.6h10v-9.5h0ZM14.3,480.6c.2-1.1.7-2,1.5-2.6.8-.7,1.9-1,3.4-1s2.4.3,3.3.9c.3.2.6.5.8.8.4.5.6,1.1.7,1.9h-9.7,0Z"/>
          </g>
          <g>
            <path class="st21" d="M-122.4,534.9v-9.3h1.7v1.4c.8-.5,1.5-.8,2.1-1,1.2-.4,2.7-.6,4.6-.6s3.2.2,4.3.5c.9.3,1.6.7,2,1.1.8-.5,1.8-1,3-1.2,1.3-.3,2.7-.4,4.2-.4s2,0,3,.2c1,.2,1.9.4,2.7.9.7.3,1.1.7,1.3,1.2.1.3.2.8.2,1.4v5.9h-6.3v-6c0-.4-.1-.7-.4-.9-.6-.4-1.5-.7-3-.7s-2.8.3-3.5.9c-.3.3-.5.7-.5,1.1v5.6h-6.1v-5.6c0-.6-.1-1-.4-1.2-.5-.5-1.5-.7-3-.7s-2.9.2-3.5.7c-.3.3-.5.6-.5,1.2v5.7h-2Z"/>
            <path class="st21" d="M-68,526.6c-1.1-.5-2.4-.8-3.8-1-.3,0-.5,0-.8,0-.7,0-1.5-.1-2.3-.1s-1.9,0-2.7.2c-.4,0-.7.1-1,.2-.4,0-.7.2-1.1.3-.7.2-1.5.6-2.1,1v-1.4h-5.8v13.2h6v-4.9c.6.4,1.3.7,2,.9,1,.3,2.2.5,3.6.5.3,0,.7,0,1,0,1.6,0,3-.1,4.3-.4,1.1-.2,2-.5,2.8-.9,1.9-.9,2.8-2.1,2.8-3.8s-.9-2.8-2.8-3.6h0ZM-76.7,533.3c-1.2,0-2.2-.1-3-.4-1.4-.5-2.2-1.2-2.2-2.3s.2-1.3.6-1.7c.5-.6,1.4-.9,2.6-1.1.3,0,.7,0,1-.1.3,0,.6,0,1,0,1.5,0,2.6.2,3.4.6.2,0,.3.2.5.3,0,0,0,0,0,0,.8.6,1.2,1.2,1.2,1.9s-.4,1.6-1.3,2.1-2.2.8-3.9.8h0Z"/>
            <path class="st21" d="M-46.1,525.6v5.1c0,.6-.2,1.1-.6,1.5-.8.7-2.2,1-4.3,1s-2.7-.2-3.3-.7c-.3-.3-.5-.7-.5-1.2v-5.7h-6.3v5.7c0,1.1.3,1.9,1,2.4,1.2,1,3.5,1.5,7,1.5s1.5,0,2.2,0c.3,0,.7,0,1,0,.3,0,.6,0,.8-.2.6-.1,1.3-.3,1.9-.6.3-.1.6-.2.8-.4.2-.1.4-.2.5-.3v1.3h5.9v-9.4h-6.2,0Z"/>
            <path class="st21" d="M-33.8,523.8v11.3s6.1,0,6.1,0v-11.3h-6s0,0,0,0Z"/>
            <path class="st21" d="M-3.8,530.4c-1.2-.5-3-.8-5.5-1-3.6-.3-5.8-.6-6.3-.7-.6-.1-.9-.3-.9-.6s.3-.4.8-.6c.6-.2,1.5-.3,2.8-.3s2.8.2,3.4.5c.4.2.6.4.7.7H-2.6c-.3-1.2-1.3-2-3.1-2.4-1.9-.5-4.2-.7-7.1-.7s-5.4.3-7.1.9c-1.7.6-2.5,1.4-2.5,2.3s.5,1.2,1.4,1.6c0,0,.2,0,.2,0,.4.1.9.3,1.5.4,1.1.2,2.4.4,4.1.6,3.7.4,5.8.6,6.4.7.6.1.8.4.8.6s-.3.5-1.1.6-1.6.2-2.9.2c-2,0-3.4-.2-4.2-.5-.4-.2-.7-.5-.8-.9h-6.2c0,.3,0,.6.3.9.4.6,1.2,1.1,2.3,1.5.4.1.8.2,1.2.4,1.7.4,4,.6,6.9.6s1.1,0,1.6,0c2.7,0,4.7-.3,6.2-.8,0,0,.1,0,.2,0,1.7-.6,2.6-1.4,2.6-2.3s-.6-1.3-1.8-1.8h0Z"/>
            <path class="st21" d="M22.6,529.2c-.3-.7-.9-1.4-1.8-2-1-.6-2.3-1.1-3.8-1.4-1.6-.3-3.3-.4-5.2-.4-3.3,0-5.9.4-8,1.3-2,.9-3.1,2.1-3.1,3.8s1.1,3,3.4,3.8c2.3.8,4.9,1.2,7.8,1.2h.7c2.4,0,4.4-.3,6.1-.8.6-.2,1.1-.4,1.6-.6,1.3-.6,2-1.2,2.2-1.7h-6.2c-.3.3-.7.5-1.1.7-.8.3-1.8.4-3.1.4s-2.2-.1-3-.4c-1.4-.4-2.1-1-2.2-2h16c0-.8,0-1.4-.2-1.9h0ZM7,529.4c.2-.6.7-1.1,1.5-1.5.8-.4,1.9-.5,3.3-.5s2.4.2,3.3.5c.9.3,1.4.8,1.5,1.5H7Z"/>
          </g>
          <g>
            <path class="st21" d="M-115.7,492v13.1h3.6v-13.1h-3.6ZM-115.7,487.2v3.2h3.6v-3.2h-3.6Z"/>
            <path class="st21" d="M-76.9,494.4c-.2-.7-.6-1.3-1.3-1.8-.8-.6-1.6-1-2.6-1.2-1-.2-1.9-.4-2.9-.4-1.5,0-2.8.2-4,.6-1.1.4-2.1,1-2.9,1.8-.4-.7-1.1-1.2-1.9-1.7-1.1-.5-2.4-.7-4.2-.7s-3.3.3-4.4.8c-.6.3-1.3.8-2.1,1.5v-2h-5.7v13.7h5.9v-8.3c0-.7.2-1.3.5-1.7.6-.7,1.7-1,3.4-1s2.4.3,2.9,1c.3.4.4,1,.4,1.8v8.2h5.9v-8.2c0-.6.2-1.1.5-1.6.6-.8,1.7-1.2,3.4-1.2s2.4.3,2.9,1c.3.3.4.8.4,1.3v8.7h6v-8.7c0-.9,0-1.6-.2-2h0Z"/>
            <path class="st21" d="M-52.1,497.4c-1.7-1.1-3.9-1.7-6.4-1.7s-3.2.3-4.4.9c-.7.3-1.3.8-1.9,1.3v-1.9h-5.4v13.5c-.1,0,5.5,0,5.5,0v-2c.6.6,1.2,1,1.9,1.3,1.1.5,2.5.8,4.2.8,2.7,0,4.9-.6,6.5-1.8s2.5-3,2.5-5.3-.9-3.9-2.6-5h0,0ZM-56.5,505.5c-.8.7-2,1.1-3.6,1.1s-2-.2-2.8-.5c-1.3-.6-2-1.7-2-3.2s.2-1.8.6-2.4c.7-1.2,2.1-1.8,4.2-1.8s2.9.4,3.7,1.2c.7.8,1.1,1.7,1.1,2.7s-.4,2.2-1.2,2.9h0Z"/>
            <path class="st21" d="M-32.7,492v7.1c0,.8-.2,1.5-.6,2-.7.9-2,1.4-3.9,1.4s-2.5-.3-3-1c-.3-.4-.4-.9-.4-1.7v-7.9h-5.7v7.9c0,1.5.3,2.6.9,3.4,1.1,1.4,3.2,2.1,6.4,2.1s2.1,0,2.9-.3,1.7-.5,2.5-1c.3-.1.5-.3.7-.5.2-.2.3-.3.4-.4v1.8h5.4v-13.1h-5.7,0Z"/>
            <path class="st21" d="M-21.6,487.4v17.7h5.6v-17.7h-5.6Z"/>
            <path class="st21" d="M6.1,498.7c-1.1-.7-2.8-1.1-5-1.5-3.3-.4-5.3-.8-5.8-1-.6-.2-.8-.5-.8-.9s.3-.6.8-.8c.5-.2,1.4-.4,2.6-.4s2.5.2,3.1.7c.3.3.5.6.6,1h5.6c-.2-1.6-1.2-2.7-2.9-3.4-1.7-.6-3.9-1-6.5-1s-5,.4-6.5,1.3c-1.5.9-2.3,1.9-2.3,3.1s.5,1.8,1.5,2.4c1,.6,2.7,1,5.1,1.4,3.4.5,5.3.8,5.8,1s.8.5.8.9-.3.7-1,.9c-.6.2-1.5.3-2.6.3-1.9,0-3.2-.2-3.8-.7-.4-.3-.6-.7-.8-1.3h-5.7c0,1.4.8,2.5,2.4,3.3,1.6.9,4.1,1.3,7.4,1.3s5.7-.4,7.3-1.2c1.6-.8,2.4-1.9,2.4-3.2s-.6-1.8-1.7-2.5h0Z"/>
            <path class="st21" d="M17.3,495.2c.7-.5,1.7-.7,3-.7s2.2.2,3,.7c.3.2.5.4.7.6v-3.8c-1.1-.2-2.4-.4-3.7-.4-3,0-5.4.6-7.3,1.8-1.9,1.2-2.8,2.9-2.8,5.2s1,4.2,3.1,5.3,4.5,1.6,7.2,1.6,2.5,0,3.5-.3v-3.5c-.2.2-.4.3-.6.4-.7.4-1.7.6-2.8.6s-2-.2-2.8-.5c-1.3-.5-1.9-1.5-2-2.8h8.2v-2.3h-8.1c.2-.9.6-1.5,1.4-2h0Z"/>
          </g>
          <g>
            <path class="st21" d="M-122.4,530v3.3h4v-3.3h-4ZM-122.4,534.9v13.6h4v-13.6s-4,0-4,0Z"/>
            <path class="st21" d="M-81.5,538c0-.1,0-.3-.2-.4,0,0,0,0,0,0-.2-.5-.6-.9-1.1-1.3-.8-.6-1.6-1-2.6-1.2-.3,0-.5-.1-.8-.2-.5,0-1.1-.1-1.6-.2-.2,0-.3,0-.5,0-1.5,0-2.8.2-4,.6-1.1.4-2,1-2.8,1.8-.4-.7-1.1-1.2-1.9-1.6-.2,0-.5-.2-.7-.3-.6-.2-1.2-.3-1.9-.4-.5,0-1,0-1.5,0-1.8,0-3.2.3-4.3.8-.6.3-1.3.8-2,1.5v-2h-5.6v13.6h5.9v-8.2c0-.7.2-1.3.5-1.7.6-.7,1.7-1,3.3-1s2.4.3,2.9,1c.3.4.4,1,.4,1.8v8.1h5.8v-8.1c0-.6.2-1.1.5-1.6.6-.8,1.7-1.2,3.3-1.2s2.2.3,2.8.9c0,0,0,0,0,0,0,0,0,.1.1.2.2.3.3.7.3,1.1v8.7h5.9v-8.6c0-.9,0-1.6-.2-2h0Z"/>
            <path class="st21" d="M-57.5,536.4c-1.8-1.2-4-1.8-6.6-1.8s-3.3.3-4.6.9c-.7.3-1.4.8-2,1.4v-2h-5.5v13.6h5.7v-1.8c.6.6,1.2,1,1.9,1.3.4.2.8.3,1.3.4h6.4c1.3-.3,2.4-.8,3.4-1.5,1.7-1.3,2.6-3.1,2.6-5.5s-.9-4-2.7-5.2h0ZM-62,544.8c-.8.8-2.1,1.2-3.7,1.2s-2-.2-2.9-.6c-1.4-.6-2-1.7-2-3.3s.2-1.8.6-2.5c.8-1.2,2.2-1.8,4.3-1.8s3,.4,3.8,1.2c.8.8,1.2,1.7,1.2,2.8s-.4,2.3-1.3,3.1h0Z"/>
            <path class="st21" d="M-36.7,534.9v7.4c0,.9-.2,1.6-.6,2.1-.7,1-2.1,1.5-4.1,1.5s-2.6-.4-3.1-1c-.3-.4-.5-1-.5-1.7v-8.2h-5.9v8.2c0,1.6.3,2.7,1,3.5.7.9,1.9,1.6,3.5,1.9.9.2,1.9.3,3.1.3s2.1,0,3-.3h0c.8-.2,1.7-.5,2.6-1,.3-.2.6-.3.8-.5.2-.2.3-.3.4-.4v1.9h5.6v-13.6h-5.8,0Z"/>
            <path class="st21" d="M-25.2,530.1v18.4h5.8v-18.4h-5.8Z"/>
            <path class="st21" d="M3.3,541.9c-1.1-.7-2.9-1.2-5.2-1.5-3.4-.5-5.4-.8-6-1-.6-.2-.8-.5-.8-.9s.3-.6.8-.9c.5-.2,1.4-.4,2.7-.4s2.6.2,3.2.7c.3.3.5.6.6,1.1h5.8c-.3-1.7-1.2-2.8-3-3.5-1.6-.6-3.7-1-6.1-1h-.6c-2.3,0-4.1.3-5.6.8-.4.2-.8.3-1.2.5-1.6.9-2.4,2-2.4,3.2s.5,1.9,1.5,2.5c1,.6,2.8,1,5.3,1.4,3.5.5,5.5.9,6,1.1.5.2.8.5.8.9s-.3.7-1,.9-1.6.3-2.7.3c-1.9,0-3.3-.2-4-.7-.4-.3-.7-.7-.8-1.3h-5.8c0,1.4.8,2.6,2.5,3.5.7.4,1.6.7,2.6.9H0c1-.2,1.8-.5,2.5-.8,1.6-.9,2.4-2,2.4-3.3s-.6-1.9-1.7-2.6h0Z"/>
            <path class="st21" d="M23.9,535.5c-.3-.1-.6-.2-1-.3-1.3-.4-2.7-.6-4.2-.6-.3,0-.5,0-.8,0-2,0-3.8.3-5.3.8-.8.3-1.6.7-2.3,1.1-1.9,1.3-2.9,3.1-2.9,5.4s1.1,4.3,3.2,5.4c1.1.6,2.2,1,3.4,1.2h8.2c.5-.1,1-.3,1.5-.4v-3.6h-1.7c-.3.4-.7.7-1.1.9-.7.4-1.7.6-2.9.6s-2.1-.2-2.9-.5c-1.3-.6-2-1.5-2.1-2.9h10.6v-7.2h0ZM13.5,540.4c.2-.9.6-1.6,1.4-2.1s1.8-.8,3.1-.8,2.3.2,3.1.7c.8.5,1.3,1.2,1.4,2.1h-9Z"/>
          </g>
          <g>
            <path class="st10" d="M-122.9,505.4v3.3h3.8v18.3h2.1v-18.3h3.8v-3.3h-9.7Z"/>
            <path class="st10" d="M-104.3,505.4v8.6h-5.5v-8.6h-2.1v21.6h2.1v-9.7h5.5v9.7h2.1v-21.6s-2.1,0-2.1,0Z"/>
            <path class="st10" d="M-97.6,523.7v-6.3h6v-3.1h-6v-5.7h6.5v-3.3h-8.6v21.6h8.7v-3.3h-6.7,0Z"/>
            <path class="st10" d="M-83.7,505.4h-2.2l-4.6,21.6h2.2l1.1-5.7h4.8l1.1,5.7h2.3l-4.6-21.6h0ZM-86.6,518.4l1.8-9.3h0l1.8,9.3h-3.7Z"/>
            <path class="st10" d="M-80.6,505.4v3.3h3.8v18.3h2.1v-18.3h3.8v-3.3h-9.7,0Z"/>
            <path class="st10" d="M-67.4,523.7v-6.3h6v-3.1h-6v-5.7h6.5v-3.3h-8.6v21.6h8.7v-3.3h-6.7Z"/>
            <path class="st10" d="M-49.3,524.8c-.1-1-.2-2.2-.2-3.5s0-1.5-.2-2.1c-.1-.6-.3-1-.5-1.4-.2-.4-.4-.6-.6-.8s-.4-.3-.6-.3h0c.1-.1.3-.2.5-.4.2-.2.5-.5.7-.9.2-.4.4-1,.6-1.6.2-.7.2-1.5.2-2.6,0-1.8-.3-3.3-1-4.3-.7-1-1.6-1.5-3-1.5h-5.7v21.6h2.1v-8.9h3.1c.5,0,.9.1,1.2.3s.6.6.7,1c.2.5.3,1.1.4,1.8s.1,1.6.1,2.6,0,1.1,0,1.6c0,.6.1,1.1.3,1.5h2.3c-.2-.4-.4-1.2-.5-2.2h0ZM-51.9,514.4c-.3.6-.8.9-1.5.9h-3.4v-6.7h3.4c.3,0,.5,0,.8.1.3,0,.5.2.7.5.2.2.3.6.5,1,.1.4.2,1,.2,1.7,0,1.2-.2,2-.5,2.6h0Z"/>
            <path class="st10" d="M-38.8,508.7v-3.3h-8.3v21.6h2.1v-9.6h5.4v-3.1h-5.4v-5.7h6.2Z"/>
            <path class="st10" d="M-35,523.7v-6.3h6v-3.1h-6v-5.7h6.5v-3.3h-8.6v21.6h8.7v-3.3h-6.7Z"/>
            <path class="st10" d="M-17.6,519.1c-.1-.6-.2-1.1-.5-1.6-.2-.5-.4-.9-.7-1.3-.3-.4-.6-.7-1-.9-.2,0-.4-.2-.8-.4-.4-.2-.7-.4-1.1-.5-.4-.2-.7-.4-1-.5s-.5-.2-.5-.3c-.4-.2-.8-.6-1-1-.3-.4-.4-1-.4-1.8s0-1,.2-1.4.3-.6.5-.9c.2-.2.5-.4.7-.5.3,0,.5-.1.8-.1.7,0,1.3.3,1.8.9s.7,1.6.8,2.9h2.1c0-1.1-.1-2.1-.4-3-.2-.9-.6-1.6-1-2.2-.4-.6-.9-1-1.5-1.3-.6-.3-1.1-.4-1.8-.4s-1.1.1-1.6.4c-.5.2-1,.6-1.4,1.2s-.7,1.2-1,2c-.2.8-.4,1.7-.4,2.8s0,1.1.1,1.7c0,.5.2,1.1.4,1.5.2.5.5.9.8,1.3.3.4.8.7,1.3,1,.8.4,1.5.7,2.1,1,.6.2,1.1.5,1.5.8.2.2.5.4.7.8.2.4.3,1,.3,1.8s0,.8-.1,1.2-.2.7-.4,1c-.2.3-.5.6-.8.7-.3.2-.7.3-1.2.3s-.8,0-1.2-.2c-.4-.2-.7-.4-1-.8-.3-.4-.5-.9-.7-1.4-.2-.6-.2-1.3-.2-2.1h-2.1c0,1.3.2,2.5.4,3.5.3,1,.6,1.8,1.1,2.4s1,1.1,1.6,1.4c.6.3,1.2.5,1.9.5s1.2-.1,1.7-.4,1.1-.6,1.5-1.2c.5-.6.8-1.2,1.1-2.1.3-.9.4-1.9.4-3.1s0-1.1-.1-1.7h0Z"/>
            <path class="st10" d="M-16.8,505.4v3.3h3.8v18.3h2.1v-18.3h3.8v-3.3s-9.7,0-9.7,0Z"/>
            <path class="st10" d="M-5.7,505.4v21.6h2.1v-21.6h-2.1Z"/>
            <path class="st10" d="M5.9,505.4l-3.1,17.1h0l-3-17.1h-2.2l4,21.6h2.3l4.1-21.6h-2.1Z"/>
            <path class="st10" d="M13.7,505.4h-2.2l-4.6,21.6h2.2l1.1-5.7h4.8l1.1,5.7h2.3l-4.6-21.6h0ZM10.8,518.4l1.8-9.3h0l1.8,9.3h-3.7Z"/>
            <path class="st10" d="M21.6,523.7v-18.3h-2.1v21.6h4.4v-3.3h-2.3Z"/>
          </g>
          <g>
            <path class="st21" d="M-122.4,458.8v14.9h5.6v-14.9h-5.6Z"/>
            <path class="st21" d="M-81.7,462.1c-.2-.8-.6-1.4-1.2-1.9-.7-.6-1.5-1.1-2.5-1.3-.9-.3-1.8-.4-2.7-.4-1.4,0-2.7.2-3.8.6-1.1.4-2,1-2.7,1.9-.4-.7-1-1.3-1.8-1.8-1-.5-2.3-.8-3.9-.8s-3.1.3-4.1.9c-.6.3-1.2.9-1.9,1.7v-2.2h-5.3v14.9h5.6v-9c0-.8.1-1.4.5-1.8.5-.7,1.6-1.1,3.2-1.1s2.3.4,2.7,1.1c.3.4.4,1,.4,1.9v8.9h5.5v-8.9c0-.7.1-1.2.5-1.7.6-.9,1.6-1.3,3.1-1.3s2.2.4,2.7,1c.3.4.4.8.4,1.4v9.5h5.6s0-9.4,0-9.4c0-1,0-1.7-.2-2.2h0Z"/>
            <path class="st21" d="M-58.9,460.4c-1.7-1.3-3.8-1.9-6.2-1.9s-3.1.3-4.3,1c-.7.4-1.3.9-1.9,1.5v-2.2h-5.3v20.8h.3c0-.2.1-.3.2-.5.8-1.4,2.4-2.2,4.7-2.2h.3v-5.2c.6.6,1.2,1.1,1.8,1.4,0,0,0,0,.1,0,1.1.5,2.4.8,4,.8h.3c2.5,0,4.5-.7,6.1-2.1,1.7-1.4,2.5-3.4,2.5-6s-.8-4.4-2.5-5.7h0ZM-63.2,469.6c-.8.8-2,1.3-3.5,1.3s-2-.2-2.7-.6c-1.3-.7-1.9-1.9-1.9-3.7s.2-2,.6-2.7c.7-1.3,2.1-2,4.1-2s2.9.4,3.6,1.3c.7.9,1.1,1.9,1.1,3.1s-.4,2.5-1.2,3.4h0Z"/>
            <path class="st21" d="M-39.2,458.8v8.1c0,1-.2,1.7-.5,2.3-.7,1.1-2,1.6-3.8,1.6s-2.4-.4-2.9-1.1c-.3-.4-.4-1.1-.4-1.9v-9h-5.6v9c0,1.7.3,3,.9,3.9,1.1,1.6,3.2,2.4,6.3,2.4s2,0,2.8-.3,1.6-.6,2.5-1.1c.3-.2.5-.4.7-.6.2-.2.3-.4.4-.4v2.1h5.3v-14.9h-5.6,0Z"/>
            <path class="st21" d="M-28.2,458.2v15.5h5.5v-15.5h-5.5Z"/>
            <path class="st21" d="M-1.1,466.4c-1.1-.7-2.7-1.3-4.9-1.7-3.3-.5-5.2-.9-5.7-1.1-.5-.2-.8-.5-.8-1s.3-.7.8-.9c.5-.3,1.4-.4,2.5-.4s2.5.3,3.1.8c.3.3.5.7.6,1.2H0c-.2-1.8-1.2-3.1-2.8-3.9-1.6-.7-3.8-1.1-6.4-1.1s-4.9.5-6.4,1.5-2.3,2.2-2.3,3.6.5,2.1,1.5,2.7c1,.6,2.7,1.2,5,1.6,3.3.6,5.2,1,5.7,1.2.5.2.8.6.8,1s-.3.8-1,1c-.6.2-1.5.4-2.6.4-1.8,0-3.1-.3-3.8-.8-.4-.3-.6-.8-.7-1.5h-5.6c0,1.5.8,2.8,2.4,3.8,1.1.7,2.5,1.1,4.4,1.3.9,0,1.9.1,2.9.1,2.5,0,4.5-.3,6-.8h0c.4-.2.8-.4,1.2-.6,1.5-.9,2.3-2.1,2.3-3.6s-.5-2.1-1.6-2.8h0Z"/>
            <path class="st21" d="M22.7,464.3c-.2-1.2-.8-2.2-1.6-3.1-.9-1-2.1-1.7-3.5-2.2-1.4-.5-3-.7-4.7-.7-2.9,0-5.3.7-7.2,2.1-1.9,1.4-2.8,3.4-2.8,5.9s1,4.8,3.1,6c2,1.2,4.4,1.8,7.1,1.8h.3c2,0,3.7-.4,5.2-1,.8-.3,1.5-.7,2.1-1.2,1.2-.9,1.8-1.8,1.9-2.7h-5.6c-.3.4-.6.8-1,1-.7.5-1.6.7-2.8.7s-2-.2-2.7-.6c-1.2-.6-1.9-1.7-2-3.2h14.4c0-1.3,0-2.3-.2-3h0ZM8.6,464.7c.2-1,.6-1.7,1.3-2.3.7-.6,1.7-.9,3-.9s2.1.3,2.9.8c.8.5,1.2,1.3,1.3,2.4h-8.5Z"/>
          </g>
        </g>
      </g>
    </g>
    <rect class="st13" x="310.3" y="470.8" width="495.2" height="136.1" transform="translate(36.3 -35.2) rotate(3.7)"/>
  </g>
  <g id="Ebene_4">
    <rect class="st0" x="-355" y="-14.1" width="359" height="12.3"/>
  </g>
  <g id="Ebene_3">
    <g id="Ebene_1-2">
      <path class="st22" d="M128.4,90.7c-7.4,6.9-21.3,18.6-23,21-10.9,14-40.8,55.8-43.4,58.9-3.9,4.9,3.6,9.5,3.6,9.5,13.1,7.9,11.6,6.4,51.4,21.2,1.5.6,11.6-4.8,21.5-24.6,13.8-27.3,9.8-17.1,9.8-17.1l-2.6,11.1c-4.4,19.2-17.1,88-18.3,91.2l-31.6,122.6c-3.9,16.1,1.7,19.7,4.4,20.3,5.5,1.3,11.8,11.3,48,16.9,14.8,2.3,44,10.2,70.8,19.1,27.2,9.3,26,3.2,72,13.8,14.8,3.4,12.8-3.8,21.9-32.4,3.3-10.2,18-90.1,28.8-136.8,7.1-30.9,14.3-87.2,15.9-81.1,4.4,18.2-2.6,37.6.3,49.2,1.4,6.1,27.7,12.2,35.9,11.1l21.4,3.1c5.1,1,7.2,1,7.6-7.8.8-28.7-1.7-40.9-.4-62.7,2.1-32.1-7.3-35.9-15.2-45-14-16-40.4-25.6-65.9-40.4-8.4-4.7-9,3.5-13.4,7.6-4.4,4.1-7.6,9.7-25.7,11.5-23.1,2.3-28.6-3.3-44.4-6.5-8.4-1.7-21.4-7-28.7-12-31-21.8-11.6-32.5-22.7-31.8-30.7,2-42.5-2.6-63.7,2.5-5.9,1.4-10.8,3.9-14.5,7.4h0Z"/>
      <g class="st25">
        <path class="st37" d="M182.2,184.1s3.6,12.5,5.7,11.8c2-.7,10.9-4.9,11.2-3,.4,2.2,2,12.3,2.5,17.3-.1.4.3.5.8.6,1.9,0,3.7,0,5.6.1.7,0,1.3-.6,1.2-1.3-.2-4.2-2.2-12.8-2.8-17.2-.6-3.6,1-3.5,4.8-4.5,5-1.6,9.5-2.7,13.3,1.7.9,1.1,4.1,3.5,3.6,1.8-3.1-9.6-6.3-30.3-7.3-31s-1.2,1.1-2.7,4.5c-1.9,4.2-7,6.1-10.7,8-7.1,3.7-21.2,8.1-25.2,11.2"/>
      </g>
      <polygon class="st33" points="233.2 166.8 235.2 167.3 228.9 180.5 227.1 180.1 233.2 166.8"/>
      <g class="st28">
        <g>
          <path class="st33" d="M237.4,167.8l2.7.6-1.2,12.1,9.1-10.2,2.7.6-6.1,13.3-1.8-.4,3.7-7.8c0-.2.4-.6.5-1.3.4-.6.5-1.3,1-2.1l-9.1,10.2-1.8-.4,1.2-12.1v.4c-.2.2-.5.8-.7,1.5-.4.6-.5,1.1-.6,1.5l-3.7,7.8-1.8-.4,5.9-13.3h0Z"/>
          <path class="st33" d="M259.8,174.8c-.4-.3-.8-.4-1.7-.6l-3.5-.8-2.2,4.6,3.8.9c.9.2,1.6.1,2.3,0,.8-.3,1.4-.8,1.6-1.7.5-1.1.4-1.8-.2-2.4M253.4,171.5l6.2,1.4c1.3.3,2.1,1,2.4,1.7.5.8.5,2-.2,3-.5,1.1-1.3,1.8-2.2,2.5s-2.2.6-3.6.3l-4.4-1-2.7,5.7-1.5-.4,6.1-13.3h0Z"/>
          <path class="st33" d="M267.5,174.7l-3.8,8.2c-.5,1.1-.6,1.7-.6,2.4.2,1.2.7,1.8,2.1,2.1s3,.2,3.9-.7c.6-.6,1-1.2,1.4-2.2l3.8-8.2,2,.5-3.6,7.3c-.9,1.7-1.6,2.9-2.5,3.6-1.5,1.5-3.7,1.7-5.9,1.2s-3.6-1.8-3.6-3.4c0-.9.3-2.3,1.1-3.9l3.6-7.3,2,.5Z"/>
        </g>
      </g>
      <polygon class="st33" points="279 177.4 280.8 177.8 275.3 189.3 282.4 191 281.7 192.7 272.7 190.6 279 177.4"/>
      <g class="st26">
        <path class="st33" d="M286.1,188.8c-.2.9-.3,1.3-.2,2,.2,1,1,1.6,2.8,2s1.3.3,2,.2c1.2-.2,2.2-.6,2.7-1.7.4-.6.3-1.3,0-1.6s-1-.9-1.8-1.3l-1.7-.9c-1.1-.5-1.8-1.1-2.2-1.4-.5-.8-.7-1.8-.3-2.9.5-1.3,1.4-2,2.7-2.6s2.7-.5,4.2-.2,2.6,1.1,3.3,1.9.7,2,.1,3.5l-1.8-.4c.2-.7.3-1.3.2-1.8-.3-.8-1.1-1.4-2.4-1.7s-2-.2-2.6.1c-.8.3-1.1.9-1.5,1.3-.4.6-.3,1.1,0,1.6.2.3,1,.7,2.3,1.2l1.7.9c.8.4,1.4.8,1.8,1.3.5.8.7,1.8,0,3-.6,1.5-1.7,2.4-3.2,2.8s-2.9.5-4.5.1-3-1.2-3.5-2.2-.6-2.2.2-3.7c0,0,1.5.4,1.5.4Z"/>
      </g>
      <polygon class="st33" points="301.5 182.6 311.7 184.9 310.9 186.4 302.7 184.5 300.9 188.5 308.6 190.3 307.8 191.9 300 190.2 298.1 194.6 306.5 196.5 305.6 198.2 295.4 195.9 301.5 182.6"/>
      <polygon class="st37" points="247.9 187.9 247.3 190.6 243.1 189.6 240.5 201.1 237.6 200.4 240.2 188.9 236 187.9 236.7 185.3 247.9 187.9"/>
      <g class="st27">
        <g>
          <path class="st37" d="M256.9,198.4l-1.4,6.2-2.7-.6,1.5-6.4c.1-.4.3-1.1,0-1.4-.1-.5-.5-.8-1.2-1s-1.4,0-1.7.3c-.5.3-.7,1-.9,1.9l-1.3,5.5-2.7-.6,3.2-13.9,2.7.6-1.1,4.9c.6-.6,1.1-.9,1.6-1s1.2-.2,1.6,0c.7.2,1.1.3,1.7.6.4.3.8.6,1.1,1.4.1.5.2,1,.2,1.2-.4.8-.6,1.5-.8,2.4"/>
          <path class="st37" d="M265.5,200.4c.2-.7,0-1.4-.3-1.7-.3-.5-.8-.6-1.2-.7-.7-.2-1.2,0-1.7.3s-.6.8-1,1.4l4.2,1v-.2ZM267.5,204.1c-.2.7-.7,1.2-1.3,1.8-1.1.9-2.6,1-4.1.7s-2.3-1-3.2-2.1-1-2.6-.6-4.6,1.2-3,2.3-3.9,2.3-.9,3.8-.5,1.5.6,2.1,1,1.1,1.2,1.4,2c.3.8.4,1.5.4,2.4l-.5,2-7.1-1.6c-.3,1.1,0,1.9.4,2.4.4.3.8.6,1.2.7s1.2,0,1.4-.1.5-.3.6-.6l3.1.5h0Z"/>
          <path class="st37" d="M271.6,206.2c.2.3.4.3.8.4.7.2,1.2,0,1.6,0s.9-.7,1.3-1.8l.3-1.1c-.2,0-.5.1-.5.1-.2,0-.5.1-.7,0l-.7-.2c-.7-.2-.9,0-1.2.2-.5.1-.8.5-.9,1-.2.7-.3,1.1,0,1.4M271.3,198.4c.9-.7,2.3-.9,4.1-.5s2.2.7,2.9,1.4c.8.6,1,1.6.8,2.7l-1.3,5.7c-.1.4-.2.7,0,.7s.2.3.4.3v.4c-.1,0-3-.7-3-.7,0-.2-.1-.5,0-.7l.2-.7c-.5.3-1,.5-1.6.8-.7,0-1.4.1-2.1,0s-1.7-.6-2-1.4-.6-1.5-.4-2.4c.3-1.3,1-2.1,2.2-2.3.5-.1,1.4-.1,2.6-.1l.9.2c.4.1.9,0,1.2,0,.5-.1.8-.3.9-.7s0-.7-.2-1-.6-.4-1.3-.5-1.2,0-1.4.1-.3.4-.6.8l-2.7-.6c-.3-.5,0-1.4.6-1.7"/>
          <path class="st37" d="M284.7,209.2l-.5,2-1.3-.3c-1.3-.3-2.2-.7-2.5-1.3-.2-.3-.2-1-.1-1.4l1.5-6.4-1.3-.3.5-2,1.3.3.7-2.9,2.7.6-.7,2.9,1.8.4-.5,2-1.8-.4-1.3,5.5c-.1.4-.2.7,0,.9,0,0,.4.3,1.1.5h.2c0,0,.3-.1.3-.1"/>
          <path class="st37" d="M293.6,206.8c.2-.7,0-1.4-.3-1.7-.3-.5-.8-.6-1.2-.7-.7-.2-1.2,0-1.7.3s-.6.8-1,1.4l4.2,1v-.2ZM295.5,210.5c-.2.7-.7,1.2-1.3,1.8-1.1.9-2.6,1-4.1.7s-2.3-1-3.2-2.1-1-2.6-.6-4.6c.4-1.8,1.2-3,2.3-3.9s2.3-.9,3.8-.5,1.5.6,2.1,1,1.1,1.2,1.4,2c.3.8.4,1.5.4,2.4l-.5,2-7.1-1.6c-.3,1.1,0,1.9.4,2.4.4.3.8.6,1.2.7s1.2,0,1.4-.1.5-.3.6-.6l3.1.5h0Z"/>
          <path class="st37" d="M304,207.4c-1.1-.3-1.9,0-2.5.6-.3.4-.5,1.1-.6,1.7l-1.1,4.9-2.7-.6,2.4-10.4,2.7.6-.4,1.8c.6-.6,1.1-.9,1.4-1.1.5-.3,1.3-.4,2.1-.2h.4c0,.1-.6,2.8-.6,2.8h-.4c-.5,0-.7,0-.7,0"/>
        </g>
      </g>
      <polygon class="st37" points="226.8 204 220.1 202.4 219.4 205.5 225.4 206.9 224.9 209.1 218.9 207.7 217.6 213.5 214.7 212.8 217.8 199.3 227.3 201.5 226.8 204"/>
      <polygon class="st37" points="237 211.9 230.4 210.4 229.6 213.7 237.1 215.4 236.6 217.9 226.2 215.5 229.3 202 239.2 204.3 238.7 206.7 231.6 205.1 231 208 237.6 209.5 237 211.9"/>
      <g class="st31">
        <path class="st37" d="M244.1,217.5c.7.2,1.1.3,1.6.1.9,0,1.3-.6,1.5-1.3s0-.9-.4-1.3c-.4-.3-1-.7-1.6-1.1l-1.3-.5c-1.3-.5-2.3-1.2-2.6-1.8-.7-.9-1-1.9-.7-3.2s1-2.1,2-2.8,2.5-.6,4.2-.2,2.6,1.1,3.3,1.9c1,.9,1.1,2.1.8,3.7l-2.7-.6c.2-.9-.1-1.4-.7-2-.4-.3-1.1-.5-1.5-.6-.7-.2-1.4,0-1.9,0s-.8.5-1,1.2,0,.9.4,1.3c.2.3.8.6,1.7.9l2.3,1c1.1.5,1.6,1.1,2,1.6.7.9.7,1.8.5,2.9s-1,2.1-2,2.8c-1.1.7-2.5.8-4.3.4s-3-1.2-3.9-2.1c-.9-1.1-1.1-2.3-.8-3.7l2.7.6c-.2.7,0,1.2.1,1.4.6.6,1.2,1,2.3,1.2"/>
      </g>
      <polygon class="st37" points="264.2 210.1 263.7 212.5 259.7 211.6 257.1 222.6 254.3 222 256.8 210.9 252.8 210 253.4 207.6 264.2 210.1"/>
      <rect class="st37" x="264.2" y="210.6" width="2.9" height="13.8" transform="translate(55.8 -54.2) rotate(13)"/>
      <polygon class="st37" points="270.2 211.4 273.3 212.2 273.8 223 279 213.5 282.1 214.2 274.4 226.6 271.5 225.9 270.2 211.4"/>
      <path class="st37" d="M287.5,224.3l-.5-5.7-3,4.9,3.5.8ZM287.8,226.9l-5.1-1.2-1.5,2.7-2.9-.7,8-12.4,3.3.8,1.7,14.6-3.3-.8-.2-3.1h0Z"/>
      <polygon class="st37" points="295.8 217.4 292.7 230.8 302.4 233.1 303 230.7 296.1 229.1 298.7 218 295.8 217.4"/>
    </g>
    <g>
      <path class="st23" d="M258.9,444.9c-.6,0-1.4.7-2.2,1.1-1.5.8-2.6.7-1.3-7.7,2-12.7-6.3-9.9-1.1-24.6,5.2-14.7,10.8-34.3,16.3-39.1,5.5-4.9,10.7-5.7,19.9-11.2,7.9-4.8,21.9-11.2,30.8-7.8,9,3.4,19.1-3,28.1,2,8.9,5,11.3,3.4,13,11.6,1.7,8.2,2,9.7,4.2,13.4,12,19.1,9,53.7,9,57.2s-.5,9-.5,9"/>
      <path class="st24" d="M376,448.8h-1.8c0-.2.4-5.6.5-9s0-.9,0-1.7c.8-17.3,0-40.9-8.9-55.1-2.3-3.7-2.6-5.2-4.2-12.8l-.2-.8c-1.2-5.6-2.4-6.2-6.7-8.1-1.6-.7-3.5-1.6-5.9-2.9-4.6-2.6-9.4-2-14.6-1.4-4.4.5-9,1.1-13.4-.6-9.8-3.7-25.4,5-30,7.7-3.9,2.4-7.1,3.9-9.9,5.2-3.8,1.8-6.8,3.2-9.9,5.9-4.2,3.7-8.8,17.5-12.9,29.6-1.1,3.2-2.1,6.3-3.1,9.2-2.8,7.8-1.6,10.4-.3,13.3,1.1,2.5,2.3,5.2,1.4,11.1-.8,5.3-.5,6.7-.4,7.1,0,0,.2,0,.4-.2.2-.1.4-.2.6-.4.7-.4,1.3-.9,2.1-.9v1.6c-.2,0-.7.4-1.1.6-.2.2-.5.3-.7.4-.3.2-1.3.8-2.2.2-1-.6-1.4-2.3-.4-8.8.8-5.4-.2-7.9-1.3-10.3-1.4-3.1-2.7-6.1.3-14.5,1-2.9,2-5.9,3.1-9.2,4.3-12.9,8.9-26.3,13.4-30.3,3.3-2.9,6.4-4.4,10.3-6.2,2.8-1.3,5.9-2.8,9.8-5.1,4.7-2.9,21.1-11.9,31.6-7.9,3.9,1.5,8.1,1,12.5.5,5.2-.6,10.6-1.3,15.7,1.6,2.3,1.3,4.3,2.2,5.8,2.9,4.3,2,6.3,2.9,7.6,9.3l.2.8c1.6,7.5,1.8,8.9,4,12.3,7.3,11.7,10.4,30.5,9.2,56,0,.8,0,1.3,0,1.6,0,3.5-.5,9-.5,9h0s0,0,0,0Z"/>
      <path class="st21" d="M314.1,465.5c-.4-1,.1-1.1,1.1-1.6,1.5-.8,2.7-1.4,4.3-.3.4.3,1.5.8,1.2.3-1.6-2.6-4-8.4-4.4-8.6-.3-.1-.3.4-.5,1.5-.3,1.3-1.8,2.2-2.8,3-1.8,1.5-5.9,3.7-6.9,4.8,0,0,1.9,3.4,2.5,3.1.6-.3,3-2.1,3.2-1.6.2.6,1.5,3.5,1.9,4.9,0,.1.2.2.3.1.6-.1,1.1-.2,1.7-.3.2,0,.4-.3.3-.5-.4-1.2-1.6-3.6-2-4.8"/>
      <path class="st23" d="M250.2,437.2c-7.1,3.6-1.8,3.6-1.9,12.7-.1,9.1-1.1,16.4-1.1,16.4,0,0-2,7.5,25.4,4,15.7-2-19.3.7,31.6,1.3,50.9.7,33.4,0,47.4,1.9,14,2,15.8.2,15.8.2,0,0,12.4,1.8,12.3-3,0,4.5,1.1-17.7,1.2-26.4,0-5.5-6.1-5.4-14.9-5.1-8.8.3-15.8-.4-21.1-.4-5.3,0-42.1-.9-47.4,1s-17.5-1.7-19.3-1.9c-1.7-.2-21-4.3-28.1-.7"/>
      <path class="st24" d="M362,475.3c-2.4,0-5.8-.3-10.5-1-3.2-.5-4.8-.8-5.9-1-1.7-.3-7-.6-15.9-.6-5.7,0-13.8-.1-25.5-.3-22.2-.3-27.9-.9-29.4-1.6-.6,0-1.3.2-2.1.3-13.8,1.8-22.4,1.1-25.4-2.1-1.2-1.3-1.1-2.5-1-2.9,0-.5,1-7.6,1.1-16.3,0-3.4-.7-5.5-1.2-7-1-2.9-1-4.2,3.6-6.5h0c6.4-3.3,22.1-.5,27.2.4.7.1,1.2.2,1.4.2.4,0,1.2.2,2.3.5,4.1.9,12.6,2.9,16.6,1.5,3.3-1.2,18.2-1.6,45.6-1.1h2.2c1.8,0,3.7.1,5.8.2,4.4.2,9.3.4,15.2.2,7-.2,11.8-.2,14.2,2,1,1,1.6,2.3,1.5,4,0,4.2-.3,11.3-.6,16.5-.4,8.2-.5,10.4-.9,11.1-.2.5-.5,1-1,1.3-2.8,2.3-10,1.6-11.8,1.3-.7.3-2.2.8-5.7.7h0s0,0,0,0ZM337.1,471.1c6.3,0,6.8.2,8.9.6,1.1.2,2.6.5,5.8,1,12.8,1.8,15,.5,15.1.4l.3-.3h.4c2.3.5,8.6.9,10.7-.8.4-.4.6-.8.6-1.3h.1c.3-2.9,1-19.4,1.1-26.5,0-1.2-.3-2.1-1-2.8-2-1.9-7.3-1.7-12.9-1.5-5.9.2-10.9,0-15.3-.2-2.1,0-4.1-.2-5.8-.2h-2.2c-26.7-.5-41.8-.1-44.9,1-4.5,1.6-13-.3-17.6-1.4-1-.2-1.8-.4-2.1-.5-.2,0-.8-.1-1.5-.3-13.4-2.4-22.1-2.6-26-.6h0c-3.7,1.9-3.5,2.3-2.8,4.5.5,1.5,1.3,3.8,1.3,7.5-.1,9.1-1.1,16.4-1.1,16.5h0c0,0-.1.8.7,1.6,1.5,1.5,6.6,3.7,23.8,1.5,1-.1,1.8-.2,2.4-.3.5-.3,1.2-.4,1.9-.4,1,0,1.1.6,1.2.8,0,.1,0,.2,0,.3,3,.3,10,.7,26.3.9s19.8.2,25.5.3c3.1,0,5.4,0,7.3,0h0Z"/>
      <path class="st23" d="M352.8,379c-2.1.7-4.4.7-6.4,1.6-2.7,1.1-4.8,2.4-7.7,3.3"/>
      <path class="st24" d="M339,384.6l-.6-1.6c1.7-.5,3-1.2,4.5-1.9,1-.5,2-1,3.1-1.4,1.2-.5,2.4-.7,3.6-.9,1-.2,2-.4,2.9-.7l.6,1.6c-1,.4-2.1.6-3.2.7-1.2.2-2.2.4-3.2.8-1,.4-2,.9-3,1.3-1.5.7-3,1.4-4.7,2h0Z"/>
      <path class="st21" d="M301.1,457.3c-.4-1,.1-1.1,1.1-1.6,1.5-.8,2.7-1.4,4.3-.3.4.3,1.5.8,1.2.3-1.6-2.6-4-8.4-4.4-8.6-.3-.1-.3.4-.5,1.5-.3,1.3-1.8,2.2-2.8,3-1.8,1.5-5.9,3.7-6.9,4.8,0,0,1.9,3.4,2.5,3.1.6-.3,3-2.1,3.2-1.6.2.6,1.5,3.5,1.9,4.9,0,.1.2.2.3.1.6-.1,1.1-.2,1.7-.3.2,0,.4-.3.3-.5-.4-1.2-1.6-3.6-2-4.8"/>
    </g>
    <g id="Ebene_1-21" data-name="Ebene_1-2">
      <g class="st30">
        <g>
          <path class="st23" d="M124.4,438.8h0c.1.2.1.3.1.6-1.8,5.9-14.4,9.2-32.4,9.3-17.6,0-32.6-2.4-32.3-8.9"/>
          <path class="st24" d="M92,449.6c-9.8,0-26.6-.8-31.5-6-1-1.1-1.6-2.4-1.5-3.9h1.9c-.1,1,.2,1.8.9,2.5,3.3,3.4,14.2,5.5,30.1,5.5h.2c17.3,0,29.6-3.3,31.4-8.4h0c0-.1-.1-.6-.1-.6l.2-.5.8.5h0v-1l.8.5h0c0,.1.1.1.1.1.1.2.1.6.1.9v.2c-1.9,6.3-14.3,9.9-33.3,10l-.2.2h0Z"/>
          <path class="st23" d="M128.6,371.3c1,6.8-16.9,6.7-35.9,6.7s-35,3.1-34.1-6.7c.5-4.4,16.3-7.6,35.2-7.6s33.9,1.6,34.8,7.6"/>
          <path class="st24" d="M93.8,365.1c-20.6,0-33.6,3.8-33.9,6.5-.1,1.5.1,2.5.9,3.3,2.6,2.8,11,2.5,20.7,2.2,3.6-.1,7.4-.2,11.3-.2h1c14.8,0,30,0,33.2-3.6.3-.5.6-.9.5-1.6-.6-3-6.8-6.5-33.6-6.5M72.9,379.8c-6.6,0-11.5-.6-14-3.2-1.3-1.4-1.8-3.2-1.6-5.3.6-6,19.3-8.8,36.5-8.8,24.3,0,35.1,2.6,36,8.8.2,1.4-.1,2.6-1,3.6-3.9,4.5-18.4,4.5-35.1,4.5h-1c-3.9,0-7.6.1-11.1.2-3.1,0-6,.1-8.6.1"/>
          <path class="st24" d="M121.3,371.1c0,1.7-12.4,3.1-27.6,3.1s-27.6-1.4-27.6-3.1,12.4-3.1,27.6-3.1,27.6,1.5,27.6,3.1"/>
          <path class="st23" d="M59.9,440.3h0l-1.8-65.8c0-.6.9-1.4,1.1-.8,1.4,2.5,14.4,4.1,32.3,4.1s36.7-.5,37.1-5.1l-4.2,67.6h0"/>
          <path class="st24" d="M123.7,439.6l.7.7-.7-.7ZM124.4,441.2h-1l4.1-65.6c-4.3,2.5-15.6,3.1-35.9,3.1s-28.2-.3-32.5-4l1.8,66.5h-1v-.9l-.7.7v-.7h-.2l-1.8-65.8c0-.8.7-1.7,1.5-1.9.6-.1,1.1.1,1.5.7.7,1.4,9.9,3.6,31.4,3.6s35.8,0,36.1-4.2h1.9c0,.1-4.2,67.5-4.2,67.5v.3c.1,0-.3.5-.3.5l-.7-.7v.9q.1,0,.1,0Z"/>
          <path class="st23" d="M37.1,407.8c0,18.4-.1,26,23.4,28.9h2.4c1.8-.3,3.5-2,3.5-4.7s-2.6-5.7-4.7-5.8h-.5c-8.5-.1-17.3-4.9-14.8-18.4,1.8-9.3,7.4-18.2,15.9-18.2h0c1.7-.1,3.2-2.3,3.2-4.8s-1.4-4.7-3-4.8c-.1,0-2.5-.1-3,0-.5,0-2.3.1-2.7.2-.7.1-1.4.3-2.2.7h-.1c-.8.2-1.5.6-2.3.9-.7.3-1.5.8-2.2,1.1-1.1.7-2.3,1.6-3.3,2.4-.2.2-.5.5-.8.7-.2.2-.5.5-.7.7-5.2,5.2-8.4,12.7-8.4,21"/>
          <path class="st24" d="M60.6,435.8h2.2c1.4-.3,2.7-1.6,2.7-3.8s-2.3-4.8-3.8-4.8h-.6c-5.6-.1-10.2-2-13-5.5-2.8-3.4-3.8-8.2-2.6-14.2,2.5-13.5,10.1-18.5,16.1-18.9h.6c1-.1,2.2-1.6,2.2-3.9s-1-3.8-2.2-3.9h0c-.3,0-2.4-.1-2.7,0-.1,0-.5,0-.8.1-.5,0-1.6.1-1.8.2-.7.2-1.4.3-2,.6h-.2c-.7.2-1.4.6-2,.9s-1.4.7-2,1.1c-1.1.7-2.2,1.5-3.2,2.4l-.8.7c-.2.2-.5.5-.7.7-5.1,5.2-8,12.6-8,20.2v.3c.1,18,.1,24.8,22.6,27.5M61.7,437.7h-1.4c-24.2-3-24.2-11.3-24.2-29.6v-.3c0-8.2,3.1-16,8.5-21.6h.1c.2-.3.5-.6.7-.8l.8-.7c1.1-1,2.3-1.8,3.4-2.5.7-.5,1.5-.9,2.3-1.3.8-.3,1.6-.7,2.4-1h.2c.7-.2,1.4-.5,2-.6.3-.1,1.1-.1,2.2-.2.3,0,.6,0,.7-.1h3.2c2.2.2,3.9,2.7,3.9,5.8s-1.7,5.6-4,5.8h-.5c0,.1-.1,0-.1,0-7.8.3-12.8,8.9-14.4,17.4-1,5.3-.2,9.5,2.2,12.6,3.3,4,8.6,4.7,11.6,4.7h.6c2.5.2,5.6,3.4,5.6,6.9s-2.3,5.2-4.3,5.7c-.1-.2-.2-.2-1.4-.2"/>
        </g>
      </g>
      <g class="st29">
        <path class="st21" d="M99.6,414.7c-.9-2.4.1-2.6,2.2-4.1,3-2,5.6-3.6,8.6-1.3.8.6,3.2,1.7,2.5.6-3.5-6.1-8.8-20.1-9.7-20.6s-.6,1-1,3.8c-.5,3.3-3.4,5.6-5.5,7.6-3.5,3.8-11.8,9.5-13.8,12.4,0,0,4.2,8.1,5.5,7.3,1.1-.8,6-5.5,6.5-4.1.6,1.5,3.2,8.3,4.3,11.8.1.2.3.5.6.3,1.1-.3,2.3-.7,3.5-.9.5-.1.7-.7.6-1.1-.7-3-3.3-8.8-4.3-11.7"/>
      </g>
    </g>
  </g>
</svg>