<?xml version="1.0" encoding="UTF-8"?>
<svg id="Ebene_1" data-name="Ebene 1" xmlns="http://www.w3.org/2000/svg" xmlns:xlink="http://www.w3.org/1999/xlink" viewBox="0 0 411.8 514.4">
  <defs>
    <style>
      .cls-1 {
        fill: none;
      }

      .cls-2 {
        fill: url(#Unbenannter_Verlauf_2);
      }

      .cls-3 {
        fill: #da91b3;
      }

      .cls-4 {
        fill: #1d1d1b;
      }

      .cls-5 {
        clip-path: url(#clippath-1);
      }

      .cls-6 {
        clip-path: url(#clippath-3);
      }

      .cls-7 {
        clip-path: url(#clippath-4);
      }

      .cls-8 {
        clip-path: url(#clippath-2);
      }

      .cls-9 {
        clip-path: url(#clippath-6);
      }

      .cls-10 {
        clip-path: url(#clippath-5);
      }

      .cls-11 {
        fill: #221f1d;
      }

      .cls-12 {
        fill: #f7a4c5;
      }

      .cls-13 {
        clip-path: url(#clippath);
      }

      .cls-14 {
        fill: #fdd900;
      }
    </style>
    <linearGradient id="Unbenannter_Verlauf_2" data-name="Unbenannter Verlauf 2" x1="101.06" y1="243.37" x2="404.11" y2="243.37" gradientTransform="translate(-35.05 43.12) rotate(-9.45)" gradientUnits="userSpaceOnUse">
      <stop offset="0" stop-color="#222221"/>
      <stop offset="1" stop-color="#1d1d1b"/>
    </linearGradient>
    <clipPath id="clippath">
      <rect class="cls-1" x="209.13" y="129.39" width="50" height="119.54" transform="translate(24.98 405.62) rotate(-84.92)"/>
    </clipPath>
    <clipPath id="clippath-1">
      <rect class="cls-1" x="209.13" y="129.39" width="50" height="119.54" transform="translate(24.98 405.62) rotate(-84.92)"/>
    </clipPath>
    <clipPath id="clippath-2">
      <rect class="cls-1" x="209.13" y="129.39" width="50" height="119.54" transform="translate(24.98 405.62) rotate(-84.92)"/>
    </clipPath>
    <clipPath id="clippath-3">
      <rect class="cls-1" x="209.13" y="129.39" width="50" height="119.54" transform="translate(24.98 405.62) rotate(-84.92)"/>
    </clipPath>
    <clipPath id="clippath-4">
      <rect class="cls-1" x="209.13" y="129.39" width="50" height="119.54" transform="translate(24.98 405.62) rotate(-84.92)"/>
    </clipPath>
    <clipPath id="clippath-5">
      <rect class="cls-1" x="139.25" y="326.84" width="66.28" height="61.62"/>
    </clipPath>
    <clipPath id="clippath-6">
      <polygon class="cls-1" points="175.07 372.84 193.09 372.28 192.59 348.82 174.58 349.38 175.07 372.84"/>
    </clipPath>
  </defs>
  <g id="Ebene_3" data-name="Ebene 3">
    <g id="Ebene_1-2" data-name="Ebene 1-2">
      <path class="cls-2" d="M154.19,122.79c-9.05,4.14-54.52,30.68-65.42,44.76-.62.8-.53,1.94.2,2.64,4.29,4.13,9.16,10.47,31.76,29.79.03.02,31.48-9.5,32.88-13.82,6.41-19.79,1.78-14.04.45-3.05-3.42,28.27-26.79,156.65-27.75,163.45s121.12,26.69,180.23,24.29c1.54-.06,2.42-1.38,2.69-2.9,3.62-20.14,9.36-23.12,14.14-75.98,1.94-34.6,13.8-102.31,14.58-99.69-.67.11-12.01,9.46,2.26,16.32,12.09,5.82,34.01,13.07,35.1,13.05.98-.02,14.91-25.04,21.6-37.7,1.12-2.13.78-4.73-.84-6.5-27.25-29.69-34.5-33.86-46.34-41.65-10.25-6.13-10.13-4.7-43.61-15.07-13.77-2.46-15.6-1.95-15.62-1.63-.94,22.18-14.19,24.62-42.11,22.68-16.5-2.82-20.19-3.9-24.37-9.27-11.9-15.32,3.12-17.88-4.82-17.3-32.47.83-48.16-.12-65.01,7.59Z"/>
      <g>
        <g class="cls-13">
          <path class="cls-14" d="M174.18,188.52s4.94,11.11,6.8,10.19c1.76-.91,9.46-5.94,9.98-4.22.65,1.99,3.44,11.13,4.54,15.69-.04.38.34.42.82.45,1.76-.24,3.43-.48,5.2-.63.65-.09,1.13-.72.94-1.36-.73-3.86-3.68-11.57-4.81-15.56-1.02-3.26.48-3.37,3.86-4.78,4.42-2.12,8.45-3.72,12.53-.14.97.9,4.25,2.71,3.56,1.2-4.11-8.49-9.73-27.24-10.75-27.76s-.97,1.17-1.92,4.51c-1.22,4.13-5.69,6.55-8.88,8.78-6.1,4.34-18.58,10.23-21.89,13.61"/>
        </g>
        <polygon class="cls-12" points="219.26 165.93 221.16 166.04 216.94 179.09 215.31 178.93 219.26 165.93"/>
        <g class="cls-5">
          <g>
            <path class="cls-12" d="M223.26,166.22l2.58.21.45,11.36,7.11-10.61,2.58.21-3.93,13.1-1.72-.14,2.42-7.7c-.03-.19.29-.61.3-1.27.29-.61.3-1.27.66-2.07l-7.11,10.61-1.72-.14-.45-11.36.05.37c-.16.21-.36.8-.45,1.48-.29.61-.32,1.08-.36,1.47l-2.42,7.7-1.72-.14,3.75-13.07h0Z"/>
            <path class="cls-12" d="M244.82,169.92c-.41-.23-.79-.27-1.65-.34l-3.34-.29-1.44,4.54,3.63.34c.86.07,1.49-.11,2.13-.3.7-.38,1.19-.92,1.26-1.78.32-1.08.14-1.72-.49-2.2M238.46,167.6l5.92.5c1.24.11,2.07.66,2.44,1.26.57.68.72,1.79.2,2.8-.32,1.08-.97,1.83-1.71,2.6s-1.96.84-3.29.74l-4.2-.36-1.77,5.62-1.44-.18,3.93-13.1h0l-.08.11Z"/>
            <path class="cls-12" d="M251.94,168.84l-2.46,8.08c-.32,1.08-.34,1.65-.25,2.3.34,1.09.88,1.58,2.21,1.67s2.8-.2,3.52-1.15c.48-.63.77-1.24,1.01-2.22l2.46-8.08,1.92.21-2.39,7.22c-.61,1.69-1.11,2.89-1.85,3.65-1.2,1.58-3.21,2.05-5.31,1.87s-3.56-1.2-3.77-2.68c-.12-.83-.02-2.17.52-3.75l2.39-7.22,1.92.21.08-.11Z"/>
          </g>
        </g>
        <polygon class="cls-12" points="262.92 169.77 264.64 169.9 261.04 181.35 267.82 181.92 267.48 183.57 258.79 182.8 262.92 169.77"/>
        <g class="cls-8">
          <path class="cls-12" d="M271.07,179.48c-.07.86-.11,1.24.07,1.88.31.9,1.13,1.35,2.85,1.49s1.24.11,1.88-.07c1.09-.34,1.96-.84,2.28-1.92.29-.61.11-1.24-.21-1.48s-1.04-.7-1.83-.97l-1.69-.61c-1.08-.32-1.81-.79-2.22-1.01-.57-.68-.88-1.58-.65-2.65.3-1.27,1.04-2.03,2.16-2.75s2.44-.81,3.86-.73,2.55.68,3.3,1.33.91,1.76.54,3.23l-1.72-.14c.1-.67.11-1.24-.05-1.69-.38-.7-1.2-1.15-2.44-1.26s-1.88.07-2.39.43c-.7.38-.9.97-1.22,1.4-.29.61-.14,1.06.21,1.48.22.25,1.02.52,2.28.81l1.69.61c.79.27,1.4.56,1.83.97.57.68.88,1.58.39,2.78-.36,1.47-1.26,2.44-2.6,3s-2.62.84-4.15.67-2.93-.72-3.52-1.59-.84-1.96-.29-3.45l1.44.18.2.07Z"/>
        </g>
        <polygon class="cls-12" points="284.51 171.67 294.17 172.59 293.61 173.99 285.77 173.29 284.62 177.22 291.98 177.9 291.46 179.57 284.01 178.91 282.82 183.23 290.85 184 290.22 185.6 280.58 184.77 284.51 171.67"/>
        <polygon class="cls-14" points="235.57 183.48 235.27 186.07 231.26 185.68 230.33 196.66 227.57 196.48 228.59 185.49 224.57 185.1 224.78 182.52 235.57 183.48"/>
        <g class="cls-6">
          <g>
            <path class="cls-14" d="M245.16,192.05l-.5,5.92-2.58-.21.56-6.12c.04-.38.14-1.06-.18-1.3-.16-.45-.57-.68-1.24-.77s-1.3.18-1.54.5c-.42.34-.52,1.02-.59,1.87l-.5,5.26-2.58-.21,1.17-13.28,2.58.21-.39,4.68c.48-.63.9-.97,1.35-1.13s1.09-.34,1.48-.21c.67.1,1.06.14,1.65.34.41.23.82.45,1.2,1.15.16.45.31.9.34,1.09-.27.79-.36,1.47-.43,2.32"/>
            <path class="cls-14" d="M253.48,192.78c.1-.67-.18-1.3-.5-1.54-.34-.42-.82-.45-1.2-.49-.67-.1-1.11.15-1.54.5s-.45.82-.75,1.42l4.02.38-.03-.19v-.09ZM255.71,195.96c-.1.67-.49,1.2-.97,1.83-.9.97-2.28,1.26-3.71,1.18s-2.26-.63-3.23-1.53-1.26-2.28-1.15-4.18c.11-1.9.72-2.93,1.63-3.91s2.01-1.13,3.45-.95,1.47.36,2.07.66,1.17.97,1.55,1.67c.38.7.56,1.34.68,2.17l-.21,1.92-6.78-.57c-.14,1.06.24,1.76.68,2.17.41.23.82.45,1.2.49s1.11-.15,1.28-.27.42-.34.48-.63l2.93.06h0l.08-.11Z"/>
            <path class="cls-14" d="M259.87,197.37c.22.25.41.23.79.27.67.1,1.11-.15,1.48-.21s.74-.76.97-1.83l.14-1.06c-.19.03-.45.16-.45.16-.19.03-.45.16-.65.09l-.67-.1c-.67-.1-.83.12-1.09.34-.45.16-.68.57-.7,1.04-.1.67-.14,1.06.18,1.3M258.6,190.28c.74-.76,2.01-1.13,3.73-.99s2.13.36,2.86.92,1.13,1.35,1.09,2.4l-.47,5.44c-.04.38-.1.67.09.65s.22.25.41.23l.05.37c-.09.01-2.87-.26-2.87-.26-.03-.19-.16-.45-.09-.65l.1-.67c-.42.34-.86.59-1.38.95-.65.09-1.28.27-1.94.27s-1.65-.34-2.03-1.04-.75-1.31-.68-2.17c.11-1.24.66-2.07,1.74-2.41.45-.16,1.28-.27,2.39-.43l.86.07c.38.04.83-.12,1.11-.15.45-.16-3.85-2.58-3.81-2.96s4.46,1.55,4.24,1.3-.61-.29-1.27-.3-1.11.15-1.28.27-.23.41-.45.82l-2.58-.21c-.34-.42-.18-1.3.34-1.65"/>
            <path class="cls-14" d="M272.29,198.47l-.21,1.92-1.24-.11c-1.24-.11-2.13-.36-2.48-.88-.22-.25-.31-.9-.27-1.28l.56-6.12-1.24-.11.21-1.92,1.24.11.27-2.77,2.58.21-.27,2.77,1.72.14-.21,1.92-1.72-.14-.5,5.26c-.04.38-.1.67.12.83,0,0,.41.23,1.08.32l.19-.03.26-.13"/>
            <path class="cls-14" d="M280.23,195.19c.1-.67-.18-1.3-.5-1.54-.34-.42-.82-.45-1.2-.49-.67-.1-1.11.15-1.54.5s-.45.82-.75,1.42l4.02.38-.03-.19v-.09ZM282.56,198.36c-.1.67-.49,1.2-.97,1.83-.9.97-2.28,1.26-3.71,1.18s-2.26-.63-3.23-1.53-1.26-2.28-1.15-4.18c.14-1.72.72-2.93,1.63-3.91s2.01-1.13,3.45-.95,1.47.36,2.07.66,1.17.97,1.55,1.67.56,1.34.68,2.17l-.21,1.92-6.78-.57c-.14,1.06.24,1.76.68,2.17.41.23.82.45,1.2.49s1.11-.15,1.28-.27.42-.34.48-.63l2.93.06h0l.08-.11Z"/>
            <path class="cls-14" d="M289.93,194.32c-1.06-.14-1.76.24-2.24.88-.23.41-.32,1.08-.34,1.65l-.39,4.68-2.58-.21.88-9.94,2.58.21-.14,1.72c.48-.63.9-.97,1.15-1.2.42-.34,1.15-.54,1.92-.46l.37-.05c.01.09-.19,2.67-.19,2.67l-.37.05-.65.09"/>
          </g>
        </g>
        <polygon class="cls-14" points="218.02 201.11 211.72 200.57 211.38 203.55 217.11 204.07 216.93 206.17 211.2 205.65 210.73 211.09 207.96 210.91 209.1 198.01 218.17 198.82 218.02 201.11"/>
        <polygon class="cls-14" points="228.49 207.2 222.18 206.57 221.97 209.81 229.13 210.42 228.88 212.72 218.95 211.83 220.08 198.94 229.63 199.78 229.4 202.17 222.61 201.51 222.42 204.27 228.73 204.81 228.49 207.2"/>
        <g class="cls-7">
          <path class="cls-14" d="M235.79,211.47c.67.1,1.06.14,1.49-.11.83-.12,1.13-.72,1.22-1.4s-.12-.83-.54-1.15c-.41-.23-1.02-.52-1.62-.81l-1.27-.3c-1.27-.3-2.28-.81-2.64-1.33-.76-.74-1.17-1.63-1.06-2.87s.66-2.07,1.49-2.85,2.24-.88,3.86-.73,2.55.68,3.3,1.33c1.04.7,1.29,1.8,1.22,3.32l-2.58-.21c.07-.86-.27-1.28-.91-1.76-.41-.23-1.08-.32-1.47-.36-.67-.1-1.3.18-1.76.24s-.68.57-.77,1.24.12.83.54,1.15c.22.25.82.45,1.69.61l2.26.63c1.08.32,1.62.81,2.06,1.22.76.74.88,1.58.84,2.62s-.66,2.07-1.49,2.85c-.93.79-2.21,1.06-3.93.92s-2.93-.72-3.88-1.44c-.97-.9-1.31-1.99-1.22-3.32l2.58.21c-.1.67.15,1.11.27,1.28.63.48,1.24.77,2.28.81"/>
        </g>
        <polygon class="cls-14" points="253.52 201.93 253.27 204.23 249.46 203.91 248.57 214.51 245.8 214.23 246.69 203.73 242.95 203.3 243.11 201.02 253.52 201.93"/>
        <rect class="cls-14" x="249.33" y="207.22" width="12.9" height="2.71" transform="translate(25.37 444.88) rotate(-84.92)"/>
        <polygon class="cls-14" points="259.16 202.47 262.12 202.71 263.98 212.65 267.66 203.17 270.62 203.42 265 215.9 262.23 215.72 259.16 202.47"/>
        <path class="cls-14" d="M276.83,212.09l-1.2-5.21-2.15,4.92,3.34.29ZM277.45,214.55l-4.88-.45-1.04,2.69-2.77-.27,5.81-12.51,3.16.32,3.45,13.3-3.16-.32-.58-2.84h0v.09Z"/>
        <polygon class="cls-14" points="283.71 204.62 282.49 217.53 291.85 218.3 292 216.02 285.5 215.41 286.4 204.91 283.71 204.62"/>
      </g>
    </g>
    <g>
      <path class="cls-3" d="M61.37,348.88c-.51,0-1.18.59-1.86.93-1.27.68-2.2.59-1.1-6.5,1.69-10.73-5.32-8.36-.93-20.78,4.39-12.42,9.12-28.97,13.77-33.03,4.65-4.14,9.04-4.82,16.81-9.46,6.67-4.05,18.5-9.46,26.02-6.59,7.6,2.87,16.13-2.53,23.74,1.69,7.52,4.22,9.55,2.87,10.98,9.8s1.69,8.19,3.55,11.32c10.14,16.13,7.6,45.36,7.6,48.32s-.42,7.6-.42,7.6"/>
      <path class="cls-4" d="M160.37,352.17h-1.52c0-.17.34-4.73.42-7.6s0-.76,0-1.44c.68-14.61,0-34.55-7.52-46.54-1.94-3.13-2.2-4.39-3.55-10.81l-.17-.68c-1.01-4.73-2.03-5.24-5.66-6.84-1.35-.59-2.96-1.35-4.98-2.45-3.89-2.2-7.94-1.69-12.33-1.18-3.72.42-7.6.93-11.32-.51-8.28-3.13-21.46,4.22-25.34,6.5-3.29,2.03-6,3.29-8.36,4.39-3.21,1.52-5.74,2.7-8.36,4.98-3.55,3.13-7.43,14.78-10.9,25-.93,2.7-1.77,5.32-2.62,7.77-2.37,6.59-1.35,8.79-.25,11.23.93,2.11,1.94,4.39,1.18,9.38-.68,4.48-.42,5.66-.34,6,0,0,.17,0,.34-.17.17-.08.34-.17.51-.34.59-.34,1.1-.76,1.77-.76v1.35c-.17,0-.59.34-.93.51-.17.17-.42.25-.59.34-.25.17-1.1.68-1.86.17-.84-.51-1.18-1.94-.34-7.43.68-4.56-.17-6.67-1.1-8.7-1.18-2.62-2.28-5.15.25-12.25.84-2.45,1.69-4.98,2.62-7.77,3.63-10.9,7.52-22.22,11.32-25.6,2.79-2.45,5.41-3.72,8.7-5.24,2.37-1.1,4.98-2.37,8.28-4.31,3.97-2.45,17.82-10.05,26.69-6.67,3.29,1.27,6.84.84,10.56.42,4.39-.51,8.95-1.1,13.26,1.35,1.94,1.1,3.63,1.86,4.9,2.45,3.63,1.69,5.32,2.45,6.42,7.86l.17.68c1.35,6.34,1.52,7.52,3.38,10.39,6.17,9.88,8.79,25.76,7.77,47.31v1.35c0,2.96-.42,7.6-.42,7.6h0l-.08.25Z"/>
      <path class="cls-11" d="M108.08,366.28c-.34-.84.08-.93.93-1.35,1.27-.68,2.28-1.18,3.63-.25.34.25,1.27.68,1.01.25-1.35-2.2-3.38-7.1-3.72-7.26-.25-.08-.25.34-.42,1.27-.25,1.1-1.52,1.86-2.37,2.53-1.52,1.27-4.98,3.13-5.83,4.05,0,0,1.6,2.87,2.11,2.62s2.53-1.77,2.7-1.35c.17.51,1.27,2.96,1.6,4.14,0,.08.17.17.25.08.51-.08.93-.17,1.44-.25.17,0,.34-.25.25-.42-.34-1.01-1.35-3.04-1.69-4.05"/>
      <path class="cls-3" d="M54.1,342.37c-6,3.04-1.52,3.04-1.6,10.73-.08,7.69-.93,13.85-.93,13.85,0,0-1.69,6.34,21.46,3.38,13.26-1.69-16.3.59,26.69,1.1,43,.59,28.21,0,40.04,1.6,11.83,1.69,13.35.17,13.35.17,0,0,10.47,1.52,10.39-2.53,0,3.8.93-14.95,1.01-22.3,0-4.65-5.15-4.56-12.59-4.31s-13.35-.34-17.82-.34-35.56-.76-40.04.84-14.78-1.44-16.3-1.6c-1.44-.17-17.74-3.63-23.74-.59"/>
      <path class="cls-4" d="M148.46,374.56c-2.03,0-4.9-.25-8.87-.84-2.7-.42-4.05-.68-4.98-.84-1.44-.25-5.91-.51-13.43-.51-4.82,0-11.66-.08-21.54-.25-18.75-.25-23.57-.76-24.84-1.35-.51,0-1.1.17-1.77.25-11.66,1.52-18.92.93-21.46-1.77-1.01-1.1-.93-2.11-.84-2.45,0-.42.84-6.42.93-13.77,0-2.87-.59-4.65-1.01-5.91-.84-2.45-.84-3.55,3.04-5.49h0c5.41-2.79,18.67-.42,22.98.34.59.08,1.01.17,1.18.17.34,0,1.01.17,1.94.42,3.46.76,10.64,2.45,14.02,1.27,2.79-1.01,15.37-1.35,38.52-.93h1.86c1.52,0,3.13.08,4.9.17,3.72.17,7.86.34,12.84.17,5.91-.17,9.97-.17,12,1.69.84.84,1.35,1.94,1.27,3.38,0,3.55-.25,9.55-.51,13.94-.34,6.93-.42,8.79-.76,9.38-.17.42-.42.84-.84,1.1-2.37,1.94-8.45,1.35-9.97,1.1-.59.25-1.86.68-4.82.59h0l.17.17ZM127.43,371.01c5.32,0,5.74.17,7.52.51.93.17,2.2.42,4.9.84,10.81,1.52,12.67.42,12.76.34l.25-.25h.34c1.94.42,7.26.76,9.04-.68.34-.34.51-.68.51-1.1h.08c.25-2.45.84-16.39.93-22.39,0-1.01-.25-1.77-.84-2.37-1.69-1.6-6.17-1.44-10.9-1.27-4.98.17-9.21,0-12.92-.17-1.77,0-3.46-.17-4.9-.17h-1.86c-22.55-.42-35.31-.08-37.93.84-3.8,1.35-10.98-.25-14.87-1.18-.84-.17-1.52-.34-1.77-.42-.17,0-.68-.08-1.27-.25-11.32-2.03-18.67-2.2-21.96-.51h0c-3.13,1.6-2.96,1.94-2.37,3.8.42,1.27,1.1,3.21,1.1,6.34-.08,7.69-.93,13.85-.93,13.94h0s-.08.68.59,1.35c1.27,1.27,5.58,3.13,20.1,1.27.84-.08,1.52-.17,2.03-.25.42-.25,1.01-.34,1.6-.34.84,0,.93.51,1.01.68v.25c2.53.25,8.45.59,22.22.76,13.77.17,16.73.17,21.54.25h6.17l-.17.17Z"/>
      <path class="cls-3" d="M140.77,293.21c-1.77.59-3.72.59-5.41,1.35-2.28.93-4.05,2.03-6.5,2.79"/>
      <path class="cls-4" d="M129.12,297.94l-.51-1.35c1.44-.42,2.53-1.01,3.8-1.6.84-.42,1.69-.84,2.62-1.18,1.01-.42,2.03-.59,3.04-.76.84-.17,1.69-.34,2.45-.59l.51,1.35c-.84.34-1.77.51-2.7.59-1.01.17-1.86.34-2.7.68s-1.69.76-2.53,1.1c-1.27.59-2.53,1.18-3.97,1.69h0v.08Z"/>
      <path class="cls-11" d="M106.14,359.6c-.34-.93.08-1.01,1.01-1.52,1.35-.68,2.53-1.27,3.97-.34.34.25,1.44.68,1.18.25-1.52-2.37-3.72-7.86-4.05-8.02s-.25.42-.51,1.44c-.25,1.27-1.6,2.03-2.62,2.79-1.69,1.35-5.49,3.38-6.42,4.48,0,0,1.77,3.13,2.37,2.87.51-.25,2.79-1.94,3.04-1.44.25.59,1.35,3.21,1.77,4.56,0,.08.17.17.25.17.51-.08,1.01-.17,1.6-.25.17,0,.34-.25.25-.42-.34-1.1-1.44-3.38-1.86-4.48"/>
    </g>
    <g id="Ebene_1-21" data-name="Ebene 1-21">
      <g class="cls-10">
        <g>
          <path class="cls-3" d="M201.57,380.83h0c.07.14.07.21.07.42-1.27,4.17-10.18,6.5-22.89,6.57-12.44,0-23.04-1.7-22.82-6.29"/>
          <path class="cls-4" d="M178.67,388.46c-6.92,0-18.8-.57-22.26-4.24-.71-.78-1.13-1.7-1.06-2.76h1.34c-.07.71.14,1.27.64,1.77,2.33,2.4,10.03,3.89,21.27,3.89h.14c12.22,0,20.92-2.33,22.19-5.94h0c0-.07-.07-.42-.07-.42l.14-.35.57.35h0v-.71l.57.35h0c0,.07.07.07.07.07.07.14.07.42.07.64v.14c-1.34,4.45-10.1,7-23.53,7.07l-.14.14h.07Z"/>
          <path class="cls-3" d="M204.54,333.13c.71,4.8-11.94,4.73-25.37,4.73s-24.73,2.19-24.1-4.73c.35-3.11,11.52-5.37,24.87-5.37s23.95,1.13,24.59,5.37"/>
          <path class="cls-4" d="M179.95,328.68c-14.56,0-23.74,2.69-23.95,4.59-.07,1.06.07,1.77.64,2.33,1.84,1.98,7.77,1.77,14.63,1.55,2.54-.07,5.23-.14,7.98-.14h.71c10.46,0,21.2,0,23.46-2.54.21-.35.42-.64.35-1.13-.42-2.12-4.8-4.59-23.74-4.59M165.18,339.14c-4.66,0-8.13-.42-9.89-2.26-.92-.99-1.27-2.26-1.13-3.74.42-4.24,13.64-6.22,25.79-6.22,17.17,0,24.8,1.84,25.44,6.22.14.99-.07,1.84-.71,2.54-2.76,3.18-13,3.18-24.8,3.18h-.71c-2.76,0-5.37.07-7.84.14-2.19,0-4.24.07-6.08.07"/>
          <path class="cls-4" d="M199.38,332.92c0,1.2-8.76,2.19-19.5,2.19s-19.5-.99-19.5-2.19,8.76-2.19,19.5-2.19,19.5,1.06,19.5,2.19"/>
          <path class="cls-3" d="M155.99,381.82h0l-1.27-46.49c0-.42.64-.99.78-.57.99,1.77,10.18,2.9,22.82,2.9s25.93-.35,26.22-3.6l-2.97,47.77h0"/>
          <path class="cls-4" d="M201.07,381.39l.49.49-.49-.49ZM201.57,382.52h-.71l2.9-46.35c-3.04,1.77-11.02,2.19-25.37,2.19s-19.93-.21-22.96-2.83l1.27,46.99h-.71v-.64l-.49.49v-.49h-.14l-1.27-46.49c0-.57.49-1.2,1.06-1.34.42-.07.78.07,1.06.49.49.99,7,2.54,22.19,2.54s25.3,0,25.51-2.97h1.34c0,.07-2.97,47.7-2.97,47.7v.21c.07,0-.21.35-.21.35l-.49-.49v.64h.07-.07Z"/>
          <path class="cls-3" d="M139.88,358.85c0,13-.07,18.37,16.53,20.42h1.7c1.27-.21,2.47-1.41,2.47-3.32s-1.84-4.03-3.32-4.1h-.35c-6.01-.07-12.22-3.46-10.46-13,1.27-6.57,5.23-12.86,11.24-12.86h0c1.2-.07,2.26-1.63,2.26-3.39s-.99-3.32-2.12-3.39c-.07,0-1.77-.07-2.12,0-.35,0-1.63.07-1.91.14-.49.07-.99.21-1.55.49h-.07c-.57.14-1.06.42-1.63.64-.49.21-1.06.57-1.55.78-.78.49-1.63,1.13-2.33,1.7-.14.14-.35.35-.57.49-.14.14-.35.35-.49.49-3.67,3.67-5.94,8.97-5.94,14.84"/>
          <path class="cls-4" d="M156.49,378.64h1.55c.99-.21,1.91-1.13,1.91-2.69s-1.63-3.39-2.69-3.39h-.42c-3.96-.07-7.21-1.41-9.19-3.89-1.98-2.4-2.69-5.79-1.84-10.03,1.77-9.54,7.14-13.07,11.38-13.35h.42c.71-.07,1.55-1.13,1.55-2.76s-.71-2.69-1.55-2.76h0c-.21,0-1.7-.07-1.91,0-.07,0-.35,0-.57.07-.35,0-1.13.07-1.27.14-.49.14-.99.21-1.41.42h-.14c-.49.14-.99.42-1.41.64s-.99.49-1.41.78c-.78.49-1.55,1.06-2.26,1.7l-.57.49c-.14.14-.35.35-.49.49-3.6,3.67-5.65,8.9-5.65,14.27v.21c.07,12.72.07,17.52,15.97,19.43M157.33,379.98h-.99c-17.1-2.12-17.1-7.98-17.1-20.92v-.21c0-5.79,2.19-11.31,6.01-15.26h.07c.14-.21.35-.42.49-.57l.57-.49c.78-.71,1.63-1.27,2.4-1.77.49-.35,1.06-.64,1.63-.92.57-.21,1.13-.49,1.7-.71h.14c.49-.14.99-.35,1.41-.42.21-.07.78-.07,1.55-.14.21,0,.42,0,.49-.07h2.26c1.55.14,2.76,1.91,2.76,4.1s-1.2,3.96-2.83,4.1h-.35c0,.07-.07,0-.07,0-5.51.21-9.04,6.29-10.18,12.29-.71,3.74-.14,6.71,1.55,8.9,2.33,2.83,6.08,3.32,8.2,3.32h.42c1.77.14,3.96,2.4,3.96,4.88s-1.63,3.67-3.04,4.03c-.07-.14-.14-.14-.99-.14"/>
        </g>
      </g>
      <g class="cls-9">
        <path class="cls-11" d="M184.68,364.22c-.57-1.41,0-1.55,1.27-2.47,1.77-1.2,3.32-2.19,5.23-.78.49.35,1.91,1.06,1.48.35-2.12-3.67-5.3-12.08-5.79-12.37s-.35.64-.64,2.26c-.28,1.98-2.05,3.32-3.32,4.59-2.12,2.26-7.14,5.72-8.27,7.49,0,0,2.54,4.88,3.32,4.38.71-.49,3.6-3.32,3.89-2.47.35.92,1.91,5.02,2.61,7.14,0,.14.21.28.35.21.71-.21,1.34-.42,2.12-.57.28,0,.42-.42.35-.71-.42-1.77-1.98-5.3-2.61-7.07"/>
      </g>
    </g>
  </g>
</svg>