<?xml version="1.0" encoding="UTF-8"?>
<svg id="Ebene_2" data-name="Ebene 2" xmlns="http://www.w3.org/2000/svg" viewBox="0 0 451.86 209.69">
  <defs>
    <style>
      .cls-1 {
        fill: #fff;
      }
    </style>
  </defs>
  <g id="Ebene_1-2" data-name="Ebene 1">
    <rect width="451.86" height="209.69"/>
    <g>
      <path class="cls-1" d="m94.22,126.37c-4.16-10.71,1.01-11.42,11.16-17.27,14.42-8.31,27.13-15.2,42.25-4.25,3.82,2.76,15.37,7.93,12.36,2.96-16.46-27.21-40.65-88.77-44.82-90.65-3.34-1.51-3.02,4.38-5.11,15.99-2.55,14.18-17.27,23.45-27.28,32.32-17.79,15.76-58.18,39.59-67.86,51.69,0,0,19.82,35.52,25.65,32.11,5.83-3.41,29.99-22.63,32.14-16.99,2.55,6.68,14.91,36.61,19.93,51.94.37,1.13,1.54,1.81,2.7,1.55,5.57-1.24,11.24-2.51,16.97-3.6,2.24-.43,3.57-2.72,2.89-4.89-3.95-12.64-15.93-37.88-20.99-50.9"/>
      <polygon class="cls-1" points="165.71 27.36 171.9 27.36 162.3 72.54 156.12 72.54 165.71 27.36"/>
      <g>
        <path class="cls-1" d="m179.66,27.36h8.77l4.86,38.2,21.01-38.2h8.67l-9.6,45.18h-5.81l5.66-26.67c.18-.92.53-2.45,1.03-4.58.5-2.13,1.01-4.42,1.52-6.86l-20.98,38.11h-6.06l-4.89-38.11-.31,1.39c-.23,1.1-.55,2.79-.98,5.06-.43,2.27-.76,3.93-.99,5l-5.66,26.67h-5.84l9.6-45.18Z"/>
        <path class="cls-1" d="m253.4,33.6c-1.23-.63-3.02-.95-5.38-.95h-12.18l-3.32,15.62h12.18c2.75,0,5.1-.58,7.06-1.75,1.96-1.17,3.25-3.22,3.89-6.17.7-3.32-.05-5.57-2.24-6.75m-22.54-6.24h20.33c4.02,0,7.02,1.13,9,3.4,1.98,2.26,2.53,5.45,1.65,9.55-.74,3.53-2.49,6.6-5.24,9.21-2.76,2.61-6.41,3.92-10.97,3.92h-14.21l-4.03,19.1h-6.12l9.6-45.18Z"/>
        <path class="cls-1" d="m276.92,27.36l-5.94,27.93c-.7,3.28-.67,6.01.09,8.18,1.13,3.28,3.85,4.92,8.18,4.92,5.19,0,9.09-1.77,11.72-5.32,1.42-1.93,2.47-4.52,3.17-7.78l5.94-27.93h6.21l-5.41,25.37c-1.17,5.56-2.82,9.83-4.95,12.83-3.92,5.45-9.69,8.18-17.32,8.18s-12.22-2.73-13.78-8.18c-.86-2.99-.71-7.27.46-12.83l5.41-25.37h6.21Z"/>
      </g>
      <polygon class="cls-1" points="313.75 27.36 319.87 27.36 311.41 67.16 334.29 67.16 333.15 72.54 304.15 72.54 313.75 27.36"/>
      <path class="cls-1" d="m344.24,57.97c-.39,2.56-.23,4.64.49,6.24,1.39,2.99,4.66,4.49,9.78,4.49,2.3,0,4.46-.33,6.49-.98,3.92-1.27,6.22-3.55,6.92-6.83.53-2.46.13-4.21-1.2-5.26-1.33-1.03-3.58-1.92-6.74-2.68l-5.85-1.38c-3.79-.9-6.41-1.9-7.84-2.99-2.46-1.89-3.29-4.7-2.49-8.46.86-4.06,2.97-7.39,6.33-10,3.36-2.6,7.62-3.91,12.76-3.91,4.74,0,8.52,1.14,11.34,3.43,2.82,2.28,3.7,5.94,2.63,10.96h-5.75c.2-2.42-.05-4.27-.77-5.57-1.37-2.36-4.3-3.54-8.77-3.54-3.61,0-6.36.76-8.26,2.27-1.9,1.52-3.06,3.28-3.49,5.29-.47,2.22.1,3.84,1.72,4.86,1.07.66,3.63,1.48,7.69,2.46l6.03,1.44c2.91.7,5.06,1.65,6.46,2.86,2.44,2.11,3.23,5.18,2.37,9.2-1.07,5-3.65,8.58-7.75,10.73-4.1,2.15-8.56,3.23-13.38,3.23-5.62,0-9.71-1.44-12.27-4.31-2.56-2.85-3.3-6.71-2.21-11.6h5.75Z"/>
      <polygon class="cls-1" points="387.35 27.36 420.29 27.36 419.09 32.9 392.11 32.9 389.22 46.62 414.17 46.62 413.06 51.84 388.11 51.84 384.86 67.16 412.29 67.16 411.15 72.54 377.75 72.54 387.35 27.36"/>
      <polygon class="cls-1" points="225.79 82.44 225.79 90.48 212.22 90.48 212.22 127.82 202.67 127.82 202.67 90.48 189.03 90.48 189.03 82.44 225.79 82.44"/>
      <g>
        <path class="cls-1" d="m260.95,108.12v19.7h-8.96v-20.41c0-1.81-.31-3.26-.92-4.37-.8-1.56-2.32-2.34-4.56-2.34s-4.08.77-5.28,2.32c-1.2,1.55-1.8,3.76-1.8,6.63v18.17h-8.74v-45.23h8.74v16.04c1.27-1.95,2.75-3.31,4.42-4.08,1.67-.77,3.43-1.15,5.28-1.15,2.07,0,3.96.36,5.65,1.08,1.69.72,3.08,1.82,4.17,3.29.93,1.25,1.49,2.54,1.69,3.87.2,1.32.31,3.48.31,6.48"/>
        <path class="cls-1" d="m289.18,107.69c-.15-2.32-.85-4.08-2.11-5.28-1.26-1.2-2.83-1.8-4.69-1.8-2.03,0-3.61.64-4.73,1.91-1.12,1.27-1.82,3-2.11,5.17h13.64Zm8.68,10.28c-.22,1.99-1.26,4.01-3.11,6.06-2.87,3.27-6.9,4.89-12.07,4.89-4.27,0-8.03-1.37-11.3-4.12-3.26-2.75-4.89-7.23-4.89-13.42,0-5.81,1.47-10.26,4.42-13.36,2.94-3.1,6.77-4.65,11.47-4.65,2.79,0,5.31.52,7.54,1.57,2.24,1.05,4.08,2.7,5.54,4.96,1.31,1.99,2.17,4.3,2.56,6.93.22,1.54.32,3.76.28,6.65h-22.97c.12,3.37,1.18,5.73,3.17,7.08,1.21.84,2.67,1.26,4.37,1.26,1.81,0,3.27-.51,4.4-1.54.62-.56,1.16-1.32,1.63-2.31h8.96Z"/>
        <path class="cls-1" d="m312,121.48c.82.68,1.83,1.01,3.02,1.01,1.89,0,3.63-.55,5.22-1.66,1.59-1.11,2.42-3.13,2.48-6.07v-3.26c-.55.35-1.11.63-1.67.85-.57.22-1.34.42-2.33.6l-1.97.37c-1.85.33-3.17.73-3.97,1.2-1.35.8-2.03,2.04-2.03,3.73,0,1.5.42,2.57,1.26,3.23m-6.53-23.58c2.32-2.95,6.3-4.43,11.95-4.43,3.67,0,6.94.73,9.79,2.19,2.85,1.46,4.28,4.21,4.28,8.25v15.39c0,1.07.02,2.36.06,3.88.06,1.15.24,1.93.52,2.34.29.41.72.75,1.29,1.02v1.29h-9.54c-.27-.68-.45-1.31-.55-1.91-.1-.59-.18-1.27-.25-2.03-1.21,1.31-2.61,2.43-4.19,3.36-1.89,1.09-4.02,1.63-6.4,1.63-3.04,0-5.55-.87-7.53-2.6-1.98-1.73-2.97-4.19-2.97-7.37,0-4.13,1.59-7.11,4.77-8.96,1.74-1,4.31-1.72,7.7-2.16l2.99-.37c1.62-.2,2.78-.46,3.48-.77,1.25-.53,1.88-1.36,1.88-2.49,0-1.38-.48-2.33-1.43-2.85s-2.36-.79-4.2-.79c-2.07,0-3.54.51-4.4,1.54-.61.76-1.03,1.78-1.23,3.08h-8.47c.19-2.93,1.01-5.34,2.46-7.23"/>
        <path class="cls-1" d="m354.64,121.57v6.56l-4.15.15c-4.15.15-6.98-.57-8.5-2.16-.99-1.01-1.48-2.56-1.48-4.65v-20.66h-4.68v-6.25h4.68v-9.36h8.68v9.36h5.45v6.25h-5.45v17.73c0,1.38.17,2.23.52,2.57.35.34,1.42.51,3.2.51.27,0,.55,0,.84-.01.3-.01.59-.03.88-.05"/>
        <path class="cls-1" d="m380.31,107.69c-.15-2.32-.85-4.08-2.11-5.28-1.26-1.2-2.83-1.8-4.69-1.8-2.03,0-3.61.64-4.73,1.91-1.12,1.27-1.82,3-2.11,5.17h13.64Zm8.68,10.28c-.23,1.99-1.26,4.01-3.11,6.06-2.87,3.27-6.9,4.89-12.07,4.89-4.27,0-8.03-1.37-11.3-4.12-3.26-2.75-4.89-7.23-4.89-13.42,0-5.81,1.47-10.26,4.42-13.36,2.94-3.1,6.77-4.65,11.47-4.65,2.79,0,5.3.52,7.54,1.57,2.23,1.05,4.08,2.7,5.54,4.96,1.31,1.99,2.17,4.3,2.56,6.93.22,1.54.32,3.76.27,6.65h-22.96c.12,3.37,1.18,5.73,3.17,7.08,1.21.84,2.67,1.26,4.37,1.26,1.81,0,3.27-.51,4.4-1.54.62-.56,1.16-1.32,1.63-2.31h8.96Z"/>
        <path class="cls-1" d="m412.21,102.36c-3.53,0-5.9,1.15-7.11,3.45-.68,1.29-1.01,3.28-1.01,5.97v16.04h-8.84v-33.56h8.37v5.85c1.36-2.24,2.54-3.77,3.54-4.59,1.64-1.37,3.78-2.06,6.4-2.06.16,0,.3,0,.42.02.11.01.37.03.76.05v8.99c-.56-.06-1.05-.1-1.48-.12-.43-.02-.78-.03-1.05-.03"/>
      </g>
      <polygon class="cls-1" points="172.51 146.57 150.48 146.57 150.48 156.67 169.77 156.67 169.77 164.3 150.48 164.3 150.48 182.73 141.36 182.73 141.36 138.84 172.51 138.84 172.51 146.57"/>
      <polygon class="cls-1" points="209.24 163.53 187.89 163.53 187.89 174.83 212.22 174.83 212.22 182.73 178.92 182.73 178.92 138.79 211.15 138.79 211.15 146.57 187.89 146.57 187.89 155.9 209.24 155.9 209.24 163.53"/>
      <path class="cls-1" d="m235.32,176.38c2.17,0,3.92-.24,5.28-.72,2.56-.91,3.84-2.61,3.84-5.1,0-1.45-.63-2.57-1.91-3.37-1.27-.77-3.27-1.46-5.99-2.06l-4.65-1.04c-4.57-1.03-7.73-2.16-9.48-3.37-2.96-2.03-4.44-5.2-4.44-9.51,0-3.94,1.43-7.2,4.29-9.81,2.86-2.6,7.06-3.91,12.61-3.91,4.63,0,8.58,1.23,11.85,3.68,3.27,2.45,4.98,6.02,5.14,10.69h-8.83c-.16-2.64-1.31-4.52-3.46-5.63-1.43-.74-3.21-1.1-5.34-1.1-2.36,0-4.25.48-5.66,1.43-1.41.95-2.11,2.29-2.11,3.99,0,1.57.69,2.75,2.09,3.52.89.52,2.8,1.12,5.72,1.82l7.57,1.82c3.32.8,5.82,1.86,7.51,3.19,2.62,2.07,3.93,5.06,3.93,8.97s-1.53,7.35-4.6,10c-3.07,2.65-7.41,3.98-13.01,3.98s-10.23-1.31-13.5-3.92c-3.28-2.61-4.92-6.2-4.92-10.78h8.76c.28,2.01.82,3.51,1.64,4.5,1.49,1.81,4.05,2.71,7.66,2.71"/>
      <polygon class="cls-1" points="292.02 138.79 292.02 146.57 278.88 146.57 278.88 182.73 269.64 182.73 269.64 146.57 256.43 146.57 256.43 138.79 292.02 138.79"/>
      <rect class="cls-1" x="296.68" y="138.79" width="9.12" height="43.94"/>
      <polygon class="cls-1" points="311.1 138.79 320.91 138.79 330.45 172.15 340.08 138.79 349.62 138.79 334.62 182.73 325.95 182.73 311.1 138.79"/>
      <path class="cls-1" d="m373.74,166.12l-5.49-17.29-5.66,17.29h11.15Zm2.56,7.57h-16.19l-3.04,9.03h-9.6l15.68-43.94h10.37l15.56,43.94h-9.95l-2.83-9.03Z"/>
      <polygon class="cls-1" points="394.66 138.79 394.66 182.73 425.61 182.73 425.61 174.83 403.85 174.83 403.85 138.79 394.66 138.79"/>
    </g>
  </g>
</svg>