<?xml version="1.0" encoding="UTF-8"?>
<svg id="Ebene_2" data-name="Ebene 2" xmlns="http://www.w3.org/2000/svg" xmlns:xlink="http://www.w3.org/1999/xlink" viewBox="0 0 60 65.3">
  <defs>
    <style>
      .cls-1 {
        fill: none;
      }

      .cls-2 {
        clip-path: url(#clippath);
      }

      .cls-3 {
        fill: #fff;
      }

      .cls-4 {
        fill: #221f1d;
      }

      .cls-5 {
        fill: #1d1d1b;
      }
    </style>
    <clipPath id="clippath">
      <rect class="cls-1" width="60" height="65.3"/>
    </clipPath>
  </defs>
  <g id="Ebene_1-2" data-name="Ebene 1">
    <g>
      <rect class="cls-3" width="60" height="65.3"/>
      <g class="cls-2">
        <g>
          <path class="cls-4" d="m32.4,39c-1.3-3.3.3-3.5,3.5-5.4,4.5-2.6,8.4-4.7,13.1-1.3,1.2.9,4.8,2.5,3.8.9-5.1-8.4-12.6-27.5-13.9-28.1-1-.5-.9,1.4-1.6,5-.8,4.4-5.4,7.3-8.5,10-5.5,4.9-18,12.3-21,16,0,0,6.1,11,8,10,1.8-1.1,9.3-7,10-5.3.8,2.1,4.6,11.4,6.2,16.1.1.4.5.6.8.5,1.7-.4,3.5-.8,5.3-1.1.7-.1,1.1-.8.9-1.5-1.4-4-5.1-11.8-6.6-15.8"/>
          <path class="cls-5" d="m60,65.4H0V.1h60v65.3Zm-59-1h58V1.1H1v63.3Z"/>
        </g>
      </g>
    </g>
  </g>
</svg>