<?xml version="1.0" encoding="UTF-8"?>
<svg id="Ebene_2" data-name="Ebene 2" xmlns="http://www.w3.org/2000/svg" xmlns:xlink="http://www.w3.org/1999/xlink" viewBox="0 0 433.81 514.4">
  <defs>
    <style>
      .cls-1, .cls-2 {
        fill: none;
      }

      .cls-3 {
        font-size: 52.44px;
        stroke-width: 2px;
      }

      .cls-3, .cls-4, .cls-5, .cls-6, .cls-7, .cls-8, .cls-9, .cls-10, .cls-11 {
        isolation: isolate;
      }

      .cls-3, .cls-4, .cls-6, .cls-8, .cls-9 {
        font-family: Helvetica-Bold, Helvetica;
        font-weight: 700;
      }

      .cls-3, .cls-7, .cls-12, .cls-13, .cls-14, .cls-15, .cls-16, .cls-17, .cls-18, .cls-2, .cls-10 {
        stroke-miterlimit: 10;
      }

      .cls-3, .cls-12, .cls-13, .cls-14 {
        stroke: #000;
      }

      .cls-3, .cls-15, .cls-18 {
        fill: #faf491;
      }

      .cls-4, .cls-5, .cls-19, .cls-6, .cls-8, .cls-9 {
        fill: #221f1d;
      }

      .cls-4, .cls-8, .cls-9 {
        font-size: 9.93px;
      }

      .cls-5 {
        font-family: Helvetica, Helvetica;
        font-size: 10.24px;
        letter-spacing: -.03em;
      }

      .cls-20 {
        clip-path: url(#clippath);
      }

      .cls-21 {
        fill: #009fe3;
      }

      .cls-22, .cls-10 {
        fill: #1d1d1b;
      }

      .cls-6 {
        font-size: 10.25px;
      }

      .cls-7 {
        fill: #e6007e;
        opacity: .25;
      }

      .cls-7, .cls-2 {
        stroke: #951b81;
        stroke-width: 1.12px;
      }

      .cls-12 {
        fill: #ff9fed;
      }

      .cls-12, .cls-13, .cls-10 {
        stroke-width: .25px;
      }

      .cls-13 {
        fill: #f3e600;
      }

      .cls-14 {
        fill: #98d6f7;
      }

      .cls-15 {
        stroke: #171717;
      }

      .cls-16 {
        fill: #fff3b6;
        stroke: #221f1d;
      }

      .cls-17 {
        fill: #f1adce;
        stroke: #1d1d1b;
      }

      .cls-18, .cls-10 {
        stroke: #009fe3;
      }

      .cls-8 {
        letter-spacing: -.07em;
      }

      .cls-23 {
        opacity: .89;
      }

      .cls-9 {
        letter-spacing: -.04em;
      }

      .cls-10 {
        font-family: HelveticaNeue-Italic, 'Helvetica Neue';
        font-size: 46px;
        font-style: italic;
      }
    </style>
    <clipPath id="clippath">
      <rect class="cls-1" x="99.49" y="1.48" width="333.4" height="478.07"/>
    </clipPath>
  </defs>
  <g id="Ebene_2-2" data-name="Ebene 2">
    <rect class="cls-17" x="99.07" y=".5" width="334.24" height="475.41"/>
    <g id="Ebene_2-2" data-name="Ebene 2-2">
      <g class="cls-20">
        <g>
          <rect class="cls-1" x="72.4" y="27.61" width="343.42" height="489.49"/>
          <g>
            <polyline class="cls-19" points="395.95 84.26 388.96 85.74 393.04 75.6 387.69 75.43 384.18 76.79 390.95 73.89 388.1 85.29 390.83 86.67 386.73 82.43 383.22 87.96 379 75.69 375.48 86.96 371.53 89.57 367.5 89.48 363.39 88.8 362.06 75.05 357.62 79.16 352.63 79.47 355.69 75.18 355.09 71.75 358.1 69.4 361.42 67.38 357.9 59.72 360.68 57.1 363.29 54.44 371.36 55.31 369.72 49.66 362.77 46.13 368.1 48.29 377.23 43.88 379.07 47.32 383.38 47.97 383.59 53.32 386.75 55.3 390.85 56.1 390.46 62.4 389.44 69.67 398.68 63.89 395.27 68.17 394.84 61.72 389.19 64.48 385.11 66.36 381.64 65.93 378.22 53.06 374.06 53.76 370.26 53.75 365.36 63.47 360.36 62.76 365.18 59.64 370.87 56.15 373.17 60.35 375.72 64.47 381.15 59.92 384.08 62.96 386.53 69.3 391.54 62.16 394.24 72.55 398.26 65.88 394.43 72.57 397.31 63.78 391.4 64.49 387.82 62.81 385.64 59.31 383.97 54.67 377.32 58.81 374.86 55.77 374.22 45.31 367.77 57 363.71 54.45 365.39 58.82 374.06 55.14 371.76 63.69 374.88 66.33 382.52 63.37 382.77 69.55 387.22 70.51 394.05 68.4 392.36 77.21 400.93 73.05 392.92 76.84 392.26 71.72 387.96 71.06 391.07 61.29 379.32 69.81 384.8 57.11 374.94 63.29 379.07 55.78 387.08 55.72 387.12 52.71 384.35 55.69 383.96 59.83 377.8 60.87 373.23 62.82 376.96 69.05 378.83 74.15 373.35 75.69 375.83 80.74 372.07 83.06 367.5 85.43 363.39 90.46 368.5 85.81 376.41 92.93 379.64 90.05 374.27 77.3 382.76 81.41 380.08 72.98 382.11 69.86 392.25 77.01"/>
            <g>
              <path class="cls-19" d="m392.71,81.66c-1.14.16-2.69.44-4.42.77l3.76,4.57c.74-1.79,1.56-3.78,2.35-5.71-.44.99-.88,2-1.35,3.05-.36.83-.73,1.68-1.12,2.61l-3.61-4.4c1.32-.25,2.78-.56,4.39-.9h0Z"/>
              <path class="cls-19" d="m394.45,81.18s.03-.07.04-.1c-.04.09-.06.15-.09.22.02-.05.04-.09.05-.12Z"/>
              <path class="cls-19" d="m392.13,72.32c-.76-.53-1.62-1.14-2.5-1.75.84.59,1.69,1.19,2.5,1.75Z"/>
              <path class="cls-19" d="m375.55,49c0-.1.03-.21.06-.32.04-.02.07-.03.09-.04-.23-.42-.42-.77-.59-1.07-.04-.08-.08-.15-.12-.22,0,0-.04-.07-.01-.02l.06.12c.04.08.08.16.12.24.16.31.31.6.45.85.54,1.04.87,1.7,1.1,2.17.49.1.81.17,1.14.23.16.03.32.07.49.1l.14.03c.14.02.28.05.43.07.22.04.45.07.69.11l.09.02c.12.02.26.05.44.09.09.02.18.03.28.05h.04-.13c-.06-.02-.12-.03-.19-.04-.13-.02-.28-.04-.43-.06-.1-.01-.02,0-.04,0h.04v.04s.09-.04.11-.02c0,0,0-.03.01.1,0,.17.02.35.03.54.02.36.04.74.06,1.13.03.74.07,1.52.11,2.32,1.67,1.05,3.51,2.21,5.37,3.38,1.93.39,1.29.26,1.46.3l.11.04c-.01.07-.02.12-.01.17v.03s.01-.04,0,.18c0,.31,0,.58-.01.81,0-.02-.03.2-.05.55-.03.3-.06.71-.09,1.13-.08.44-.15.88-.21,1.2-.07.35-.12.57-.14.5.02,1.05-.37,3.25-.67,5.42l-1.13,8.06,6.77-4.32c.34-.21.68-.44,1.01-.64.7-.5-.44.2-1.07.54l-6.99,3.7,1.54-7.32c.01-.06.02-.11.03-.15l-.02.15-.99,7.74,6.42-4.13,4.71-3.03c1.94-1.14,2.47-1.33.41-.01.97-.61,2.23-1.39,4.2-2.61l-4.87-5.62c-.93,1.16-1.99,2.48-3.43,4.27l6.67,2.14c-.22-3.53-.47-7.4-.77-12.12-2.78,1.35-5.7,2.78-8.75,4.26-.7.33-1.41.68-2.13,1.02-.41.19-.83.38-1.25.57-.42.19-.85.39-1.28.58l-.3.13h-.02c-.1-.01.07,0,.15,0-1.16-4.39-2.38-9.01-3.63-13.77-2.41.41-4.83.81-7.28,1.22-1.95,0-3.9-.02-5.86-.03-1.19,2.34-2.37,4.69-3.55,7.03-.39.76-.77,1.53-1.16,2.29l-.02.03h-.04c-.74-.12-1.48-.22-2.21-.33l1.55,7.25c1.81-1.16,3.59-2.3,5.33-3.42.44-.27.88-.54,1.31-.8l.31-.19h.01c.07.12.14.25.2.38l.1.18.05.09.02.04.23.38c1.66,2.67,3.26,5.23,4.77,7.65,2.2-1.85,4.31-3.61,6.3-5.28l.34-.28.17-.14.08-.07-.11.09-.48.41-.23.19h0v-.02c-.04-.05-.15-.17-.11-.14h0l.07.18c.12.29.23.58.33.84-.08-.24-.17-.52-.27-.82l-.08-.22h0v-.03c-.02-.06.06.01.06-.03h-.08c-.07.02,1.15-1.03.44-.5l.15-.13.07-.07-.08.06c-.13.1-.26.2-.38.3-.36.29-.2.15-.21.15.03-.04.07-.07.1-.1.07.06.03.08.15.16.01.02.02.03.04.04.01.02,0,0,.03.05l.11.24c.13.83.95,3,1.84,5.37l2.15,5.7,4.35-4.89c.13-.14.29-.33.28,0,.02-.14.05-.3.09-.49v.03l.06.6c.32,1.01.5,1.57.6,1.9l2.62,8.25,4.24-7.24c1.96-3.35.43-.72,4.05-6.65l-6.53-3.94c-.54.94-1.26,2.19-2.17,3.76-.59,1.04-1.14,2.02-1.65,2.93l6.89,3.14c1.11-3.59,1.97-6.38,2.73-8.84l1.73-5.6-5.61.76c-1.05.14-2.05.28-3.02.42-.49.06-.97.12-1.44.18l-.36.04h-.07l-.1-.06s.06.05.1.09c.04.03.08.07-.02.12-.02,0-.05,0-.09-.02,0-.02,0-.04-.03-.06-.09-.05-.37-.19-.62-.3-.26-.12-.57-.26-.9-.42-.04-.01-.09-.03-.14-.04l-.09-.11c-.2-.31-.41-.63-.6-.93-.19-.3-.38-.6-.54-.86-.07-.12-.14-.23-.21-.34,0-.02-.01-.03-.02-.05v-.06c-.02-.07-.03-.13-.05-.19-.63-1.75-1.81-5.03-2.92-8.09-2.15,1.37-4.19,2.67-5.36,3.42-1.25.82-1.52,1.04-.07.23-.33.19-.83.49-1.44.84-.7.42-.88.52-.73.42l.09-.08s-.04.01-.06.02c-.05.02-.1.03-.14.05.1.07.19.12.02-.15,0,0,.02-.02.03-.03l-.03.02c.14.16.41.48.23.25,0-.04-.01-.08-.01-.12-.03-.34-.06-.68-.08-.98l.04.99-.02.14.05.09s-.05-.06-.07-.08c-.22-3.84-.38-6.74-.53-9.35l-.68-12-5.83,10.49c-1.1,1.99-2.09,3.81-3.08,5.8l1.54-2.58c-.99,1.79-1.91,3.47-2.72,4.92-.15.24-.29.43-.39.46-.1-.09-.18-.18-.24-.26l.2.11.17-.43c-.07.13-.13.24-.19.35-.33-.2-.63-.39-.91-.56l-8.99-5.44,3.84,9.8c1.04,2.66,2.03,5.18,3.03,7.73,1.71-.74,3.43-1.48,5.19-2.25.44-.19.88-.39,1.32-.58l.33-.14.16-.07h-.03l-.12.05c-.15.05-.3.1-.45.16l.33-.14.16-.07.08-.04-.47.2c.13-.06.26-.11.4-.17.1-.04.06-.03.05-.03h-.04s-.1.04-.15.06c-.1.03-.21.07-.34.11-.22.08-.49.17-.78.27.05-.11.1-.23.15-.38l.03-.08.02-.04v-.02h.01l-.05.2c-.36,1.39-.74,2.82-1.13,4.29,1.97,1.65,4.02,3.37,6.14,5.13,1.1-.44,2.22-.87,3.34-1.32l.94-.38.2-.08c.28-.12.56-.24.85-.36l-.02-1.26c.08,1.82.16,3.65.25,5.46,2.53.53,5.04,1.06,7.52,1.58.52-.16,1.03-.32,1.55-.49l.23-.07.08-.03.34-.12c.24-.09.48-.17.71-.25-.06.42-.12.82-.18,1.2l-.04.29-.02.15c-.06.33-.13.68-.19,1-.45,2.39-.89,4.69-1.3,6.9,4.84-2.4,8.5-4.24,10.47-5.25l-4.92,2.18,7.88-3.97-2-4.29-.82.42c.19-.09.47-.26.78-.49l2.07,4.44c-1.32.83-3.4,2.2-4.12,2.49.97-.48,2.13-1.03,4.31-2.1l-2.45-5.24c-2.03.96-4.75,2.26-8,3.8l4.03,2.24c-.28-2.15-.58-4.45-.95-7.27-1.96-.29-4-.6-6.41-.96l2.28,3.72c.96-3.05,2-6.33,3.09-9.78l2.61-8.24-6.93,5.05c-3.74,2.73-7.7,5.61-11.74,8.55l4.19,3.44c1.82-4.23,3.66-8.52,5.46-12.71l3.56-8.29-7.58,4.77c-3.37,2.12-6.69,4.21-9.85,6.18l3.89,3.76c1.16-2.12,2.28-4.16,3.34-6.08,2.27-.01,4.42-.03,6.4-.04l2.72-.02.04-2.76c.01-1.04.03-2.06.04-3.02l.1-7.23-4.91,5.26c-1.23,1.32-2.38,2.54-3.44,3.68-.11,1.09-.21,2.08-.29,2.93-.62.09-1.12.17-1.5.23-.87.12-1.48.2-1.89.26-.29.03-.5.06-.66.08-.19.02-.3.03-.34.02-.19.06-.17.04-.01-.04.37-.09,1.89-.48,1.96-.5-.81.14-1.49.27-1.99.36-5.89,2.58-3.72,1.74-8.03,3.59.38.64.9,1.51,1.58,2.64,1.34,2.3-.46-.48-1.3-1.82,1.13,1.9,2.22,3.71,3.05,5.1.36.59.66,1.08.88,1.46.15.23.25.39.29.41-.2-.36-.37-.66-.5-.9-.22-.4-.39-.72-.53-.98-.27-.51-.38-.77-.43-.94-.11-.34-.01-.38-.48-1.31l3.1,5.21.32.9-.2-.12c.1.28.33.64.69,1.35-1.28.44-3.02,1-5.57,1.73.68,1.4,1.42,2.9,2.2,4.5.18.39.37.77.57,1.19l-.92.56-.46.28-.23.14-.12.07-.26.13c-1.54.8-3.1,1.61-4.69,2.43-1.47,1.79-2.95,3.61-4.44,5.43l3.63,3.55c1.15-1.04,2.29-2.09,3.44-3.12,2.47,2.23,4.93,4.45,7.33,6.61-.12-.05-.95-.75-2.16-1.79-.92-.79-2.11-1.82-3.3-2.86.69.62,1.56,1.41,2.42,2.18,1.25,1.13,2.48,2.25,3.41,3.13-1.33-1.28-.83-.86.18.03,1.17-1.05,2.87-2.59,3.98-3.58.81-.74,1.18-1.07.28-.29.66-.62,1.34-1.24,2.05-1.91-1.11-2.53-2.27-5.21-3.46-7.94-.91-2.15-1.83-4.34-2.74-6.49l-3.28,3.19c2.98,1.45,5.89,2.87,8.51,4.1l5.15,2.4-1.83-5.34c-.32-.94-.64-1.86-.93-2.72-.09-.09-.46-.59-1.05-1.46-.57-.85-1.34-2.01-2.28-3.42-.04-.77.33-2.26.65-3.66l.11-.48,1.03.25c3.48.84,7.1,1.84,7.2,1.68,1.95,1.39,3.9,2.77,4.48,3.21-.45-.44-4.28-3.18-6.35-4.58l-.47-.08c-3.36-2.3-2.48-1.78-3.34-2.45l-2.76-2.13-2.12,3.08c-.11.16-.28.41-.54.78-.37.57-.87,1.33-1.54,2.35-.12.1.12-.31.62-1.14.31-.5.75-1.23,1.29-2.11l1.97-3.2,3.18,2.2c1.5,1.04,3.53,2.44,5.43,3.76-1.92-1.38-3.84-2.76-5.36-3.85l-3.19-2.29-2.12,3.33c-.4.63-.76,1.19-1.07,1.68-.57.91-1.04,1.67-1.38,2.26-.21.31-.4.6-.48.72.85,2.79.71,2.51.67,2.54-.02.02-.01.12.16.75.05.19.13.47.24.85.09.31.21.73.37,1.26.49,1.44,1.05,3.08,1.63,4.79l5.32-4.71c-1.93-.89-3.95-1.85-5.78-2.8h.07c-.98-.49-1.9-.94-2.76-1.38l-9.34-4.67,4.06,9.8c1.02,2.45,1.94,4.57,2.84,6.61.45,1.01.89,2.01,1.33,3.01l.17.38c.04.09.02.03.03.05l.03.03.05.08s-.05.05-.08.07l-.02.02s-.04.03.02-.02l.27-.24c.36-.32.73-.66,1.1-1-.01-.02-.03-.05-.04-.07.01-.01.03-.03.03-.04.43.29-.62-.58-7.92-7.17-1.88,1.68-3.78,3.4-5.65,5.08.41-.35.82-.7,1.13-.97.44-.38.75-.64.85-.7s-.02.07-.46.49c-.32.29-.85.79-1.68,1.57-.63.56-1.23,1.08-1.81,1.6l5.41,5.28c1.35-1.63,2.52-3.06,3.63-4.4.72-.36,1.41-.72,2.09-1.07l1.37-.69.34-.17c.11-.05.21-.1.44-.24l1.19-.7,5.36-3.44-.74-1.43c-.57-1.16-1.18-2.41-1.86-3.8-.17-.34-.34-.7-.52-1.06l-.06-.11.05.09.09.19.19.39c.26.53.53,1.07.81,1.64,1.43-.41,3.1-.87,5.03-1.42-.89-2.43-2.1-5.71-3.4-9.27-.45-.74-1.05-1.75-1.7-2.83.06-.03.14-.07.23-.1,2.31-.4,5.37-.91,8.51-1.45.11-1.14.23-2.43.36-3.82.06-.66.13-1.35.19-2.04l-.02.19v-.04c.55-.59,1.23-1.33,1.91-2.07l-6.31-2.59c0,.89-.02,1.95-.03,3.02l3.62-3.65c-3.18.03-6.67.06-10.13.09-1.73,3.17-3.45,6.32-5.14,9.4l-6.73,12.32,11.78-7.43c3.63-2.29,6.82-4.3,9.84-6.2l-5.16-4.53c-2.25,5.26-3.92,9.17-5.44,12.71l-5.12,11.96,10.43-7.61c5.52-4.04,8.85-6.46,11.73-8.56l-5.39-3.98c-1.64,5.2-2.42,7.64-3.09,9.78l-1.26,3.98,4.07.6c.98.14,1.35.2,1.7.25.2,1.49.27,2.01.33,2.48l.63,4.78,4.29-2.04c3.79-1.79,4.94-2.34,5.94-2.82l-.75.39c.91-.44,1.85-.88,2.82-1.35l-2.99-6.4c-.72.35-1.5.74-2.33,1.16-.27,1.42-.55,2.86-.83,4.32.22-1.16.44-2.32.67-3.51.53-2.76,1.07-5.59,1.62-8.47-3.71,1.15-7.55,2.34-11.49,3.56-.31-.06-.63-.13-.96-.2-.11-2.68-.22-5.49-.34-8.32-3.31,1.29-6.76,2.62-10.23,3.96l-.1-.08c-.13-.11.26.22.46.39l-.35-.29-.2-.16s-.05-.04-.03-.02l.07.05.13.11.26.22h-.01l-.11-.09c1.17-4.36,2.35-8.8,3.54-13.24-3.98,1.69-7.95,3.39-11.9,5.06-.14-.36-.28-.72-.42-1.07l-4.94,4.19c2.43,1.51,4.75,2.97,7.07,4.41,2.86-5.2,5.55-10.09,8.16-14.82l-6.28-1.45c.27,4.23.51,7.95.73,11.55,1.89,2.33,3.45,4.25,4.98,6.15,1.95-1.23,3.72-2.33,5.38-3.37-.15.09.15-.1.29-.2.03.08.06.15.09.21l.04.1c.1.27.2.54.29.8,1.19,1.89,2.05,3.26,2.9,4.61,2.22,1.03,3.78,1.76,5.3,2.47,2.94-.36,4.92-.62,6.82-.85l-3.43-4.26c-.14.43-.22.69-.3.95-.83,2.3-1.76,5.02-2.68,7.8l-10.48,31.36,16.51-28.61c1.31-2.26,2.63-4.56,3.85-6.67l-5.77-3.49c-.4.65-.78,1.28-1.15,1.88,1.64-2.6,1.2-1.63-.05.42-1.22,2.03-2.11,3.5-2.69,4.46l5.82.86c-1.53-5.88-1.51-5.67-1.68-6.22-.17-.54-.55-1.84-2.82-10.48-.43.62-1.3,1.86-2.27,3.25-1.74,2.49-3.91,5.61-6.46,9.27l5.21.65c-.8-2.07-1.7-4.38-2.68-6.89-1.67-1.73-3.44-3.56-5.27-5.45-1.56,1.31-3.21,2.7-4.93,4.14-.23-.36-.46-.74-.7-1.12-1.23-2.26-2.49-4.57-3.76-6.9-2.58,1.58-5.21,3.2-7.88,4.85-1.76,1.13-3.53,2.27-5.32,3.42l-6.82,4.37,8,1.16c2.35.33,4.72.68,7.1,1.02,1.68-3.33,3.37-6.67,5.04-9.97.75,0,1.49.01,2.21.02.59-.09,1.15-.19,1.71-.28,1.12,4.28,2.2,8.37,3.21,12.22,2.32.28,4.36.55,6.37.79,1.81-.83,3.55-1.62,5.2-2.37.44-.2.86-.41,1.25-.59.04.73.06,1.3.09,1.79l.41,8.19,5.16-6.41c1.52-1.89,2.57-3.18,3.44-4.26l11.72-14.54-15.85,9.78c-.71.44-1.08.67-1.43.88-2.42,1.6-5.04,3.28-7.75,5l4.63,3.07c.34-2.44.68-4.93,1.02-7.39.19-3.08.37-6.14.56-9.11-2.12-.41-4.18-.8-6.19-1.19-.29-.17-.58-.34-.86-.52-.12-.07-.25-.14-.37-.2l.23.08c-.09-.05-.2-.11-.32-.19-.07-1.6-.15-3.72-.26-6.24-1.27-.19-2.61-.41-4.01-.62-.52-.08-1.06-.16-1.6-.24,0,0-.1-.02-.01,0l.39.06.19.03h-.09l-.14-.03c-.78-1.46-1.61-3.02-2.48-4.65-3.22,1.55-6.79,3.26-10.52,5.06-1.33-.55-2.71-1.11-4.09-1.67l-2.48,5.61c1.89.96,3.82,1.96,5.75,2.94.42,1.47.85,2.92,1.26,4.36l3.25-3.96c-3.26-.35-6.47-.7-9.54-1.03-1.3,1.32-2.56,2.6-3.78,3.84-1.44,1.36-2.85,2.67-4.2,3.94,1.23,2.7,2.34,5.12,3.29,7.18-.46.28-.79.49-1.09.67-2.16,1.69-3.54,2.78-4.62,3.62.02.12.03.17.04.22l-.04-.22,1.99-1.51c-.68.54-1.33,1.05-1.94,1.53.29,1.59.53,2.9.72,3.98-.41.57-.73.99-1.02,1.38-.5.66-.93,1.23-1.38,1.81l-3.9,5.15,6.59-.19c.64-.02,1.31-.04,2.11-.06.4-.01.83-.03,1.31-.05.82-.04,1.72-.09,2.71-.14.44-.4,1.04-.94,1.69-1.53-.42.18,1.31-1.58,3.38-3.59l-4.82-1.88c.26,2.16.53,4.54.67,5.94l-.07-.12c.26,2.39.64,5.96,1.08,10.05,2.02.31,4.18.64,6.38.98,1.65.02,3.35.04,5.03.05,1.83-1.24,3.63-2.45,5.36-3.62.44-1.43.83-2.71,1.21-3.93l.04.34c.67-2.33,1.59-5.37,2.57-8.55l-4.91.07c1.52,4.4,3.12,9.04,4.23,12.26l1.75,5.08,2.85-4.53c.26-.42.49-.78.67-1.06.34-.53.7-1.07,1.09-1.66.56.6,1.15,1.24,1.78,1.91l3.08-4.29c-.89-.46-1.79-.93-2.72-1.41l1.4,3.09c.93-3.62,1.92-7.46,2.93-11.38l1.4-5.45-5.14,2.19c-2.24.95-4.51,1.92-6.77,2.88l2.06,5.21,1.77-.69c.25-.15.53-.1.81-.1.48.06,1.48-.22.96.51-.27.5-.5.9-.73,1.28l-1.88,4.15-2.37,5.22,5.86-.96.51-.08,1.36-.32s12.81-7.46-3.07-5.5l3.23,3.93c.29-.57.63-1.27.99-2.03l.02.34,1.81-4.54c.4-.97.77-1.89,1.12-2.73.19-.44.3-.8.41-1.16.11-.35.22-.7.32-1.02.2-.65.39-1.25.55-1.78.08-.26.16-.52.23-.75.04-.12.07-.23.11-.34l.05-.16s.07-.13-.02-.11c-1.84-.04-2.61-.06-2.27-.12l1.35.04.67.02h.34c.05.05-.04.2-.05.29l-.78,2.46c-.28.83-.48,1.61-.82,2.49l-1.08,2.68c1.67-3.97,1.67-4.39,1.53-3.73-.05.17-.11.43-.21.74-.12.33-.27.72-.42,1.14-.31.83-.66,1.75-.95,2.52,1.46-3.44,2.53-6.51,3.06-8.83-.86.01-.52,0,.03.08-.2.61-.51,1.53-.7,2.12.15-.49.3-1,.46-1.54.5-.77-.52-.51-1.09-.57-1.27-.02-2.6-.05-3.97-.07-1.35-.03-2.72-.06-4.08-.1h-.46l-.49.1c-.33.07-.65.1-.98.2-.64.24-1.27.48-1.89.71-.59.21-1.02.38-1.34.5l2.42,6.13c2.16-.87-.28.36,4.16-1.52.91-.39,1.81-.77,2.7-1.15l-4.76-4.15c-.97,3.81-1.94,7.61-2.9,11.39l-.71,2.79,2.56,1.32c.91.47,1.82.93,2.72,1.4l19.13,9.82-14.98-15.58c-2.42-2.51-4.83-5.03-7.23-7.52-1.99,3.12-3.98,6.25-5.96,9.37l6.46.77c-1.39-4.1-2.78-8.19-4.17-12.28l-3.59-10.55-3.38,10.66c-1.05,3.33-2.1,6.64-3.16,9.98l-.06.04-.81.53-.95.63-.06.04c-.87-.02-1.75-.05-2.62-.07l-1.01-.17c-.34-3.6-.69-7.22-1.04-10.86l-.72-7.55-5.53,5.12c-1.15,1.06-2.31,2.14-3.47,3.21h0s-.03-.05-.02-.06c0,0,0-.03.01-.04l-.02.02h-.04c-.4.04-.79.06-1.18.09-.84.06-1.65.11-2.42.16l3.31,6.09c1.38-1.94,2.72-3.83,3.99-5.62-.19-1.07-.38-2.15-.57-3.2l.08.45c.02.11,0,.05.01.06h0v-.05l.07-.06c.32-.25.64-.51.95-.75,2.02-1.24,4.02-2.46,6.01-3.68l-2.24-4.85c-.22-.51-.42-.96-.61-1.39-.1-.24-.19-.46-.27-.66-.14-.36-.25-.65-.35-.9-.04-.12-.09-.23-.12-.33-.03-.08,0-.03,0-.05.02,0,.03-.02.05-.02-.02,0-.03,0-.06-.02.17-.16.38-.38.62-.62.36-.36.74-.76,1.15-1.18.1-.1.19-.2.3-.3l.02-.03h.05c.65.07,1.31.14,1.99.2,1.35.14,2.76.29,4.2.44l5.71.6-1.63-5.57c-.7-2.38-1.41-4.83-2.13-7.26-2.88-1.46-5.74-2.91-8.43-4.28l-3.13,7.07c2.45.99,4.78,1.94,6.88,2.78,2.81-1.36,5.2-2.5,6.91-3.33.14-.06.26-.12.37-.17h.04s-.05.09-.05.09Z"/>
            </g>
          </g>
          <polygon class="cls-21" points="308.92 2.98 308.94 .74 279.01 14.85 308.92 -1.43 278.99 12.59 308.9 -3.57 278.98 10.28 308.91 -5.63 279.01 7.75 308.94 -7.12 308.7 -12.09 279.97 9.96 309.36 -9.9 285.96 16.8 281.23 4.88 310.88 -6.33 281.33 4.05 311.22 -9.34 281.51 2.16 311.44 -11.93 281.67 .07 311.6 -14.38 281.8 -2.08 282.17 .17 311.87 -16.43 282.16 2.23 312.16 -12.67 282.47 6.09 312.47 -8.91 282.8 9.95 312.8 -5.18 283.16 13.81 313.16 -1.47 283.53 17.63 313.54 2.24 283.93 21.43 313.93 5.96 284.34 25.21 314.34 9.7 284.75 28.94 314.75 13.48 285.14 32.63 315.15 17.32 285.51 36.3 315.53 21.21 285.83 39.93 315.17 22.23 315.96 26.28 286.29 37.16 316.24 23.23 286.44 35.08 316.41 20.4 286.55 32.92 316.51 17.67 286.61 30.73 316.56 14.99 286.63 28.55 316.56 12.33 286.61 26.4 316.5 9.67 286.54 24.31 316.38 6.98 286.42 22.33 316.16 4.22 286.24 20.58 315.77 1.27 286.04 19.35 314.83 -2.44 286.97 20.78 287.07 5.25 312.76 6.13 285.75 8.5 292.89 26.04 307.87 -3.68 282.78 23.53 308.36 -3.35 281.02 21.38 307.74 -4.23 279.87 19.62 306.95 -5.5 278.91 18.03 306.09 -6.95 278.04 16.57 305.16 -8.5 277.21 15.23 304.12 -10.15 276.43 14.03 302.93 -11.87 275.71 13.07 301.43 -13.71 275.18 12.48 299.24 -15.72 278.63 13.39 273.99 -4.24 297.74 .14 270.12 3.55 297.47 .92 268.76 7.57 296.83 3 267.78 10.9 296.14 5.45 266.95 13.95 295.44 8.09 266.19 16.85 294.73 10.85 265.47 19.64 293.99 13.73 264.77 22.32 293.19 16.73 264.07 24.85 292.28 19.94 263.4 27.11 291.11 23.62 262.87 28.65 289 28.86 285.63 15.2 260.1 38.18 289.29 17.41 259.51 35.43 288.55 14.19 258.86 32.82 287.68 10.95 258.17 30.43 286.58 7.59 257.45 28.54 284.85 3.85 257.33 28.15 276.5 -1.27 277.98 19.58 252.94 17.96 279.73 16.66 250.73 24.35 279.11 18.87 249.58 29.01 278.47 21.8 248.74 33.17 277.89 24.96 248.06 37.13 250.4 47.56 277.07 22.3 247.07 38.55 276.29 17.67 246.34 34.65 275.27 12.89 245.52 31.4 273.31 7.25 255.35 32.38 242.32 22.44 269.99 19.06 240.26 30.19 269.17 23.08 239.22 35.98 268.44 27.7 238.43 41.36 267.8 32.46 237.77 46.58 267.22 37.29 237.17 51.7 266.68 42.15 236.63 56.77 266.18 47.02 236.67 58.98 236.03 63.58 265.57 44.37 235.73 61.66 265.17 42 235.4 59.88 264.67 39.54 235.05 58.33 263.96 36.87 234.76 57.38 262.47 33.39 236.57 59.16 240.77 35.79 257.9 48.49 232.43 47.07 257.71 48.97 231.08 49.87 255.63 53.12 232.86 47.31 235.51 68.96 253.24 39.92 225.98 64.42 253.77 40.54 228.74 65.58 226.37 49.81 251.21 52.42 224.15 54.38 251.11 52.68 223.11 57.06 250.67 53.91 222.38 59.13 250.08 55.59 221.8 60.78 249.33 57.72 221.4 61.88 248.13 60.74 221.74 61.2 242.96 69.19 241.47 48.25 219.18 76.07 246.17 51.12 217.43 72.91 246.16 51.03 216.77 70.81 245.95 50.25 216.34 69 245.82 49.73 215.93 66.22 245.64 47.95 215.72 64.29 245.39 45.74 215.5 62.41 245.09 43.49 215.24 60.65 244.72 41.14 214.97 59.13 244.16 38.52 214.8 58.43 241.99 33.86 239.84 49.28 213.31 50.81 241.44 46 212.18 54.85 241.06 47.58 211.55 57.7 240.63 49.67 211.03 60.23 240.17 51.97 210.57 62.6 239.84 53.51 209.99 66.61 239.72 55.17 209.79 68.87 239.48 57.71 209.56 71.09 239.2 60.32 209.31 73.27 238.87 63.04 209.03 75.34 238.43 65.97 208.73 77.13 237.75 69.46 208.57 77.88 235.32 76.49 227.32 61.88 207.77 90.15 233.45 63.61 205.61 87.35 232.78 62.5 204.62 85.68 231.58 60.55 204.17 84.99 218 57.45 231.26 67.49 201.74 77.63 230.88 69.35 201.48 78.82 230.43 71.31 201.23 79.88 229.88 73.46 200.99 80.74 229.15 75.92 200.83 81.22 228.03 78.96 201 80.86 225.89 83.39 202.55 78.28 220.2 90.97 208.64 72.29 210.22 98.07 213.26 69.91 206.18 99.5 210.83 70.69 208.98 98.25 201.86 76.02 209.98 97.92 216.84 71.9 192.87 99.73 217.84 72.54 191.29 98.13 217.24 71.85 190.58 97.31 215.88 70.39 191.04 97.62 209.75 67.9 209.08 91.2 187.82 84.08 214.28 83.36 185.77 89.34 214.34 83.22 185.04 92.2 214.14 84.09 184.57 94.47 213.92 85.28 184.22 96.5 213.71 86.62 183.94 98.42 213.51 88.04 213.12 84.2 183.44 101.32 213.02 82.04 183 97.65 212.56 78.24 182.55 94.01 212.07 74.45 182.07 90.39 211.55 70.66 181.56 86.82 210.99 66.86 181.02 83.29 210.39 63.07 180.44 79.83 209.71 59.27 179.8 76.49 208.92 55.44 179.1 73.33 207.94 51.49 178.33 70.6 206.45 47.17 178.01 69.65 186.82 44.93 202.08 57.65 174.92 59.85 199.63 62.63 172.73 64.29 198.72 64.59 170.55 69.58 198.03 66.52 169 74.4 197.35 68.91 167.89 78.69 196.72 71.63 167.04 82.63 196.15 74.53 166.36 86.38 195.64 77.54 165.78 90 195.18 80.6 165.28 93.52 194.77 83.7 164.83 96.98 194.38 86.84 164.43 100.38 194.03 89.98 192.92 85.88 163.86 103.76 193.56 84.91 163.51 99.5 193.16 80.39 163.12 95.33 192.68 75.81 162.65 91.4 191.99 70.98 162.13 88.52 162.77 76.94 189.57 75.11 159.64 88.02 189.03 78.92 158.99 93.38 188.57 83.38 158.52 98.38 188.17 87.95 158.12 103.25 187.82 92.59 157.78 108.06 187.51 97.23 157.46 112.83 186.38 106.02 184.82 95.04 158.02 120.26 184.24 94.33 157.03 119.02 183.29 93.11 156.43 118.28 181.65 91.35 157.05 118.68 173.95 88.97 175.98 110.75 153.1 105.81 179.79 104.54 151.16 110.96 179.75 104.74 150.39 113.98 179.5 105.87 149.89 116.44 179.24 107.29 149.51 118.68 178.99 108.85 149.2 120.8 178.76 110.48 166.37 102.66 149.86 129.14 175.74 102.84 148.33 127.23 174.32 101.03 147.32 126.01 172.04 98.66 147.54 126.06 164.15 96.13 162.23 121.19 143.19 111.15 167.53 114.48 139.76 118.31 167.28 115.2 138.32 122.68 166.73 117.12 137.36 126.33 166.17 119.43 136.6 129.67 165.65 121.91 135.96 132.86 165.16 124.48 135.39 135.94 137.5 145.85 164.43 121.2 134.45 137.77 163.73 117.31 133.78 134.21 162.97 113.44 133.06 130.72 162.12 109.56 132.28 127.37 161.13 105.63 131.42 124.25 159.9 101.63 130.49 121.6 158.02 97.27 130.09 120.69 146.01 92.03 152.02 110.17 124.71 113.17 152.16 110.26 122.73 119.7 151.3 113.66 121.54 124.96 150.51 117.59 123.79 122.09 120.36 133.05 149.59 112.61 119.85 130.8 148.97 109.96 119.31 128.62 148.27 107.32 118.73 126.54 147.47 104.66 118.09 124.61 146.51 101.98 117.42 122.88 145.33 99.27 116.71 121.44 143.76 96.49 116.05 120.45 141.51 93.72 115.63 120.01 138.15 91.27 115.41 119.9 134.29 89.85 113.91 119.53 132.25 89.36 119.2 117.96 110.2 99.77 129.28 110.54 103.77 109.48 129.03 111.13 100.8 116.28 128.08 113.71 98.97 121.8 127.11 116.98 97.62 126.75 126.21 120.57 96.53 131.4 125.4 124.29 95.61 135.87 124.66 128.09 94.8 140.23 123.99 131.93 94.08 144.5 123.36 135.81 93.42 148.7 122.78 139.7 92.81 152.87 122.23 143.6 97.11 146.4 92.08 159.68 121.21 138.93 91.49 157.26 120.53 136.21 90.87 154.89 119.79 133.5 90.22 152.6 118.98 130.79 89.52 150.4 118.06 128.07 88.77 148.33 116.99 125.32 87.98 146.47 115.67 122.53 87.19 144.98 113.86 119.6 86.64 144.21 110.47 116.34 88.69 144.98 96.06 116.94 103.22 137.77 81.5 130.82 90.88 148.59 103.39 119.88 87.75 148 80.29 128.27 98.35 140.24 75.55 134.48 94.84 145.03 82.7 128.36 71.35 155.31 95.2 127.8 66.93 150.55 95.04 127.36 65.65 147.21 94.54 125.72 64.85 144.23 94.05 123.66 64.25 141.38 93.62 121.39 63.75 138.59 93.22 119.01 63.32 135.82 92.86 116.54 62.94 133.05 64.18 123.86 92.35 118.67 62.33 133.5 91.93 123.12 61.91 137.73 91.46 127.62 61.44 141.94 90.93 132.18 60.93 146.09 90.3 136.9 60.34 150.09 89.47 142 59.7 153.43 87.24 150.12 85.79 140.19 56.8 160.82 85.73 139.32 55.79 156.21 85.17 136.08 55.16 152.04 84.69 132.49 54.67 147.96 84.27 128.74 54.31 144.4 83.55 124.3 54.08 143.8 82.55 121.35 54.56 144.38 55.08 129.5 80.6 129.74 51.34 138.92 80.45 130.54 50.7 142.35 80.14 132.45 50.29 145.22 79.86 134.61 49.96 147.91 79.61 136.87 49.68 150.52 79.38 139.17 49.44 153.05 79.17 141.5 49.22 155.57 78.98 143.84 49.02 158.05 78.8 146.2 53.51 149.52 49.43 164.91 76.87 140.68 49.22 164.58 75.41 138.75 48.92 164.25 74.01 137.36 47.99 163.39 73.31 136.69 46.55 161.87 72.97 136.28 45.25 160.09 72.64 135.77 44.22 158.28 72.26 135.02 43.42 156.52 71.88 134.09 42.76 154.82 71.5 133.03 42.2 153.15 71.13 131.86 41.71 151.5 70.78 130.62 43.46 153.42 67.37 125.85 41.03 151.49 67.26 125.64 39.27 149.05 66.45 124.34 38.07 147.02 65.43 122.57 37.11 145.36 64.1 120.39 36.53 144.48 60.93 117.09 49.73 143.1 33.68 132.88 60.61 130.64 31.46 139.34 60.34 131.78 30.68 143.05 59.97 133.84 30.16 146.21 59.63 136.15 29.75 149.17 59.32 138.58 52.04 130.81 29.53 155.98 57.04 131.72 28.35 153.79 55.51 129 26.94 151.35 54.2 126.69 25.39 148.49 53.13 124.56 23.97 145.34 52.23 122.34 22.78 142.08 51.44 119.91 21.79 138.8 50.72 117.3 20.96 135.52 50.07 114.55 20.25 132.26 49.48 111.68 19.61 129 48.94 108.74 19.05 125.74 48.44 105.73 24.27 128.33 18.34 121.62 48.08 109.7 18.12 124.59 47.83 112.89 17.88 127.54 47.56 116.13 17.61 130.48 47.24 119.42 17.3 133.37 46.85 122.82 16.95 136.19 46.35 126.41 16.54 138.82 45.64 130.4 16.12 140.86 44.16 135.92 17.46 138.25 21.71 156.36 38.22 126.87 13.33 153.94 36.83 125.82 12.79 153.44 26.72 124.14 20.13 152.75 16.17 129.41 28.41 146.87 9.74 135.96 30.06 144.86 7.24 139.49 30.06 144.88 5.8 141.8 29.54 145.75 4.82 143.47 28.7 147.19 4.15 144.63 27.49 149.22 3.9 145.03 25.47 152.25 4.83 143.8 20.53 157.97 11.67 138.01 6.11 165.57 22.3 135.93 -1.12 163.77 24.21 137.19 21.96 152.32 1.99 143.85 -4.35 164.85 21.37 138.7 -7.55 160.05 20.91 137.49 -8.66 156.68 20.32 135.38 -9.43 153.57 19.78 132.96 -10.05 150.52 19.29 130.37 -10.59 147.51 18.85 127.7 -11.06 144.5 18.44 124.96 -11.49 141.49 18.06 122.17 -11.87 138.46 17.72 119.35 -12.22 135.43 17.41 116.53 -12.54 132.35 -12.68 130.54 17.24 115.3 -12.51 133.38 17.39 116.93 -11.99 136.82 17.6 117.9 -10.85 140.44 17.9 118.59 -9.34 143.23 18.82 120.05 -8.25 144.94 20.12 122.21 -7.44 146.39 21.34 124.59 -6.71 147.93 22.38 127.01 -6.03 149.64 23.27 129.43 -5.4 151.47 24.05 131.84 -4.81 153.42 24.75 134.27 -4.25 155.45 -2.55 147.24 25.81 138.05 -3.75 148.46 26.26 133.78 -3.25 143.88 26.75 129.53 -2.67 139.23 27.31 125.3 -1.99 134.47 27.95 121.14 -1.17 129.56 28.68 117.05 -.15 124.44 29.55 113.09 1.16 119.04 30.57 109.23 2.79 113.51 31.87 105.14 4.46 108.46 33.5 100.22 5.82 104.26 35.15 94.75 6.9 100.35 24.71 105.29 37.04 86.96 7.47 106.42 37.45 90.59 7.94 110.27 37.91 94.16 8.47 114.13 38.42 97.61 9.09 118.03 39 100.9 9.9 122.04 39.67 103.74 11.22 126.48 39.84 104.56 36.45 123.72 15.37 117 44.29 109.1 16 114.75 45.65 103.6 16.81 111.05 46.61 98.8 17.57 107.06 47.43 94.24 18.38 102.4 47.51 93.44 19.62 98.19 47.66 93 21.11 94.5 47.28 93.77 24.26 88.91 44.73 97.33 31.81 80.57 39.03 102.09 39.72 75.62 37.59 102.85 41.95 74.7 41.47 101.13 39.47 76.1 48.98 95.96 35.41 79.66 54.99 89.38 33.63 81.98 58.16 84.41 33.31 82.53 59.99 80.74 33.49 82.13 34.49 92.88 62.5 71.49 33.5 92.92 63.17 74.14 34.58 96.59 63.92 76.32 36.24 100.47 64.55 77.54 39.49 104.63 64.61 77.6 43.53 106.98 68.19 79.56 43.71 107.08 71.73 83.62 44.31 108.15 73.54 87.53 45.08 110.22 74.7 91.2 45.79 112.8 75.58 94.77 46.42 115.65 76.29 98.29 46.99 118.66 52.78 105.42 77.23 102.8 47.89 112.04 77.87 98.2 48.61 107.09 78.56 93.66 49.44 102.01 79.34 89.22 50.46 96.66 80.2 85.09 51.98 90.47 80.78 82.92 70.3 68.18 56.56 95.04 85.53 73.75 57.15 96.73 86.94 78.46 57.95 100.01 87.88 82.85 58.66 103.69 88.64 87.15 59.29 107.56 89.29 91.44 71.11 117.15 60.19 106.11 90.17 92.21 60.84 101.47 90.8 87.75 61.53 96.77 91.47 83.31 62.28 91.99 92.19 78.92 63.14 87.08 92.97 74.65 64.17 81.9 93.84 70.67 65.65 75.97 94.52 68.25 73.78 60.92 70.93 80.67 99.08 57.69 71.08 81.4 100.73 62.37 71.9 84.34 101.76 66.61 72.64 87.78 93.45 65.08 102.83 73.44 74.09 80.5 103.68 69.69 75.2 75.94 104.66 65.84 76.35 71.53 105.76 61.67 77.43 67.48 106.92 57.18 78.35 63.73 107.98 52.55 79.14 60.08 108.9 47.99 79.83 56.4 109.68 43.53 80.44 52.67 110.33 39.2 80.98 48.9 110.9 34.97 81.47 45.1 111.4 30.79 81.91 41.27 84.9 46.95 112.08 26.66 82.49 46.2 112.49 31.12 82.93 50.83 112.94 35.52 83.45 55.5 113.45 39.77 84.09 60.26 114.05 43.59 85.29 65.83 87.24 57.7 116.44 47.66 87.22 56.5 117.22 41.66 87.69 51.98 117.7 36.36 88.08 47.26 118.07 31.24 88.4 42.46 118.39 26.2 88.69 37.64 118.67 21.2 89.08 31.5 89.51 36.84 118.65 16.01 90.07 38.41 118.78 16.33 90.96 40.26 118.59 16.05 92.96 42.71 116.21 14.47 102.26 44.23 103.74 17.95 115.08 36.38 100.17 21.11 117.26 34.04 103.05 18.09 113.03 37.63 115.39 10.73 102.09 40.67 124.1 11.74 99.57 39.36 126.42 14.01 99.29 39.01 127.49 15.8 125.75 29.51 99.22 31.65 128.78 20.56 99.89 28.51 129.23 18.59 100.8 24.94 129.63 17.17 102.38 20.29 129.26 17.9 108.72 9.75 115.13 29.74 130.09 .09 108.9 29.57 134.21 2.49 109.3 29.97 136.07 4.4 110.33 31.12 137.4 5.96 111.66 32.67 138.45 7.15 113.48 34.55 138.96 7.62 117.12 36.87 141.03 8.37 114.8 34.28 143.87 13.15 116.19 37.37 144.13 13.67 119.47 41.17 140.65 12.26 133.82 40.59 132.29 14.94 137.29 38.43 146.19 9.55 127.52 39.28 153.73 13.31 126.93 38.77 155.66 16.74 127.38 39.84 156.73 19.69 127.9 41.53 157.49 22.47 128.39 43.49 158.1 25.16 128.83 45.63 158.62 27.83 130.28 50.69 141.77 27.93 160.28 36.5 134.3 36.46 163.18 28.86 135.25 33.39 164.66 23.53 136.25 29.5 165.84 18.68 137.21 25.37 166.87 14.05 138.13 21.13 167.83 9.54 139.05 16.81 168.76 5.1 139.97 12.42 169.67 .73 140.92 7.95 170.59 -3.58 141.92 3.38 171.54 -7.8 143.01 -1.33 172.52 -11.85 163.5 -25.17 144.38 1.74 174.21 -16.16 145.27 5.66 175.07 -12.47 146.23 9.58 175.98 -8.87 147.28 13.53 176.95 -5.45 148.51 17.54 177.99 -2.34 150.12 21.75 178.96 -.18 153.87 27.1 161.75 4.53 183.25 9.45 156.18 11.81 185.64 1.65 156.98 8.43 186.79 -3.98 157.72 4.34 187.62 -9.12 158.36 .04 169.81 6.71 188.62 -15.43 159.44 5.71 189.35 -11.62 160.44 10.28 190.19 -8.27 161.97 15.23 190.76 -6.66 175.48 21.44 167.74 4.39 195.77 -.71 168.26 2.64 197.73 -7.44 169.33 -1.59 199.05 -13.17 170.33 -6.24 200.14 -18.58 171.26 -11.01 201.12 -23.83 172.13 -15.86 202.02 -29 172.97 -20.75 202.87 -34.11 176.5 -32.89 176.71 -16.89 202.84 -43.34 177.57 -16.03 204.41 -41.61 178.67 -14.76 205.69 -40.1 179.98 -13.23 206.78 -38.86 181.61 -11.48 207.57 -38.08 184.15 -9.43 207.02 -38.3 192.04 -7.85 194.13 -33.79 211.45 -21.9 187.93 -26.23 215.27 -29.46 187.93 -26.32 216.71 -33.82 188.37 -27.83 217.63 -37.32 188.84 -29.8 191.76 -21.5 218.76 -43.36 189.42 -22.96 219.26 -40.34 190.07 -19.42 219.84 -37.54 190.92 -15.77 220.48 -35.16 192.24 -11.78 220.92 -34.01 196.36 -6.39 212.12 -34.97 213.83 -9.43 222.2 -37.72 201.78 -8.47 229.76 -32.06 201.88 -8.04 231.33 -27.88 202.52 -5.85 232.26 -24.16 203.11 -3.13 232.96 -20.57 203.63 -.17 232.83 -19.41 211.86 7.61 226.4 -23.25 214.98 7.39 225.61 -23.13 218.47 6.6 224.68 -22.84 222.08 5.26 223.82 -22.47 225.55 3.51 223.22 -22.12 228.67 1.56 222.97 -21.96 231.39 -.41 223.07 -22.03 233.71 -2.28 223.47 -22.38 235.7 -4.02 224.11 -22.96 237.41 -5.59 224.98 -23.78 238.89 -6.99 226.05 -24.81 245.69 -15.36 219.88 -15.8 247.86 -20.51 221.57 -19.98 247.73 -20.28 224.94 -26.06 245.56 -17.23 232.56 -34.66 241.31 -13.45 238.53 -38.87 244.47 -15.48 235.48 -36.42 253.17 -23.94 232.04 -32.12 257.51 -31.06 231.55 -31.21 259.42 -35.64 231.81 -31.93 260.56 -39.16 232.2 -33.3 261.37 -42.19 232.62 -34.96 262 -44.96 256.85 -56.88 233.27 -30.27 262.86 -49.34 234 -27.52 263.42 -47.4 234.91 -24.67 263.99 -45.83 236.28 -21.56 264.29 -45.22 239.7 -17.49 257.47 -46.61 263.15 -26.08 243.14 -35.63 269.2 -35.72 243.23 -35.93 271.18 -40.5 244.04 -38.1 272.53 -44.31 244.96 -40.8 273.65 -47.74 245.92 -43.78 274.67 -50.92 246.95 -46.99 252.12 -35.99 276.63 -59.08 247.38 -38.37 277.21 -55.96 248.07 -34.84 277.84 -52.96 248.9 -31.26 278.55 -50.17 249.93 -27.62 279.33 -47.74 251.36 -23.83 280.11 -46 253.77 -19.76 280.58 -45.37 257.45 -16.45 282.83 -43.75 258.26 -15.87 286.3 -39.51 258.76 -14.92 288.07 -35.35 259.45 -12.81 289.14 -31.48 260.1 -10.13 289.84 -28.21 261.11 -6.33 290.05 -27.8 262.29 -3.69 290.21 -27.47 264.86 -.39 287.83 -28.91 276.36 .98 277.74 -26.38 283.38 -2.63 288.58 -31.12 272.27 -1.05 297.7 -27.82 270.97 -2.23 299.58 -24.56 271.21 -1.62 300.51 -21.92 271.59 -.37 301.15 -19.53 271.96 1.17 301.65 -17.24 272.31 2.89 302.07 -15 278.29 10.72 290.83 -19.58 289.29 8.34 290.95 -19.51 304.44 -3.88 279.49 -4.4 309.31 -18.08 279.4 -4.53 309.24 -21.87 279.29 -6.98 309.07 -24.77 279.12 -9.76 308.92 -27.5 278.97 -12.65 308.79 -30.19 278.85 -15.59 308.69 -32.87 278.75 -18.55 308.62 -35.58 278.7 -21.53 308.58 -38.31 278.67 -24.52 308.57 -41.05 281.33 -21.07 277.93 -28.35 307.15 -37.17 277.19 -21.87 307.02 -34.18 277.1 -17.31 307.03 -30.67 277.17 -13.12 307.13 -27.03 277.32 -9.09 307.3 -23.34 277.52 -5.14 307.5 -19.63 277.76 -1.25 307.74 -15.89 278.02 2.61 308.01 -12.15 278.29 6.44 308.29 -8.39 278.58 10.23 308.57 -4.58 278.85 13.95 308.85 -.64 308.92 2.98"/>
          <g>
            <ellipse class="cls-7" cx="270.65" cy="172.05" rx="33.73" ry="33.59"/>
            <ellipse class="cls-2" cx="270.65" cy="172.05" rx="47.22" ry="47.02"/>
            <ellipse class="cls-2" cx="270.65" cy="172.05" rx="61.38" ry="61.14"/>
            <ellipse class="cls-2" cx="270.65" cy="172.05" rx="73.66" ry="73.36"/>
            <ellipse class="cls-2" cx="270.65" cy="172.05" rx="88.39" ry="88.04"/>
            <ellipse class="cls-2" cx="270.65" cy="172.05" rx="101.58" ry="103.45"/>
            <ellipse class="cls-2" cx="270.65" cy="172.05" rx="111.73" ry="113.8"/>
            <ellipse class="cls-2" cx="270.65" cy="172.05" rx="124.53" ry="127.73"/>
            <ellipse class="cls-2" cx="270.65" cy="172.05" rx="136.99" ry="140.5"/>
          </g>
          <g class="cls-11">
            <text class="cls-10" transform="translate(199.1 181.3) scale(.82 1)"><tspan x="0" y="0">5.8.-14.8.24</tspan></text>
          </g>
          <g class="cls-11">
            <text class="cls-3" transform="translate(78.21 208.93) scale(1.19 1)"><tspan x="0" y="0">impulse</tspan></text>
            <text class="cls-3" transform="translate(131.5 252.2) scale(1.19 1)"><tspan x="0" y="0">impulse</tspan></text>
            <text class="cls-3" transform="translate(147.24 302.52) scale(1.19 1)"><tspan x="0" y="0">impulse</tspan></text>
            <text class="cls-3" transform="translate(99.35 325.08) scale(1.19 1)"><tspan x="0" y="0">impulse</tspan></text>
            <text class="cls-3" transform="translate(106.49 272.95) scale(1.19 1)"><tspan x="0" y="0">impulse</tspan></text>
            <text class="cls-3" transform="translate(99.92 221.86) scale(1.19 1)"><tspan x="0" y="0">impulse</tspan></text>
          </g>
          <g class="cls-23">
            <path class="cls-18" d="m383.24,427.15c-1.56,1.62,9.71-67.81,7.47-67.81s-2.24,95.71-4.47,95.71-2.24,21.63-4.47,21.63-2.24-131.73-4.47-131.73-2.24,83.23-4.47,83.23-2.24,60.49-4.47,60.49-2.23-26.73-4.47-26.73-2.24-93.01-4.47-93.01-2.24,119.92-4.47,119.92-2.24-71.54-4.47-71.54-2.24,75.74-4.47,75.74-2.24-98.5-4.47-98.5-2.24,68.97-4.47,68.97-2.24-22.18-4.47-22.18-2.24-25.51-4.47-25.51-2.24-8.32-4.47-8.32-2.24-55.58-4.47-55.58-2.24,106.12-4.47,106.12-2.24-28.44-4.47-28.44-2.24-11.58-4.47-11.58-2.24,121.48-4.47,121.48-2.24-158.13-4.47-158.13-2.24,75.21-4.47,75.21-2.24-83.22-4.47-83.22-2.24,36.04-4.47,36.04-2.24,105.42-4.47,105.42-2.24-117.92-4.47-117.92-2.24,140.5-4.47,140.5-2.24-90.09-4.47-90.09-2.23,23.12-4.47,23.12-2.23-118.5-4.47-118.5-2.23,118.86-4.47,118.86-2.24-65.55-4.47-65.55-2.24-44.98-4.47-44.98-2.23,51.52-4.47,51.52-2.23-22.51-4.47-22.51-2.23-34.03-4.47-34.03-2.23,140.24-4.47,140.24-2.24,31.21-4.47,31.21-2.24-160.65-4.47-160.65-2.24,117.2-4.47,117.2-2.23-37.15-4.47-37.15-2.24,22.48-4.47,22.48-2.24,71.08-4.47,71.08-2.24-38.14-4.47-38.14-2.24-32.21-4.47-32.21-2.24-67.02-4.47-67.02-2.24,59.04-4.47,59.04-2.24,21.07-4.47,21.07-2.24-69.51-4.47-69.51-2.24,18.14-4.47,18.14-2.24,107.35-4.47,107.35-2.24-35.95-4.47-35.95-2.24,35.85-4.47,35.85-2.24-81.8-4.47-81.8-2.24-32.97-4.47-32.97-2.24,65.69-4.48,65.69-2.24-93.28-4.47-93.28-2.24-35.86-4.48-35.86-2.24,25.23-4.48,25.23-2.24,148.04-4.47,148.04-2.24-130.58-4.47-130.58-2.24,6.25-4.48,6.25-2.24,100.53-4.47,100.53-2.24-119.9-4.48-119.9-2.24,17.6-4.48,17.6-2.24,49.78-4.48,49.78-2.24,26.1-4.48,26.1-2.24-.36-4.48-.36-2.24,24.87-4.48,24.87-2.24,3.95-4.48,3.95-2.24-159.93-4.48-159.93-26.69,112.52-28.25,110.9,1.75-25.9,1.75-28.23,44.2-2.32,44.2-4.64-69.39-2.32-69.39-4.64,121.4-2.32,121.4-4.64-122.28-2.32-122.28-4.64,85.94-2.32,85.94-4.64-136.93-2.34-136.93-4.66,119.8-2.32,119.8-4.64-.92-2.32-.92-4.64-27.79-2.32-27.79-4.64-90.94-2.33-90.94-4.65,196.19-2.32,196.19-4.64-68.53-2.32-68.53-4.64-28.28-2.32-28.28-4.64,8.56-2.32,8.56-4.64,68.03-2.32,68.03-4.64-8.24-2.32-8.24-4.64-99.62-2.32-99.62-4.65,92.02-2.33,92.02-4.65-13.4,45.83-11.8,44.16-47.22-110.43-44.99-110.43,2.24,88.23,4.47,88.23,2.24,15.79,4.47,15.79,2.24,54.41,4.47,54.41,2.24-183.04,4.47-183.04,2.24,153.76,4.47,153.76,2.23-40.35,4.47-40.35,2.24-70.14,4.47-70.14,2.24,94.21,4.47,94.21,2.24-128.64,4.47-128.64,2.24,3.68,4.47,3.68,2.24,114.1,4.47,114.1,2.24-27.16,4.47-27.16,2.24-56.43,4.47-56.43,2.24,3.86,4.47,3.86,2.24-1.56,4.47-1.56,2.24-41.3,4.47-41.3,2.24,9.07,4.47,9.07,2.24,124.52,4.47,124.52,2.24-85.87,4.47-85.87,2.24-50.26,4.47-50.26,2.24,78.71,4.47,78.71,2.24,94.9,4.47,94.9,2.24-121.46,4.47-121.46,2.24,32.58,4.47,32.58,2.24,87.43,4.47,87.43,2.24-12.68,4.47-12.68,2.24,10.57,4.47,10.57,2.24-59.76,4.47-59.76,2.23,50.68,4.47,50.68,2.23-22.86,4.47-22.86,2.23-27.25,4.47-27.25,2.24-32.54,4.47-32.54,2.24,30.1,4.47,30.1,2.23,33.83,4.47,33.83,2.23-71.43,4.47-71.43,2.23-17.38,4.47-17.38,2.23-66.07,4.47-66.07,2.24,81.77,4.47,81.77,2.24-37.8,4.47-37.8,2.24,153.85,4.47,153.85,2.23-1,4.47-1,2.24-61.76,4.47-61.76,2.24,38.42,4.47,38.42,2.24-176.95,4.47-176.95,2.24,132.56,4.47,132.56,2.24-22.21,4.47-22.21,2.24-87.03,4.47-87.03,2.24-7.38,4.47-7.38,2.24-13.04,4.47-13.04,2.24,188.22,4.47,188.22,2.24-160.21,4.47-160.21,2.24,111.76,4.47,111.76,2.24-1.96,4.47-1.96,2.24,4.38,4.47,4.38,2.24,48.37,4.47,48.37,2.24-36.54,4.48-36.54,2.24-76.4,4.47-76.4,2.24,74.08,4.48,74.08,2.24,43.12,4.48,43.12,2.24-197.83,4.47-197.83,2.24,38.91,4.47,38.91,2.24,132.41,4.48,132.41,2.24,8.14,4.47,8.14,2.24-103.6,4.48-103.6,2.24,88.96,4.48,88.96,2.24-114.33,4.48-114.33,2.24,32.85,4.48,32.85,2.24,15.36,4.48,15.36,2.24-77.27,4.48-77.27,2.24,160.09,4.48,160.09,2.24-147.75,4.48-147.75,40.47,28.35,42.04,29.97,26.9,39.58,26.9,41.9-131.16,2.32-131.16,4.64,50.55,2.32,50.55,4.64-2.37,2.32-2.37,4.64-69.06,2.32-69.06,4.64-11.03,2.32-11.03,4.64,63.32,2.32,63.32,4.64-23.35,2.32-23.35,4.64,4.57,2.32,4.57,4.64,154.57,2.32,154.57,4.64-198.94,2.32-198.94,4.64,17.17,2.32,17.17,4.64,136.58,2.32,136.58,4.64-134.07,2.32-134.07,4.64,137.75,2.32,137.75,4.64-158.14,2.32-158.14,4.64,177.54,2.32,177.54,4.64-90.76,2.32-90.76,4.65,42.93-67.36,40.8-68.21c-6.62-2.66-38.75,64.07-40.35,65.74l.04-.03Z"/>
          </g>
          <g>
            <path class="cls-19" d="m375.06,454.54c-.66-1.74.16-1.85,1.79-2.81,2.31-1.36,4.34-2.48,6.77-.68.61.45,2.47,1.29,1.99.49-2.64-4.43-6.51-14.43-7.19-14.73-.54-.25-.48.71-.82,2.6-.4,2.3-2.77,3.81-4.37,5.25-2.85,2.56-9.32,6.43-10.87,8.4,0,0,3.18,5.77,4.11,5.21s4.81-3.68,5.15-2.76c.4,1.08,2.39,5.95,3.19,8.45h0c.06.19.25.3.43.25.9-.2,1.8-.41,2.72-.58.36-.07.58-.45.47-.8-.64-2.05-2.55-6.16-3.36-8.27h-.01Z"/>
            <g class="cls-11">
              <text class="cls-5" transform="translate(383.13 445.26) scale(.99 1)"><tspan x="0" y="0">IMPULSE</tspan></text>
            </g>
            <g class="cls-11">
              <text class="cls-6" transform="translate(390.19 454.19) scale(.99 1)"><tspan x="0" y="0">Theater</tspan></text>
            </g>
            <g class="cls-11">
              <text class="cls-4" transform="translate(381.3 463.77) scale(.99 1)"><tspan x="0" y="0">FESTI</tspan></text>
              <text class="cls-8" transform="translate(409.03 463.77) scale(.99 1)"><tspan x="0" y="0">V</tspan></text>
              <text class="cls-9" transform="translate(414.83 463.77) scale(.99 1)"><tspan x="0" y="0">A</tspan></text>
              <text class="cls-9" transform="translate(421.9 463.77) scale(.99 1)"><tspan x="0" y="0">L</tspan></text>
            </g>
          </g>
          <g class="cls-23">
            <path class="cls-15" d="m263.33,83.26c-1.56,1.62,9.71-67.81,7.47-67.81s-2.24,95.71-4.47,95.71-2.24,21.63-4.47,21.63S259.62,1.06,257.39,1.06s-2.24,83.23-4.47,83.23-2.24,60.49-4.47,60.49-2.23-26.73-4.47-26.73-2.24-93.01-4.47-93.01-2.24,119.92-4.47,119.92-2.24-71.54-4.47-71.54-2.24,75.74-4.47,75.74-2.24-98.5-4.47-98.5-2.24,68.97-4.47,68.97-2.24-22.18-4.47-22.18-2.24-25.51-4.47-25.51-2.24-8.32-4.47-8.32-2.24-55.58-4.47-55.58-2.24,106.12-4.47,106.12-2.24-28.44-4.47-28.44-2.24-11.58-4.47-11.58-2.24,121.48-4.47,121.48-2.24-158.13-4.47-158.13-2.24,75.21-4.47,75.21-2.24-83.22-4.47-83.22-2.24,36.04-4.47,36.04-2.24,105.42-4.47,105.42-2.24-117.92-4.47-117.92-2.24,140.5-4.47,140.5-2.24-90.09-4.47-90.09-2.23,23.12-4.47,23.12-2.23-118.5-4.47-118.5-2.23,118.86-4.47,118.86-2.24-65.55-4.47-65.55-2.24-44.98-4.47-44.98-2.23,51.52-4.47,51.52-2.23-22.51-4.47-22.51-2.23-34.03-4.47-34.03-2.23,140.24-4.47,140.24-2.24,31.21-4.47,31.21-2.24-160.65-4.47-160.65-2.24,117.2-4.47,117.2-2.23-37.15-4.47-37.15-2.24,22.48-4.47,22.48-2.24,71.08-4.47,71.08-2.24-38.14-4.47-38.14-2.24-32.21-4.47-32.21-2.24-67.02-4.47-67.02-2.24,59.04-4.47,59.04-2.24,21.07-4.47,21.07-2.24-69.51-4.47-69.51-2.24,18.14-4.47,18.14-2.24,107.35-4.47,107.35-2.24-35.95-4.47-35.95-2.24,35.85-4.47,35.85-2.24-81.8-4.47-81.8-2.24-32.97-4.47-32.97-2.24,65.69-4.48,65.69-2.24-93.28-4.47-93.28-2.24-35.86-4.48-35.86-2.24,25.23-4.48,25.23-2.24,148.04-4.47,148.04S.33,58.86-1.9,58.86s-2.24,6.25-4.48,6.25-2.24,100.53-4.47,100.53-2.24-119.9-4.48-119.9-2.24,17.6-4.48,17.6-2.24,49.78-4.48,49.78-2.24,26.1-4.48,26.1-2.24-.36-4.48-.36-2.24,24.87-4.48,24.87-2.24,3.95-4.48,3.95S-44.45,7.74-46.69,7.74s-26.69,112.52-28.25,110.9,1.75-25.9,1.75-28.23,44.2-2.32,44.2-4.64-69.39-2.32-69.39-4.64,121.4-2.32,121.4-4.64-122.28-2.32-122.28-4.64,85.94-2.32,85.94-4.64-136.93-2.34-136.93-4.66,119.8-2.32,119.8-4.64-.92-2.32-.92-4.64-27.79-2.32-27.79-4.64-90.94-2.33-90.94-4.65,196.19-2.32,196.19-4.64-68.53-2.32-68.53-4.64-28.28-2.32-28.28-4.64,8.56-2.32,8.56-4.64,68.03-2.32,68.03-4.64-8.24-2.32-8.24-4.64-99.62-2.32-99.62-4.65S10.03,9.1,10.03,6.78-3.37,52.6-1.77,50.94-48.99-59.49-46.76-59.49s2.24,88.23,4.47,88.23,2.24,15.79,4.47,15.79,2.24,54.41,4.47,54.41,2.24-183.04,4.47-183.04,2.24,153.76,4.47,153.76,2.23-40.35,4.47-40.35,2.24-70.14,4.47-70.14,2.24,94.21,4.47,94.21,2.24-128.64,4.47-128.64,2.24,3.68,4.47,3.68S.18,42.51,2.41,42.51,4.65,15.34,6.88,15.34s2.24-56.43,4.47-56.43,2.24,3.86,4.47,3.86,2.24-1.56,4.47-1.56,2.24-41.3,4.47-41.3,2.24,9.07,4.47,9.07,2.24,124.52,4.47,124.52,2.24-85.87,4.47-85.87,2.24-50.26,4.47-50.26S44.88-3.91,47.11-3.91s2.24,94.9,4.47,94.9,2.24-121.46,4.47-121.46S58.29,2.1,60.52,2.1s2.24,87.43,4.47,87.43,2.24-12.68,4.47-12.68,2.24,10.57,4.47,10.57,2.24-59.76,4.47-59.76,2.23,50.68,4.47,50.68,2.23-22.86,4.47-22.86,2.23-27.25,4.47-27.25,2.24-32.54,4.47-32.54,2.24,30.1,4.47,30.1,2.23,33.83,4.47,33.83,2.23-71.43,4.47-71.43,2.23-17.38,4.47-17.38,2.23-66.07,4.47-66.07,2.24,81.77,4.47,81.77,2.24-37.8,4.47-37.8,2.24,153.85,4.47,153.85,2.23-1,4.47-1,2.24-61.76,4.47-61.76,2.24,38.42,4.47,38.42,2.24-176.95,4.47-176.95,2.24,132.56,4.47,132.56,2.24-22.21,4.47-22.21,2.24-87.03,4.47-87.03,2.24-7.38,4.47-7.38,2.24-13.04,4.47-13.04,2.24,188.22,4.47,188.22,2.24-160.21,4.47-160.21,2.24,111.76,4.47,111.76,2.24-1.96,4.47-1.96,2.24,4.38,4.47,4.38,2.24,48.37,4.47,48.37,2.24-36.54,4.48-36.54,2.24-76.4,4.47-76.4,2.24,74.08,4.48,74.08,2.24,43.12,4.48,43.12,2.24-197.83,4.47-197.83,2.24,38.91,4.47,38.91,2.24,132.41,4.48,132.41,2.24,8.14,4.47,8.14,2.24-103.6,4.48-103.6,2.24,88.96,4.48,88.96,2.24-114.33,4.48-114.33,2.24,32.85,4.48,32.85,2.24,15.36,4.48,15.36,2.24-77.27,4.48-77.27,2.24,160.09,4.48,160.09,2.24-147.75,4.48-147.75,40.47,28.35,42.04,29.97,26.9,39.58,26.9,41.9-131.16,2.32-131.16,4.64,50.55,2.32,50.55,4.64-2.37,2.32-2.37,4.64-69.06,2.32-69.06,4.64-11.03,2.32-11.03,4.64,63.32,2.32,63.32,4.64-23.35,2.32-23.35,4.64,4.57,2.32,4.57,4.64,154.57,2.32,154.57,4.64-198.94,2.32-198.94,4.64,17.17,2.32,17.17,4.64,136.58,2.32,136.58,4.64-134.07,2.32-134.07,4.64,137.75,2.32,137.75,4.64-158.14,2.32-158.14,4.64,177.54,2.32,177.54,4.64-90.76,2.32-90.76,4.65,42.93-67.36,40.8-68.21c-6.62-2.66-38.75,64.07-40.35,65.74l.04-.03Z"/>
          </g>
        </g>
      </g>
    </g>
    <g id="Ebene_2-2-2" data-name="Ebene 2-2">
      <g>
        <rect class="cls-14" x="55.62" y="370.61" width="171.12" height="126.84"/>
        <g>
          <path class="cls-22" d="m95.15,397.39c-.02-.09-.05-.19-.07-.28-.08-.33-.19-.64-.32-.93-.29-.7-.7-1.31-1.2-1.85-.58-.62-1.21-1.12-1.88-1.51-.43-.27-.9-.48-1.37-.64-.44-.15-.89-.27-1.34-.36-.35-.08-.7-.13-1.05-.18-.41-.06-.84-.08-1.26-.08-1.42,0-2.74.19-3.97.59-.36.11-.71.25-1.06.4-1.42.65-2.6,1.67-3.56,3.09-.55-1.17-1.36-2.13-2.42-2.87-.4-.25-.83-.46-1.31-.62-1.09-.4-2.38-.59-3.86-.59-.83,0-1.61.07-2.33.2-1.23.21-2.3.62-3.19,1.2-.81.54-1.66,1.41-2.57,2.66v-3.49h-7.1v23.87h7.42v-14.4c0-1.29.19-2.28.58-2.93.72-1.16,2.12-1.74,4.2-1.74,1.8,0,3.01.58,3.63,1.74.34.64.51,1.67.51,3.1v14.23h7.37v-14.23c0-1.07.18-1.99.59-2.75.76-1.43,2.15-2.15,4.17-2.15,1.75,0,2.94.56,3.59,1.67.35.6.52,1.34.52,2.24v15.22h7.49l.05-15.07c0-1.55-.09-2.73-.26-3.53h0Z"/>
          <path class="cls-22" d="m125.56,394.65c-.85-.76-1.76-1.39-2.75-1.87-1.54-.75-3.24-1.16-5.1-1.21-.15-.01-.31-.01-.46-.01-.62,0-1.22.04-1.79.12-1.51.21-2.84.71-4.01,1.48-.83.55-1.61,1.3-2.34,2.22-.07.08-.13.16-.19.24v-3.53h-6.99v33.32h7.23v-12.44c.78,1.01,1.55,1.77,2.36,2.29,1.47.96,3.32,1.44,5.54,1.44,3.49,0,6.34-1.1,8.55-3.32,2.22-2.2,3.33-5.42,3.33-9.63s-1.13-7.02-3.38-9.08v-.02Zm-5.77,14.76c-1.07,1.35-2.62,2.02-4.65,2.02-1.41,0-2.63-.33-3.64-.99-1.73-1.12-2.6-3.07-2.6-5.85,0-1.43.17-2.64.52-3.66.07-.25.16-.47.26-.7.98-2.14,2.8-3.22,5.46-3.22.11,0,.21,0,.32.01,2.04.06,3.53.77,4.46,2.12.99,1.41,1.48,3.04,1.48,4.89,0,2.23-.54,4.03-1.61,5.36v.02Z"/>
          <path class="cls-22" d="m151.85,392.08v13.01c0,1.54-.24,2.77-.73,3.71-.92,1.72-2.62,2.59-5.12,2.59-1.95,0-3.26-.61-3.92-1.83-.39-.68-.57-1.71-.57-3.06v-14.42h-7.5v14.42c0,2.74.41,4.79,1.21,6.21,1.44,2.54,4.22,3.82,8.36,3.82,1.44,0,2.69-.16,3.77-.49,1.05-.31,2.17-.91,3.32-1.8.38-.27.7-.58.97-.95.28-.37.44-.59.52-.65v3.37h7.1v-23.91h-7.41v-.02Z"/>
          <path class="cls-22" d="m166.46,383.66v32.34h7.32v-32.34h-7.32Z"/>
          <path class="cls-22" d="m202.56,404.27c-1.45-1.2-3.64-2.08-6.54-2.67-4.35-.81-6.91-1.38-7.62-1.73-.71-.31-1.07-.84-1.07-1.56,0-.56.34-1.07,1.01-1.48.68-.44,1.81-.64,3.4-.64,1.92,0,3.3.42,4.1,1.27.43.47.7,1.1.8,1.92h7.31c-.33-2.93-1.58-5-3.78-6.19-1.38-.74-3-1.25-4.87-1.53h0c-1.13-.17-2.35-.25-3.66-.25-2.69,0-4.94.42-6.74,1.28-.66.3-1.26.67-1.8,1.1-2.04,1.58-3.04,3.49-3.04,5.69,0,1.87.64,3.31,1.94,4.31,1.29,1.01,3.53,1.84,6.69,2.51,4.4.9,6.94,1.53,7.62,1.89.68.37,1.03.9,1.03,1.6s-.42,1.27-1.27,1.64-1.99.55-3.42.55c-2.45,0-4.13-.42-5.04-1.25-.5-.47-.84-1.26-1-2.37h-7.41c0,2.45,1.05,4.48,3.14,6.07,2.1,1.57,5.35,2.37,9.74,2.37s7.5-.74,9.55-2.26c2.07-1.49,3.09-3.42,3.09-5.79,0-1.81-.71-3.3-2.15-4.49h0Z"/>
          <path class="cls-22" d="m226.94,392.39c-.29-.1-.59-.2-.89-.29-1.49-.43-3.12-.64-4.89-.64-.24,0-.47,0-.71.01-2.28.08-4.31.55-6.07,1.43-1.01.48-1.93,1.11-2.77,1.86-2.46,2.22-3.68,5.4-3.68,9.53,0,4.42,1.35,7.61,4.07,9.56,2.73,1.97,5.85,2.94,9.42,2.94,1.69,0,3.25-.18,4.63-.54.31-.08.6-.16.89-.26v-7h-.34c-.18.3-.35.57-.55.82-.25.33-.52.59-.81.82-.94.73-2.17,1.1-3.68,1.1-1.41,0-2.62-.3-3.63-.91-1.66-.95-2.54-2.64-2.64-5.04h11.65s0-13.39,0-13.39Zm-11.48,9.26c.25-1.55.83-2.77,1.76-3.67.94-.92,2.25-1.37,3.94-1.37,1.56,0,2.86.44,3.92,1.29.39.31.71.68.97,1.12.44.72.7,1.59.78,2.63h-11.37Z"/>
        </g>
        <g>
          <path class="cls-22" d="m55.62,478.22v-13.11h2v1.94c.89-.69,1.72-1.18,2.51-1.47,1.38-.53,3.17-.79,5.38-.79,2.07,0,3.77.23,5.05.68,1.03.41,1.82.94,2.35,1.59.94-.77,2.08-1.36,3.48-1.71,1.47-.37,3.1-.56,4.9-.56,1.2,0,2.39.12,3.55.34,1.17.24,2.23.63,3.18,1.2.77.47,1.28,1.04,1.55,1.71.17.46.25,1.1.25,1.97l-.05,8.39h-7.3v-8.47c0-.5-.17-.92-.5-1.25-.65-.61-1.81-.93-3.51-.93-1.96,0-3.33.4-4.08,1.2-.38.43-.57.94-.57,1.53v7.92h-7.18v-7.92c0-.8-.16-1.37-.51-1.73-.59-.64-1.77-.97-3.53-.97-2.02,0-3.39.33-4.09.97-.39.37-.57.91-.57,1.64v8.01h-2.31v-.18h0Z"/>
          <path class="cls-22" d="m119.22,466.51c-1.31-.67-2.78-1.14-4.43-1.42-.31-.05-.63-.09-.96-.13-.86-.11-1.77-.17-2.72-.17-1.14,0-2.2.09-3.17.25-.43.07-.84.15-1.22.26-.44.1-.86.23-1.25.38-.87.33-1.7.8-2.47,1.37v-1.96h-6.82v18.56h7.06v-6.94c.75.56,1.51.99,2.29,1.28,1.16.44,2.56.68,4.2.76.39.02.79.03,1.21.03,1.86,0,3.54-.18,5.03-.56,1.23-.29,2.34-.72,3.31-1.28,2.16-1.23,3.25-3.01,3.25-5.37,0-2.23-1.1-3.9-3.31-5.06Zm-10.15,9.35c-1.37,0-2.56-.19-3.56-.54-1.68-.64-2.53-1.72-2.53-3.27,0-.98.26-1.77.75-2.42.63-.8,1.64-1.32,2.99-1.58.37-.09.78-.14,1.22-.18.36-.03.73-.04,1.13-.04,1.74,0,3.09.26,4.04.79.21.1.41.23.58.38.02.01.03.02.04.02.96.79,1.43,1.7,1.43,2.73,0,1.25-.51,2.24-1.55,2.99s-2.56,1.12-4.54,1.12Z"/>
          <path class="cls-22" d="m144.87,465.09v7.24c0,.86-.24,1.55-.7,2.07-.9.96-2.57,1.44-5.01,1.44-1.9,0-3.18-.34-3.82-1.01-.37-.38-.55-.96-.55-1.71v-8.03h-7.31v8.03c0,1.52.38,2.67,1.18,3.45,1.39,1.42,4.12,2.13,8.15,2.13.92,0,1.77-.04,2.53-.12.4-.03.78-.08,1.14-.14.32-.06.64-.13.96-.22.74-.19,1.5-.46,2.28-.8.36-.15.68-.32.94-.53.28-.2.44-.33.52-.37v1.88h6.93v-13.31h-7.24Z"/>
          <path class="cls-22" d="m159.18,462.45l-.05,15.95h7.13v-15.89s-7.08-.06-7.08-.06Z"/>
          <path class="cls-22" d="m194.34,471.87c-1.42-.66-3.55-1.15-6.39-1.48-4.24-.45-6.73-.78-7.42-.96-.71-.19-1.06-.47-1.06-.87,0-.32.33-.6,1-.83.65-.25,1.76-.36,3.31-.36,1.88,0,3.22.24,4,.71.42.26.68.62.77,1.06h7.14c-.31-1.63-1.55-2.77-3.68-3.45-2.16-.65-4.94-.98-8.33-.98-3.59,0-6.37.43-8.35,1.32-1.98.88-2.96,1.94-2.96,3.17,0,.96.53,1.71,1.61,2.26.09.05.19.09.29.14.46.21,1.06.41,1.77.59,1.23.31,2.81.58,4.76.82,4.29.49,6.76.84,7.43,1.05.67.2,1,.49,1,.89s-.41.71-1.24.91-1.93.31-3.34.31c-2.38,0-4.01-.23-4.9-.7-.5-.26-.83-.7-.98-1.32h-7.23c0,.45.11.87.33,1.27.45.82,1.36,1.52,2.74,2.12.43.19.9.35,1.43.49,1.98.56,4.67.82,8.06.82.67,0,1.31-.01,1.92-.03,3.13-.1,5.54-.48,7.21-1.14.07-.02.13-.04.19-.07,2.02-.83,3.02-1.92,3.02-3.23,0-1.01-.71-1.84-2.1-2.51h0Z"/>
          <path class="cls-22" d="m225.19,470.07c-.32-1.04-1.01-1.95-2.08-2.75-1.19-.89-2.69-1.55-4.5-1.97-1.82-.41-3.87-.62-6.14-.62-3.81,0-6.93.62-9.31,1.85-2.4,1.23-3.59,3-3.59,5.3,0,2.47,1.33,4.23,3.98,5.33,2.64,1.09,5.71,1.63,9.18,1.63.29,0,.58,0,.86-.01,2.8-.06,5.17-.43,7.09-1.1.68-.24,1.29-.51,1.86-.82,1.5-.82,2.34-1.62,2.53-2.41h-7.29c-.38.39-.82.69-1.33.92-.91.4-2.11.6-3.58.6-1.38,0-2.55-.16-3.55-.5-1.61-.53-2.47-1.47-2.57-2.81h18.66c.03-1.15-.03-2.03-.22-2.64h0Zm-18.27.35c.24-.87.81-1.56,1.71-2.06.92-.5,2.2-.75,3.84-.75,1.53,0,2.79.23,3.82.71,1.03.47,1.6,1.18,1.72,2.1h-11.09Z"/>
        </g>
        <g>
          <path class="cls-22" d="m63.44,417.66v18.49h4.25v-18.49s-4.25,0-4.25,0Zm0-6.67v4.46h4.25v-4.46h-4.25Z"/>
          <path class="cls-22" d="m108.86,421.49c-.26-.99-.76-1.82-1.5-2.51-.92-.84-1.95-1.41-3.09-1.76-1.13-.33-2.28-.49-3.44-.49-1.75,0-3.33.27-4.75.8-1.35.54-2.47,1.38-3.38,2.53-.51-.96-1.28-1.75-2.28-2.35-1.25-.66-2.88-.99-4.9-.99-2.14,0-3.87.37-5.21,1.15-.77.43-1.57,1.15-2.43,2.16v-2.85h-6.72v19.49h7.02v-11.75c0-1.06.18-1.86.55-2.4.68-.94,2.01-1.41,3.98-1.41,1.7,0,2.84.47,3.42,1.41.32.52.48,1.37.48,2.53v11.63h6.97v-11.63c0-.87.18-1.62.55-2.24.74-1.17,2.05-1.76,3.96-1.76,1.64,0,2.78.46,3.39,1.36.33.48.49,1.09.49,1.83v12.43h7.08l.05-12.3c0-1.27-.08-2.23-.24-2.89h0Z"/>
          <path class="cls-22" d="m136.82,425.28c-2.04-1.59-4.52-2.38-7.45-2.38-2,0-3.73.41-5.2,1.24-.79.46-1.54,1.1-2.25,1.9v-2.73h-6.28l-.12,19.06,6.55-.08.05-2.84c.69.78,1.39,1.37,2.12,1.78,1.32.74,2.97,1.11,4.96,1.11,3.13,0,5.68-.85,7.66-2.56,1.98-1.71,2.97-4.19,2.97-7.45s-1.01-5.43-3.03-7.03l.02-.02Zm-5.16,11.43c-.96,1.04-2.35,1.56-4.18,1.56-1.25,0-2.34-.26-3.26-.77-1.55-.87-2.32-2.37-2.32-4.53,0-1.36.23-2.48.7-3.36.88-1.66,2.52-2.5,4.89-2.5,1.98,0,3.41.55,4.3,1.64.88,1.1,1.32,2.36,1.32,3.79,0,1.74-.47,3.12-1.43,4.16h-.02Z"/>
          <path class="cls-22" d="m160.44,417.66v10.06c0,1.19-.22,2.15-.65,2.87-.82,1.33-2.36,2-4.6,2-1.75,0-2.92-.47-3.51-1.41-.34-.53-.51-1.32-.51-2.37v-11.14h-6.71v11.14c0,2.12.36,3.71,1.07,4.8,1.29,1.97,3.78,2.95,7.5,2.95,1.29,0,2.41-.12,3.37-.37s1.94-.72,2.97-1.4c.34-.21.63-.46.87-.74.25-.28.41-.46.46-.51v2.61h6.37v-18.49h-6.64,0Z"/>
          <path class="cls-22" d="m173.53,411.15v25h6.55v-25h-6.55Z"/>
          <path class="cls-22" d="m205.87,427.08c-1.3-.92-3.25-1.6-5.85-2.06-3.91-.63-6.18-1.08-6.83-1.34-.64-.24-.97-.65-.97-1.2,0-.45.31-.83.91-1.16.61-.32,1.63-.5,3.05-.5,1.73,0,2.96.33,3.68.98.39.37.62.86.72,1.48h6.55c-.29-2.26-1.42-3.86-3.39-4.79-1.97-.91-4.52-1.37-7.65-1.37-3.29,0-5.84.61-7.66,1.84-1.81,1.23-2.72,2.7-2.72,4.4,0,1.45.58,2.56,1.74,3.33,1.17.78,3.16,1.43,6,1.95,3.94.69,6.21,1.18,6.83,1.46.61.28.92.7.92,1.24,0,.57-.38.99-1.14,1.28-.75.27-1.78.42-3.07.42-2.19,0-3.7-.32-4.5-.96-.46-.37-.76-.97-.9-1.84h-6.65c0,1.91.95,3.47,2.83,4.7,1.87,1.23,4.78,1.84,8.72,1.84s6.72-.58,8.56-1.74c1.84-1.16,2.77-2.66,2.77-4.49,0-1.4-.65-2.56-1.94-3.48h-.01Z"/>
          <path class="cls-22" d="m219.01,422.21c.83-.7,2-1.06,3.52-1.06,1.39,0,2.56.33,3.51.99.33.23.61.51.84.82v-5.32c-1.34-.32-2.79-.49-4.35-.49-3.5,0-6.36.85-8.55,2.57-2.21,1.7-3.3,4.16-3.3,7.36,0,3.42,1.22,5.89,3.65,7.4,2.44,1.52,5.25,2.27,8.44,2.27,1.5,0,2.87-.13,4.12-.41v-4.96c-.21.24-.45.45-.7.61-.84.56-1.94.84-3.29.84-1.27,0-2.36-.23-3.26-.69-1.49-.75-2.27-2.05-2.37-3.91h9.62v-3.19h-9.45c.21-1.2.74-2.15,1.58-2.85v.02Z"/>
        </g>
        <g>
          <path class="cls-22" d="m55.62,471.3v4.63h4.64v-4.63h-4.64Zm0,6.92v19.2h4.64v-19.2s-4.64,0-4.64,0Z"/>
          <path class="cls-22" d="m103.46,482.48c-.05-.19-.1-.37-.18-.55,0-.03-.02-.06-.04-.09-.27-.7-.67-1.31-1.24-1.83-.9-.82-1.9-1.39-3.01-1.72-.3-.1-.6-.17-.91-.24-.62-.12-1.26-.21-1.9-.23-.18-.02-.37-.02-.55-.02-1.7,0-3.25.26-4.64.79-1.31.53-2.4,1.36-3.29,2.49-.5-.95-1.24-1.72-2.22-2.31-.26-.14-.54-.26-.84-.37-.64-.24-1.36-.4-2.17-.49-.55-.08-1.15-.11-1.78-.11-2.08,0-3.78.37-5.09,1.13-.75.42-1.53,1.13-2.36,2.13v-2.81h-6.58v19.17h6.85v-11.56c0-1.04.18-1.83.55-2.36.66-.93,1.96-1.39,3.89-1.39,1.65,0,2.76.46,3.34,1.39.31.52.46,1.35.46,2.49v11.43h6.8v-11.43c0-.86.18-1.59.55-2.21.71-1.14,1.99-1.72,3.86-1.72,1.54,0,2.61.41,3.22,1.22.04.03.06.07.09.11.05.08.1.17.14.26.23.43.34.94.34,1.55v12.22h6.91l.04-12.1c0-1.25-.07-2.19-.24-2.84Z"/>
          <path class="cls-22" d="m131.53,480.28c-2.1-1.66-4.65-2.48-7.67-2.48-2.08,0-3.85.42-5.36,1.29-.82.47-1.59,1.13-2.31,1.97v-2.84h-6.46v19.23h6.67v-2.48c.7.81,1.43,1.42,2.18,1.85.46.25.95.47,1.48.63h7.52c1.52-.43,2.86-1.14,4.01-2.14,2.05-1.78,3.06-4.35,3.06-7.73s-1.04-5.64-3.12-7.3Zm-5.33,11.86c-.97,1.07-2.41,1.62-4.29,1.62-1.3,0-2.4-.27-3.36-.8-1.59-.91-2.4-2.46-2.4-4.7,0-1.41.25-2.57.72-3.49.92-1.72,2.6-2.59,5.04-2.59,2.04,0,3.5.57,4.42,1.71.91,1.14,1.36,2.45,1.36,3.93,0,1.8-.49,3.23-1.49,4.32Z"/>
          <path class="cls-22" d="m155.8,478.22v10.44c0,1.23-.22,2.24-.67,2.98-.85,1.38-2.43,2.08-4.74,2.08-1.79,0-3-.49-3.61-1.47-.35-.54-.52-1.36-.52-2.46v-11.57h-6.92v11.57c0,2.2.37,3.86,1.12,4.98.85,1.32,2.22,2.21,4.11,2.68,1.04.26,2.24.39,3.6.39s2.5-.13,3.48-.38h.03c.98-.26,1.99-.75,3.03-1.45.35-.22.65-.47.91-.76.25-.3.41-.48.46-.53v2.71h6.56v-19.2h-6.84Z"/>
          <path class="cls-22" d="m169.3,471.46v25.96h6.74v-25.96h-6.74Z"/>
          <path class="cls-22" d="m202.61,488c-1.34-.96-3.36-1.67-6.03-2.14-4.03-.65-6.37-1.12-7.03-1.39-.66-.25-1-.67-1-1.24,0-.47.3-.87.93-1.2.63-.34,1.67-.52,3.13-.52,1.8,0,3.06.35,3.8,1.02.39.38.63.9.73,1.54h6.75c-.3-2.35-1.46-4-3.48-4.97-1.88-.88-4.28-1.36-7.18-1.42-.23-.01-.46-.01-.7-.01-2.63,0-4.8.38-6.51,1.15-.51.22-.97.47-1.39.76-1.88,1.28-2.81,2.8-2.81,4.57,0,1.51.61,2.66,1.8,3.46,1.2.81,3.26,1.48,6.18,2.02,4.06.72,6.41,1.22,7.04,1.52.63.29.94.73.94,1.28,0,.59-.39,1.04-1.17,1.33s-1.84.43-3.16.43c-2.26,0-3.81-.33-4.64-1-.48-.38-.78-1.01-.93-1.9h-6.84c0,1.98.98,3.6,2.9,4.87.82.55,1.85.98,3.07,1.29h11.84c1.14-.29,2.11-.68,2.89-1.18,1.9-1.2,2.85-2.76,2.85-4.66,0-1.45-.65-2.65-1.98-3.61h0Z"/>
          <path class="cls-22" d="m226.74,479.08c-.37-.18-.76-.34-1.16-.48-1.47-.51-3.1-.8-4.9-.87-.3,0-.6-.02-.91-.02-2.35,0-4.41.37-6.18,1.12-.96.4-1.83.92-2.63,1.54-2.27,1.77-3.4,4.32-3.4,7.64,0,3.55,1.26,6.11,3.76,7.68,1.25.78,2.6,1.37,4.03,1.76h9.62c.63-.17,1.22-.38,1.77-.62v-5.05h-1.94c-.36.57-.78,1.01-1.26,1.33-.87.58-1.99.87-3.39.87-1.3,0-2.43-.24-3.36-.71-1.52-.78-2.34-2.13-2.44-4.06h12.39v-10.13Zm-12.21,6.82c.21-1.24.76-2.23,1.61-2.96.86-.73,2.07-1.09,3.63-1.09,1.45,0,2.66.34,3.62,1.03.97.68,1.51,1.69,1.62,3.02h-10.48Z"/>
        </g>
        <g>
          <path class="cls-13" d="m54.96,436.64v4.6h4.44v25.82h2.45v-25.82h4.46v-4.6h-11.35Z"/>
          <path class="cls-13" d="m76.72,436.64v12.1h-6.38v-12.1h-2.46v30.41h2.46v-13.72h6.38v13.72h2.46v-30.41s-2.46,0-2.46,0Z"/>
          <path class="cls-13" d="m84.58,462.44v-8.89h7.08v-4.35h-7.08v-7.97h7.65v-4.6h-10.1v30.41h10.23v-4.61h-7.78Z"/>
          <path class="cls-13" d="m100.87,436.64h-2.61l-5.39,30.41h2.54l1.31-8.05h5.6l1.32,8.05h2.63s-5.4-30.41-5.4-30.41Zm-3.48,18.31l2.12-13.08h.06l2.1,13.08h-4.28Z"/>
          <path class="cls-13" d="m104.46,436.64v4.6h4.44v25.82h2.46v-25.82h4.46v-4.6s-11.36,0-11.36,0Z"/>
          <path class="cls-13" d="m119.91,462.44v-8.89h7.07v-4.35h-7.07v-7.97h7.64v-4.6h-10.1v30.41h10.24v-4.61h-7.78Z"/>
          <path class="cls-13" d="m141.11,463.92c-.12-1.47-.18-3.09-.18-4.88,0-1.19-.07-2.18-.21-2.98-.14-.79-.31-1.44-.52-1.93-.21-.5-.44-.86-.68-1.09-.24-.23-.47-.36-.68-.43v-.09c.12-.09.31-.25.56-.51.26-.25.52-.66.78-1.25.26-.58.49-1.35.69-2.29.19-.95.29-2.15.29-3.61,0-2.58-.38-4.6-1.16-6.05-.77-1.44-1.93-2.17-3.47-2.17h-6.7v30.41h2.45v-12.53h3.62c.56,0,1.02.15,1.38.46s.65.8.86,1.48c.21.66.35,1.5.43,2.51s.12,2.22.12,3.59c0,.74,0,1.52.05,2.3.03.8.14,1.52.32,2.18h2.63c-.26-.63-.45-1.68-.58-3.13h0Zm-3.01-14.66c-.41.81-1,1.22-1.79,1.22h-4.03v-9.49h3.99c.31,0,.62.05.91.16.3.13.56.35.79.69.23.34.41.81.54,1.43.13.6.2,1.39.2,2.35,0,1.63-.21,2.84-.61,3.64Z"/>
          <path class="cls-13" d="m153.34,441.24v-4.6h-9.68v30.41h2.45v-13.5h6.35v-4.35h-6.35v-7.97h7.23Z"/>
          <path class="cls-13" d="m157.76,462.44v-8.89h7.07v-4.35h-7.07v-7.97h7.65v-4.6h-10.1v30.41h10.23v-4.61h-7.78Z"/>
          <path class="cls-13" d="m178.11,455.84c-.12-.79-.29-1.54-.52-2.23-.22-.7-.51-1.32-.85-1.85-.34-.54-.74-.96-1.2-1.28-.18-.11-.49-.29-.91-.54-.43-.24-.86-.49-1.31-.74-.44-.25-.85-.49-1.21-.7s-.56-.34-.62-.36c-.49-.31-.9-.78-1.2-1.39-.31-.6-.47-1.45-.47-2.53,0-.76.09-1.4.25-1.92s.37-.91.62-1.21c.25-.29.52-.5.82-.64.31-.13.6-.19.89-.19.85,0,1.55.4,2.1,1.22.55.81.86,2.19.92,4.15h2.46c0-1.58-.14-2.98-.43-4.18-.29-1.21-.68-2.23-1.17-3.06-.49-.81-1.06-1.44-1.71-1.84-.65-.41-1.34-.63-2.07-.63-.63,0-1.25.18-1.87.54-.62.35-1.17.9-1.65,1.64s-.87,1.67-1.17,2.78c-.29,1.13-.44,2.45-.44,3.98,0,.8.05,1.58.15,2.34.09.76.26,1.49.5,2.18.23.68.55,1.29.95,1.85.4.55.9.99,1.5,1.34.97.56,1.79,1.03,2.45,1.38.66.35,1.24.73,1.74,1.13.29.23.55.61.79,1.18.25.55.37,1.4.37,2.57,0,.58-.06,1.13-.16,1.69-.11.55-.28,1.04-.51,1.47-.24.43-.55.78-.93,1.04-.37.28-.83.4-1.37.4-.5,0-.96-.11-1.39-.35-.42-.25-.8-.63-1.12-1.15-.33-.53-.59-1.2-.77-2.03-.18-.81-.28-1.82-.28-2.98h-2.45c0,1.88.18,3.51.49,4.88.31,1.38.73,2.51,1.26,3.38.52.88,1.14,1.53,1.84,1.95.71.43,1.46.64,2.26.64.7,0,1.38-.18,2.05-.53.66-.35,1.26-.91,1.78-1.68.53-.78.95-1.75,1.27-2.97.32-1.2.48-2.66.48-4.36,0-.8-.05-1.59-.16-2.39Z"/>
          <path class="cls-13" d="m179.08,436.64v4.6h4.44v25.82h2.45v-25.82h4.46v-4.6h-11.35Z"/>
          <path class="cls-13" d="m192.06,436.64v30.41h2.46v-30.41s-2.46,0-2.46,0Z"/>
          <path class="cls-13" d="m205.64,436.64l-3.6,24.06h-.04l-3.51-24.06h-2.56l4.68,30.41h2.73l4.79-30.41h-2.49,0Z"/>
          <path class="cls-13" d="m214.81,436.64h-2.61l-5.38,30.41h2.53l1.32-8.05h5.6l1.31,8.05h2.64s-5.41-30.41-5.41-30.41Zm-3.47,18.31l2.12-13.08h.06l2.1,13.08h-4.28Z"/>
          <path class="cls-13" d="m224.01,462.44v-25.8h-2.46v30.41h5.19v-4.61s-2.73,0-2.73,0Z"/>
        </g>
        <g>
          <path class="cls-22" d="m55.53,370.82v21.06h6.51v-21.06h-6.51Z"/>
          <path class="cls-22" d="m103.16,375.51c-.24-1.07-.7-1.97-1.39-2.71-.86-.9-1.81-1.53-2.87-1.89-1.05-.36-2.11-.55-3.19-.55-1.63,0-3.1.3-4.42.88-1.25.57-2.29,1.48-3.13,2.72-.48-1.04-1.19-1.88-2.12-2.53-1.16-.71-2.67-1.07-4.55-1.07-1.98,0-3.6.41-4.85,1.24-.7.47-1.45,1.25-2.25,2.34v-3.07h-6.24v21.02h6.51v-12.67c0-1.14.17-2.01.52-2.59.63-1.03,1.86-1.54,3.7-1.54,1.57,0,2.63.51,3.17,1.54.3.56.45,1.47.45,2.72v12.53h6.47v-12.53c0-.94.17-1.75.52-2.42.67-1.27,1.9-1.9,3.67-1.9,1.53,0,2.58.49,3.15,1.47.3.51.45,1.17.45,1.97v13.4h6.58v-.06l.05-13.21c0-1.37-.08-2.39-.23-3.1h0Z"/>
          <path class="cls-22" d="m129.86,373.09c-2-1.82-4.43-2.73-7.3-2.73-1.97,0-3.66.48-5.09,1.42-.78.53-1.52,1.25-2.21,2.16v-3.12h-6.15v29.36h.31c.07-.23.16-.44.26-.66.98-2.02,2.8-3.04,5.46-3.04.11,0,.21,0,.32.01v-7.29c.68.89,1.37,1.57,2.08,2.02.05.03.11.07.17.11,1.26.76,2.82,1.15,4.69,1.15.14,0,.28,0,.41-.01,2.88-.07,5.25-1.05,7.11-2.91,1.94-1.94,2.92-4.77,2.92-8.48s-1-6.19-2.98-8h0Zm-5.06,13c-.94,1.19-2.3,1.78-4.09,1.78-1.23,0-2.29-.29-3.2-.87-1.51-1-2.27-2.71-2.27-5.16,0-1.55.22-2.82.67-3.82.88-1.9,2.47-2.84,4.8-2.84,1.94,0,3.34.63,4.21,1.88.86,1.25,1.29,2.68,1.29,4.3,0,1.97-.47,3.55-1.41,4.74h0Z"/>
          <path class="cls-22" d="m152.95,370.82v11.46c0,1.36-.21,2.44-.63,3.26-.81,1.53-2.31,2.28-4.5,2.28-1.71,0-2.86-.53-3.45-1.6-.33-.6-.49-1.5-.49-2.7v-12.7h-6.58v12.7c0,2.41.35,4.23,1.05,5.47,1.27,2.24,3.71,3.36,7.35,3.36,1.26,0,2.36-.14,3.3-.42.94-.29,1.91-.82,2.92-1.59.33-.24.61-.52.85-.85.24-.32.4-.51.45-.58v2.98h6.25v-21.07h-6.52Z"/>
          <path class="cls-22" d="m165.8,370.04v21.85h6.42v-21.85h-6.42Z"/>
          <path class="cls-22" d="m197.5,381.56c-1.28-1.05-3.19-1.83-5.75-2.34-3.83-.72-6.06-1.23-6.69-1.53-.63-.29-.95-.74-.95-1.38,0-.5.3-.93.9-1.31.59-.37,1.58-.56,2.98-.56,1.7,0,2.9.38,3.6,1.12.38.41.61.97.7,1.68h6.42c-.28-2.57-1.38-4.4-3.31-5.46-1.93-1.04-4.44-1.56-7.5-1.56-3.23,0-5.73.7-7.51,2.1-1.78,1.4-2.67,3.06-2.67,5.01,0,1.65.57,2.91,1.71,3.78,1.14.89,3.1,1.63,5.88,2.22,3.86.78,6.09,1.35,6.69,1.66.6.32.9.79.9,1.41s-.37,1.13-1.11,1.45c-.75.32-1.75.49-3.01.49-2.15,0-3.62-.37-4.42-1.1-.45-.41-.74-1.11-.88-2.09h-6.51c0,2.16.92,3.94,2.76,5.34,1.25.95,2.97,1.58,5.16,1.89,1.02.14,2.16.21,3.39.21,2.93,0,5.26-.39,7.01-1.19h0c.51-.22.97-.49,1.38-.79,1.81-1.32,2.71-3.03,2.71-5.12,0-1.58-.63-2.9-1.89-3.95v.02Z"/>
          <path class="cls-22" d="m225.28,378.71c-.29-1.64-.91-3.09-1.87-4.34-1.07-1.42-2.42-2.46-4.06-3.11-1.63-.66-3.47-.99-5.52-.99-3.44,0-6.24.97-8.39,2.92-2.16,1.94-3.23,4.74-3.23,8.38,0,3.9,1.19,6.71,3.58,8.43,2.39,1.73,5.14,2.59,8.27,2.59h.32c2.36-.04,4.38-.49,6.07-1.35.91-.46,1.73-1.04,2.44-1.73,1.35-1.29,2.11-2.55,2.28-3.8h-6.56c-.35.61-.74,1.1-1.2,1.44-.82.65-1.9.97-3.22.97-1.24,0-2.31-.26-3.2-.79-1.45-.85-2.23-2.33-2.32-4.45h16.81c.03-1.81-.04-3.2-.2-4.17h0Zm-16.45.55c.21-1.37.72-2.45,1.54-3.25.82-.79,1.97-1.2,3.46-1.2,1.37,0,2.51.38,3.44,1.13.92.75,1.44,1.85,1.54,3.32h-9.98Z"/>
        </g>
      </g>
    </g>
    <g id="Ebene_2-2-3" data-name="Ebene 2-2">
      <g>
        <rect class="cls-16" x=".56" y="429.63" width="113.69" height="84.27"/>
        <g>
          <path d="m26.83,447.42c-.01-.06-.03-.13-.05-.19-.05-.22-.13-.43-.21-.62-.19-.47-.47-.87-.8-1.23-.39-.41-.8-.74-1.25-1-.29-.18-.6-.32-.91-.43-.29-.1-.59-.18-.89-.24-.23-.05-.47-.09-.7-.12-.27-.04-.56-.05-.84-.05-.94,0-1.82.13-2.64.39-.24.07-.47.17-.7.27-.94.43-1.73,1.11-2.37,2.05-.37-.78-.9-1.42-1.61-1.91-.27-.17-.55-.31-.87-.41-.72-.27-1.58-.39-2.56-.39-.55,0-1.07.05-1.55.13-.82.14-1.53.41-2.12.8-.54.36-1.1.94-1.71,1.77v-2.32H.34v15.86h4.93v-9.57c0-.86.13-1.51.39-1.95.48-.77,1.41-1.16,2.79-1.16,1.2,0,2,.39,2.41,1.16.23.43.34,1.11.34,2.06v9.45h4.9v-9.45c0-.71.12-1.32.39-1.83.5-.95,1.43-1.43,2.77-1.43,1.16,0,1.95.37,2.39,1.11.23.4.35.89.35,1.49v10.11h4.98l.03-10.01c0-1.03-.06-1.81-.17-2.35h0Z"/>
          <path d="m47.03,445.6c-.56-.5-1.17-.92-1.83-1.24-1.02-.5-2.15-.77-3.39-.8-.1,0-.21,0-.31,0-.41,0-.81.03-1.19.08-1,.14-1.89.47-2.66.98-.55.37-1.07.86-1.55,1.47-.05.05-.09.11-.13.16v-2.35h-4.64v22.14h4.8v-8.27c.52.67,1.03,1.18,1.57,1.52.98.64,2.21.96,3.68.96,2.32,0,4.21-.73,5.68-2.21,1.47-1.46,2.21-3.6,2.21-6.4s-.75-4.66-2.25-6.03h0Zm-3.83,9.81c-.71.9-1.74,1.34-3.09,1.34-.94,0-1.75-.22-2.42-.66-1.15-.74-1.73-2.04-1.73-3.89,0-.95.11-1.75.35-2.43.05-.17.11-.31.17-.47.65-1.42,1.86-2.14,3.63-2.14.07,0,.14,0,.21,0,1.36.04,2.35.51,2.96,1.41.66.94.98,2.02.98,3.25,0,1.48-.36,2.68-1.07,3.56h0Z"/>
          <path d="m64.5,443.9v8.64c0,1.02-.16,1.84-.49,2.46-.61,1.14-1.74,1.72-3.4,1.72-1.3,0-2.17-.41-2.6-1.22-.26-.45-.38-1.14-.38-2.03v-9.58h-4.98v9.58c0,1.82.27,3.18.8,4.13.96,1.69,2.8,2.54,5.55,2.54.96,0,1.79-.11,2.5-.33.7-.21,1.44-.6,2.21-1.2.25-.18.47-.39.64-.63.19-.25.29-.39.35-.43v2.24h4.72v-15.89h-4.92,0Z"/>
          <path d="m74.21,438.3v21.49h4.86v-21.49h-4.86Z"/>
          <path d="m98.19,452c-.96-.8-2.42-1.38-4.35-1.77-2.89-.54-4.59-.92-5.06-1.15-.47-.21-.71-.56-.71-1.04,0-.37.23-.71.67-.98.45-.29,1.2-.43,2.26-.43,1.28,0,2.19.28,2.72.84.29.31.47.73.53,1.28h4.86c-.22-1.95-1.05-3.32-2.51-4.11-.92-.49-1.99-.83-3.24-1.02h0c-.75-.11-1.56-.17-2.43-.17-1.79,0-3.28.28-4.48.85-.44.2-.84.45-1.2.73-1.36,1.05-2.02,2.32-2.02,3.78,0,1.24.43,2.2,1.29,2.86.86.67,2.35,1.22,4.44,1.67,2.92.6,4.61,1.02,5.06,1.26.45.25.68.6.68,1.06s-.28.84-.84,1.09-1.32.37-2.27.37c-1.63,0-2.74-.28-3.35-.83-.33-.31-.56-.84-.66-1.57h-4.92c0,1.63.7,2.98,2.09,4.03,1.4,1.04,3.55,1.57,6.47,1.57s4.98-.49,6.34-1.5c1.38-.99,2.05-2.27,2.05-3.85,0-1.2-.47-2.19-1.43-2.98h0Z"/>
          <path d="m114.39,444.1c-.19-.07-.39-.13-.59-.19-.99-.29-2.07-.43-3.25-.43-.16,0-.31,0-.47,0-1.51.05-2.86.37-4.03.95-.67.32-1.28.74-1.84,1.24-1.63,1.47-2.44,3.59-2.44,6.33,0,2.94.9,5.06,2.7,6.35,1.81,1.31,3.89,1.95,6.26,1.95,1.12,0,2.16-.12,3.08-.36.21-.05.4-.11.59-.17v-4.65h-.23c-.12.2-.23.38-.37.54-.17.22-.35.39-.54.54-.62.49-1.44.73-2.44.73-.94,0-1.74-.2-2.41-.6-1.1-.63-1.69-1.75-1.75-3.35h7.74s0-8.9,0-8.9Zm-7.63,6.15c.17-1.03.55-1.84,1.17-2.44.62-.61,1.49-.91,2.62-.91,1.04,0,1.9.29,2.6.86.26.21.47.45.64.74.29.48.47,1.06.52,1.75h-7.55Z"/>
        </g>
        <g>
          <path class="cls-19" d="m.56,501.13v-8.71h1.33v1.29c.59-.46,1.14-.78,1.67-.98.92-.35,2.11-.52,3.57-.52,1.38,0,2.5.15,3.36.45.68.27,1.21.62,1.56,1.06.62-.51,1.38-.9,2.31-1.14.98-.25,2.06-.37,3.26-.37.8,0,1.59.08,2.36.23.78.16,1.48.42,2.11.8.51.31.85.69,1.03,1.14.11.31.17.73.17,1.31l-.03,5.57h-4.85v-5.63c0-.33-.11-.61-.33-.83-.43-.41-1.2-.62-2.33-.62-1.3,0-2.21.27-2.71.8-.25.29-.38.62-.38,1.02v5.26h-4.77v-5.26c0-.53-.11-.91-.34-1.15-.39-.43-1.18-.64-2.35-.64-1.34,0-2.25.22-2.72.64-.26.25-.38.6-.38,1.09v5.32H.56v-.12h0Z"/>
          <path class="cls-19" d="m42.82,493.35c-.87-.45-1.85-.76-2.94-.94-.21-.03-.42-.06-.64-.09-.57-.07-1.18-.11-1.81-.11-.76,0-1.46.06-2.11.17-.29.05-.56.1-.81.17-.29.07-.57.15-.83.25-.58.22-1.13.53-1.64.91v-1.3h-4.53v12.33h4.69v-4.61c.5.37,1,.66,1.52.85.77.29,1.7.45,2.79.5.26.01.52.02.8.02,1.24,0,2.35-.12,3.34-.37.82-.19,1.55-.48,2.2-.85,1.44-.82,2.16-2,2.16-3.57,0-1.48-.73-2.59-2.2-3.36Zm-6.74,6.21c-.91,0-1.7-.13-2.37-.36-1.12-.43-1.68-1.14-1.68-2.17,0-.65.17-1.18.5-1.61.42-.53,1.09-.88,1.99-1.05.25-.06.52-.09.81-.12.24-.02.49-.03.75-.03,1.16,0,2.05.17,2.68.52.14.07.27.15.39.25.01,0,.02.01.03.01.64.52.95,1.13.95,1.81,0,.83-.34,1.49-1.03,1.99s-1.7.74-3.02.74Z"/>
          <path class="cls-19" d="m59.86,492.4v4.81c0,.57-.16,1.03-.47,1.38-.6.64-1.71.96-3.33.96-1.26,0-2.11-.23-2.54-.67-.25-.25-.37-.64-.37-1.14v-5.34h-4.86v5.34c0,1.01.25,1.77.78,2.29.92.94,2.74,1.42,5.41,1.42.61,0,1.18-.03,1.68-.08.27-.02.52-.05.76-.09.21-.04.43-.09.64-.15.49-.13,1-.31,1.51-.53.24-.1.45-.21.62-.35.19-.13.29-.22.35-.25v1.25h4.6v-8.84h-4.81Z"/>
          <path class="cls-19" d="m69.37,490.65l-.03,10.6h4.74v-10.56s-4.7-.04-4.7-.04Z"/>
          <path class="cls-19" d="m92.73,496.91c-.94-.44-2.36-.76-4.25-.98-2.82-.3-4.47-.52-4.93-.64-.47-.13-.7-.31-.7-.58,0-.21.22-.4.66-.55.43-.17,1.17-.24,2.2-.24,1.25,0,2.14.16,2.66.47.28.17.45.41.51.7h4.74c-.21-1.08-1.03-1.84-2.44-2.29-1.44-.43-3.28-.65-5.53-.65-2.39,0-4.23.29-5.55.88-1.32.58-1.97,1.29-1.97,2.11,0,.64.35,1.14,1.07,1.5.06.03.13.06.19.09.31.14.7.27,1.18.39.82.21,1.87.39,3.16.54,2.85.33,4.49.56,4.94.7.45.13.66.33.66.59s-.27.47-.82.6-1.28.21-2.22.21c-1.58,0-2.66-.15-3.26-.47-.33-.17-.55-.47-.65-.88h-4.8c0,.3.07.58.22.84.3.54.9,1.01,1.82,1.41.29.13.6.23.95.33,1.32.37,3.1.54,5.36.54.45,0,.87,0,1.28-.02,2.08-.07,3.68-.32,4.79-.76.05-.01.09-.03.13-.05,1.34-.55,2.01-1.28,2.01-2.15,0-.67-.47-1.22-1.4-1.67h0Z"/>
          <path class="cls-19" d="m113.23,495.71c-.21-.69-.67-1.3-1.38-1.83-.79-.59-1.79-1.03-2.99-1.31-1.21-.27-2.57-.41-4.08-.41-2.53,0-4.6.41-6.19,1.23-1.59.82-2.39,1.99-2.39,3.52,0,1.64.88,2.81,2.64,3.54,1.75.72,3.79,1.08,6.1,1.08.19,0,.39,0,.57,0,1.86-.04,3.43-.29,4.71-.73.45-.16.86-.34,1.24-.54,1-.54,1.55-1.08,1.68-1.6h-4.84c-.25.26-.54.46-.88.61-.6.27-1.4.4-2.38.4-.92,0-1.69-.11-2.36-.33-1.07-.35-1.64-.98-1.71-1.87h12.4c.02-.76-.02-1.35-.15-1.75h0Zm-12.14.23c.16-.58.54-1.04,1.14-1.37.61-.33,1.46-.5,2.55-.5,1.02,0,1.85.15,2.54.47.68.31,1.06.78,1.14,1.4h-7.37Z"/>
        </g>
        <g>
          <path class="cls-19" d="m5.76,460.89v12.28h2.82v-12.28s-2.82,0-2.82,0Zm0-4.43v2.96h2.82v-2.96h-2.82Z"/>
          <path class="cls-19" d="m35.91,463.16c-.17-.65-.5-1.2-.99-1.65-.6-.55-1.28-.93-2.03-1.16-.74-.22-1.5-.33-2.27-.33-1.15,0-2.19.18-3.13.53-.89.35-1.63.91-2.23,1.67-.34-.64-.84-1.15-1.5-1.55-.82-.44-1.9-.65-3.23-.65-1.41,0-2.55.25-3.43.76-.5.28-1.04.76-1.6,1.43v-1.88h-4.43v12.84h4.62v-7.74c0-.7.12-1.23.37-1.58.45-.62,1.33-.93,2.62-.93,1.12,0,1.87.31,2.25.93.21.35.32.9.32,1.67v7.66h4.59v-7.66c0-.57.12-1.06.37-1.47.49-.77,1.36-1.16,2.61-1.16,1.08,0,1.83.31,2.23.9.21.32.33.72.33,1.21v8.19h4.66l.03-8.11c0-.84-.05-1.47-.16-1.91h0Z"/>
          <path class="cls-19" d="m55.17,465.95c-1.36-1.06-3-1.58-4.95-1.58-1.33,0-2.48.27-3.45.82-.52.31-1.02.73-1.49,1.26v-1.81h-4.17l-.08,12.66,4.35-.05.03-1.89c.46.52.92.91,1.41,1.18.88.49,1.97.74,3.3.74,2.08,0,3.77-.56,5.09-1.7s1.97-2.78,1.97-4.95-.67-3.61-2.01-4.67h.01Zm-3.43,7.59c-.64.69-1.56,1.04-2.78,1.04-.83,0-1.55-.17-2.17-.51-1.03-.58-1.54-1.57-1.54-3.01,0-.9.15-1.65.47-2.23.58-1.1,1.67-1.66,3.25-1.66,1.32,0,2.27.37,2.86,1.09.58.73.88,1.57.88,2.52,0,1.16-.31,2.07-.95,2.76h-.01Z"/>
          <path class="cls-19" d="m70.21,460.89v6.68c0,.79-.15,1.43-.43,1.91-.54.88-1.57,1.33-3.06,1.33-1.16,0-1.94-.31-2.33-.94-.23-.35-.34-.88-.34-1.57v-7.4h-4.46v7.4c0,1.41.24,2.46.71,3.19.86,1.31,2.51,1.96,4.98,1.96.86,0,1.6-.08,2.24-.25s1.29-.48,1.97-.93c.23-.14.42-.31.58-.49.17-.19.27-.31.31-.34v1.73h4.23v-12.28h-4.41,0Z"/>
          <path class="cls-19" d="m78.9,456.57v16.61h4.35v-16.61h-4.35Z"/>
          <path class="cls-19" d="m100.39,467.15c-.86-.61-2.16-1.06-3.89-1.37-2.6-.42-4.11-.72-4.54-.89-.43-.16-.64-.43-.64-.8,0-.3.21-.55.6-.77.41-.21,1.08-.33,2.03-.33,1.15,0,1.97.22,2.44.65.26.25.41.57.48.98h4.35c-.19-1.5-.94-2.56-2.25-3.18-1.31-.6-3-.91-5.08-.91-2.19,0-3.88.41-5.09,1.22-1.2.82-1.81,1.79-1.81,2.92,0,.96.39,1.7,1.16,2.21.78.52,2.1.95,3.99,1.3,2.62.46,4.13.78,4.54.97.41.19.61.47.61.82,0,.38-.25.66-.76.85-.5.18-1.18.28-2.04.28-1.46,0-2.46-.21-2.99-.64-.31-.25-.5-.64-.6-1.22h-4.42c0,1.27.63,2.31,1.88,3.12,1.24.82,3.18,1.22,5.79,1.22s4.46-.39,5.69-1.16c1.22-.77,1.84-1.77,1.84-2.98,0-.93-.43-1.7-1.29-2.31h0Z"/>
          <path class="cls-19" d="m109.12,463.92c.55-.47,1.33-.7,2.34-.7.92,0,1.7.22,2.33.66.22.15.41.34.56.54v-3.53c-.89-.21-1.85-.33-2.89-.33-2.33,0-4.23.56-5.68,1.71-1.47,1.13-2.19,2.76-2.19,4.89,0,2.27.81,3.91,2.43,4.92,1.62,1.01,3.49,1.51,5.61,1.51,1,0,1.91-.09,2.74-.27v-3.3c-.14.16-.3.3-.47.41-.56.37-1.29.56-2.19.56-.84,0-1.57-.15-2.17-.46-.99-.5-1.51-1.36-1.57-2.6h6.39v-2.12h-6.28c.14-.8.49-1.43,1.05-1.89h0Z"/>
        </g>
        <g>
          <path class="cls-19" d="m.56,496.53v3.08h3.08v-3.08H.56Zm0,4.6v12.76h3.08v-12.76s-3.08,0-3.08,0Z"/>
          <path class="cls-19" d="m32.35,503.96c-.03-.13-.07-.25-.12-.37,0-.02-.01-.04-.03-.06-.18-.47-.45-.87-.82-1.22-.6-.54-1.26-.92-2-1.14-.2-.07-.4-.11-.6-.16-.41-.08-.84-.14-1.26-.15-.12-.01-.25-.01-.37-.01-1.13,0-2.16.17-3.08.52-.87.35-1.59.9-2.19,1.65-.33-.63-.82-1.14-1.47-1.53-.17-.09-.36-.17-.56-.25-.43-.16-.9-.27-1.44-.33-.37-.05-.76-.07-1.18-.07-1.38,0-2.51.25-3.38.75-.5.28-1.02.75-1.57,1.42v-1.87h-4.37v12.74h4.55v-7.68c0-.69.12-1.22.37-1.57.44-.62,1.3-.92,2.58-.92,1.1,0,1.83.31,2.22.92.21.35.31.9.31,1.65v7.59h4.52v-7.59c0-.57.12-1.06.37-1.47.47-.76,1.32-1.14,2.56-1.14,1.02,0,1.73.27,2.14.81.03.02.04.05.06.07.03.05.07.11.09.17.15.29.23.62.23,1.03v8.12h4.59l.03-8.04c0-.83-.05-1.46-.16-1.89Z"/>
          <path class="cls-19" d="m51,502.5c-1.4-1.1-3.09-1.65-5.1-1.65-1.38,0-2.56.28-3.56.86-.54.31-1.06.75-1.53,1.31v-1.89h-4.29v12.78h4.43v-1.65c.47.54.95.94,1.45,1.23.31.17.63.31.98.42h5c1.01-.29,1.9-.76,2.66-1.42,1.36-1.18,2.03-2.89,2.03-5.14s-.69-3.75-2.07-4.85Zm-3.54,7.88c-.64.71-1.6,1.08-2.85,1.08-.86,0-1.59-.18-2.23-.53-1.06-.6-1.59-1.63-1.59-3.12,0-.94.17-1.71.48-2.32.61-1.14,1.73-1.72,3.35-1.72,1.36,0,2.33.38,2.94,1.14.6.76.9,1.63.9,2.61,0,1.2-.33,2.15-.99,2.87Z"/>
          <path class="cls-19" d="m67.12,501.13v6.94c0,.82-.15,1.49-.45,1.98-.56.92-1.61,1.38-3.15,1.38-1.19,0-1.99-.33-2.4-.98-.23-.36-.35-.9-.35-1.63v-7.69h-4.6v7.69c0,1.46.25,2.56.74,3.31.56.88,1.47,1.47,2.73,1.78.69.17,1.49.26,2.39.26s1.66-.09,2.31-.25h.02c.65-.17,1.32-.5,2.01-.96.23-.15.43-.31.6-.5.17-.2.27-.32.31-.35v1.8h4.36v-12.76h-4.54Z"/>
          <path class="cls-19" d="m76.09,496.64v17.25h4.48v-17.25h-4.48Z"/>
          <path class="cls-19" d="m98.22,507.63c-.89-.64-2.23-1.11-4.01-1.42-2.68-.43-4.23-.74-4.67-.92-.44-.17-.66-.45-.66-.82,0-.31.2-.58.62-.8.42-.23,1.11-.35,2.08-.35,1.2,0,2.03.23,2.52.68.26.25.42.6.49,1.02h4.48c-.2-1.56-.97-2.66-2.31-3.3-1.25-.58-2.84-.9-4.77-.94-.15,0-.31,0-.47,0-1.75,0-3.19.25-4.33.76-.34.15-.64.31-.92.5-1.25.85-1.87,1.86-1.87,3.04,0,1,.41,1.77,1.2,2.3.8.54,2.17.98,4.11,1.34,2.7.48,4.26.81,4.68,1.01.42.19.62.49.62.85,0,.39-.26.69-.78.88s-1.22.29-2.1.29c-1.5,0-2.53-.22-3.08-.66-.32-.25-.52-.67-.62-1.26h-4.54c0,1.32.65,2.39,1.93,3.24.54.37,1.23.65,2.04.86h7.87c.76-.19,1.4-.45,1.92-.78,1.26-.8,1.89-1.83,1.89-3.1,0-.96-.43-1.76-1.32-2.4h0Z"/>
          <path class="cls-19" d="m114.26,501.7c-.25-.12-.5-.23-.77-.32-.98-.34-2.06-.53-3.26-.58-.2,0-.4-.01-.6-.01-1.56,0-2.93.25-4.11.74-.64.27-1.22.61-1.75,1.02-1.51,1.18-2.26,2.87-2.26,5.08,0,2.36.84,4.06,2.5,5.1.83.52,1.73.91,2.68,1.17h6.39c.42-.11.81-.25,1.18-.41v-3.36h-1.29c-.24.38-.52.67-.84.88-.58.39-1.32.58-2.25.58-.86,0-1.61-.16-2.23-.47-1.01-.52-1.55-1.42-1.62-2.7h8.23v-6.73Zm-8.11,4.53c.14-.82.5-1.48,1.07-1.97.57-.49,1.38-.72,2.41-.72.96,0,1.77.23,2.41.68.64.45,1,1.12,1.08,2.01h-6.96Z"/>
        </g>
        <g>
          <path class="cls-12" d="m.12,473.5v3.06h2.95v17.15h1.63v-17.15h2.96v-3.06H.12Z"/>
          <path class="cls-12" d="m14.58,473.5v8.04h-4.24v-8.04h-1.63v20.2h1.63v-9.12h4.24v9.12h1.63v-20.2s-1.63,0-1.63,0Z"/>
          <path class="cls-12" d="m19.8,490.64v-5.91h4.7v-2.89h-4.7v-5.3h5.08v-3.06h-6.71v20.2h6.8v-3.06h-5.17Z"/>
          <path class="cls-12" d="m30.63,473.5h-1.73l-3.58,20.2h1.69l.87-5.35h3.72l.88,5.35h1.75s-3.59-20.2-3.59-20.2Zm-2.31,12.17l1.41-8.69h.04l1.4,8.69h-2.84Z"/>
          <path class="cls-12" d="m33.01,473.5v3.06h2.95v17.15h1.63v-17.15h2.96v-3.06s-7.55,0-7.55,0Z"/>
          <path class="cls-12" d="m43.28,490.64v-5.91h4.7v-2.89h-4.7v-5.3h5.08v-3.06h-6.71v20.2h6.8v-3.06h-5.17Z"/>
          <path class="cls-12" d="m57.36,491.63c-.08-.98-.12-2.05-.12-3.24,0-.79-.05-1.45-.14-1.98-.09-.52-.21-.96-.35-1.28-.14-.33-.29-.57-.45-.72-.16-.15-.31-.24-.45-.29v-.06c.08-.06.21-.17.37-.34.17-.17.35-.44.52-.83.17-.39.33-.9.46-1.52.13-.63.19-1.43.19-2.4,0-1.71-.25-3.06-.77-4.02-.51-.96-1.28-1.44-2.31-1.44h-4.45v20.2h1.63v-8.32h2.41c.37,0,.68.1.92.31s.43.53.57.98c.14.44.23,1,.29,1.67s.08,1.47.08,2.39c0,.49,0,1.01.03,1.53.02.53.09,1.01.21,1.45h1.75c-.17-.42-.3-1.12-.39-2.08h0Zm-2-9.74c-.27.54-.66.81-1.19.81h-2.68v-6.31h2.65c.21,0,.41.03.6.11.2.09.37.23.52.46.15.23.27.54.36.95.09.4.13.92.13,1.56,0,1.08-.14,1.89-.41,2.42Z"/>
          <path class="cls-12" d="m65.49,476.56v-3.06h-6.43v20.2h1.63v-8.97h4.22v-2.89h-4.22v-5.3h4.8Z"/>
          <path class="cls-12" d="m68.43,490.64v-5.91h4.7v-2.89h-4.7v-5.3h5.08v-3.06h-6.71v20.2h6.8v-3.06h-5.17Z"/>
          <path class="cls-12" d="m81.95,486.26c-.08-.52-.19-1.02-.35-1.48-.15-.47-.34-.88-.56-1.23-.23-.36-.49-.64-.8-.85-.12-.07-.33-.19-.6-.36-.29-.16-.57-.33-.87-.49-.29-.17-.56-.33-.8-.47s-.37-.23-.41-.24c-.33-.21-.6-.52-.8-.92-.21-.4-.31-.96-.31-1.68,0-.5.06-.93.17-1.28s.25-.6.41-.8c.17-.19.35-.33.54-.43.21-.09.4-.13.59-.13.56,0,1.03.27,1.4.81.37.54.57,1.46.61,2.76h1.63c0-1.05-.09-1.98-.29-2.78-.19-.8-.45-1.48-.78-2.03-.33-.54-.7-.96-1.14-1.22-.43-.27-.89-.42-1.38-.42-.42,0-.83.12-1.24.36-.41.23-.78.6-1.1,1.09s-.58,1.11-.78,1.85c-.19.75-.29,1.63-.29,2.64,0,.53.03,1.05.1,1.55.06.5.17.99.33,1.45.15.45.37.86.63,1.23.27.37.6.66,1,.89.64.37,1.19.68,1.63.92.44.23.82.49,1.16.75.19.15.37.41.52.78.17.37.25.93.25,1.71,0,.39-.04.75-.11,1.12-.07.37-.19.69-.34.98-.16.29-.37.52-.62.69-.25.19-.55.27-.91.27-.33,0-.64-.07-.92-.23-.28-.17-.53-.42-.74-.76-.22-.35-.39-.8-.51-1.35-.12-.54-.19-1.21-.19-1.98h-1.63c0,1.25.12,2.33.33,3.24.21.92.49,1.67.84,2.25.35.58.76,1.02,1.22,1.3.47.29.97.43,1.5.43.47,0,.92-.12,1.36-.35.44-.23.84-.6,1.18-1.12.35-.52.63-1.16.84-1.97.21-.8.32-1.77.32-2.9,0-.53-.03-1.06-.11-1.59Z"/>
          <path class="cls-12" d="m82.59,473.5v3.06h2.95v17.15h1.63v-17.15h2.96v-3.06h-7.54Z"/>
          <path class="cls-12" d="m91.21,473.5v20.2h1.63v-20.2s-1.63,0-1.63,0Z"/>
          <path class="cls-12" d="m100.24,473.5l-2.39,15.99h-.03l-2.33-15.99h-1.7l3.11,20.2h1.81l3.18-20.2h-1.65,0Z"/>
          <path class="cls-12" d="m106.33,473.5h-1.73l-3.57,20.2h1.68l.88-5.35h3.72l.87,5.35h1.75s-3.59-20.2-3.59-20.2Zm-2.31,12.17l1.41-8.69h.04l1.4,8.69h-2.84Z"/>
          <path class="cls-12" d="m112.44,490.64v-17.14h-1.63v20.2h3.45v-3.06s-1.81,0-1.81,0Z"/>
        </g>
        <g>
          <path class="cls-19" d="m.5,429.77v13.99h4.33v-13.99H.5Z"/>
          <path class="cls-19" d="m32.15,432.89c-.16-.71-.47-1.31-.92-1.8-.57-.6-1.2-1.02-1.91-1.26-.7-.24-1.4-.37-2.12-.37-1.08,0-2.06.2-2.94.58-.83.38-1.52.98-2.08,1.81-.32-.69-.79-1.25-1.41-1.68-.77-.47-1.77-.71-3.02-.71-1.32,0-2.39.27-3.22.82-.47.31-.96.83-1.49,1.55v-2.04h-4.15v13.97h4.33v-8.42c0-.76.11-1.34.35-1.72.42-.68,1.24-1.02,2.46-1.02,1.04,0,1.75.34,2.11,1.02.2.37.3.98.3,1.81v8.32h4.3v-8.32c0-.62.11-1.16.35-1.61.45-.84,1.26-1.26,2.44-1.26,1.02,0,1.71.33,2.09.98.2.34.3.78.3,1.31v8.9h4.37v-.04l.03-8.78c0-.91-.05-1.59-.15-2.06h0Z"/>
          <path class="cls-19" d="m49.89,431.28c-1.33-1.21-2.94-1.81-4.85-1.81-1.31,0-2.43.32-3.38.94-.52.35-1.01.83-1.47,1.44v-2.07h-4.09v19.51h.21c.05-.15.11-.29.17-.44.65-1.34,1.86-2.02,3.63-2.02.07,0,.14,0,.21,0v-4.84c.45.59.91,1.04,1.38,1.34.03.02.07.05.11.07.84.5,1.87.76,3.12.76.09,0,.19,0,.27,0,1.91-.05,3.49-.7,4.72-1.93,1.29-1.29,1.94-3.17,1.94-5.63s-.66-4.11-1.98-5.32h0Zm-3.36,8.64c-.62.79-1.53,1.18-2.72,1.18-.82,0-1.52-.19-2.13-.58-1-.66-1.51-1.8-1.51-3.43,0-1.03.15-1.87.45-2.54.58-1.26,1.64-1.89,3.19-1.89,1.29,0,2.22.42,2.8,1.25.57.83.86,1.78.86,2.86,0,1.31-.31,2.36-.94,3.15h0Z"/>
          <path class="cls-19" d="m65.23,429.77v7.61c0,.9-.14,1.62-.42,2.17-.54,1.02-1.53,1.51-2.99,1.51-1.14,0-1.9-.35-2.29-1.06-.22-.4-.33-1-.33-1.79v-8.44h-4.37v8.44c0,1.6.23,2.81.7,3.63.84,1.49,2.46,2.23,4.88,2.23.84,0,1.57-.09,2.19-.28.62-.19,1.27-.54,1.94-1.06.22-.16.41-.35.56-.56.16-.21.27-.34.3-.39v1.98h4.15v-14h-4.33Z"/>
          <path class="cls-19" d="m73.77,429.25v14.52h4.27v-14.52h-4.27Z"/>
          <path class="cls-19" d="m94.83,436.91c-.85-.7-2.12-1.22-3.82-1.55-2.54-.48-4.03-.82-4.44-1.02-.42-.19-.63-.49-.63-.92,0-.33.2-.62.6-.87.39-.25,1.05-.37,1.98-.37,1.13,0,1.93.25,2.39.74.25.27.41.64.47,1.12h4.27c-.19-1.71-.92-2.92-2.2-3.63-1.28-.69-2.95-1.04-4.98-1.04-2.15,0-3.81.47-4.99,1.4-1.18.93-1.77,2.03-1.77,3.33,0,1.1.38,1.93,1.14,2.51.76.59,2.06,1.08,3.91,1.47,2.56.52,4.05.9,4.44,1.1.4.21.6.52.6.94s-.25.75-.74.96c-.5.21-1.16.33-2,.33-1.43,0-2.41-.25-2.94-.73-.3-.27-.49-.74-.58-1.39h-4.33c0,1.44.61,2.62,1.83,3.55.83.63,1.97,1.05,3.43,1.26.68.09,1.44.14,2.25.14,1.95,0,3.49-.26,4.66-.79h0c.34-.15.64-.33.92-.52,1.2-.88,1.8-2.01,1.8-3.4,0-1.05-.42-1.93-1.26-2.62h0Z"/>
          <path class="cls-19" d="m113.29,435.01c-.19-1.09-.6-2.05-1.24-2.88-.71-.94-1.61-1.63-2.7-2.07-1.08-.44-2.31-.66-3.67-.66-2.29,0-4.15.64-5.57,1.94-1.44,1.29-2.15,3.15-2.15,5.57,0,2.59.79,4.46,2.38,5.6,1.59,1.15,3.42,1.72,5.49,1.72h.21c1.57-.03,2.91-.33,4.03-.9.6-.31,1.15-.69,1.62-1.15.9-.86,1.4-1.69,1.51-2.52h-4.36c-.23.41-.49.73-.8.96-.54.43-1.26.64-2.14.64-.82,0-1.53-.17-2.13-.52-.96-.56-1.48-1.55-1.54-2.96h11.17c.02-1.2-.03-2.13-.13-2.77h0Zm-10.93.37c.14-.91.48-1.63,1.02-2.16.54-.52,1.31-.8,2.3-.8.91,0,1.67.25,2.29.75.61.5.96,1.23,1.02,2.21h-6.63Z"/>
        </g>
      </g>
    </g>
  </g>
</svg>