<?xml version="1.0" encoding="UTF-8"?>
<svg id="Ebene_2" data-name="Ebene 2" xmlns="http://www.w3.org/2000/svg" xmlns:xlink="http://www.w3.org/1999/xlink" viewBox="0 0 82.5 76.7">
  <defs>
    <style>
      .cls-1 {
        fill: none;
      }

      .cls-2 {
        clip-path: url(#clippath);
      }

      .cls-3 {
        fill: #da91b3;
      }

      .cls-4 {
        fill: #221f1d;
      }

      .cls-5 {
        fill: #1d1d1b;
      }

      .cls-6 {
        clip-path: url(#clippath-1);
      }
    </style>
    <clipPath id="clippath">
      <rect class="cls-1" x="0" width="82.5" height="76.7"/>
    </clipPath>
    <clipPath id="clippath-1">
      <polygon class="cls-1" points="41.7 58.6 68 57.7 67.3 23.5 41 24.3 41.7 58.6"/>
    </clipPath>
  </defs>
  <g id="Ebene_1-2" data-name="Ebene 1">
    <g class="cls-2">
      <g>
        <path class="cls-3" d="m77.6,67.2h0c.1.2.1.3.1.5-1.6,5.2-12.7,8.1-28.5,8.2-15.5,0-28.7-2.1-28.4-7.8"/>
        <path class="cls-5" d="m49.1,76.7c-8.6,0-23.4-.7-27.7-5.3-.9-1-1.4-2.1-1.3-3.4l1.7.1c-.1.8.2,1.5.8,2.1,2.9,3,12.5,4.8,26.5,4.8h.2c15.2,0,26-2.9,27.6-7.4v-.1l-.1-.4.2-.4.7.4h0v-.9l.7.4v.1h.1c.1.2.1.5.1.8v.2c-1.7,5.5-12.6,8.7-29.3,8.8l-.2.2h0Z"/>
        <path class="cls-3" d="m81.3,7.8c.9,6-14.9,5.9-31.6,5.9s-30.8,2.7-30-5.9c.4-3.9,14.3-6.7,31-6.7s29.8,1.4,30.6,6.7"/>
        <path class="cls-5" d="m50.7,2.3c-18.1,0-29.6,3.3-29.8,5.7-.1,1.3.1,2.2.8,2.9,2.3,2.5,9.7,2.2,18.2,1.9,3.2-.1,6.5-.2,9.9-.2h.9c13,0,26.4,0,29.2-3.2.3-.4.5-.8.4-1.4-.5-2.6-6-5.7-29.6-5.7m-18.4,13c-5.8,0-10.1-.5-12.3-2.8-1.1-1.2-1.6-2.8-1.4-4.7C19.1,2.5,35.6.1,50.7.1c21.4,0,30.9,2.3,31.7,7.7.2,1.2-.1,2.3-.9,3.2-3.4,4-16.2,4-30.9,4h-.9c-3.4,0-6.7.1-9.8.2-2.7,0-5.3.1-7.6.1"/>
        <path class="cls-5" d="m74.9,7.6c0,1.5-10.9,2.7-24.3,2.7s-24.3-1.2-24.3-2.7,10.9-2.7,24.3-2.7,24.3,1.3,24.3,2.7"/>
        <path class="cls-3" d="m20.9,68.5h0l-1.6-57.9c0-.5.8-1.2,1-.7,1.2,2.2,12.7,3.6,28.4,3.6,19.3,0,32.3-.4,32.6-4.5l-3.7,59.5h0"/>
        <path class="cls-5" d="m77,67.9l.6.6-.6-.6Zm.6,1.4h-.9l3.6-57.7c-3.8,2.2-13.7,2.7-31.6,2.7-6,0-24.8-.3-28.6-3.5l1.6,58.5h-.9v-.8l-.6.6-.1-.6h-.1l-1.6-57.9c0-.7.6-1.5,1.3-1.7.5-.1,1,.1,1.3.6.6,1.2,8.7,3.2,27.6,3.2,13.3,0,31.5,0,31.8-3.7l1.7.1h0l-3.7,59.3.1.3-.4.4-.6-.6.1.8h0Z"/>
        <path class="cls-3" d="m.8,39.9c0,16.2-.1,22.9,20.6,25.4h2.1c1.6-.3,3.1-1.8,3.1-4.1,0-2.5-2.3-5-4.1-5.1l-.4-.1c-7.5,0-15.2-4.2-13-16.1,1.6-8.2,6.5-16,14-16h0c1.5-.1,2.8-2,2.8-4.2s-1.2-4.1-2.6-4.2c-.1,0-2.2-.1-2.6,0-.4,0-2,.1-2.4.2-.6.1-1.2.3-1.9.6h-.1c-.7.2-1.3.5-2,.8-.6.3-1.3.7-1.9,1-1,.6-2,1.4-2.9,2.1-.2.2-.4.4-.7.6-.2.2-.4.4-.6.6C3.6,26,.8,32.6.8,39.9"/>
        <path class="cls-5" d="m21.5,64.5h1.9c1.2-.3,2.4-1.4,2.4-3.3,0-2.1-2-4.2-3.3-4.2l-.5-.1c-4.9,0-9-1.7-11.4-4.7-2.5-3-3.3-7.2-2.3-12.5,2.2-11.9,8.9-16.3,14.2-16.6h.5c.9-.1,1.9-1.4,1.9-3.4,0-1.8-.9-3.3-1.9-3.4h0c-.3,0-2.1-.1-2.4,0-.1,0-.4,0-.7.1-.4,0-1.4.1-1.6.2-.6.2-1.2.3-1.8.5h-.2c-.6.2-1.2.5-1.8.8s-1.2.6-1.8,1c-1,.6-1.9,1.3-2.8,2.1l-.7.6c-.2.2-.4.4-.6.6-4.5,4.6-7,11.1-7,17.8v.3c.1,15.8.1,21.8,19.9,24.2m1,1.7h-1.2C0,63.6,0,56.3,0,40.2v-.3c0-7.2,2.7-14.1,7.5-19l.1-.1c.2-.2.4-.4.6-.6l.7-.6c1-.9,2-1.6,3-2.2.6-.4,1.3-.8,2-1.1.7-.3,1.4-.6,2.1-.9h.2c.6-.2,1.2-.4,1.8-.5.3-.1,1-.1,1.9-.2.3,0,.5,0,.6-.1h2.8c1.9.2,3.4,2.4,3.4,5.1s-1.5,4.9-3.5,5.1l-.4.1-.1-.1c-6.9.3-11.3,7.8-12.7,15.3-.9,4.7-.2,8.4,1.9,11.1,2.9,3.5,7.6,4.1,10.2,4.1h.1l.4.1c2.2.1,4.9,2.9,4.9,6,0,2.9-2,4.6-3.8,5-.1-.2-.2-.2-1.2-.2"/>
      </g>
    </g>
    <g class="cls-6">
      <path class="cls-4" d="m55.8,46c-.8-2.1.1-2.3,1.9-3.6,2.6-1.8,4.9-3.2,7.6-1.1.7.5,2.8,1.5,2.2.5-3.1-5.4-7.7-17.7-8.5-18.1-.6-.3-.5.9-.9,3.3-.4,2.9-3,4.9-4.8,6.7-3.1,3.3-10.4,8.4-12.1,10.9,0,0,3.7,7.1,4.8,6.4,1-.7,5.3-4.8,5.7-3.6.5,1.3,2.8,7.3,3.8,10.4.1.2.3.4.5.3,1-.3,2-.6,3.1-.8.4-.1.6-.6.5-1-.6-2.6-2.9-7.7-3.8-10.3"/>
    </g>
  </g>
</svg>