<svg xmlns="http://www.w3.org/2000/svg" version="1.1" xmlns:xlink="http://www.w3.org/1999/xlink" xmlns:svgjs="http://svgjs.dev/svgjs" width="97.31" height="161.74"><svg id="SvgjsSvg1102" data-name="Ebene 2" xmlns="http://www.w3.org/2000/svg" xmlns:xlink="http://www.w3.org/1999/xlink" viewBox="0 0 97.31 161.74">
  <defs>
    <style>
      .cls-1, .cls-2 {
        fill: none;
      }

      .cls-3 {
        clip-path: url(#clippath);
      }

      .cls-4 {
        fill: #fbf7d0;
      }

      .cls-2 {
        stroke: #1d1d1b;
        stroke-width: 2px;
      }

      .cls-5 {
        clip-path: url(#clippath-1);
      }
    </style>
    <clipPath id="SvgjsClipPath1101">
      <rect class="cls-1" width="97.31" height="161.74"></rect>
    </clipPath>
    <clipPath id="SvgjsClipPath1100">
      <rect class="cls-1" width="97.31" height="161.74"></rect>
    </clipPath>
  </defs>
  <g id="SvgjsG1099" data-name="Ebene 1">
    <g class="cls-3">
      <path class="cls-4" d="m20.77,118.58s-11,1.09-14-19.37c-3-20.46-.47-54.57-.47-63.66s-15.47-4.55,6.5-15.92C34.77,8.26,23.51,3.72,55.64,5.99c32.13,2.27,32.13-11.37,33.13-1.14s.49,67.07.49,73.89.63,19.28.63,29.56,14.12,11.43.5,11.43c-8.99,0-29.03.49-41.62.83-6.49.17-10.99.31-10.99.31,0,0-3.88-2.36-7.88-2.36s-9.12.08-9.12.08"></path>
      <path class="cls-2" d="m20.77,118.58s-11,1.09-14-19.37c-3-20.46-.47-54.57-.47-63.66s-15.47-4.55,6.5-15.92C34.77,8.26,23.51,3.72,55.64,5.99c32.13,2.27,32.13-11.37,33.13-1.14s.49,67.07.49,73.89.63,19.28.63,29.56,14.12,11.43.5,11.43c-8.99,0-29.03.49-41.62.83-6.49.17-10.99.31-10.99.31,0,0-3.88-2.36-7.88-2.36s-9.12.08-9.12.08Z"></path>
      <path class="cls-4" d="m29.33,136.48v15s-11.92,8.6-4.44,7.6c7.48-1,14.99-5.6,14.99-5.6,0,0,.32,4.6.32-6.2s.5-15.8.5-15.8l.19-10.32-11-1.87-.56,17.19Z"></path>
      <path class="cls-2" d="m29.33,136.48v15s-11.92,8.6-4.44,7.6c7.48-1,14.99-5.6,14.99-5.6,0,0,.32,4.6.32-6.2s.5-15.8.5-15.8l.19-10.32-11-1.87-.56,17.19Z"></path>
      <path class="cls-4" d="m58.89,120.79c1,16,5.53,22,5.53,26s-5.18,2-1.86,7c3.33,5,8.33,9.72,17.33,5s14-9,14-9l-7-4s-6.63,15-10.82-3-5.18-22-5.18-22h-12Z"></path>
      <path class="cls-2" d="m58.89,120.79c1,16,5.53,22,5.53,26s-5.18,2-1.86,7c3.33,5,8.33,9.72,17.33,5s14-9,14-9l-7-4s-6.63,15-10.82-3-5.18-22-5.18-22h-12Z"></path>
    </g>
    <g class="cls-5">
      <path class="cls-4" d="m37.44,30.97c2.7-.38,4.42-4.01,3.85-8.11-.58-4.1-3.24-7.12-5.94-6.74-2.7.38-4.42,4.01-3.85,8.11.58,4.1,3.23,7.12,5.94,6.74"></path>
      <path class="cls-2" d="m37.44,30.97c2.7-.38,4.42-4.01,3.85-8.11-.58-4.1-3.24-7.12-5.94-6.74-2.7.38-4.42,4.01-3.85,8.11.58,4.1,3.23,7.12,5.94,6.74Z"></path>
      <path class="cls-4" d="m78.54,44.01l-23.69,2.71s-6.76,2.71-6.76,8.13-.68,10.84-.68,10.84c0,0,2.03,2.88,4.73.08,2.7-2.79,4.88-5.5,4.88-5.5l9.99-4.77s-6.19-2.06,2.71,0c8.89,2.06,8.89,4.11,8.89,2.06s-1.93,2.66.68-2.06c2.6-4.72.59-4.72.59-4.72l1.42-5.42-2.76-1.36Z"></path>
      <path class="cls-2" d="m78.54,44.01l-23.69,2.71s-6.76,2.71-6.76,8.13-.68,10.84-.68,10.84c0,0,2.03,2.88,4.73.08,2.7-2.79,4.88-5.5,4.88-5.5l9.99-4.77s-6.19-2.06,2.71,0c8.89,2.06,8.89,4.11,8.89,2.06s-1.93,2.66.68-2.06c2.6-4.72.59-4.72.59-4.72l1.42-5.42-2.76-1.36Z"></path>
    </g>
  </g>
</svg><style>@media (prefers-color-scheme: light) { :root { filter: contrast(1) brightness(1); } }
@media (prefers-color-scheme: dark) { :root { filter: none; } }
</style></svg>