<?xml version="1.0" encoding="UTF-8"?>
<svg id="Ebene_2" data-name="Ebene 2" xmlns="http://www.w3.org/2000/svg" viewBox="0 0 263.91 90.81">
  <defs>
    <style>
      .cls-1 {
        letter-spacing: -.02em;
      }

      .cls-2 {
        letter-spacing: -.07em;
      }

      .cls-3 {
        stroke-width: .62px;
      }

      .cls-3, .cls-4, .cls-5 {
        fill: none;
        stroke: #221f1d;
        stroke-miterlimit: 10;
      }

      .cls-4 {
        stroke-width: 1.25px;
      }

      .cls-6 {
        font-family: Helvetica-Bold, Helvetica;
        font-size: 28.67px;
        font-weight: 700;
      }

      .cls-6, .cls-7 {
        fill: #221f1d;
      }

      .cls-7 {
        font-family: Helvetica, Helvetica;
        font-size: 25.85px;
      }

      .cls-5 {
        stroke-width: 1.87px;
      }
    </style>
  </defs>
  <g id="Ebene_2-2" data-name="Ebene 2">
    <g>
      <g>
        <path class="cls-4" d="m43.32,44.05c-4.71.29-10.29-1.24-12.45-5.26-2.17-3.99-.11-10.1,4.6-10.38,4.71-.23,10.29,5.02,12.45,8.86,2.17,3.94.11,6.32-4.6,6.78Z"/>
        <path class="cls-5" d="m46.54,49.51c-8.57.75-18.72.56-22.67-5.21-3.95-5.74-.19-21.95,8.38-22.96,8.57-.56,18.72,11.96,22.67,17.13,3.95,5.55.2,9.43-8.38,11.03Z"/>
        <path class="cls-5" d="m49.68,54.13c-6.17,1.64-12.91,1.68-18.82,2.22-5.91.26-10.98,1.03-13.82-2.21-5.68-4.85-.28-37.24,12.06-39.9,6.17-1.49,12.91,5.03,18.82,10.77,5.91,6.03,10.98,11.28,13.82,13.95,5.68,4.46.28,11.29-12.06,15.18Z"/>
        <path class="cls-4" d="m52.4,57.48c-7.98,3.12-16.66,3.44-24.24,6.24-7.58,2.21-14.07,6.9-17.66,5.01-3.59-1.22-3.61-13.85-.73-28.45,2.87-14.31,8.64-30.6,16.62-32.26,7.98-2.88,16.66,7.66,24.24,15.26,7.58,8.22,14.06,13.5,17.66,14.45,3.59,1.01,3.61,2.75.73,6.96-2.87,3.88-8.64,10.23-16.62,12.79Z"/>
        <path class="cls-3" d="m55.34,60.35c-9.85,5.52-20.55,5.86-29.89,12.22-9.34,5.23-17.32,16.47-21.72,17.71-4.4,2.38-4.4-15.15-.83-37.52C6.47,30.94,13.6,4.28,23.45,1.3c9.85-5.16,20.55,11,29.89,20.46,9.34,10.62,17.32,14.55,21.72,11.89,4.4-2.7,4.4-1.72.83,4.85-3.57,5.96-10.7,17.49-20.55,21.85Z"/>
      </g>
      <text class="cls-7" transform="translate(111.13 35)"><tspan x="0" y="0">IMPULSE</tspan></text>
      <text class="cls-6" transform="translate(83.55 51.72)"><tspan x="0" y="0">Theater </tspan></text>
      <text class="cls-6" transform="translate(113.37 74.58)"><tspan x="0" y="0">FESTI</tspan><tspan class="cls-2" x="81.23" y="0">V</tspan><tspan x="98.24" y="0">A</tspan><tspan class="cls-1" x="118.95" y="0">L</tspan></text>
    </g>
  </g>
</svg>