<?xml version="1.0" encoding="UTF-8"?>
<svg id="Ebene_2" xmlns="http://www.w3.org/2000/svg" version="1.1" viewBox="0 0 107.5 80">
  <!-- Generator: Adobe Illustrator 30.0.0, SVG Export Plug-In . SVG Version: 2.1.1 Build 123)  -->
  <defs>
    <style>
      .st0 {
        fill: #1d1d1b;
      }

      .st1 {
        fill: #ffed00;
      }

      .st2 {
        fill: #000d1c;
      }
    </style>
  </defs>
  <g id="Ebene_2-2">
    <g>
      <g>
        <ellipse class="st1" cx="53.2" cy="38.8" rx="22.4" ry="23.1"/>
        <g>
          <path class="st2" d="M82,38.6c0,.3,1,.2,1.2.2-.3-.5-1.5-.2-1.2-.2Z"/>
          <path class="st2" d="M79.1,34.6h.5c-.4-.1-.8-.3-1.2-.4,0,0,.7.4.7.4Z"/>
          <path class="st2" d="M78.3,30.9c-.9.4-.7.7-.4,1,.3.3.8.6.5,1l-.4.2h1.6c-.4-.8-1.7-1.6-1.3-2.3h0Z"/>
          <path class="st2" d="M81.5,27.5c-.6.4-.8-.2,0,.6,0,0,0-.1.1-.2,0,0,0-.2-.1-.4Z"/>
          <path class="st2" d="M81.6,27.9c.2.4.5-.5,0,0h0Z"/>
          <path class="st2" d="M80.4,26.1l.9.3c.3-.3.2-.8.6-.8-.6-.4-.9-.1-1.4.5Z"/>
          <path class="st2" d="M78.9,26.2l.4.2c.1-.1.2-.2-.4-.2Z"/>
          <path class="st2" d="M80.1,26.7l-.8-.3c-.2.2-.8.5.3.2-.5.2,0,0,.5.2h0Z"/>
          <path class="st2" d="M80,27.1c-.2.5-.4.9-1.2.7.6.9,1.8.3,1.2-.7Z"/>
          <path class="st2" d="M76.4,31.3c-.1.2-.3.3-.4.5h.7c-.3,0,.3-.7-.3-.5Z"/>
          <path class="st2" d="M79.5,22.3c-.4.2-.8.7-1.2,1h.6c.1-.2.1-.7.6-1h0Z"/>
          <path class="st2" d="M78.3,23.4l-.9-.2c.2.5.6.5.9.2Z"/>
          <path class="st2" d="M77,27c.6,0,1.1.2,1.7.3-.6-.2-1.2-.3-1.8-.5v.2c0,0,.1,0,.1,0Z"/>
          <path class="st2" d="M78.1,20.1l1-.2c-.5,0-1,.2-1.5.3h.6s0,0,0,0Z"/>
          <path class="st2" d="M77,18.8c.8-.3.7-1.1,1.3-1.2-.4-.3-1.2-.2-1.9,0,.5,0,.7.5.6,1.2Z"/>
          <path class="st2" d="M75.3,17.7c.3,0,.6,0,1-.1-.3,0-.6,0-1,.1Z"/>
          <path class="st2" d="M77,22.1c.2-.2.6-.6.6-1.1l-.8.8c0,0,0,.1.1.2Z"/>
          <path class="st2" d="M76.8,21.9h0c-.1-.3-.2-.4-.3-.5,0,0,.1.2.2.5h0Z"/>
          <path class="st2" d="M77,22.2s0,0,0,0c0,0-.1.1,0,0Z"/>
          <path class="st2" d="M77.2,25.1c-.7,0-1.7-.3-2.2.8.8-.2,1.1-.8,2.2-.8Z"/>
          <path class="st2" d="M76,23.2v.7c.4-.2.7-.5,1-.5l-1-.2Z"/>
          <path class="st2" d="M75.5,23.1c.2,0,.3,0,.5,0,0,0,0-.2,0-.3,0,0-.4.2-.4.2Z"/>
          <path class="st2" d="M75.3,19.3c-.6,0-.8-.1-1.1-.3,0,.4.3.8.5,1.1.3-.2.9-.5.6-.8Z"/>
          <path class="st2" d="M76,20.6s0,0,0,0c0,0,0,.1,0,0Z"/>
          <path class="st2" d="M71.7,16.5c0,0,0,.1,0,.2,0,0,0,0,.1-.1h0Z"/>
          <path class="st2" d="M74.6,20.2c0,.4.3.3.7.2-.2-.1-.4-.2-.6-.4-.1,0-.2.2-.1.2Z"/>
          <path class="st2" d="M74.3,17.3c0,.3,0,.5-.1.8.2-.4.4-1,.1-.8Z"/>
          <path class="st2" d="M76.1,20.4h0c.1-.2,0-.1,0,0Z"/>
          <path class="st2" d="M76.1,20.4c-.2,0-.5,0-.8.1.2,0,.4.1.6.2,0,0,.1-.2.2-.3Z"/>
          <path class="st2" d="M66.4,21.4c.7-.8,1.8-1.2,1.4,0,.9-.2,3-3,3.8-4.8-.3.3-.6.6-1.5.7-.2.6.1,1.9-.9,2.3-.9-.1-.2-.7-.2-1.4-.6,1.2-2,.9-3,2.5l.9-.2c-.2.2-.6.5-.7.8h0Z"/>
          <path class="st2" d="M72.5,17.6h.3c-.1-.3,0-.7.3-1.6-.7,0-1,.3-1.3.5l.9,1h-.2Z"/>
          <path class="st2" d="M73.6,18.6c-1,.6-1.7.5-2.3,1.6.5.5,1-.3,1.7-.3-1-.7.7-.2.6-1.3.3,0,.5.2.7.3,0-.3,0-.6,0-.9,0,0,0,0,0,0h0s0,0,0,0c0,.1-.1.2-.1.1,0,0,0,0,0,0-.1.1-.2.2-.4.3,0-.4.2-.3.4-.3,0,0,0,0,.1-.1h0c-.4-.2-.9-.4-1.4-.5,0,.3.4.5.9.9h0Z"/>
          <path class="st2" d="M72.6,26.6c0,0,.1-.1.2-.2-.2,0-.3,0-.2.2Z"/>
          <path class="st2" d="M73,25.9c.2,0,.6-.2.6,0-.2.4-.5.3-.8.5.3,0,1,0,1.2-.6h-.2c.1-.6,1-1.8,1.2-1.9-.8.7-1.3,1.2-2,1.9h0Z"/>
          <path class="st2" d="M73.3,22.5c-.3-.2-.7-.3-1-.4-.1.3-.3.7-.5,1l.4-.4c.1.6.6,0,1-.2Z"/>
          <path class="st2" d="M72,16l.9-.8c-.5.3-1.1.6-1.6.9.2,0,.5,0,.7,0h0Z"/>
          <polygon class="st2" points="70.8 15.2 71.5 14.4 70.8 14.6 70.8 15.2"/>
          <path class="st2" d="M39.3,47.3h.4c-.1,0-.2,0-.4,0Z"/>
          <path class="st2" d="M38.7,46.1l-.5.2c.3,0,.5-.1.5-.2Z"/>
          <path class="st2" d="M37.7,13.8c-.9-.6-2.3-1.5-1.5-.6l.8.9c.2-.3.5-.4.8-.3h0Z"/>
          <path class="st2" d="M31.4,34.4c.1,0,.2,0,.4,0-.4-.2-.7-.3-1-.5.2.2.4.3.7.5h0Z"/>
          <path class="st2" d="M36.1,35.5l-.8.3c.3,0,.5-.1.8-.3Z"/>
          <path class="st2" d="M44.7,51.7l.8-.8c-.2-.2-.5.4-.8.8Z"/>
          <path class="st2" d="M57.3,9.8c-.3-.5-.6-.7-.9-.8.4.7.7,1.8.9.8Z"/>
          <path class="st2" d="M28.3,52.5c.3,0,.5,0,.7-.1-.3,0-.5,0-.7.1Z"/>
          <path class="st2" d="M55.2,8.9c0,.1.1.2.2.3.3-.2.6-.3,1-.2-.3-.5-.7-.8-1.2,0h0Z"/>
          <path class="st2" d="M66.4,48c0,0,0,0,.1,0-.1,0-.1,0-.1,0Z"/>
          <path class="st2" d="M80.3,42.5c0,.1,0,.3,0,.5,0,0,.1-.2,0-.5Z"/>
          <path class="st2" d="M66.1,11.6c.3,0,.1,0,0,0h0Z"/>
          <path class="st2" d="M65.3,16.3c-.1,0-.2.2-.4.4.2-.2.3-.4.4-.4Z"/>
          <path class="st2" d="M52.4,15.9h0c0,.2,0,.2,0,0Z"/>
          <path class="st2" d="M66.3,12.3c0-.2-.1-.3-.2-.5,0,.1,0,.3.2.5Z"/>
          <path class="st2" d="M66.5,11.8c0,0,.1.2.2.2.1-.2.2-.3-.2-.2Z"/>
          <path class="st2" d="M65.7,11.5c.2,0,.3.2.4.3,0,0,0-.2,0-.2,0,0-.2,0-.4-.1Z"/>
          <path class="st2" d="M55.7,58.2s0,0,0,.1c.1-.5,0-.4,0-.1Z"/>
          <path class="st2" d="M40.6,26.8s0,0,0,0c0,0,0,0,0,0h0Z"/>
          <path class="st2" d="M40.8,27.8c-.9-1.1-.7-1.1-.3-1.1-.9-.7-1.7-1.3-2.6-2,1,1.1,1.9,2.1,2.9,3.1h0Z"/>
          <path class="st2" d="M41.3,49.7c.2-.3.3-.6.5-1,1.6-.7,1.4-.2,2.2-1.3-1.4,1.1-1.7,1-2,.7-.3-.3-.6-.5-2.1.5l.5-.6c0,0,.2,0,.2,0,.5-.7,0-.4-.8,0-.7.3-1.6.7-1.6.2.1-.4.5-.8.9-.8-.4,0-.7,0-1.1,0,0-.2.6-.4.6-.3l-.6-.7h.1c-.6,0-1.5.2-1.9.2.4-.4.4,0,.8-.3-.3,0-.7,0-1-.1.8-.5,1.8-.5,1.8-.1,1.5-.9,1.3-.9.9-.9-.4,0-1.1,0-.2-.8l.6.2c1.8-.9,1-1,2.1-1.7-.3.1-1,.6-1.7,1-.7.4-1.5.8-2,.7.2-.2.3-.4-.5-.5,1.2-.4.9-.5.7-.8l1.6-.4c-.6-.2-1.4,0-2.2,0,0-.4,1.3-.8,2.4-1.1,0-.3-.4-.1-1,0-.6.2-1.2.4-1.4,0,.3-.3.2-.5,0-.8-.3-.2-.7-.4-1.2-.7.6-.4,1,0,1.5-.2-.5,0-.9-.2-1.4-.3,0,0,.4,0,.7,0-.5-.3-1.7,0-2.2-.4-.9,0-.3-.3.4-.7.7-.3,1.3-.6.3-1,.5-.1,1,.1,1.7.1-.7-.4-.9-.6-1.2-.8-.3-.2-.6-.4-1.5-.8.4-.2.8-.3,1.2-.4-1.3.2-2.7-.5-3.8-1.3-.6,0-1.2.1-1.4.2-.2-.4-.5-.8-.7-1.2.3,0,.8.2,1.5.5-.1,0-.2-.2-.4-.3.7-.2,1.6.2,2.5.6-.4,0-.7,0-1.1.1,1,.4,2.1.8,3,.9-.2,0-.3-.2-.4-.3.3.1.5.2.7.2.2,0-.2-.1-.6-.4l1.9.2-.7-.2c.5-.2.9-.5,1.4-.7-.5-.3-.9-.6-1.4-.9-.5-.3-.9-.7-1.3-1-.8-.7-1.5-1.5-1.6-2.3,1.1.8,2.1.9,3.5,1.6-.9-.2-.8.1-.5.5.2.4.6.8.4,1,.3-.2,1,0,1.2.2-.4-.5-.8-1-1.1-1.5,1.2.5,1,.2,1.6.1-2.5-.8-1.3-1.4-1.8-2.2.8.4,1.6.9,1.2,1.2,1,.2.4-.3-.3-.9-.7-.5-1.3-1.1-.4-1,0,.1-.2.1.2.4-.5-.6.4-1,1-.5h0c.6-.5,1.4-2-.2-3.5.2.2,2,1.8,2.4,2.1-1.7-1.9-3.2-4-4.6-6.2.7.7,1.9,1.7,3.1,2.7,1.1,1,2.1,2,2.3,2.6.3,0,.7,0,.5-.7-.3-.1-2.2-1.7-2.2-1.9,1,.5,1.2.7,1.5.8.3.1.5.2,1.3.6-.4-.2-2.3-2.5-2-2.7.3.4,2,2.2,2.1,2.5-.5-.9-.9-1.9-1.3-2.8.2.5,1.6,1.9,2.2,2.5-.4-.4.6-.4.5-.7l-.7-.3c.5,0,0-1.1-.4-2.1-.4-1-.8-2.1-.3-2.3.2.6,1.8,3.3,2.3,3.4-.3-.7-1-2.4-1.6-4.1-.5-1.7-.9-3.5-.6-4.3l.6.7c.1-.4.2-.9.4-1.3.2,1.1.5,3,.8,4.7.3,1.8.7,3.4,1,4.3.6.4.6.8,1,.6.5.7.4,1.2.3,1.3h1.1c-.4-.7-.4-1.2-.4-1.7,0-.5,0-.9-.2-1.5,0,.3-.2.7-.2,1.1,0,.4,0,.7-.1,1.1-.4-.8-.8-2-1-3,0-.5,0-1,0-1.4,0-.3.3-.6.5-.6.5.6,1,3,1.2,3.5-.1-.6.3-1.4.5-1v1c.3.2.3-.4.3-.9,0-.5.2-.9.7-.1.2,0,1.1,2.1.9,1-.7-1.9-2.5-7.9-2.6-9.4,0,0,.5.4,1,.9.5.5,1,1.1,1.2,1.6.3.7.4,1.7.4,2.6,0,.9,0,1.8.3,2.5,0-.5,0-1.1,0-1.3.3.4.2,1.5.6,1.2-.2-1.8.9,0,0-1.5.4-.6.5.3,1.1.2-.1-.6-.1-1.6,0-2.5.2-.9.4-1.8.7-2,0,.5.1,1,.2,1.3.3,0,.5,0,.7.2.2.1.4.2.6.4.4.2.8.5,1.2.5,0,.4.4,1,.2,1.7.2-.3.4-.9.6-.9.3,1.6-.6.1-.5,2.1.2-1,.9-1.3,1.4-1.9.2-1.6-.9-.5-1.4.1.2-2.2,1.3-4.4,2.7-5.2,1.1-.3.1,1.5.3,1.2.8.4,1.4-.4,2-1.1.3-.3.6-.7.8-.8.3,0,.5,0,.8.6,0,1.5-.9,2.7-1.2,3.7-.4.1-.6-.2-.7-.5-.2-.3-.3-.7-.5-.8l.4.8c-.4.4-.9.6-1,.2,0,.7.7.9,1.4,1.2.7.3,1.5.6,1.8,1.5.4-.3,1-.6,1-1.2h-.4c.1-1.2,1.4-1.1,1.2-1.8.9-.5,2.1-1.3,2.5-.2l-.7,1.5c.2-.4,0-1.1-.4-.8.3-.2.3.4.4.9,0,.5.2.8,1,0,0-.4,0-.8.1-1.3.9-.4,2.6-1.4,3-.4.6-1.5-.2,0,.4-1.8-.9,2.2-1.8-1.3-2.4,1.2.3-1.1.2-1.4,0-1.7-.2-.3-.3-.6-.3-1.6-.2.5-.2,1-.8.5-.1.1-.3.3-.4.3,0,0,0,0,0,0h0c0,.1,0,.1,0,.1,0,.3,0,.6,0,.9-.9.9-1.8.4-2.4.8-.2-.4.4-.5.4-1.1-.3.2-.6.4-.9.6.4-1.1-.3-2.2.9-2.5l-.8-.4c-.3-.8-.9-1.3-1.5-1-.4-.4-1.4,1-.8.2-.5.1-1,.2-1.6.3v-.3c-.6-.3-1.4.1-2.2.2-.8.1-1.5,0-2.2-1.1-.5.3-1,.6-1.7.2v-1c-.4.2-.9,0-1.3-.2s-.8-.2-.9.3c-.2-.7-.5-1-.9-1.2-.2,0-.4-.1-.6-.1-.2,0-.4,0-.6.1-.8.3-1.6.8-2.2.7l.2,1.3c-.7,0-1.4.7-2.1,1.4l.4,1.1c-.2.6-.7.5-1.3.4-.6-.1-1.3-.3-1.8,0-.1-.4.2-.5.5-.3-.6-.5-1-.6-1.4-.4-.3.2-.6.6-.8,1-.4.9-.7,1.7-1.7,1.2,0,.5-.3.5-.7.4,0,0,0,0,0,0,0,0,0,0-.1,0-.2,0-.5-.2-.7-.3.3.2.5.3.7.3-.2.2-.4.5-.6.9l-.9-1s0,0,0,0c-.6-.2.1.7.8,1.3,0,.3,0,.6,0,.9-.7-.7-.8-.5-.9-.2-.1.3-.2.5-1.1-.2.2.5,0,.9-.1,1.5-.1.6,0,1.2.6,2.1-.2-.2-.4-.2-.3-.4-.4,0-.9.2-.7.8l-1.3-1c.3.7.7,1.4,1,2.1-1-.3-1.6-.5-2.2-1.7.3,1.1.3,1.4.3,1.7,0,.3,0,.5.4,1.5l-.8-.7c-.2.3.6,1.6-.2,1.3-.5-.1-.9,0-1.3.3-.4.3-.7.8-1,1.3-.7,1-1.2,2.2-2.6,2.9,1.5.4,1.1.5.6.6-.5.1-1.1.3,0,.8-.7-.1-1.2,0-1.7-.5.1.7-.3,1-.5,1.3-.3.3-.3.7.6,1.3-.7,0-1-.5-1.4-.5.1.1.5.5,0,.5-.4,0-.5-.3-.8-.6-.2,1.3,2,1.9,4,2.4-1.1.3-1,.7.3,1.3-.7,0-1.5.3-1.6-.5-.2.3-1.4,2.3.3,2.5-.4,0-.2.5,0,.6-.1.8-.3.9-.2,1.8l.3-.2c2,.3.5.7.7,1.3h-.2c-.7.8-.5.9-.4,1.1,0,0,.2.2.1.3,0,.2-.2.4-.6.8l1.2-.2c1.4,0,1,.3.5.8-.5.5-1.3,1.2-.7,1.5l.7-.4c.5.1-.4.6-1.3,1.2-1,.6-2.1,1.2-2.2,1.5-.2.2-.4,0-.6-.2-1.2,1.8,1.6-.2,2.3.7-.8.4-2.2.4-2.2,1.1-.3.3.6.6,1.3.9.8.4,1.4.8.8,1.5.5-.5,1.1-.9,1.8-.7.3.3-.1,1-.3,1.6-.2.6-.1,1.1,1,.9-.1.2-.3.3-.4.4.8.2,1.7,1.1,2.8.7-1.7,1.4-.8,1.8.1,2.1.5.1.9.2,1,.5.1.2,0,.6-.8,1.2l1.3,1.1-.3.2c.3.5.7.6,1.1.6.4,0,.9-.3,1.4-.5,0,.4-.4.5-.6.7.6,1.7.9,1.7,3.1.8l-.7,1.1c.4-.2.5.6.9,1.3.4.7,1,1.5,2,1.2,0,.1-.2.3-.4.4,1.2-.3,1.6,1,2.3,1.8.7.8,1.5,1.2,2.5-.9.5-.2.9-.5,1.4-.8-.6-.4-.4-.8,0-1.3.3-.5.7-1,.6-1.5.5-.2.9,1.7.2,1.8v-.3c-.9,2.3,1.4,1.3,1,2.9.7,0,1.4.3,2.1.5.3.1.7.2,1,.3.4.1.7.2,1,.3.4.1.7.2,1.1.3.4,0,.7.1,1.1.2.7,0,1.4.2,2.1.1-.2-.6-.4-1.2-.5-1.9.3,0,.6,0,.9,0,.3.4.6,1.4-.2,1.5.5,1,1-1.1.9-1.5.7.3.7.9.5,1.4-.2.5-.5.9-.3.9l.6-.2-.2-.2c.3-.9.2-1.6,1-1.8.6.2.5,1.1.8,1.1,0,.1.1.2.3,0l1.2-.2c-.3-.4-.6-.9-.9-1.3.3-.8,1.1-.2,0-1.7.8,1.1,1.9,1,2.9.6,1-.4,1.8-1.1,2.2-.8.1-1.3.7-1.7,1.5-2-.4-.2-1.4-1.5-.7-1.7.9,1.5,1.4,1.7,1.9,1.6.5,0,1.1-.3,2.1.5-.8-.5-.4-.9,0-1.4.3-.5.4-1-.7-1.6.6-.2.9,1,1.8,1.2.1-1,.9-1.4,1.7-1.9.8-.4,1.9-.9,2.2-1.8-.4-.3-1.1-.5-1.4-1.2.8.2,1.6.4,2.5.5,0-.5-2-1.7-.3-1.5-.4-.1-.9-.3-.9-.6.5-.2.9-.5,1.2-.9.2-.2.3-.4.5-.6.1-.2.2-.4.3-.6.4-.9.7-1.8.9-2.7.1-.5.2-.9.4-1.4.2-.4.3-.9.5-1.3.2-.4.5-.8.9-1.2.4-.4.8-.8,1.4-1.2-1,.4-1,0-1-.4-.3.2-1.1-.2-1.8-.2.6-.4,1.3-.9,1.9-1.3-1.7-.4,0-1.7-1.7-1.9l.3.5c-1-.4-2.1-.2-3.2,0-1.2.2-2.4.4-3.7.3,1.1.4.3.7-.5,1-.8.3-1.4.6.1,1.3-.5,0-.8-.3-1.4-.3,1,.4,1.2.7.6,1.1h-.2c0,1.3-1.3,1.5-2.4,2.5l1.2.4c-.3.2-.7.1-1,.1,1.6,1.1.5-.7,2.2.4-1.3-.3-1.5.2-1.8.7-.1.2-.3.5-.6.5-.3,0-.7,0-1.4-.3-.2.4,1.3.6,1.1,1l-.7-.3.8.6c-.3.2-1.2-.2-1.8-.6.1,0,0-.3,0-.4-1-.2-.4,1-.7,1h.6c0,.3-.2.6-.3.9-.2.3-.4.5-.7.8-.4.6-.8,1.1-.7,2.1l.5.4c0,.8-.3.8-.6.7-.3,0-.7-.2-1,.4h0c0,.2.1.4,0,.6,0,.2-.1.3-.3.4-.2-.7-1.2-.9-1.3-1.7-.1.8-.1,1,0,1.4.1.4.3.8.5,1.9l-.6-.8c.2.9.4,1.3,0,1.8,0-1-1-1.2-1-2.4-1-.7-1.1,0-1.2.4-.2.5-.3.9-1.1-.5.4,2.7,1.4,1.1,1.4,1.7.6.7.3,2-.2,1.9-.2,0-.6-.7-1.1-1.5-.5-.8-1-1.5-1.4-1.4,0,0,0-.2.1-.2-.2-.3-.3,0-.5.2-.1.2-.3.4-.6-.1,0,1.6-.5,0-.2,2l.8-.6c-.2.3-.3,1.1-.5,1.6-.2.6-.5.9-1,.4,0-.4.2-1,.3-1.3-.3-.6-.4.5-.7-.1,0-1,.2-1.2.4-1.3s.6-.1.7-1c-.4-.8-.6,1.6-.7-.6,0,1.4-.2,1.4-.4,1.3-.3-.2-.5-.4-.8.7v-1.2c-.1.2-.3.8-.4.8,0-.5.2-1.1.2-1.6-.2.7-.4.4-.6,0-.2-.4-.4-.9-.6-.5.4,0,.5.4.5.9,0,.5-.1,1.1.1,1.6-.6.8-.8,0-.9-1-.1-1-.2-2-.8-1.8.2-.2.5.8.2,1.3-.2-.3-.5-.8-.5-1.5-.8.1,0,1.3-.5,2,0-1.5-.5.6-1,1l.2-1.2c-.8-1-.8,2.5-1.5,1.3.3-.5.6-1.1.8-1.6l-.6.3.5-1.4c-.7.9-.8.6-1.1,0-.2.9-.8,2.2-1.3,2,0-.8.6-1.1,0-1.1.4-.7.9-1.6.7-.4.2-.4.4-.7.6-1.1,0-.9-.6-.4-.8-.5,0,0,.1.2,0,.3-.5.5-1,.9-1.5,1.3,0-.5.4-.8.6-1.1-.2,0-.6.5-.9.5.5-.9,1-1.8,1.5-2.1-.4.2-.8.5-1.2.7.2-.4.3-1.3.5-1.5,0-.4-.5,0-.9.2-.5.3-1,.5-1,0-.1.1-.3.3-.5.3-.3-.6.2-1.7-1.2-1.1.3-.5.7-1.1,1-1.6-.3,0-.6.5-1,1-.4.5-.8,1-1.4.9-.9,0,1-1.3,1.2-1.8-.4.2-1.1.5-1.5.6s-.7,0-.3-.8c.4,0,.3.2.5.2h0ZM37.5,44.5c.3,0,1.2,0,.5.3-1.4.4-.8,0-.5-.3ZM34.1,33.7c.4.2.1.3-.4.4,0-.2,0-.3.4-.4ZM62.7,11.3s0,0,0,0c-.3-.6-.2-.4,0,0ZM63.4,12.1c.2-.1.2-.3.2-.5-.2.3-.4.2-.6,0,0,.3,0,.6.4.4ZM59.9,66.1l-.3-.3c.3-.5.3-.1.3.3Z"/>
          <path class="st2" d="M35.5,35.3c-.2,0-.5,0-.7,0,.2,0,.4.1.7,0Z"/>
          <path class="st2" d="M44.6,51.8h0c0,0,.1,0,.2-.2l-.2.2h0Z"/>
          <path class="st2" d="M50.2,21.2c-.2-.2-.3-.4-.4-.6,0,.3.2.6.4.6Z"/>
          <path class="st2" d="M69.2,12.8h-.8c.3,0,.3.3.3.6.2-.3.3-.7.5-.6h0Z"/>
          <path class="st2" d="M68.4,22.1c.2,0,.1,0,.3,0l.4-.4c-.3-.2-.8,0-.7.4Z"/>
          <path class="st2" d="M67.4,16.6c-.6.9,0,.8.4.9,0,0,0,0,0,0,1-1.1.3-1-.3-.8Z"/>
          <path class="st2" d="M67.9,17.5c.1,0,.2,0,.3.2.4-.5,0-.2-.3-.2Z"/>
          <path class="st2" d="M64.9,12c0,.3.7-1.2.6-.7.4-.6-.1-.4-.5,0-.4.3-.8.8,0,.7h0Z"/>
          <polygon class="st2" points="65.7 19.6 66.3 18.5 65.5 19.3 65.7 19.6"/>
          <path class="st2" d="M63.7,17.4l.4.6c.1-.2.2-.3.4-.3-.3-.2-.5-.6-.7-.3Z"/>
          <path class="st2" d="M64.4,17.6c.2.1.3.2.5,0,0,0-.3-.1-.5,0Z"/>
          <polygon class="st2" points="64.8 19.6 64.8 19.2 64.5 19 64.8 19.6"/>
          <path class="st2" d="M57.8,15l-.7.3c-.1.4,0,.7.2.6.2-.3.5-.4.5-.9Z"/>
          <path class="st2" d="M58.7,18.9c0-.3,0-.6,0-1l-.5,1.6.4-.5h0Z"/>
          <path class="st2" d="M57,18.9c-.2.4-1,1.2-.3,1.2.1-.4.7-.7.3-1.2Z"/>
          <polygon class="st2" points="48.5 17 48.6 16.9 48 14.3 48.5 17"/>
          <path class="st2" d="M44.8,25.4c.8.3-.8-1.4,0-1-.2-.6-.7-.3-.9-.9,0,.7-.3.5.8,1.9h0Z"/>
          <path class="st2" d="M43.9,23.5c0-.1,0-.3,0-.4,0,.2,0,.3,0,.4Z"/>
          <polygon class="st2" points="81.9 40.5 82.5 39.9 81.6 40.2 81.9 40.5"/>
          <path class="st2" d="M80,39.3h1.7c0-.1-1.5-.5-1.5-.5,0,.1.2.4-.2.5Z"/>
          <path class="st2" d="M40.5,42.6h-.4c-.4.3-.4.3-.5.5l.9-.5Z"/>
          <polygon class="st2" points="40.9 46.9 40.9 46.8 39.7 47.7 40.9 46.9"/>
          <path class="st2" d="M44.5,48.3c0-.1-.4,0-.4-.2.4,0-.9,1.5.4.2Z"/>
        </g>
      </g>
      <g>
        <path class="st0" d="M44.4,29.6h2.3v.4h-1v2.8h1v.4h-2.3v-.4h1v-2.8h-1v-.4Z"/>
        <path class="st0" d="M49.3,30.8v-.5c0,0,0,0,0,0l-.2.4-.5.9h-.1l-.5-.9-.2-.4h0v.5c0,0,0,2.3,0,2.3h-.4v-3.5h.4l.8,1.3h0l.8-1.3h.4v3.5h-.4s0-2.3,0-2.3Z"/>
        <path class="st0" d="M50.4,29.7c.1,0,.3,0,.4,0,.1,0,.3,0,.4,0s.3,0,.5,0,.3,0,.4.2.2.2.3.3c0,.1.1.3.1.5s0,.4-.1.5c0,.2-.2.3-.3.4-.1,0-.3.2-.4.2-.2,0-.3,0-.5,0h-.2s0,0-.1,0c0,0,0,0,0,0v1.3h-.4v-3.5h0ZM51.3,30h-.2c0,0-.1,0-.2,0v1.5s0,0,0,0h.3c.1,0,.2,0,.3,0,.1,0,.2,0,.3-.1s.2-.1.2-.2c0-.1,0-.2,0-.4s0-.3,0-.3c0,0-.1-.2-.2-.2s-.2,0-.3-.1c-.1,0-.2,0-.3,0h0Z"/>
        <path class="st0" d="M55.1,29.6h.4v2.3c0,.2,0,.4,0,.5,0,.2-.1.3-.2.4-.1.1-.2.2-.4.2s-.3,0-.5,0c-.4,0-.7,0-.9-.3s-.3-.5-.3-.9v-2.4h.4v2.2c0,.2,0,.3,0,.5,0,.1,0,.2.2.3s.2.1.3.2.2,0,.4,0c.3,0,.5,0,.6-.2s.2-.4.2-.7v-2.2h0Z"/>
        <path class="st0" d="M56.2,29.6h.4v3.1h1.4v-.9h.4v1.2h-2.1v-3.5h0Z"/>
        <path class="st0" d="M59.5,32.6c.1,0,.2.1.3.1.1,0,.2,0,.4,0s.2,0,.3,0c0,0,.2,0,.2-.1s.1-.1.2-.2c0,0,0-.2,0-.3s0-.3-.1-.3-.2-.2-.3-.2-.3-.1-.4-.2-.3-.1-.4-.2-.2-.2-.3-.3-.1-.3-.1-.5,0-.3,0-.4c0-.1.1-.2.2-.3.1,0,.2-.1.4-.2.1,0,.3,0,.5,0s.4,0,.5,0c.2,0,.3,0,.4.1h0v.8h-.4v-.5c0,0-.2,0-.3,0s-.2,0-.3,0-.2,0-.3,0c0,0-.2,0-.2.1s-.1.1-.1.2c0,0,0,.1,0,.2,0,.1,0,.2.1.3s.2.2.3.2.3.1.4.2c.2,0,.3.1.4.2s.2.2.3.3c0,.1.1.3.1.5s0,.3,0,.4c0,.1-.1.2-.2.3s-.2.2-.4.2c-.1,0-.3,0-.5,0s-.2,0-.4,0-.2,0-.3,0-.2,0-.3,0c0,0-.1,0-.2,0h0v-.8h.4v.6h0Z"/>
        <path class="st0" d="M62.2,29.6h2v.4h-1.6v1.1h1.5v.4h-1.5v1.2h1.6v.4h-2v-3.5h0Z"/>
        <path class="st0" d="M44.3,35.6h2.5v.9h-.4v-.5h-.7v2.8h.5v.4h-1.5v-.4h.5v-2.8h-.7v.5h-.4v-.9h0Z"/>
        <path class="st0" d="M49.3,37.5h-1.5v1.6h-.4v-3.5h.4v1.5h1.5v-1.5h.4v3.5h-.4v-1.6Z"/>
        <path class="st0" d="M50.5,35.6h2v.4h-1.6v1.1h1.5v.4h-1.5v1.2h1.6v.4h-2v-3.5h0Z"/>
        <path class="st0" d="M55,38.2h-1.3l-.3,1h-.4l1.1-3.5h.5l1.1,3.5h-.4l-.3-1h0ZM53.8,37.8h1.1l-.5-1.6h0l-.5,1.6h0Z"/>
        <path class="st0" d="M56,35.6h2.5v.9h-.4v-.5h-.7v2.8h.5v.4h-1.5v-.4h.5v-2.8h-.7v.5h-.4v-.9h0Z"/>
        <path class="st0" d="M59.3,35.6h2v.4h-1.6v1.1h1.5v.4h-1.5v1.2h1.6v.4h-2v-3.5h0Z"/>
        <path class="st0" d="M62.1,35.7c.1,0,.3,0,.4,0,.2,0,.3,0,.4,0s.3,0,.4,0c.1,0,.3,0,.4.2s.2.2.2.3,0,.3,0,.5,0,.3,0,.4c0,.1-.1.2-.2.3s-.1.1-.2.2c0,0-.1,0-.2.1l.9,1.7h-.5l-.8-1.5h-.6v1.5h-.4v-3.5h0ZM63,36h-.3s0,0-.1,0c0,0,0,0,0,0v1.3h.4c.2,0,.4,0,.6-.2s.2-.3.2-.5,0-.3-.2-.4c-.1-.1-.3-.2-.5-.2h0Z"/>
        <path class="st0" d="M44.7,41.7h2v.4h-1.5v1.2h1.5v.4h-1.5v1.6h-.4v-3.5h0Z"/>
        <path class="st0" d="M47.6,41.7h2v.4h-1.6v1.1h1.5v.4h-1.5v1.2h1.6v.4h-2v-3.5h0Z"/>
        <path class="st0" d="M50.7,44.7c.1,0,.2.1.3.1.1,0,.2,0,.4,0s.2,0,.3,0c0,0,.2,0,.2-.1s.1-.1.2-.2c0,0,0-.2,0-.3s0-.3-.1-.3-.2-.2-.3-.2-.3-.1-.4-.2-.3-.1-.4-.2-.2-.2-.3-.3-.1-.3-.1-.5,0-.3,0-.4c0-.1.1-.2.2-.3.1,0,.2-.1.4-.2.1,0,.3,0,.5,0s.4,0,.5,0c.2,0,.3,0,.4.1h0v.8h-.4v-.5c0,0-.2,0-.3,0s-.2,0-.3,0-.2,0-.3,0c0,0-.2,0-.2.1s-.1.1-.1.2c0,0,0,.1,0,.2,0,.1,0,.2.1.3s.2.2.3.2.3.1.4.2c.2,0,.3.1.4.2s.2.2.3.3c0,.1.1.3.1.5s0,.3,0,.4c0,.1-.1.2-.2.3s-.2.2-.4.2c-.1,0-.3,0-.5,0s-.2,0-.4,0-.2,0-.3,0-.2,0-.3,0c0,0-.1,0-.2,0h0v-.8h.4v.6h0Z"/>
        <path class="st0" d="M53.1,41.7h2.5v.9h-.4v-.5h-.7v2.8h.5v.4h-1.5v-.4h.5v-2.8h-.7v.5h-.4v-.9h0Z"/>
        <path class="st0" d="M56.1,41.7h2.3v.4h-1v2.8h1v.4h-2.3v-.4h1v-2.8h-1v-.4Z"/>
        <path class="st0" d="M60.2,44.7h0l.9-3h.4l-1.1,3.5h-.5l-1.2-3.5h.4l1,3Z"/>
        <path class="st0" d="M63.7,44.2h-1.3l-.3,1h-.4l1.1-3.5h.5l1.1,3.5h-.4l-.3-1h0ZM62.6,43.8h1.1l-.5-1.6h0l-.5,1.6h0Z"/>
        <path class="st0" d="M65,41.7h.4v3.1h1.4v-.9h.4v1.2h-2.1v-3.5h0Z"/>
      </g>
    </g>
  </g>
</svg>