<?xml version="1.0" encoding="UTF-8"?>
<svg id="Ebene_2" xmlns="http://www.w3.org/2000/svg" version="1.1" viewBox="0 0 214.5 103.4">
  <!-- Generator: Adobe Illustrator 30.0.0, SVG Export Plug-In . SVG Version: 2.1.1 Build 123)  -->
  <defs>
    <style>
      .st0 {
        letter-spacing: 0em;
      }

      .st0, .st1, .st2 {
        font-size: 20.1px;
      }

      .st0, .st1, .st2, .st3, .st4, .st5, .st6 {
        isolation: isolate;
      }

      .st0, .st1, .st2, .st3, .st5, .st6 {
        fill: #fbd900;
        font-weight: 700;
      }

      .st0, .st1, .st2, .st3, .st6 {
        font-family: Helvetica-Bold, Helvetica;
      }

      .st1 {
        letter-spacing: 0em;
      }

      .st3, .st6 {
        font-size: 22.7px;
      }

      .st5 {
        font-family: HelveticaNeue-Bold, 'Helvetica Neue';
        font-size: 19.9px;
      }

      .st6 {
        letter-spacing: 0em;
      }

      .st7 {
        stroke-width: 1.4px;
      }

      .st7, .st8, .st9 {
        fill: none;
        stroke: #951b81;
        stroke-miterlimit: 10;
      }

      .st8 {
        stroke-width: 1.1px;
      }

      .st9 {
        stroke-width: .7px;
      }
    </style>
  </defs>
  <g id="Ebene_2-2">
    <g>
      <g>
        <path class="st8" d="M161.4,53c-.9-3.9-.2-8.8,3.2-11.2,3.4-2.4,9.1-1.5,10,2.5.8,3.9-3.2,9.4-6.5,11.7-3.3,2.4-5.7,1-6.7-3h0Z"/>
        <path class="st8" d="M159.1,54.7c-1.3-5.5-1.2-12.2,3.1-15.5,4.2-3.2,14-2.2,15.3,3.3,1.2,5.5-5.5,13.2-9.5,16.4-4.1,3.2-7.3,1.2-8.9-4.2h0Z"/>
        <path class="st7" d="M156.9,56.5c-1.8-7.1-2.9-15.7,1.9-19.8,4.7-4.1,19.9-3.1,21.9,3.9,1.6,7.1-8.5,17.4-12.7,21.4-4.5,4.1-8.5,1.5-11.1-5.6Z"/>
        <path class="st8" d="M155,58c-2.3-8.5-4.8-18.6-.2-23.4,4.6-4.8,25.7-4.1,28.5,4.4,2,8.6-11.5,21.1-15.3,25.7-4.3,4.7-9.4,1.6-12.9-6.7Z"/>
        <path class="st8" d="M153.1,59.7c-2.3-5-3.1-10.6-4.4-15.6-1-4.9-2.3-9.1.3-11.9,3.7-5.4,33.7-5.3,37.7,4.7,2.1,5-2.9,11.6-7.4,17.3-4.7,5.8-8.8,10.8-10.9,13.5-3.3,5.4-10.2,1.8-15.3-8.1h0Z"/>
        <path class="st8" d="M151.5,61.3c-3.1-5.8-4.3-12.4-6.8-18-2.1-5.6-5.5-10.2-3.5-13.3,1.5-3,11.4-4.5,22.7-4,11.1.6,23.7,3.2,25.8,9.2,2.9,5.8-4,13.6-9.3,20.4-5.7,6.8-9.8,12.5-11.1,15.5-1.3,3-2.9,3-6.4,1.3-3.3-1.8-8.6-5.2-11.4-11h0Z"/>
        <path class="st8" d="M150.4,62.5c-3.8-6.3-5.2-13.6-8.7-19.6-3-6.1-8-10.9-6.8-14.2.7-3.2,12.1-4.9,25.7-4.5,13.3.5,28.8,3.1,31.3,9.6,3.6,6.3-4.4,15.5-10.3,22.9-6.5,7.5-10.9,13.3-11.4,16.4-.5,3.2-2,3.2-6.2,1.3-3.9-1.9-10.4-5.7-13.7-12h0Z"/>
        <path class="st8" d="M149.1,64c-5-7-6.5-15.1-11.7-21.7-4.4-6.7-12.4-11.7-12.4-15.2-.9-3.3,12.8-5.4,29.9-5.1,16.7.3,36.7,2.9,39.9,10.1,4.7,7-5.8,17.8-12.4,26.1-7.5,8.4-11.2,14.4-10.1,17.7,1.1,3.3-.2,3.5-5.4,1.5-4.8-2.1-13.5-6.4-17.7-13.5h0Z"/>
        <path class="st9" d="M148.1,65.4c-6.2-7.5-7.9-16.5-14.8-23.5-5.9-7.2-17.1-12.4-18.8-15.9-2.7-3.4,13.2-5.8,33.9-5.8,20.2,0,45.3,2.4,49.2,10.3,5.9,7.6-6.9,19.4-14.2,28.5-8.4,9.3-11.5,16-8.6,19.3,3,3.3,2,4.2-4.4,1.9-5.7-2-17.1-7.2-22.3-14.9Z"/>
      </g>
      <g class="st4">
        <text class="st2" transform="translate(55.7 77.3)"><tspan x="0" y="0">FESTI</tspan></text>
        <text class="st1" transform="translate(112.7 77.3)"><tspan x="0" y="0">V</tspan></text>
        <text class="st2" transform="translate(124.6 77.3)"><tspan x="0" y="0">A</tspan></text>
        <text class="st0" transform="translate(139.1 77.3)"><tspan x="0" y="0">L</tspan></text>
      </g>
      <g class="st4">
        <text class="st5" transform="translate(27.4 44.8)"><tspan x="0" y="0">IMPULSE</tspan></text>
      </g>
      <g class="st4">
        <text class="st3" transform="translate(15.5 61.8)"><tspan x="0" y="0">THE</tspan></text>
        <text class="st6" transform="translate(60.9 61.8)"><tspan x="0" y="0">A</tspan></text>
        <text class="st3" transform="translate(75.6 61.8)"><tspan x="0" y="0">TER</tspan></text>
      </g>
    </g>
  </g>
</svg>