<?xml version="1.0" encoding="UTF-8"?>
<svg id="Ebene_2" data-name="Ebene 2" xmlns="http://www.w3.org/2000/svg" viewBox="0 0 149.15 69.64">
  <defs>
    <style>
      .cls-1 {
        letter-spacing: -.02em;
      }

      .cls-2 {
        fill: #feda94;
      }

      .cls-3, .cls-4, .cls-5, .cls-6 {
        fill: #d9007e;
      }

      .cls-7 {
        letter-spacing: -.07em;
      }

      .cls-4 {
        font-family: Helvetica, Helvetica;
        font-size: 19.88px;
      }

      .cls-5 {
        font-size: 25.54px;
      }

      .cls-5, .cls-6 {
        font-family: Helvetica-Bold, Helvetica;
        font-weight: 700;
      }

      .cls-6 {
        font-size: 29.35px;
      }
    </style>
  </defs>
  <g id="Ebene_2-2" data-name="Ebene 2">
    <g>
      <path class="cls-2" d="m112.24,12.15v.03c0,1.17.18,2.3.51,3.36.45,1.44,1.18,2.75,2.12,3.87.96,1.14,2.14,2.07,3.48,2.73.99.49,2.06.83,3.18.99.5.07,1.01.11,1.52.11.28,0,.56-.01.83-.03.6-.05,1.19-.14,1.76-.29.69-.17,1.35-.41,1.98-.72,2.02-.97,3.71-2.56,4.81-4.53.35-.61.64-1.27.86-1.95.19-.57.33-1.15.43-1.75.1-.59.15-1.2.15-1.82,0-.18,0-.36-.01-.54-.05-1.09-.26-2.14-.6-3.13-.51-1.49-1.32-2.83-2.35-3.95-.07-.07-.14-.15-.21-.22-1.08-1.11-2.4-1.99-3.86-2.55-1.02-.39-2.12-.63-3.26-.69-.18,0-.35-.01-.53-.01-.68,0-1.34.06-1.98.19-.7.13-1.38.33-2.03.6-1.21.5-2.31,1.21-3.26,2.09-.06.06-.13.12-.19.18-.98.96-1.78,2.11-2.36,3.38-.3.65-.53,1.34-.7,2.06-.19.83-.3,1.7-.3,2.59Z"/>
      <path class="cls-3" d="m138.26,20.86c-.62,8.58,4.57,16.61,1.69,13.54-1.11-1.18-5.82-7.67-6.67-3.75-.74,3.39-1.67,7-3.7.39-1.52-4.94,5.02-13.36,1.71-15.86-2.72-2.06-8.73-.14-10.43-2.93-4.2-6.88,6.53-2.38,10.98-3.31s10.99-9.68,16.73-3.62c3.62,3.82-10.52,1.07-9.24,4.18,2.43,5.88-.9,9.17-1.06,11.36Z"/>
      <text class="cls-4" transform="translate(31.53 17.07) scale(.89 1)"><tspan x="0" y="0">IMPULSE</tspan></text>
      <text class="cls-5" transform="translate(0 32.44)"><tspan x="0" y="0">Theater </tspan></text>
      <text class="cls-6" transform="translate(3.72 55.53)"><tspan x="0" y="0">FESTI</tspan><tspan class="cls-7" x="83.15" y="0">V</tspan><tspan x="100.56" y="0">A</tspan><tspan class="cls-1" x="121.75" y="0">L</tspan></text>
    </g>
  </g>
</svg>