<?xml version="1.0" encoding="UTF-8"?>
<svg id="Ebene_2" data-name="Ebene 2" xmlns="http://www.w3.org/2000/svg" viewBox="0 0 272 93.59">
  <defs>
    <style>
      .cls-1 {
        letter-spacing: -.02em;
      }

      .cls-2 {
        stroke-width: 1.29px;
      }

      .cls-2, .cls-3, .cls-4 {
        fill: none;
        stroke: #f7a4c5;
        stroke-miterlimit: 10;
      }

      .cls-5 {
        letter-spacing: -.07em;
      }

      .cls-6 {
        fill: #fbd900;
        font-family: Helvetica-Bold, Helvetica;
        font-size: 29.25px;
        font-weight: 700;
      }

      .cls-3 {
        stroke-width: .64px;
      }

      .cls-7 {
        fill: #f7a4c5;
        font-family: Helvetica, Helvetica;
        font-size: 26.37px;
      }

      .cls-4 {
        stroke-width: 1.93px;
      }
    </style>
  </defs>
  <g id="Ebene_2-2" data-name="Ebene 2">
    <g>
      <g>
        <path class="cls-2" d="m44.65,45.4c-4.85.3-10.6-1.27-12.83-5.42-2.23-4.12-.11-10.41,4.74-10.69,4.85-.24,10.6,5.17,12.83,9.13,2.23,4.06.11,6.51-4.74,6.99Z"/>
        <path class="cls-4" d="m47.96,51.03c-8.83.77-19.29.58-23.36-5.36-4.07-5.92-.2-22.63,8.63-23.66,8.83-.58,19.29,12.33,23.36,17.65,4.07,5.72.2,9.72-8.63,11.37Z"/>
        <path class="cls-4" d="m51.2,55.79c-6.36,1.69-13.31,1.73-19.39,2.29-6.09.27-11.32,1.06-14.24-2.28-5.86-5-.29-38.39,12.43-41.12,6.36-1.54,13.31,5.18,19.39,11.1,6.09,6.21,11.32,11.63,14.24,14.37,5.86,4.59.29,11.63-12.43,15.64Z"/>
        <path class="cls-2" d="m54,59.24c-8.22,3.22-17.17,3.54-24.98,6.43-7.81,2.27-14.5,7.11-18.2,5.16-3.7-1.26-3.72-14.27-.76-29.32,2.96-14.75,8.91-31.54,17.13-33.24,8.22-2.97,17.17,7.89,24.98,15.72,7.81,8.47,14.5,13.91,18.2,14.89,3.7,1.04,3.72,2.83.76,7.17-2.96,4-8.91,10.54-17.13,13.19Z"/>
        <path class="cls-3" d="m57.03,62.2c-10.15,5.69-21.18,6.04-30.81,12.6-9.63,5.39-17.85,16.97-22.39,18.25-4.54,2.45-4.53-15.61-.85-38.67C6.67,31.89,14.02,4.41,24.17,1.34c10.15-5.31,21.18,11.34,30.81,21.09,9.63,10.95,17.85,15,22.39,12.25,4.54-2.78,4.53-1.77.85,5-3.68,6.14-11.03,18.03-21.18,22.52Z"/>
      </g>
      <text class="cls-7" transform="translate(116.15 34.28)"><tspan x="0" y="0">IMPULSE</tspan></text>
      <text class="cls-6" transform="translate(88.02 51.35)"><tspan x="0" y="0">Theater </tspan></text>
      <text class="cls-6" transform="translate(114.27 73.92)"><tspan x="0" y="0">FESTI</tspan><tspan class="cls-5" x="82.87" y="0">V</tspan><tspan x="100.21" y="0">A</tspan><tspan class="cls-1" x="121.33" y="0">L</tspan></text>
    </g>
  </g>
</svg>