<?xml version="1.0" encoding="UTF-8"?>
<svg id="Ebene_2" xmlns="http://www.w3.org/2000/svg" version="1.1" viewBox="0 0 220.7 137.1">
  <!-- Generator: Adobe Illustrator 30.0.0, SVG Export Plug-In . SVG Version: 2.1.1 Build 123)  -->
  <defs>
    <style>
      .st0 {
        stroke-width: 1.3px;
      }

      .st0, .st1, .st2 {
        fill: none;
        stroke: #e71d73;
        stroke-miterlimit: 10;
      }

      .st1 {
        stroke-width: .6px;
      }

      .st3 {
        fill: #ffdd4b;
        opacity: .8;
      }

      .st3, .st4, .st5, .st6, .st7, .st8 {
        isolation: isolate;
      }

      .st4, .st6, .st7 {
        fill: #060710;
        font-family: Helvetica-Bold, Helvetica;
        font-size: 18.3px;
        font-weight: 700;
      }

      .st2 {
        stroke-width: 1.9px;
      }

      .st6 {
        letter-spacing: 0em;
      }

      .st7 {
        letter-spacing: 0em;
      }

      .st8 {
        fill: #060710;
        font-family: Helvetica, Helvetica;
        font-size: 16.5px;
      }
    </style>
  </defs>
  <g id="Ebene_2-2">
    <g>
      <path class="st3" d="M87.4,66.2h0c0,2.4-.4,4.6-1.1,6.7-.9,2.9-2.4,5.5-4.4,7.7-2,2.2-4.4,4.1-7.2,5.4-2,1-4.2,1.7-6.5,2-1,.1-2.1.2-3.1.2s-1.2,0-1.7,0c-1.2,0-2.4-.3-3.6-.6-1.4-.3-2.8-.8-4.1-1.4-4.2-1.9-7.6-5.1-9.9-9-.7-1.2-1.3-2.5-1.8-3.9-.4-1.1-.7-2.3-.9-3.5-.2-1.2-.3-2.4-.3-3.6s0-.7,0-1.1c.1-2.2.5-4.2,1.2-6.2,1-2.9,2.7-5.6,4.8-7.8.1-.1.3-.3.4-.4,2.2-2.2,4.9-3.9,7.9-5,2.1-.8,4.4-1.2,6.7-1.4.4,0,.7,0,1.1,0,1.4,0,2.8.1,4.1.4,1.5.3,2.8.7,4.2,1.2,2.5,1,4.8,2.4,6.7,4.1.1.1.3.2.4.4,2,1.9,3.7,4.2,4.9,6.7.6,1.3,1.1,2.7,1.4,4.1.4,1.7.6,3.4.6,5.1h0Z"/>
      <g>
        <path class="st0" d="M70.7,74.5c-4.7.3-10.2-1.3-12.4-5.6-2.1-4.3-.1-10.8,4.6-11.1,4.7-.2,10.2,5.4,12.4,9.5,2.2,4.2.1,6.8-4.6,7.2Z"/>
        <path class="st0" d="M72.3,77.5c-6.5.5-14.3-.7-17.3-6.2-3-5.5-.1-16.5,6.4-17.1,6.5-.4,14.3,8.6,17.3,13.8,3,5.3.2,8.6-6.4,9.5Z"/>
        <path class="st2" d="M73.9,80.4c-8.5.8-18.6.6-22.5-5.6-3.9-6.1-.2-23.5,8.3-24.5,8.5-.6,18.6,12.8,22.5,18.3,3.9,5.9.2,10.1-8.3,11.8Z"/>
        <path class="st0" d="M75.3,82.7c-10.2,1.1-22.3,2.3-27-3.8-4.7-6.1-.2-30.4,10-32.1,10.2-.8,22.3,17,27,22.1,4.7,5.8.2,11.1-10,13.7Z"/>
        <path class="st2" d="M77,85.3c-6.1,1.8-12.8,1.8-18.7,2.4-5.9.3-10.9,1.1-13.7-2.4-5.6-5.2-.3-39.8,12-42.6,6.1-1.6,12.8,5.4,18.7,11.5,5.9,6.4,10.9,12.1,13.7,14.9,5.6,4.8.3,12.1-12,16.2h0Z"/>
        <path class="st0" d="M78.6,87.4c-7.2,2.6-15,2.8-21.9,4.8-6.9,1.4-12.7,4.5-15.9,1.8-3.2-2.2-3.3-13.9-.7-26.9,2.6-12.7,7.8-26.8,15-28.1,7.2-2.4,15,7,21.9,14.2,6.8,7.8,12.7,13.5,15.9,15.4,3.2,2,3.3,4.1.7,7.9-2.6,3.5-7.8,8.8-15,10.9h0Z"/>
        <path class="st0" d="M79.7,88.9c-7.9,3.3-16.5,3.7-24.1,6.7-7.5,2.4-14,7.4-17.5,5.3-3.6-1.3-3.6-14.8-.7-30.4,2.9-15.3,8.6-32.7,16.5-34.5,7.9-3.1,16.5,8.2,24.1,16.3,7.5,8.8,14,14.4,17.5,15.4,3.6,1.1,3.6,2.9.7,7.4-2.9,4.1-8.6,10.9-16.5,13.7Z"/>
        <path class="st0" d="M81.2,90.6c-8.9,4.5-18.6,4.9-27,9.7-8.4,3.9-15.6,12.2-19.6,11.7-4,.4-4-15.7-.8-35.3,3.2-19.2,9.7-41.9,18.6-44.3,8.9-4.2,18.6,10,27,19.1,8.4,10.1,15.6,15.2,19.6,14.5,4-.7,4,.8.8,6.5-3.2,5.2-9.7,14.5-18.6,18.1h0Z"/>
        <path class="st1" d="M82.7,92c-9.8,5.9-20.4,6.3-29.7,13.1-9.3,5.6-17.2,17.6-21.6,18.9-4.4,2.6-4.4-16.2-.8-40.1,3.5-23.3,10.6-51.8,20.4-55,9.8-5.5,20.4,11.8,29.7,21.9,9.3,11.4,17.2,15.6,21.6,12.7,4.4-2.9,4.4-1.8.8,5.2-3.6,6.4-10.6,18.7-20.4,23.4h0Z"/>
      </g>
      <g class="st5">
        <text class="st8" transform="translate(107.6 49.8)"><tspan x="0" y="0">IMPULSE</tspan></text>
      </g>
      <g class="st5">
        <text class="st4" transform="translate(90 60.5)"><tspan x="0" y="0">Theater</tspan></text>
      </g>
      <g class="st5">
        <text class="st4" transform="translate(106.4 74.6)"><tspan x="0" y="0">FESTI</tspan></text>
        <text class="st7" transform="translate(158.2 74.6)"><tspan x="0" y="0">V</tspan></text>
        <text class="st4" transform="translate(169.1 74.6)"><tspan x="0" y="0">A</tspan></text>
        <text class="st6" transform="translate(182.3 74.6)"><tspan x="0" y="0">L</tspan></text>
      </g>
    </g>
  </g>
</svg>