<?xml version="1.0" encoding="utf-8"?>
<!-- Generator: Adobe Illustrator 27.5.0, SVG Export Plug-In . SVG Version: 6.00 Build 0)  -->
<svg version="1.1" id="Ebene_2_00000158727434658395338010000012410159533942420124_"
	 xmlns="http://www.w3.org/2000/svg" xmlns:xlink="http://www.w3.org/1999/xlink" x="0px" y="0px" viewBox="0 0 133 125.5"
	 style="enable-background:new 0 0 133 125.5;" xml:space="preserve">
<style type="text/css">
	.st0{fill:#D9E021;}
	.st1{fill:#1D1D1B;}
	.st2{display:none;fill:#221F1D;}
	.st3{fill:#DA91B3;}
	.st4{fill:#FFFFFF;stroke:#000000;stroke-width:0.25;stroke-miterlimit:10;}
</style>
<g id="Ebene_1-2">
	<g>
		<g>
			<path class="st0" d="M35.3,81.7c-0.3,0-0.8,0.4-1.2,0.7c-0.8,0.5-1.5,0.4-0.8-4.7c1-7.7-3.6-5.9-0.8-14.9s5.9-20.8,9-23.8
				c3.1-3,6.1-3.5,11.2-6.9c4.5-3,12.3-6.9,17.5-4.9c5.1,2,10.9-2,16,1c5.1,3,6.5,2,7.5,6.9c1,5,1.2,5.9,2.5,8
				c6.9,11.5,5.5,32.4,5.5,34.5s-0.2,5.4-0.2,5.4"/>
			<path class="st1" d="M101.9,83.2l-1-0.1c0,0,0.2-3.3,0.2-5.4c0-0.2,0-0.5,0-1c0.3-10.4-0.3-24.7-5.5-33.2
				c-1.3-2.2-1.5-3.1-2.5-7.7l-0.1-0.5c-0.7-3.4-1.4-3.7-3.8-4.9c-0.9-0.4-2-0.9-3.4-1.7c-2.6-1.5-5.4-1.1-8.3-0.7
				c-2.5,0.3-5.1,0.7-7.6-0.2c-5.6-2.2-14.4,3.2-17,4.9c-2.2,1.5-4,2.4-5.6,3.2c-2.2,1.1-3.9,2-5.6,3.7c-2.4,2.3-4.9,10.6-7.1,18
				c-0.6,1.9-1.2,3.8-1.7,5.6c-1.5,4.8-0.8,6.3-0.1,8.1c0.6,1.5,1.4,3.1,0.9,6.7c-0.4,3.2-0.3,4.1-0.2,4.3c0,0,0.1,0,0.2-0.1
				c0.1-0.1,0.2-0.2,0.3-0.2c0.4-0.3,0.8-0.5,1.2-0.5v1c-0.1,0-0.4,0.2-0.6,0.4c-0.1,0.1-0.3,0.2-0.4,0.3c-0.2,0.1-0.8,0.5-1.3,0.2
				c-0.6-0.4-0.8-1.4-0.3-5.3c0.4-3.3-0.2-4.8-0.8-6.2c-0.8-1.9-1.6-3.6,0-8.8c0.6-1.8,1.1-3.6,1.7-5.6c2.4-7.8,4.8-16,7.4-18.4
				c1.8-1.8,3.6-2.7,5.8-3.8c1.6-0.8,3.3-1.7,5.5-3.2c2.7-1.8,11.9-7.3,17.9-5c2.2,0.9,4.6,0.5,7.1,0.2c3-0.4,6-0.8,8.9,0.8
				c1.3,0.8,2.4,1.3,3.3,1.7c2.5,1.2,3.6,1.7,4.4,5.6l0.1,0.5c0.9,4.5,1.1,5.4,2.3,7.4c4.2,7,6.1,18.4,5.6,33.8c0,0.5,0,0.8,0,1
				C102.1,79.8,101.9,83.1,101.9,83.2L101.9,83.2z"/>
			<path class="st2" d="M66.9,93.7c-0.2-0.6,0.1-0.7,0.6-1c0.8-0.5,1.5-0.9,2.4-0.2c0.2,0.2,0.9,0.5,0.7,0.2
				c-0.9-1.6-2.3-5.1-2.6-5.2c-0.2-0.1-0.2,0.3-0.3,0.9c-0.1,0.8-1,1.3-1.6,1.8c-1,0.9-3.3,2.3-3.9,3c0,0,1.1,2,1.5,1.8
				c0.3-0.2,1.7-1.3,1.8-1c0.1,0.4,0.8,2.1,1.1,3c0,0.1,0.1,0.1,0.2,0.1c0.3-0.1,0.6-0.1,1-0.2c0.1,0,0.2-0.2,0.2-0.3
				C67.8,95.9,67.1,94.4,66.9,93.7"/>
			<path class="st0" d="M30.4,77.1c-4,2.2-1,2.2-1,7.7s-0.5,9.9-0.5,9.9s-1.1,4.5,14.5,2.2c8.9-1.3-11,0.6,18,0.6s19-0.3,26.9,0.8
				c8,1.1,9,0,9,0s7,1,7-1.9c0,2.7,0.5-10.7,0.5-16c0-3.3-3.5-3.2-8.5-3c-5,0.2-9-0.1-12-0.1s-24-0.2-26.9,1c-3,1.2-10-0.9-11-1
				C45.3,77.2,34.3,74.9,30.4,77.1"/>
			<path class="st1" d="M94.1,99.3c-1.4,0-3.3-0.1-5.9-0.5c-1.8-0.3-2.7-0.4-3.3-0.6c-1-0.2-4-0.3-9-0.3c-3.2,0-7.8,0-14.5,0
				c-12.6,0-15.9-0.3-16.7-0.7c-0.3,0.1-0.7,0.1-1.2,0.2c-7.9,1.2-12.7,0.8-14.4-1.1c-0.7-0.8-0.6-1.5-0.6-1.7
				c0-0.3,0.5-4.6,0.5-9.8c0-2-0.4-3.3-0.7-4.2c-0.6-1.8-0.6-2.5,2-4l0,0c3.6-2,12.5-0.5,15.5,0c0.4,0.1,0.7,0.1,0.8,0.1
				c0.2,0,0.7,0.1,1.3,0.3c2.3,0.5,7.2,1.7,9.4,0.8c1.9-0.8,10.3-1.1,25.9-1h1.3c1,0,2.1,0,3.3,0.1c2.5,0.1,5.3,0.2,8.6,0
				c4-0.2,6.7-0.2,8.1,1.1c0.6,0.6,0.9,1.4,0.9,2.4c0,2.5-0.1,6.8-0.2,10c-0.2,4.9-0.2,6.3-0.4,6.7c-0.1,0.3-0.3,0.6-0.6,0.8
				c-1.6,1.4-5.7,1-6.7,0.9C96.9,99,96.1,99.3,94.1,99.3L94.1,99.3z M79.9,96.9c3.6,0,3.9,0.1,5.1,0.3c0.6,0.1,1.5,0.3,3.3,0.5
				c7.3,1,8.5,0.2,8.6,0.1l0.2-0.2l0.2,0.1c1.3,0.2,4.9,0.4,6.1-0.6c0.2-0.2,0.3-0.5,0.3-0.8h0.1c0.1-1.8,0.4-11.7,0.4-16
				c0-0.7-0.2-1.3-0.6-1.7c-1.2-1.1-4.2-1-7.4-0.8c-3.4,0.2-6.2,0.1-8.7,0c-1.2,0-2.3-0.1-3.3-0.1H83c-15.2-0.1-23.7,0.3-25.5,1
				c-2.5,1-7.4-0.1-10-0.7c-0.6-0.1-1-0.2-1.2-0.3c-0.1,0-0.4-0.1-0.9-0.1c-7.6-1.3-12.6-1.4-14.8-0.1l0,0c-2.1,1.2-2,1.4-1.5,2.8
				c0.3,0.9,0.8,2.3,0.8,4.5c0,5.5-0.5,9.9-0.5,10l0,0.1c0,0-0.1,0.4,0.4,0.9c0.9,0.9,3.8,2.2,13.5,0.7c0.6-0.1,1-0.2,1.4-0.2
				c0.3-0.2,0.7-0.2,1.1-0.3c0.6,0,0.7,0.3,0.7,0.4c0,0.1,0,0.1,0,0.2C48.1,96.8,52,97,61.3,97c6.7,0,11.3,0,14.5,0
				C77.5,96.9,78.9,96.9,79.9,96.9L79.9,96.9z"/>
			<path class="st3" d="M88.2,41.2c-1.2,0.4-2.5,0.5-3.6,1c-1.5,0.7-2.7,1.5-4.3,2.1"/>
			<path class="st1" d="M80.4,44.7l-0.3-0.9c0.9-0.3,1.7-0.7,2.5-1.2c0.6-0.3,1.1-0.6,1.7-0.9c0.7-0.3,1.4-0.4,2-0.6
				c0.6-0.1,1.1-0.2,1.6-0.4l0.3,0.9c-0.6,0.2-1.2,0.3-1.8,0.5c-0.7,0.1-1.3,0.3-1.8,0.5c-0.6,0.3-1.1,0.6-1.7,0.8
				C82.3,43.9,81.4,44.3,80.4,44.7L80.4,44.7z"/>
		</g>
		<g>
			<g>
				<path class="st4" d="M60.4,86.7c0,0.1-0.1,0.1-0.1,0.2c-0.1,0.2-0.6,0.5-0.4,1.4c0.1,0.4,0.2,1.2,0.7,1.7
					c0.3,0.3,0.9,0.4,1.2,0.4c0.7,0,3.2-0.9,6.5-2.3c0.1-0.1,0.8-0.4,1-0.5c4.1-1.7,8.2-4,8.5-4.4c0.2-0.3,0.3-0.6-0.1-0.6
					c-0.6,0-1.1,0.1-1.7,0.3c-7.2,2.4-1.4,0.1-2.4,0.2c0,0-2.6,0.7-2.6,0.7c-0.5,0.1-5.2,1.6-9.1,2.1C61.1,85.9,60.6,86.3,60.4,86.7
					z"/>
				<path class="st4" d="M61.8,90.4L61.8,90.4c-0.3,0-0.9-0.1-1.2-0.4c-0.5-0.4-0.7-1.2-0.7-1.6l0-0.1c-0.2-0.9,0.2-1.3,0.3-1.5l0,0
					c0,0,0.1-0.1,0.1-0.1c0,0,0,0,0-0.1c0.4-0.5,0.9-0.8,1.6-0.9c3.1-0.4,6.8-1.4,8.3-1.8c0.4-0.1,0.7-0.2,0.8-0.2
					c0,0,0.4-0.1,0.9-0.2c1.6-0.4,1.7-0.4,1.7-0.4c0.1,0,0.2,0,0.2,0.1c0,0.1-0.1,0.2-0.8,0.5c-0.2,0.1-0.4,0.2-0.5,0.3
					c0.4-0.1,1.5-0.4,3.5-1.1c0.5-0.2,1.1-0.4,1.7-0.3c0.2,0,0.3,0.1,0.3,0.2c0.1,0.2-0.1,0.4-0.2,0.5c-0.4,0.5-4.6,2.8-8.6,4.5
					c-0.1,0-0.3,0.1-0.5,0.2c-0.2,0.1-0.4,0.2-0.5,0.3C64.7,89.6,62.5,90.4,61.8,90.4L61.8,90.4z M73.7,83.1
					C73.7,83.1,73.7,83.1,73.7,83.1c-0.1,0-1,0.3-1.7,0.4c-0.8,0.2-0.9,0.2-0.9,0.2c-0.1,0-0.4,0.1-0.8,0.2
					c-1.6,0.4-5.2,1.5-8.3,1.8c-0.6,0.1-1.1,0.4-1.5,0.8l0,0c0,0,0,0,0,0.1c0,0,0,0.1-0.1,0.1l0,0c-0.2,0.2-0.5,0.5-0.3,1.4l0,0.1
					c0.1,0.4,0.2,1.2,0.7,1.6c0.3,0.3,0.9,0.4,1.2,0.4l0,0c0.7,0,2.9-0.8,6.5-2.3c0.1,0,0.3-0.1,0.5-0.2c0.2-0.1,0.4-0.2,0.5-0.2
					c4.2-1.7,8.2-4,8.5-4.4c0.1-0.2,0.2-0.3,0.2-0.4c0-0.1-0.1-0.1-0.2-0.1c-0.6,0-1.2,0.2-1.7,0.3c-3.7,1.2-3.7,1.2-3.8,1.1
					c0-0.1,0-0.1,0.6-0.4C73.3,83.4,73.6,83.2,73.7,83.1L73.7,83.1z"/>
			</g>
			<path class="st1" d="M55.3,89.9C55.3,89.9,55.3,89.9,55.3,89.9C55.2,89.9,55.2,89.9,55.3,89.9c0.4-0.8,3.6-1.6,4.4-1.8
				c-1.5-0.5-2.4-1-3-1.4c-0.5-0.3-0.9-0.5-1.4-0.6c0,0,0,0,0-0.1c0,0,0,0,0.1,0c0.5,0.1,0.9,0.3,1.5,0.6c0.7,0.4,1.6,0.9,3.2,1.4
				c0,0,0,0,0,0.1c0,0,0,0.1-0.1,0.1C59.2,88.3,55.8,89.2,55.3,89.9C55.3,89.9,55.3,89.9,55.3,89.9L55.3,89.9z M59.9,88.2L59.9,88.2
				L59.9,88.2z"/>
			<path class="st1" d="M57.5,91.7C57.5,91.7,57.5,91.7,57.5,91.7C57.4,91.7,57.4,91.7,57.5,91.7c0.1-0.5,0.4-0.8,0.8-1.2
				c0.5-0.5,1.1-1.1,1.5-2.2c-0.1,0.1-0.3,0.1-0.5,0.2c-1,0.3-2.7,0.9-3.4,2.1c0,0,0,0-0.1,0c0,0,0,0,0-0.1c0.7-1.3,2.4-1.9,3.4-2.2
				c0.3-0.1,0.5-0.2,0.6-0.2c0,0,0,0,0.1,0h0l0,0c0,0,0,0,0,0.1c-0.3,1.2-0.9,1.8-1.5,2.3C58,91,57.7,91.3,57.5,91.7
				C57.5,91.7,57.5,91.7,57.5,91.7L57.5,91.7z"/>
			<path class="st1" d="M59.8,88.2C59.8,88.2,59.8,88.2,59.8,88.2c-3.7-0.6-4.9-0.4-4.9-0.4c0,0-0.1,0-0.1,0c0,0,0-0.1,0-0.1
				C54.9,87.7,56.1,87.5,59.8,88.2c0-0.1,0-0.1,0-0.1c-0.1-0.1-0.3-0.3-0.5-0.5c-0.6-0.6-1.5-1.3-1.2-2c0.2-0.6-0.2-1-0.3-1
				c0,0,0-0.1,0-0.1c0,0,0.1,0,0.1,0c0,0,0.5,0.5,0.3,1.1c-0.2,0.6,0.6,1.4,1.2,1.9c0.3,0.2,0.5,0.4,0.6,0.6
				C59.9,88.1,59.9,88.1,59.8,88.2C59.8,88.2,59.8,88.2,59.8,88.2L59.8,88.2z"/>
			<path class="st1" d="M55.2,88.8c-0.2,0-0.3,0-0.3,0c0,0,0,0,0-0.1s0,0,0.1,0c0,0,1,0.1,1.6-0.2c0.5-0.3,3.2-0.3,3.3-0.3l0,0v0
				c0,0,0,0.1,0,0.1c0,0,0,0,0,0c-0.2,0-2.7,0-3.2,0.3C56.1,88.7,55.5,88.8,55.2,88.8L55.2,88.8z"/>
			<g>
				<path d="M64.9,89.2L64.9,89.2c0,0-0.7,0-0.9-1.2c0,0,0-0.1,0-0.1c0,0,0.1,0,0.1,0c0.2,1.1,0.8,1.1,0.8,1.1
					C64.9,89.1,65,89.1,64.9,89.2C65,89.2,64.9,89.2,64.9,89.2L64.9,89.2z"/>
				<path d="M73,85.8C73,85.8,73,85.8,73,85.8c-0.4-0.1-0.6-0.5-0.6-0.6c0,0,0-0.1,0-0.1c0,0,0.1,0,0.1,0
					C72.5,85.3,72.7,85.6,73,85.8C73,85.7,73,85.8,73,85.8C73,85.8,73,85.8,73,85.8z"/>
				<path d="M64.3,89.4c-0.2,0-0.8-0.3-1-1.5c0,0,0-0.1,0-0.1c0,0,0.1,0,0.1,0c0.2,0.8,0.5,1.2,0.7,1.3c0.1,0.1,0.2,0.1,0.2,0.1
					c0,0,0,0,0,0C64.3,89.3,64.4,89.3,64.3,89.4C64.4,89.4,64.4,89.4,64.3,89.4C64.3,89.4,64.3,89.4,64.3,89.4L64.3,89.4z
					 M64.3,89.4L64.3,89.4L64.3,89.4z"/>
				<path d="M65.4,89c-0.1,0-0.4,0-0.5-0.5c0,0,0-0.1,0-0.1c0,0,0.1,0,0.1,0c0.2,0.4,0.4,0.4,0.4,0.4C65.4,88.8,65.4,88.9,65.4,89
					C65.4,88.9,65.4,88.9,65.4,89C65.4,89,65.4,89,65.4,89z"/>
				<path d="M73.3,85.7C73.3,85.7,73.3,85.7,73.3,85.7C73.3,85.6,73.3,85.6,73.3,85.7c-0.1-0.1-0.1-0.1-0.1-0.1
					c-0.2-0.1-0.4-0.2-0.4-0.4c0,0,0-0.1,0-0.1c0,0,0.1,0,0.1,0c0,0.2,0.2,0.3,0.4,0.3C73.3,85.5,73.4,85.5,73.3,85.7
					C73.4,85.6,73.4,85.6,73.3,85.7C73.4,85.7,73.4,85.7,73.3,85.7z M73.3,85.6L73.3,85.6L73.3,85.6z"/>
				<path d="M61.7,90L61.7,90C61.7,90,61.7,90,61.7,90c-0.3-0.1-0.9-0.3-1-1.3c0,0,0-0.1,0-0.1c0,0,0.1,0,0.1,0
					C60.8,89.6,61.5,89.9,61.7,90C61.7,89.9,61.7,89.9,61.7,90C61.7,90,61.7,90,61.7,90L61.7,90z"/>
				<path d="M61.7,86.6C61.7,86.6,61.7,86.6,61.7,86.6c-0.1-0.5,0.1-0.6,0.1-0.6c0,0,0.1,0,0.1,0c0,0,0,0.1,0,0.1
					C61.9,86.1,61.7,86.2,61.7,86.6C61.8,86.6,61.7,86.6,61.7,86.6C61.7,86.6,61.7,86.6,61.7,86.6L61.7,86.6z"/>
			</g>
			<path class="st1" d="M56.3,91.8C56.3,91.8,56.3,91.7,56.3,91.8c-0.1-0.3,0.3-0.7,0.7-1c0.3-0.3,0.6-0.5,0.6-0.7
				c0.1-0.6,2.1-1.7,2.2-1.8c0,0,0.1,0,0.1,0c0,0,0,0.1,0,0.1c-0.6,0.3-2.1,1.3-2.2,1.7c0,0.2-0.3,0.4-0.6,0.8
				C56.8,91.1,56.4,91.5,56.3,91.8C56.4,91.7,56.4,91.8,56.3,91.8C56.4,91.8,56.4,91.8,56.3,91.8L56.3,91.8z"/>
		</g>
	</g>
</g>
</svg>
