<?xml version="1.0" encoding="utf-8"?>
<!-- Generator: Adobe Illustrator 27.5.0, SVG Export Plug-In . SVG Version: 6.00 Build 0)  -->
<svg version="1.1" id="Ebene_2_00000129187846315506235150000008502131671328402577_"
	 xmlns="http://www.w3.org/2000/svg" xmlns:xlink="http://www.w3.org/1999/xlink" x="0px" y="0px" viewBox="0 0 166 155.7"
	 style="enable-background:new 0 0 166 155.7;" xml:space="preserve">
<style type="text/css">
	.st0{stroke:#000000;stroke-width:1.66;}
	.st1{fill:#FFFFFF;}
	.st2{fill:#F9F9F9;}
	.st3{fill:#1D1D1B;}
</style>
<g id="Ebene_1-2">
	<path class="st0" d="M21.7,13.1c-2.5,3.7-7.3,10.1-7.8,11.3C10.6,31.5,1.9,52.3,1.1,54c-1.2,2.5,2.5,3.7,2.5,3.7
		c6.4,2.1,5.6,1.6,24.2,4c0.7,0.1,4.5-3.2,6.8-12.7c3.2-13.1,2.5-8.3,2.5-8.3v5c0,8.7,1.3,39.6,1.2,40.9l-1.4,55.8
		c-0.1,7.3,2.7,8.3,3.9,8.3c2.5,0,6.2,3.7,22.3,2.5c6.6-0.5,19.8,0,32.3,1.2c12.6,1.3,11.5-1.2,32.3-1.2c6.7,0,5.1-2.9,6.2-16.1
		c0.4-4.7-1.2-40.6-1.2-61.7c0-14-2.5-38.9-1.2-36.4c3.7,7.4,2.6,16.4,5,21.1c1.2,2.5,13.1,2.5,16.5,1.2l9.5-0.8
		c2.3-0.2,3.2-0.3,2.5-4.1c-2.5-12.4-4.8-17.4-6.4-26.9c-2.3-14.1-6.7-14.7-11-17.8c-7.6-5.5-19.9-7-32.3-10.8
		c-4.1-1.2-3.5,2.4-5,4.6c-1.5,2.2-2.3,4.8-9.9,7.5c-9.7,3.3-12.6,1.4-19.7,1.6c-3.8,0.1-9.9-0.9-13.5-2.3
		C51.6,6.2,58.9-0.3,54.3,1.1c-13,3.8-18.5,3.1-27.1,7.4C23.5,10.3,23.6,10.3,21.7,13.1L21.7,13.1z"/>
	<g>
		<path class="st1" d="M105,55.7c-5.1,0-9.3-4.2-9.3-9.3s4.2-9.3,9.3-9.3s9.3,4.2,9.3,9.3S110.1,55.7,105,55.7z M105,38.1
			c-4.6,0-8.4,3.8-8.4,8.4s3.8,8.4,8.4,8.4s8.4-3.8,8.4-8.4S109.6,38.1,105,38.1z"/>
		<path class="st1" d="M103.2,46.3l0.8,2.3c0.1,0.4,0.5,0.6,0.9,0.5l1.1-0.4c0.3-0.1,0.5-0.5,0.4-0.8l-0.8-2.3l-0.8,0.3l0.6,1.7
			c0.1,0.2-0.1,0.5-0.3,0.6l0,0c-0.2,0.1-0.5,0-0.5-0.3L104,46L103.2,46.3L103.2,46.3z"/>
		<path class="st1" d="M106,44.7l1.2,3.5L108,48l-0.7-1.7c-0.1-0.1,0-0.2,0.1-0.4l0.8-1l-0.6-0.4l-0.6,0.7c0,0-0.1,0-0.1,0l-0.2-0.5
			L106,44.7L106,44.7z"/>
		<path class="st1" d="M102.8,52.3l-0.8,0.4l-1.7-5.5l0.8-0.4l0.1,0.2l0.2,0.6c-0.2,0.2-0.3,0.5-0.2,0.9c0.1,0.3,0.4,0.5,0.6,0.5
			l0.2,0.7L102.8,52.3L102.8,52.3z"/>
		<path class="st1" d="M103.3,47.7c-0.3-0.8-1.1-1.2-1.7-0.9c-0.2,0.1-0.3,0.2-0.4,0.3c-0.3,0.4-0.4,1-0.1,1.6c0.3,0.6,0.8,1,1.3,1
			c0.1,0,0.2,0,0.3-0.1C103.4,49.4,103.7,48.5,103.3,47.7L103.3,47.7z M102.3,49c0,0-0.1,0-0.1,0c-0.3,0.1-0.6-0.1-0.7-0.4
			c-0.2-0.3-0.1-0.7,0.1-0.9c0,0,0.1-0.1,0.1-0.1c0.3-0.2,0.7,0,0.8,0.4S102.6,48.9,102.3,49L102.3,49z"/>
		<polygon class="st1" points="109.9,45.7 109,46 107.1,41 108.2,40.8 		"/>
		<ellipse class="st1" cx="109.8" cy="46.9" rx="0.8" ry="0.7"/>
		<g>
			<path class="st2" d="M101.3,44.1C101.3,44.1,101.3,44.2,101.3,44.1c-0.1,0.2-0.3,0.4-0.2,0.8c0.1,0.2,0.2,0.6,0.4,0.8
				c0.2,0.1,0.5,0.2,0.6,0.1c0.4,0,1.5-0.6,3.1-1.4c0.1,0,0.4-0.3,0.4-0.3c1.9-1,3.8-2.3,4-2.5c0.4-0.4,0.1-0.4-0.1-0.4
				c-0.3,0-0.6,0.1-0.8,0.2c-4.3,2.1-0.9,0.3-1.4,0.4c0,0-1,0.3-1,0.3c-0.2,0.1-2.5,1-4.4,1.5C101.6,43.7,101.4,43.9,101.3,44.1
				L101.3,44.1z"/>
			<path class="st3" d="M102.2,45.9c-0.2,0-0.4,0-0.5-0.2c-0.3-0.2-0.4-0.5-0.4-0.8v0c-0.1-0.4,0-0.6,0.1-0.7v0c0,0,0,0,0,0
				c0,0,0,0,0,0l0,0c0.2-0.3,0.4-0.4,0.7-0.5c1.5-0.3,3.2-1,4-1.3c0.2-0.1,0.3-0.1,0.4-0.2c0,0,0.1,0,0.2-0.1
				c0.7-0.2,0.8-0.2,0.8-0.2c0,0,0.1,0,0.1,0c0,0-0.1,0.1-0.5,0.4c-0.1,0.1-0.2,0.1-0.3,0.2c0.4-0.2,1.6-0.8,2.1-1
				c0.2-0.1,0.5-0.2,0.8-0.2c0.1,0,0.3,0,0.3,0.1c0,0.1,0,0.2-0.2,0.4c-0.2,0.2-2.2,1.5-4,2.5c0,0-0.1,0.1-0.2,0.1
				c-0.1,0.1-0.2,0.1-0.2,0.2C103.6,45.4,102.6,45.8,102.2,45.9C102.2,45.9,102.2,45.9,102.2,45.9L102.2,45.9z M107.4,41.9
				c-0.1,0-0.5,0.2-0.8,0.2c-0.1,0-0.2,0-0.2,0.1c-0.1,0-0.2,0.1-0.4,0.2c-0.7,0.3-2.5,1-4,1.3c-0.3,0.1-0.5,0.2-0.7,0.5l0,0
				c0,0,0,0,0,0c0,0,0,0,0,0.1v0c-0.1,0.1-0.2,0.3-0.1,0.7v0c0.1,0.2,0.2,0.6,0.4,0.7c0.2,0.1,0.4,0.2,0.6,0.1
				c0.3,0,1.3-0.5,3.1-1.4c0,0,0.1-0.1,0.2-0.1c0.1-0.1,0.2-0.1,0.2-0.1c1.9-1,3.8-2.3,4-2.5c0.2-0.2,0.2-0.3,0.2-0.3
				c0-0.1-0.2,0-0.3,0c-0.3,0-0.6,0.1-0.8,0.2c-2.2,1.1-2.2,1-2.3,1c0,0,0-0.1,0.4-0.3C107.1,42.1,107.3,42,107.4,41.9L107.4,41.9z"
				/>
		</g>
		<path class="st3" d="M103.7,45.2c0,0-0.3,0-0.5-0.5c0,0,0,0,0,0c0,0,0,0,0,0C103.4,45.1,103.7,45.1,103.7,45.2
			C103.7,45.1,103.7,45.1,103.7,45.2C103.7,45.1,103.7,45.2,103.7,45.2L103.7,45.2L103.7,45.2z"/>
		<path class="st3" d="M107.5,43.1L107.5,43.1c-0.2,0-0.3-0.2-0.3-0.3c0,0,0,0,0,0c0,0,0,0,0,0C107.3,42.8,107.4,43,107.5,43.1
			C107.5,43,107.6,43,107.5,43.1C107.5,43.1,107.5,43.1,107.5,43.1L107.5,43.1z"/>
		<path class="st3" d="M103.4,45.3c-0.1,0-0.4-0.2-0.6-0.7c0,0,0,0,0,0c0,0,0,0,0,0C103.1,45.1,103.3,45.2,103.4,45.3L103.4,45.3
			C103.4,45.2,103.4,45.2,103.4,45.3C103.4,45.2,103.5,45.2,103.4,45.3C103.5,45.3,103.5,45.3,103.4,45.3
			C103.4,45.3,103.4,45.3,103.4,45.3L103.4,45.3z M103.4,45.3L103.4,45.3L103.4,45.3z"/>
		<path class="st3" d="M103.9,45c-0.1,0-0.2,0-0.3-0.2c0,0,0,0,0,0c0,0,0,0,0,0C103.8,45,103.9,44.9,103.9,45
			C103.9,44.9,103.9,44.9,103.9,45C103.9,45,103.9,45,103.9,45C103.9,45,103.9,45,103.9,45L103.9,45z"/>
		<path class="st1" d="M98.7,46.2C98.7,46.2,98.7,46.2,98.7,46.2C98.7,46.2,98.7,46.2,98.7,46.2c0.2-0.5,1.9-1.2,2.4-1.3
			c-0.9-0.2-1.4-0.4-1.8-0.6C99,44.1,98.7,44,98.5,44c0,0,0,0,0,0s0,0,0,0c0.3,0,0.5,0.1,0.9,0.3c0.4,0.2,0.9,0.4,1.9,0.6
			c0,0,0,0,0,0c0,0,0,0,0,0C100.8,45,98.9,45.7,98.7,46.2C98.7,46.2,98.7,46.2,98.7,46.2L98.7,46.2z M101.2,44.9L101.2,44.9
			L101.2,44.9z"/>
		<path class="st1" d="M100.2,46.8L100.2,46.8C100.1,46.8,100.1,46.7,100.2,46.8c0-0.3,0.2-0.4,0.4-0.6c0.2-0.3,0.5-0.6,0.6-1.1
			c-0.1,0-0.2,0.1-0.2,0.1c-0.5,0.2-1.3,0.6-1.6,1.2c0,0,0,0,0,0s0,0,0,0c0.3-0.7,1.1-1,1.6-1.2c0.1,0,0.2-0.1,0.3-0.1c0,0,0,0,0,0
			h0v0c0,0,0,0,0,0c-0.1,0.6-0.4,0.9-0.6,1.2C100.4,46.4,100.3,46.5,100.2,46.8C100.2,46.8,100.2,46.8,100.2,46.8z"/>
		<path class="st1" d="M98.2,45.2C98.2,45.2,98.2,45.2,98.2,45.2C98.2,45.2,98.2,45.2,98.2,45.2c0-0.1,0.5-0.7,2.9-0.4l0,0
			c0,0,0,0,0,0c-0.1-0.1-0.2-0.1-0.4-0.2c-0.4-0.2-1-0.6-0.9-0.9c0.1-0.3-0.2-0.5-0.2-0.5c0,0,0,0,0,0c0,0,0,0,0,0
			c0,0,0.3,0.2,0.2,0.6c-0.1,0.3,0.4,0.6,0.8,0.9c0.2,0.1,0.3,0.2,0.4,0.2c0,0,0,0,0,0.1c0,0,0,0-0.1,0
			C98.8,44.6,98.3,45.2,98.2,45.2C98.3,45.2,98.2,45.3,98.2,45.2L98.2,45.2z"/>
		<path class="st1" d="M98.7,45.6C98.7,45.6,98.7,45.6,98.7,45.6C98.7,45.6,98.7,45.5,98.7,45.6c0.1-0.1,0.7-0.4,0.9-0.4
			c0.2,0,1.4-0.3,1.5-0.4c0,0,0,0,0,0c0,0,0,0,0,0c0,0.1-1.5,0.4-1.6,0.4C99.4,45.3,98.9,45.5,98.7,45.6
			C98.7,45.6,98.7,45.6,98.7,45.6L98.7,45.6z"/>
		<path class="st3" d="M107.7,43C107.7,43,107.7,43,107.7,43C107.7,43,107.7,43,107.7,43C107.6,43,107.6,43,107.7,43
			c-0.2-0.1-0.3-0.1-0.3-0.2c0,0,0,0,0,0s0,0,0,0C107.4,42.8,107.5,42.9,107.7,43C107.7,42.9,107.7,42.9,107.7,43
			C107.7,43,107.7,43,107.7,43C107.7,43,107.7,43,107.7,43L107.7,43z M107.7,43L107.7,43L107.7,43z"/>
		<path class="st3" d="M102.2,45.7C102.2,45.7,102.2,45.7,102.2,45.7c-0.1,0-0.5-0.1-0.6-0.6c0,0,0,0,0,0s0,0,0,0
			C101.7,45.5,102,45.6,102.2,45.7C102.2,45.6,102.2,45.7,102.2,45.7C102.2,45.7,102.1,45.7,102.2,45.7L102.2,45.7L102.2,45.7z"/>
		<path class="st3" d="M102,44C102,44,102,44,102,44c-0.1-0.2,0-0.3,0-0.3c0,0,0,0,0,0c0,0,0,0,0,0C102.1,43.8,102,43.8,102,44
			C102,44,102,44,102,44L102,44L102,44z"/>
		<path class="st1" d="M99.3,47.1C99.3,47.1,99.3,47.1,99.3,47.1c-0.1-0.2,0.1-0.4,0.3-0.6c0.2-0.2,0.3-0.3,0.3-0.4
			c0-0.3,1.1-1.1,1.2-1.1c0,0,0,0,0,0c0,0,0,0,0,0c-0.3,0.2-1.1,0.8-1.2,1.1c0,0.1-0.2,0.3-0.3,0.5C99.6,46.7,99.3,46.9,99.3,47.1
			C99.4,47.1,99.4,47.1,99.3,47.1L99.3,47.1L99.3,47.1z"/>
	</g>
</g>
</svg>
