<?xml version="1.0" encoding="utf-8"?>
<!-- Generator: Adobe Illustrator 27.5.0, SVG Export Plug-In . SVG Version: 6.00 Build 0)  -->
<svg version="1.1" id="Ebene_2_00000145050113869894371930000003032802676306889882_"
	 xmlns="http://www.w3.org/2000/svg" xmlns:xlink="http://www.w3.org/1999/xlink" x="0px" y="0px" viewBox="0 0 80.2 80.2"
	 style="enable-background:new 0 0 80.2 80.2;" xml:space="preserve">
<style type="text/css">
	.st0{stroke:#000000;stroke-width:0.25;stroke-miterlimit:10;}
	.st1{fill:#FFFFFF;}
	.st2{display:none;fill:#FFFFFF;}
</style>
<g id="Ebene_1-2">
	<g>
		
			<ellipse transform="matrix(0.9998 -1.891854e-02 1.891854e-02 0.9998 -0.7373 0.7484)" class="st0" cx="39.2" cy="39.3" rx="23.4" ry="22.7"/>
		<g>
			<path class="st1" d="M39.6,63.9c-13.7,0-24.7-11-24.7-24.6s11-24.6,24.7-24.6s24.7,11.1,24.7,24.6S53.2,63.9,39.6,63.9L39.6,63.9
				z M39.6,17.2c-12.3,0-22.3,9.9-22.3,22.1s10,22.2,22.3,22.2s22.3-9.9,22.3-22.2S51.8,17.2,39.6,17.2z"/>
			<path class="st1" d="M34.7,39l2,6c0.3,1,1.4,1.6,2.4,1.2l2.9-0.9c0.9-0.3,1.4-1.3,1.1-2.2l-2-6.1l-2.1,0.7l1.4,4.4
				c0.2,0.6-0.1,1.3-0.7,1.5l0,0c-0.6,0.2-1.2-0.1-1.4-0.7l-1.5-4.5L34.7,39L34.7,39L34.7,39z"/>
			<path class="st1" d="M42.1,34.8l3.3,9.4l2-0.7l-1.7-4.6c-0.1-0.3-0.1-0.7,0.1-0.9l2.1-2.8l-1.5-1.2l-1.5,1.9
				c-0.1,0.1-0.2,0-0.2,0l-0.6-1.4L42.1,34.8L42.1,34.8L42.1,34.8z"/>
			<path class="st1" d="M33.8,54.8l-2.1,1L27,41.3l2.1-1l0.2,0.6l0.5,1.6c-0.5,0.4-0.7,1.4-0.4,2.3c0.3,0.9,0.9,1.5,1.6,1.4l0.6,1.9
				L33.8,54.8L33.8,54.8z"/>
			<path class="st1" d="M35.2,42.8c-0.9-2-2.8-3.1-4.4-2.4c-0.4,0.2-0.7,0.5-1,0.9c-0.7,1.1-0.9,2.7-0.3,4.3
				c0.7,1.7,2.2,2.7,3.6,2.6c0.3,0,0.6-0.1,0.9-0.2C35.5,47.2,36.1,44.9,35.2,42.8L35.2,42.8z M32.4,46.2c-0.1,0-0.2,0.1-0.3,0.1
				c-0.7,0.2-1.5-0.3-1.9-1.2c-0.4-0.9-0.2-1.9,0.2-2.4c0.1-0.1,0.2-0.1,0.2-0.2c0.7-0.4,1.7,0,2.2,1.1
				C33.3,44.7,33.1,45.8,32.4,46.2L32.4,46.2z"/>
			<polygon class="st1" points="52.7,37.2 50.3,38.1 45.2,24.8 48.1,24.5 			"/>
			<ellipse class="st1" cx="52.4" cy="40.5" rx="2" ry="1.9"/>
			<g>
				<path class="st1" d="M29.8,33.2c0,0.1-0.1,0.1-0.1,0.2c-0.2,0.2-0.6,0.7-0.3,1.9c0.2,0.6,0.4,1.6,1.2,2c0.5,0.3,1.2,0.4,1.6,0.4
					c0.9-0.1,4.1-1.6,8.2-3.8c0.2-0.1,1.1-0.7,1.2-0.7c5.1-2.7,10.1-6.1,10.6-6.6c1-1.1,0.2-1.1-0.3-1.1c-0.9,0-1.5,0.3-2.1,0.6
					c-11.5,5.5-2.4,0.7-3.8,1.1L43.3,28c-0.6,0.2-6.6,2.8-11.6,3.8C30.6,32.1,30.1,32.7,29.8,33.2L29.8,33.2L29.8,33.2z"/>
				<path class="st1" d="M32,37.9c-0.4,0-1-0.1-1.4-0.4c-0.7-0.5-1-1.4-1.2-2v-0.1c-0.4-1.2,0-1.7,0.2-2l0,0c0-0.1,0.1-0.1,0.1-0.2
					c0,0,0,0,0-0.1l0,0c0.4-0.7,1.1-1.2,1.9-1.4c4-0.9,8.6-2.7,10.5-3.5c0.6-0.2,0.9-0.4,1.1-0.4c0,0,0.2-0.1,0.5-0.1
					c2-0.6,2.1-0.6,2.1-0.6s0.2,0,0.2,0c0,0.1-0.1,0.3-1.3,1c-0.2,0.1-0.5,0.3-0.7,0.5c1-0.4,4.4-2,5.6-2.5c0.6-0.3,1.2-0.6,2.2-0.6
					c0.3,0,0.7,0,0.9,0.2c0.1,0.2,0,0.5-0.5,1c-0.6,0.6-5.8,4-10.7,6.6c-0.1,0-0.3,0.2-0.6,0.4c-0.2,0.2-0.5,0.3-0.6,0.4
					C35.7,36.4,32.9,37.7,32,37.9c-0.1-0.1-0.1-0.1-0.2-0.1l0,0L32,37.9z M45.9,27.2c-0.2,0.1-1.4,0.4-2.1,0.6
					c-0.3,0.1-0.5,0.1-0.5,0.1c-0.1,0-0.5,0.2-1.1,0.4c-2,0.8-6.6,2.6-10.5,3.5c-0.8,0.2-1.4,0.6-1.9,1.3l0,0c0,0,0,0,0,0.1
					c0,0,0,0.1-0.1,0.1l0,0c-0.2,0.3-0.6,0.8-0.2,1.9v0.1c0.2,0.6,0.5,1.5,1.1,1.9c0.5,0.3,1.2,0.4,1.6,0.4c0.9-0.1,3.6-1.4,8.2-3.8
					c0.1,0,0.3-0.2,0.6-0.4c0.2-0.2,0.5-0.3,0.6-0.4c5.1-2.7,10.1-6.1,10.6-6.6c0.5-0.6,0.5-0.7,0.5-0.8c-0.1-0.1-0.5-0.1-0.7-0.1
					c-0.9,0-1.5,0.3-2.1,0.6c-5.9,2.8-5.9,2.7-6,2.6c0-0.1,0-0.1,1-0.8c0.4-0.2,0.9-0.6,1.1-0.7l0,0L45.9,27.2z"/>
			</g>
			<path d="M36.1,35.9c-0.1,0-0.9,0-1.3-1.4c0,0,0-0.1,0-0.1c0,0,0.1,0,0.1,0c0.4,1.4,1.2,1.3,1.2,1.3s0.1,0,0.1,0.1s0,0.1-0.1,0.1
				l0,0l0,0V35.9z"/>
			<path d="M35.3,36.3c-0.3,0-1.1-0.4-1.5-1.8c0,0,0-0.1,0-0.1h0.1c0.4,1.4,1.2,1.7,1.3,1.7l0,0l0,0c0,0,0.1,0,0.1,0
				c0,0,0,0.1-0.1,0.1l0,0l0,0L35.3,36.3z M35.3,36.2L35.3,36.2z"/>
			<path d="M36.6,35.6c-0.1,0-0.5,0-0.7-0.6c0,0,0-0.1,0-0.1c0-0.1,0.1,0,0.1,0c0.2,0.6,0.6,0.5,0.6,0.5h0.1
				C36.7,35.4,36.7,35.4,36.6,35.6L36.6,35.6L36.6,35.6z"/>
			<path class="st1" d="M22.8,38.7L22.8,38.7c0,0,0,0,0-0.1c0.6-1.2,5.2-2.9,6.4-3.4c-2.4-0.6-3.7-1.2-4.7-1.7
				c-0.9-0.4-1.5-0.7-2.2-0.7c0,0-0.1,0-0.1-0.1c0-0.1,0-0.1,0.1-0.1c0.8,0,1.4,0.3,2.3,0.7c1.1,0.5,2.5,1.2,4.9,1.7
				c0,0,0.1,0,0.1,0.1s0,0.1-0.1,0.1c-1,0.2-6.1,2-6.6,3.3C22.9,38.7,22.9,38.7,22.8,38.7L22.8,38.7L22.8,38.7z M29.4,35.4
				L29.4,35.4z"/>
			<path class="st1" d="M26.7,40.2L26.7,40.2c0,0-0.1,0,0-0.1c0.1-0.6,0.6-1.1,1-1.6c0.6-0.7,1.4-1.6,1.6-3
				c-0.2,0.1-0.4,0.2-0.7,0.3c-1.2,0.6-3.4,1.6-4.1,3.2c0,0-0.1,0-0.1,0c-0.1,0,0,0,0-0.1c0.7-1.7,2.9-2.7,4.2-3.3
				c0.3-0.1,0.6-0.2,0.7-0.4c0,0,0,0,0.1,0h0.1c0,0.1,0,0.1,0,0.1c-0.2,1.6-1,2.5-1.7,3.2C27.3,39,27,39.5,26.8,40c0,0,0,0-0.1,0
				l0,0L26.7,40.2z"/>
			<path class="st1" d="M21.5,36.2L21.5,36.2c0,0,0-0.1,0-0.1c0-0.1,1.4-1.7,7.7-0.9l0,0l0,0c-0.1-0.1-0.5-0.4-0.9-0.6
				c-1.1-0.6-2.6-1.6-2.3-2.5c0.2-0.7-0.6-1.2-0.6-1.3c0,0,0-0.1,0-0.1c0,0,0.1,0,0.1,0c0,0,0.9,0.6,0.6,1.5
				c-0.2,0.8,1.2,1.7,2.2,2.3c0.4,0.2,0.8,0.5,1,0.6c0,0,0.1,0.1,0,0.2c-0.1,0.1-0.1,0.1-0.2,0.1c-6.2-0.8-7.6,0.8-7.6,0.8
				S21.6,36.1,21.5,36.2L21.5,36.2L21.5,36.2z"/>
			<path class="st1" d="M22.8,37.1C22.8,37.1,22.8,37.1,22.8,37.1c-0.1,0-0.1-0.1-0.1-0.1c0.2-0.1,1.8-0.9,2.3-0.8
				c0.4,0.1,3.9-0.8,4.1-1h0.1c0,0,0,0.1,0,0.1c-0.1,0.2-3.9,1.1-4.2,1.1C24.6,36.3,23.3,36.9,22.8,37.1L22.8,37.1L22.8,37.1
				L22.8,37.1z"/>
			<path d="M46.7,30.2L46.7,30.2L46.7,30.2c0,0-0.1,0-0.1,0c-0.2-0.1-0.6-0.2-0.6-0.5v-0.1c0,0,0.1,0,0.1,0.1c0,0.2,0.3,0.3,0.5,0.4
				C46.7,30.1,46.8,30.2,46.7,30.2C46.8,30.2,46.8,30.2,46.7,30.2C46.8,30.3,46.8,30.3,46.7,30.2L46.7,30.2L46.7,30.2z M46.6,30.1
				L46.6,30.1z"/>
			<path d="M31.9,37.4L31.9,37.4c-0.3,0-1.2-0.3-1.4-1.6c0,0,0-0.1,0.1-0.1s0.1,0,0.1,0.1c0.2,1.1,1,1.4,1.3,1.4
				C32,37.2,32,37.2,31.9,37.4C32,37.3,32,37.4,31.9,37.4C31.9,37.4,31.9,37.4,31.9,37.4z"/>
			<path d="M31.6,32.9C31.6,32.9,31.5,32.9,31.6,32.9c-0.2-0.7,0.1-0.9,0.1-0.9s0.1,0,0.1,0c0,0,0,0.1,0,0.1c0,0-0.2,0.1-0.1,0.6
				v0.1l0,0L31.6,32.9z"/>
			<path class="st1" d="M24.5,41.1L24.5,41.1c-0.1-0.4,0.4-1,0.9-1.6c0.4-0.4,0.8-0.9,0.8-1.1c0-0.9,3-2.9,3.1-3c0,0,0.1,0,0.1,0
				c0,0,0,0.1,0,0.1c-0.9,0.6-3.1,2.2-3.1,2.9c0,0.3-0.4,0.7-0.9,1.2c-0.5,0.6-1,1.2-0.9,1.5c0,0,0,0.1,0,0.1l0,0l0,0L24.5,41.1z"/>
			<path class="st2" d="M39.6,64C26,64,14.8,52.9,14.8,39.4S26,14.8,39.6,14.8s24.7,11.1,24.7,24.6S53.2,64,39.6,64L39.6,64z
				 M39.6,17.2c-12.3,0-22.2,9.9-22.2,22.1s10,22.2,22.3,22.2s22.3-9.9,22.3-22.2S51.9,17.2,39.6,17.2L39.6,17.2z"/>
		</g>
	</g>
</g>
</svg>
