<?xml version="1.0" encoding="utf-8"?>
<!-- Generator: Adobe Illustrator 27.5.0, SVG Export Plug-In . SVG Version: 6.00 Build 0)  -->
<svg version="1.1" id="Ebene_2_00000019646429476463008370000010304515987871829437_"
	 xmlns="http://www.w3.org/2000/svg" xmlns:xlink="http://www.w3.org/1999/xlink" x="0px" y="0px" viewBox="0 0 166 156"
	 style="enable-background:new 0 0 166 156;" xml:space="preserve">
<style type="text/css">
	.st0{stroke:#000000;stroke-width:1.66;}
	.st1{fill:#D9E021;stroke:#1D1D1B;stroke-miterlimit:10;}
	.st2{fill:#D9E021;}
</style>
<g id="Ebene_1-2">
	<g>
		<path class="st0" d="M144.2,13.3c2.5,3.7,7.3,10.1,7.8,11.3c3.3,7.1,11.9,28,12.8,29.7c1.2,2.5-2.5,3.7-2.5,3.7
			c-6.4,2.1-5.6,1.6-24.2,4c-0.7,0.1-4.5-3.2-6.8-12.7c-3.2-13.1-2.5-8.3-2.5-8.3v5c0,8.7-1.3,39.6-1.2,40.9l1.4,55.8
			c0.1,7.3-2.7,8.3-3.9,8.3c-2.5,0-6.2,3.7-22.3,2.5c-6.6-0.5-19.8,0-32.3,1.2c-12.6,1.3-11.5-1.2-32.3-1.2c-6.7,0-5.1-2.9-6.2-16.1
			c-0.4-4.7,1.2-40.6,1.2-61.7c0-14,2.5-38.9,1.2-36.4c-3.7,7.4-2.6,16.4-5,21.1c-1.2,2.5-13.1,2.5-16.5,1.2l-9.5-0.8
			c-2.3-0.2-3.2-0.3-2.5-4.1c2.5-12.4,4.8-17.4,6.4-26.9c2.3-14.1,6.7-14.7,11-17.8c7.6-5.5,19.9-7,32.3-10.8
			c4.1-1.2,5.3,4.4,12.9,7c9.7,3.3,12.6,1.4,19.7,1.6c3.8,0.1,9.9-0.9,13.5-2.3c15.5-6.3,10.2-7.7,14.9-6.3
			c12.9,3.8,18.5,3.1,27.1,7.4C142.4,10.6,142.4,10.5,144.2,13.3L144.2,13.3z"/>
		<g>
			<path class="st1" d="M81.9,84.9c-15.5,0-28-12.6-28-28s12.6-28,28-28s28,12.6,28,28S97.4,84.9,81.9,84.9z M81.9,31.6
				c-13.9,0-25.2,11.3-25.2,25.2S68,82.1,81.9,82.1s25.2-11.3,25.2-25.2S95.9,31.6,81.9,31.6z"/>
			<path class="st2" d="M76.5,56.4l2.3,6.8c0.4,1.1,1.6,1.8,2.7,1.4l3.2-1.1c1.1-0.3,1.6-1.5,1.3-2.5l-2.3-7l-2.3,0.8l1.7,5.1
				c0.2,0.7-0.2,1.5-0.9,1.7l0,0c-0.7,0.2-1.4-0.1-1.6-0.8l-1.7-5.1L76.5,56.4L76.5,56.4z"/>
			<path class="st2" d="M84.9,51.7l3.8,10.7l2.3-0.8l-2-5.2c-0.1-0.4-0.1-0.8,0.2-1.1l2.4-3.2l-1.7-1.3l-1.7,2.1
				c-0.1,0.1-0.2,0.1-0.3,0l-0.7-1.7L84.9,51.7L84.9,51.7z"/>
			<path class="st2" d="M75.4,74.5L73,75.7l-5.2-16.5l2.4-1.2l0.2,0.6l0.6,1.8c-0.6,0.5-0.8,1.6-0.5,2.6c0.3,1,1.1,1.7,1.8,1.6
				l0.7,2.2L75.4,74.5L75.4,74.5z"/>
			<path class="st2" d="M77,60.8c-0.9-2.4-3.2-3.6-5-2.7c-0.5,0.2-0.9,0.6-1.2,1c-0.9,1.2-1.1,3.1-0.4,4.9c0.8,2,2.4,3.1,4,3
				c0.3,0,0.7-0.1,1-0.3C77.2,65.8,77.9,63.2,77,60.8L77,60.8z M73.8,64.7c-0.1,0.1-0.2,0.1-0.3,0.1c-0.8,0.2-1.7-0.3-2.2-1.3
				c-0.4-1-0.3-2.1,0.3-2.7c0.1-0.1,0.2-0.2,0.3-0.2c0.8-0.5,2,0.1,2.5,1.2C74.9,62.9,74.7,64.2,73.8,64.7L73.8,64.7z"/>
			<polygon class="st2" points="96.9,54.5 94.2,55.5 88.4,40.3 91.6,40 			"/>
			<ellipse class="st2" cx="96.5" cy="58.1" rx="2.3" ry="2.2"/>
			<g>
				<path class="st2" d="M70.9,49.8c-0.1,0.1-0.1,0.1-0.2,0.2c-0.2,0.3-0.7,0.8-0.3,2.2c0.2,0.6,0.5,1.8,1.3,2.4
					c0.6,0.4,1.4,0.5,1.8,0.4c1.1-0.1,4.6-1.8,9.3-4.3c0.2-0.1,1.2-0.8,1.4-0.9c5.7-3.1,11.5-6.9,12.1-7.6c1.2-1.3,0.3-1.3-0.3-1.2
					c-1,0.1-1.7,0.4-2.4,0.7c-13,6.2-2.8,0.9-4.3,1.2c0,0-2.9,0.9-3,0.9c-0.7,0.2-7.4,3.2-13.2,4.4C71.9,48.6,71.3,49.3,70.9,49.8
					L70.9,49.8z"/>
				<path class="st2" d="M73.4,55.2c-0.5,0-1.2-0.1-1.6-0.5c-0.8-0.6-1.1-1.7-1.3-2.3l0-0.1c-0.4-1.3,0.1-1.9,0.3-2.2l0-0.1
					c0-0.1,0.1-0.1,0.1-0.2c0,0,0-0.1,0.1-0.1l0,0c0.5-0.8,1.3-1.3,2.2-1.5c4.5-1,9.7-3.1,12-4c0.6-0.2,1-0.4,1.2-0.5
					c0,0,0.2-0.1,0.5-0.2c2.2-0.7,2.4-0.7,2.4-0.8c0.1,0,0.2,0,0.3,0.1c0.1,0.1-0.2,0.3-1.5,1.2c-0.3,0.2-0.6,0.4-0.8,0.5
					c1.2-0.4,5-2.3,6.3-2.9c0.7-0.3,1.4-0.7,2.5-0.7c0.4,0,0.8,0,1,0.2c0.1,0.2-0.1,0.6-0.6,1.1c-0.6,0.7-6.6,4.6-12.1,7.6
					c-0.1,0-0.4,0.2-0.7,0.4c-0.3,0.2-0.6,0.4-0.7,0.4c-5.2,2.8-8.3,4.2-9.3,4.3C73.5,55.2,73.5,55.2,73.4,55.2L73.4,55.2z
					 M89.2,43.1c-0.2,0.1-1.6,0.5-2.4,0.7c-0.3,0.1-0.5,0.2-0.5,0.2c-0.2,0-0.6,0.2-1.2,0.5c-2.2,0.9-7.4,3-12,4
					c-0.9,0.2-1.6,0.7-2.1,1.5l0,0c0,0,0,0-0.1,0.1c0,0-0.1,0.1-0.1,0.2l-0.1,0.1c-0.2,0.3-0.6,0.8-0.3,2.1l0,0.1
					c0.2,0.6,0.5,1.7,1.3,2.2c0.5,0.4,1.4,0.5,1.8,0.4c1-0.1,4.1-1.5,9.2-4.3c0.1,0,0.4-0.2,0.7-0.4c0.3-0.2,0.6-0.4,0.7-0.4
					c5.8-3.1,11.5-7,12-7.5c0.6-0.6,0.6-0.9,0.5-1c-0.1-0.2-0.5-0.1-0.8-0.1c-1,0.1-1.7,0.4-2.4,0.7c-6.7,3.2-6.8,3.1-6.8,3
					c-0.1-0.1,0-0.2,1.1-0.9C88.3,43.7,88.9,43.3,89.2,43.1L89.2,43.1z"/>
			</g>
			<path d="M78,53c-0.2,0-1.1-0.1-1.5-1.6c0,0,0-0.1,0.1-0.1c0.1,0,0.1,0,0.1,0.1c0.4,1.5,1.3,1.5,1.3,1.5
				C78.1,52.8,78.1,52.9,78,53C78.1,53,78.1,53,78,53C78,53,78,53,78,53z"/>
			<path d="M89.6,46.8C89.6,46.8,89.5,46.8,89.6,46.8c-0.6-0.1-0.9-0.7-1-0.8c0,0,0-0.1,0-0.1s0.1,0,0.1,0c0.1,0.2,0.3,0.6,0.8,0.7
				C89.6,46.6,89.7,46.6,89.6,46.8C89.6,46.7,89.6,46.7,89.6,46.8L89.6,46.8z"/>
			<path d="M77.1,53.4c-0.3,0-1.2-0.4-1.7-2.1c0,0,0-0.1,0.1-0.1c0.1,0,0.1,0,0.1,0.1c0.5,1.7,1.3,1.9,1.5,1.9l0,0c0,0,0,0,0.1,0
				c0.1,0,0.1,0,0.1,0.1C77.3,53.3,77.3,53.4,77.1,53.4C77.2,53.4,77.2,53.4,77.1,53.4z M77.1,53.3L77.1,53.3L77.1,53.3z"/>
			<path d="M78.6,52.5c-0.2,0-0.5-0.1-0.8-0.7c0,0,0-0.1,0-0.1s0.1,0,0.1,0c0.3,0.6,0.7,0.6,0.7,0.6c0.1,0,0.1,0,0.1,0.1
				C78.8,52.5,78.8,52.5,78.6,52.5C78.7,52.5,78.7,52.5,78.6,52.5L78.6,52.5z"/>
			<path class="st2" d="M62.9,56.2C62.9,56.2,62.9,56.2,62.9,56.2c-0.1,0-0.1-0.1-0.1-0.1c0.6-1.4,5.9-3.3,7.3-3.8
				c-2.7-0.6-4.2-1.3-5.4-1.9c-1-0.5-1.7-0.8-2.5-0.8c0,0-0.1,0-0.1-0.1c0,0,0-0.1,0.1-0.1c0.9,0,1.6,0.4,2.6,0.8
				c1.2,0.6,2.8,1.3,5.6,1.9c0.1,0,0.1,0,0.1,0.1s0,0.1-0.1,0.1C69.3,52.6,63.6,54.7,62.9,56.2C63,56.2,62.9,56.2,62.9,56.2
				L62.9,56.2z M70.4,52.3L70.4,52.3L70.4,52.3z"/>
			<path class="st2" d="M67.4,57.8L67.4,57.8c-0.1,0-0.1-0.1-0.1-0.1c0.2-0.7,0.6-1.2,1.1-1.8c0.7-0.8,1.5-1.8,1.8-3.5
				c-0.2,0.1-0.4,0.2-0.8,0.4c-1.4,0.7-3.8,1.8-4.7,3.7c0,0-0.1,0.1-0.1,0s-0.1-0.1-0.1-0.1c0.9-2,3.3-3.1,4.8-3.8
				c0.4-0.2,0.7-0.3,0.9-0.4c0,0,0.1-0.1,0.1-0.1h0.1l0,0.1c0,0,0,0.1,0,0.1c-0.3,1.8-1.2,2.8-1.9,3.7C68,56.6,67.6,57.1,67.4,57.8
				C67.4,57.8,67.4,57.8,67.4,57.8z"/>
			<path class="st2" d="M61.5,53.2C61.5,53.2,61.5,53.2,61.5,53.2c-0.1,0-0.1-0.1-0.1-0.1c0.1-0.1,1.6-2,8.8-1h0c0,0,0,0,0,0
				c-0.2-0.2-0.6-0.4-1.1-0.7c-1.2-0.7-2.9-1.8-2.6-2.8c0.3-0.9-0.6-1.5-0.7-1.5s-0.1-0.1,0-0.1c0,0,0.1,0,0.1,0
				c0,0,1.1,0.7,0.7,1.7c-0.3,0.9,1.3,1.9,2.5,2.6c0.5,0.3,0.9,0.5,1.1,0.8c0.1,0.1,0.1,0.2,0,0.2c0,0.1-0.1,0.1-0.2,0.1
				C63.1,51.4,61.6,53.2,61.5,53.2C61.6,53.2,61.5,53.2,61.5,53.2z"/>
			<path class="st2" d="M62.9,54.3C62.9,54.3,62.9,54.3,62.9,54.3c-0.1-0.1-0.1-0.1,0-0.2c0.2-0.1,2.1-1,2.6-0.9
				c0.5,0.1,4.4-0.9,4.7-1.1c0,0,0.1,0,0.1,0c0,0,0.1,0.1,0,0.1c-0.1,0.2-4.4,1.2-4.8,1.2C65,53.3,63.5,54.1,62.9,54.3
				C62.9,54.3,62.9,54.3,62.9,54.3L62.9,54.3z"/>
			<path d="M90.1,46.5C90.1,46.5,90,46.5,90.1,46.5C90,46.5,90,46.4,90.1,46.5c-0.1-0.1-0.2-0.1-0.2-0.1c-0.2-0.1-0.6-0.2-0.7-0.5
				c0,0,0-0.1,0.1-0.1s0.1,0,0.1,0.1c0.1,0.2,0.4,0.3,0.6,0.4c0.2,0,0.2,0.1,0.2,0.2C90.1,46.4,90.1,46.4,90.1,46.5
				C90.1,46.5,90.1,46.5,90.1,46.5L90.1,46.5z M90,46.3L90,46.3L90,46.3z"/>
			<path d="M73.4,54.7C73.4,54.7,73.3,54.7,73.4,54.7c-0.4,0-1.5-0.3-1.7-1.8c0,0,0-0.1,0.1-0.1c0.1,0,0.1,0,0.1,0.1
				c0.2,1.3,1.1,1.6,1.5,1.6C73.4,54.5,73.5,54.6,73.4,54.7C73.4,54.6,73.4,54.7,73.4,54.7L73.4,54.7L73.4,54.7z"/>
			<path d="M72.9,49.6C72.9,49.6,72.8,49.6,72.9,49.6c-0.2-0.8,0-1,0.1-1s0.1,0,0.1,0c0,0,0,0.1,0,0.1c0,0-0.2,0.2-0.1,0.7
				C73,49.5,73,49.6,72.9,49.6C72.9,49.6,72.9,49.6,72.9,49.6L72.9,49.6z"/>
			<path class="st2" d="M64.9,58.8C64.9,58.8,64.8,58.8,64.9,58.8c-0.2-0.5,0.4-1.2,1-1.9c0.4-0.5,0.9-1,0.9-1.3
				c0.1-1,3.4-3.3,3.6-3.4c0,0,0.1,0,0.1,0c0,0,0,0.1,0,0.1c-0.9,0.7-3.4,2.5-3.5,3.3c0,0.3-0.5,0.8-1,1.4c-0.6,0.6-1.2,1.3-1.1,1.7
				C65,58.8,65,58.8,64.9,58.8C64.9,58.8,64.9,58.8,64.9,58.8L64.9,58.8z"/>
		</g>
	</g>
</g>
</svg>
