<?xml version="1.0" encoding="utf-8"?>
<!-- Generator: Adobe Illustrator 27.5.0, SVG Export Plug-In . SVG Version: 6.00 Build 0)  -->
<svg version="1.1" id="Ebene_2_00000052820718482588948120000003173263769357207446_"
	 xmlns="http://www.w3.org/2000/svg" xmlns:xlink="http://www.w3.org/1999/xlink" x="0px" y="0px" viewBox="0 0 166 155.7"
	 style="enable-background:new 0 0 166 155.7;" xml:space="preserve">
<style type="text/css">
	.st0{stroke:#000000;stroke-width:1.66;}
	.st1{fill:#D9E021;}
</style>
<g id="Ebene_1-2">
	<g>
		<path class="st0" d="M21.7,13.1c-2.5,3.7-7.3,10.1-7.8,11.3C10.6,31.5,1.9,52.3,1.1,54c-1.2,2.5,2.5,3.7,2.5,3.7
			c6.4,2.1,5.6,1.6,24.2,4c0.7,0.1,4.5-3.2,6.8-12.7c3.2-13.1,2.5-8.3,2.5-8.3v5c0,8.7,1.3,39.6,1.2,40.9l-1.4,55.8
			c-0.1,7.3,2.7,8.3,3.9,8.3c2.5,0,6.2,3.7,22.3,2.5c6.6-0.5,19.8,0,32.3,1.2c12.6,1.3,11.5-1.2,32.3-1.2c6.7,0,5.1-2.9,6.2-16.1
			c0.4-4.7-1.2-40.6-1.2-61.7c0-14-2.5-38.9-1.2-36.4c3.7,7.4,2.6,16.4,5,21.1c1.2,2.5,13.1,2.5,16.5,1.2l9.5-0.8
			c2.3-0.2,3.2-0.3,2.5-4.1c-2.5-12.4-4.8-17.4-6.4-26.9c-2.3-14.1-6.7-14.7-11-17.8c-7.6-5.5-19.9-7-32.3-10.8
			c-4.1-1.2-3.5,2.4-5,4.6c-1.5,2.2-2.3,4.8-9.9,7.5c-9.7,3.3-12.6,1.4-19.7,1.6c-3.8,0.1-9.9-0.9-13.5-2.3
			C51.6,6.2,58.9-0.3,54.3,1.1c-13,3.8-18.5,3.1-27.1,7.4C23.5,10.3,23.6,10.3,21.7,13.1L21.7,13.1z"/>
		<g>
			<g>
				<path class="st1" d="M98.6,44.6c0,0-0.1,0.1-0.1,0.1c-0.1,0.1-0.4,0.4-0.3,1.2c0.1,0.3,0.2,1,0.6,1.3c0.3,0.2,0.7,0.3,1,0.3
					c0.6,0,2.6-0.8,5.3-1.8c0.1,0,0.7-0.4,0.8-0.4c3.3-1.4,6.7-3.3,7-3.6c0.2-0.2,0.3-0.5-0.1-0.5c-0.5,0-0.9,0.1-1.4,0.3
					c-5.9,2-1.1,0.1-2,0.2c0,0-2.1,0.5-2.1,0.5c-0.4,0.1-4.2,1.3-7.5,1.7C99.2,44,98.8,44.3,98.6,44.6L98.6,44.6z"/>
				<path class="st1" d="M99.8,47.6L99.8,47.6c-0.2,0-0.7-0.1-1-0.3c-0.4-0.3-0.5-1-0.6-1.3v-0.1c-0.2-0.7,0.1-1,0.3-1.2l0,0
					c0,0,0,0,0.1-0.1c0,0,0,0,0,0c0.3-0.4,0.8-0.7,1.3-0.7c2.5-0.3,5.5-1.1,6.8-1.5c0.4-0.1,0.6-0.2,0.7-0.2c0,0,0.3-0.1,0.7-0.2
					c1.3-0.3,1.4-0.3,1.4-0.3c0.1,0,0.1,0,0.2,0c0,0.1-0.1,0.1-0.6,0.4c-0.1,0.1-0.3,0.2-0.4,0.2c0.3,0,1.3-0.4,2.9-0.9
					c0.4-0.1,0.9-0.3,1.4-0.3c0.1,0,0.2,0,0.2,0.1c0.1,0.2-0.1,0.4-0.2,0.4c-0.3,0.4-3.7,2.3-7,3.6c-0.1,0-0.2,0.1-0.4,0.2
					c-0.2,0.1-0.3,0.2-0.4,0.2C102.1,47,100.3,47.6,99.8,47.6L99.8,47.6z M109.5,41.7C109.5,41.7,109.5,41.7,109.5,41.7
					c0,0-0.8,0.2-1.4,0.3c-0.6,0.2-0.7,0.2-0.8,0.2c-0.1,0-0.3,0.1-0.7,0.2c-1.3,0.4-4.2,1.2-6.8,1.5c-0.5,0.1-0.9,0.3-1.2,0.7l0,0
					c0,0,0,0,0,0c0,0,0,0-0.1,0.1l0,0c-0.1,0.1-0.4,0.4-0.3,1.1v0.1c0.1,0.3,0.2,0.9,0.6,1.3c0.3,0.2,0.7,0.3,0.9,0.3l0,0
					c0.5,0,2.3-0.6,5.3-1.8c0.1,0,0.2-0.1,0.4-0.2c0.2-0.1,0.3-0.2,0.4-0.2c3.4-1.4,6.7-3.3,6.9-3.6c0.1-0.2,0.2-0.3,0.1-0.4
					c0,0-0.1-0.1-0.2-0.1c-0.5,0-1,0.1-1.4,0.3c-3,1-3,1-3.1,0.9c0-0.1,0-0.1,0.5-0.4C109.1,41.9,109.4,41.7,109.5,41.7L109.5,41.7z
					"/>
			</g>
			<path d="M102.3,46.7L102.3,46.7c0,0-0.6,0-0.7-1c0,0,0,0,0,0c0,0,0,0,0.1,0C101.8,46.5,102.3,46.6,102.3,46.7
				C102.3,46.6,102.3,46.6,102.3,46.7C102.3,46.6,102.3,46.7,102.3,46.7L102.3,46.7z"/>
			<path class="st1" d="M108.9,43.9C108.9,43.9,108.9,43.9,108.9,43.9c-0.3-0.1-0.5-0.4-0.5-0.5c0,0,0,0,0,0s0.1,0,0.1,0
				C108.5,43.4,108.6,43.7,108.9,43.9C108.9,43.8,108.9,43.8,108.9,43.9C108.9,43.9,108.9,43.9,108.9,43.9z"/>
			<path d="M101.8,46.8c-0.2,0-0.6-0.3-0.8-1.2c0,0,0,0,0,0c0,0,0,0,0.1,0c0.1,0.7,0.4,1,0.6,1.1C101.7,46.7,101.8,46.7,101.8,46.8
				C101.8,46.7,101.8,46.7,101.8,46.8C101.8,46.7,101.9,46.7,101.8,46.8C101.9,46.8,101.9,46.8,101.8,46.8
				C101.8,46.8,101.8,46.8,101.8,46.8z M101.8,46.8L101.8,46.8L101.8,46.8z"/>
			<path d="M102.7,46.5c-0.1,0-0.3,0-0.4-0.4c0,0,0,0,0,0s0.1,0,0.1,0C102.4,46.4,102.7,46.4,102.7,46.5
				C102.7,46.4,102.7,46.4,102.7,46.5C102.7,46.4,102.7,46.5,102.7,46.5C102.7,46.5,102.7,46.5,102.7,46.5L102.7,46.5z"/>
			<path class="st1" d="M94.4,47.2C94.4,47.2,94.4,47.2,94.4,47.2C94.4,47.2,94.4,47.2,94.4,47.2c0.3-0.7,2.9-1.3,3.6-1.5
				c-1.2-0.4-1.9-0.8-2.5-1.1c-0.4-0.3-0.8-0.4-1.2-0.5c0,0,0,0,0,0c0,0,0,0,0.1,0c0.4,0,0.8,0.2,1.2,0.5c0.5,0.3,1.3,0.7,2.6,1.2
				c0,0,0,0,0,0c0,0,0,0,0,0C97.7,45.9,94.8,46.6,94.4,47.2C94.5,47.2,94.5,47.2,94.4,47.2z M98.2,45.8L98.2,45.8L98.2,45.8z"/>
			<path class="st1" d="M96.2,48.7C96.2,48.7,96.2,48.7,96.2,48.7C96.2,48.7,96.2,48.7,96.2,48.7c0.1-0.4,0.4-0.6,0.7-1
				c0.4-0.4,0.9-0.9,1.2-1.8c-0.1,0-0.3,0.1-0.4,0.2c-0.8,0.3-2.2,0.8-2.7,1.8c0,0,0,0-0.1,0s0,0,0-0.1c0.6-1,2-1.5,2.8-1.8
				c0.2-0.1,0.4-0.1,0.5-0.2c0,0,0,0,0.1,0h0v0c0,0,0,0,0,0c-0.3,1-0.8,1.5-1.2,1.9C96.6,48.1,96.4,48.4,96.2,48.7
				C96.3,48.7,96.2,48.7,96.2,48.7L96.2,48.7z"/>
			<path class="st1" d="M98.1,45.8C98.1,45.8,98.1,45.8,98.1,45.8c-3-0.5-4-0.3-4-0.3c0,0,0,0-0.1,0c0,0,0,0,0,0
				C94.2,45.5,95.1,45.2,98.1,45.8c0-0.1,0-0.1,0-0.1c-0.1-0.1-0.2-0.3-0.4-0.4c-0.5-0.5-1.2-1.1-1-1.6c0.2-0.5-0.2-0.8-0.2-0.8
				c0,0,0,0,0-0.1s0,0,0.1,0c0,0,0.4,0.4,0.2,0.9c-0.2,0.5,0.5,1.1,1,1.5c0.2,0.2,0.4,0.3,0.4,0.5C98.2,45.7,98.2,45.8,98.1,45.8
				C98.2,45.8,98.1,45.9,98.1,45.8z"/>
			<path class="st1" d="M94.4,46.3c-0.1,0-0.2,0-0.2,0c0,0,0,0,0,0s0,0,0,0c0,0,0.8,0.1,1.3-0.2c0.4-0.2,2.6-0.3,2.7-0.2h0v0
				c0,0,0,0,0,0c0,0,0,0,0,0c-0.1,0-2.2,0-2.6,0.2C95.1,46.3,94.6,46.3,94.4,46.3L94.4,46.3z"/>
			<path class="st1" d="M109.2,43.8L109.2,43.8C109.2,43.8,109.1,43.7,109.2,43.8c-0.1,0-0.1-0.1-0.1-0.1c-0.1-0.1-0.3-0.2-0.3-0.3
				c0,0,0,0,0,0c0,0,0,0,0.1,0c0,0.1,0.2,0.2,0.3,0.3C109.2,43.6,109.2,43.7,109.2,43.8C109.2,43.7,109.2,43.7,109.2,43.8
				C109.2,43.7,109.2,43.8,109.2,43.8L109.2,43.8z M109.1,43.7L109.1,43.7L109.1,43.7z"/>
			<path class="st1" d="M99.7,47.3L99.7,47.3C99.7,47.3,99.7,47.3,99.7,47.3c-0.2,0-0.8-0.2-0.8-1c0,0,0,0,0,0c0,0,0,0,0,0
				C99,47,99.5,47.2,99.7,47.3C99.7,47.2,99.7,47.3,99.7,47.3C99.7,47.3,99.7,47.3,99.7,47.3L99.7,47.3z"/>
			<path class="st1" d="M99.7,44.5C99.7,44.5,99.6,44.5,99.7,44.5c-0.1-0.4,0.1-0.5,0.1-0.5c0,0,0.1,0,0.1,0c0,0,0,0,0,0
				C99.8,44.1,99.7,44.1,99.7,44.5C99.7,44.5,99.7,44.5,99.7,44.5L99.7,44.5L99.7,44.5z"/>
			<path class="st1" d="M95.3,48.7C95.3,48.7,95.2,48.7,95.3,48.7c-0.1-0.2,0.2-0.5,0.6-0.9c0.2-0.2,0.5-0.5,0.5-0.6
				c0.1-0.5,1.7-1.4,1.8-1.5c0,0,0.1,0,0.1,0c0,0,0,0,0,0.1c-0.5,0.3-1.7,1-1.8,1.4c0,0.2-0.2,0.4-0.5,0.6
				C95.6,48.2,95.3,48.5,95.3,48.7C95.3,48.7,95.3,48.7,95.3,48.7L95.3,48.7L95.3,48.7z"/>
		</g>
	</g>
</g>
</svg>
