<?xml version="1.0" encoding="UTF-8"?>
<svg id="OriginalMockup" xmlns="http://www.w3.org/2000/svg" xmlns:xlink="http://www.w3.org/1999/xlink" version="1.1" viewBox="0 0 352.9 290.1">
  <!-- Generator: Adobe Illustrator 30.0.0, SVG Export Plug-In . SVG Version: 2.1.1 Build 123)  -->
  <defs>
    <style>
      .st0 {
        mask: url(#mask);
      }

      .st1 {
        fill: url(#Unbenannter_Verlauf);
      }

      .st2 {
        fill: url(#Unbenannter_Verlauf_2);
      }

      .st3 {
        fill: #fcf8cd;
        stroke: #000;
        stroke-miterlimit: 10;
        stroke-width: .5px;
      }

      .st4 {
        fill: #fff;
      }
    </style>
    <mask id="mask" x="-.2" y="0" width="353.4" height="290.3" maskUnits="userSpaceOnUse">
      <g id="screen-cutout">
        <rect class="st4" width="352.9" height="290.1"/>
        <rect x="10.8" y="10.3" width="331.3" height="185.1" rx="2" ry="2"/>
      </g>
    </mask>
    <linearGradient id="Unbenannter_Verlauf" data-name="Unbenannter Verlauf" x1="0" y1="171.4" x2="352.9" y2="171.4" gradientTransform="translate(0 292) scale(1 -1)" gradientUnits="userSpaceOnUse">
      <stop offset="0" stop-color="#020202"/>
      <stop offset="1" stop-color="#000"/>
    </linearGradient>
    <linearGradient id="Unbenannter_Verlauf_2" data-name="Unbenannter Verlauf 2" x1="-333.2" y1="528.6" x2="-332.2" y2="527.6" gradientTransform="translate(63067.8 92432.2) scale(189.2 -174.8)" gradientUnits="userSpaceOnUse">
      <stop offset="0" stop-color="#fff" stop-opacity=".1"/>
      <stop offset="1" stop-color="#fff" stop-opacity="0"/>
    </linearGradient>
  </defs>
  <g class="st0">
    <g>
      <path class="st3" d="M222.5,268.7h-.9l-5.6-59h-70.2l-5.6,59h-.9l-12.8,13c-3.1,3.1-.9,8.4,3.5,8.4h101.9c4.4,0,6.6-5.3,3.5-8.4l-12.8-13h0Z"/>
      <rect class="st1" width="352.9" height="241.1" rx="8.7" ry="8.7"/>
      <path class="st3" d="M8.7,241.1h335.4c4.8,0,8.7-3.9,8.7-8.7v-27.7H0v27.7c0,4.8,3.9,8.7,8.7,8.7Z"/>
    </g>
  </g>
  <path class="st2" d="M10.8,10.3h189.2L10.8,185.1V10.3Z" pointer-events="none"/>
</svg>